G04 MADE WITH FRITZING*
G04 WWW.FRITZING.ORG*
G04 DOUBLE SIDED*
G04 HOLES PLATED*
G04 CONTOUR ON CENTER OF CONTOUR VECTOR*
%ASAXBY*%
%FSLAX23Y23*%
%MOIN*%
%OFA0B0*%
%SFA1.0B1.0*%
%ADD10R,3.858270X2.362200X3.842270X2.346200*%
%ADD11C,0.008000*%
%ADD12R,0.001000X0.001000*%
%LNSILK0*%
G90*
G70*
G54D11*
X4Y2358D02*
X3854Y2358D01*
X3854Y4D01*
X4Y4D01*
X4Y2358D01*
D02*
G54D12*
X1652Y288D02*
X1729Y288D01*
X1651Y287D02*
X1731Y287D01*
X1649Y286D02*
X1732Y286D01*
X1648Y285D02*
X1733Y285D01*
X1648Y284D02*
X1734Y284D01*
X1647Y283D02*
X1734Y283D01*
X1647Y282D02*
X1735Y282D01*
X1647Y281D02*
X1735Y281D01*
X1647Y280D02*
X1735Y280D01*
X1647Y279D02*
X1735Y279D01*
X1647Y278D02*
X1735Y278D01*
X1647Y277D02*
X1735Y277D01*
X1647Y276D02*
X1735Y276D01*
X1647Y275D02*
X1735Y275D01*
X1647Y274D02*
X1735Y274D01*
X1647Y273D02*
X1735Y273D01*
X1647Y272D02*
X1735Y272D01*
X1647Y271D02*
X1735Y271D01*
X1647Y270D02*
X1735Y270D01*
X1647Y269D02*
X1735Y269D01*
X1647Y268D02*
X1734Y268D01*
X1648Y267D02*
X1734Y267D01*
X1649Y266D02*
X1733Y266D01*
X1650Y265D02*
X1732Y265D01*
X1651Y264D02*
X1731Y264D01*
X1654Y263D02*
X1728Y263D01*
D02*
G04 End of Silk0*
M02*