G04 MADE WITH FRITZING*
G04 WWW.FRITZING.ORG*
G04 DOUBLE SIDED*
G04 HOLES PLATED*
G04 CONTOUR ON CENTER OF CONTOUR VECTOR*
%ASAXBY*%
%FSLAX23Y23*%
%MOIN*%
%OFA0B0*%
%SFA1.0B1.0*%
%ADD10C,0.078000*%
%ADD11C,0.075000*%
%ADD12C,0.082000*%
%ADD13C,0.079370*%
%ADD14C,0.075433*%
%ADD15R,0.078000X0.078000*%
%ADD16R,0.075000X0.075000*%
%ADD17R,0.082000X0.082000*%
%ADD18R,0.079370X0.079370*%
%ADD19C,0.032000*%
%ADD20C,0.024000*%
%ADD21C,0.048000*%
%LNCOPPER0*%
G90*
G70*
G54D10*
X371Y1586D03*
X271Y1586D03*
X171Y1586D03*
X2171Y484D03*
X2171Y1384D03*
X2271Y484D03*
X2271Y1384D03*
X2371Y484D03*
X2371Y1384D03*
X2471Y484D03*
X2471Y1384D03*
X2571Y484D03*
X2571Y1384D03*
X2671Y484D03*
X2671Y1384D03*
X2771Y484D03*
X2771Y1384D03*
X2871Y484D03*
X2871Y1384D03*
X2971Y484D03*
X2971Y1384D03*
X3071Y484D03*
X3071Y1384D03*
X3171Y484D03*
X3171Y1384D03*
X3271Y484D03*
X3271Y1384D03*
X3371Y484D03*
X3371Y1384D03*
G54D11*
X271Y1936D03*
X171Y1936D03*
G54D12*
X471Y936D03*
X471Y638D03*
G54D11*
X171Y536D03*
X171Y1036D03*
X271Y1286D03*
X371Y1286D03*
X1521Y2084D03*
X1521Y1684D03*
X3671Y1934D03*
X3671Y1534D03*
X1721Y1784D03*
X1721Y1384D03*
X1521Y1334D03*
X1521Y934D03*
G54D13*
X3671Y284D03*
X3571Y284D03*
X3471Y284D03*
X3371Y284D03*
X3271Y284D03*
X3071Y284D03*
X2971Y284D03*
X2871Y284D03*
X2771Y284D03*
X2671Y284D03*
X2571Y284D03*
X2471Y284D03*
X2371Y284D03*
X2121Y284D03*
X2021Y284D03*
X1921Y284D03*
X1121Y284D03*
X1021Y284D03*
X921Y284D03*
X1621Y284D03*
X1521Y284D03*
X1421Y284D03*
X2421Y2084D03*
X2521Y2084D03*
X2621Y2084D03*
X2721Y2084D03*
X2821Y2084D03*
X2921Y2084D03*
X3021Y2084D03*
X3121Y2084D03*
X3221Y2084D03*
X3321Y2084D03*
X3421Y2084D03*
X3521Y2084D03*
X1871Y2084D03*
X1971Y2084D03*
X2071Y2084D03*
X2171Y2084D03*
X822Y2084D03*
X922Y2084D03*
X1022Y2084D03*
X1122Y2084D03*
X371Y336D03*
X271Y336D03*
G54D14*
X1121Y984D03*
X1121Y884D03*
X1121Y784D03*
G54D15*
X371Y1586D03*
X2172Y485D03*
G54D16*
X271Y1936D03*
G54D17*
X471Y937D03*
G54D16*
X271Y1286D03*
G54D18*
X3671Y284D03*
X3071Y284D03*
X2121Y284D03*
X1121Y284D03*
X1621Y284D03*
X2421Y2084D03*
X1871Y2084D03*
X822Y2084D03*
X371Y336D03*
G54D19*
X3671Y484D02*
X3407Y484D01*
D02*
X3671Y320D02*
X3671Y484D01*
D02*
X2171Y1420D02*
X2171Y2048D01*
G54D20*
D02*
X2271Y1414D02*
X2271Y1736D01*
D02*
X2271Y1736D02*
X2519Y1732D01*
D02*
X2519Y1732D02*
X2706Y2057D01*
D02*
X3007Y2056D02*
X2685Y1411D01*
G54D19*
D02*
X2522Y2120D02*
X2523Y2284D01*
D02*
X2523Y2284D02*
X1519Y2284D01*
D02*
X1519Y2284D02*
X1521Y2118D01*
D02*
X2008Y2084D02*
X2035Y2084D01*
G54D20*
D02*
X2122Y248D02*
X2123Y184D01*
D02*
X3171Y184D02*
X3171Y336D01*
D02*
X3171Y336D02*
X3254Y459D01*
D02*
X2123Y184D02*
X3171Y184D01*
G54D19*
D02*
X3508Y284D02*
X3535Y284D01*
D02*
X1721Y1818D02*
X1723Y2184D01*
D02*
X1723Y2184D02*
X2419Y2184D01*
D02*
X2419Y2184D02*
X2420Y2120D01*
D02*
X2108Y2084D02*
X2135Y2084D01*
G54D20*
D02*
X2806Y2057D02*
X2571Y1632D01*
D02*
X2571Y1632D02*
X2371Y1632D01*
D02*
X2371Y1632D02*
X2371Y1414D01*
G54D19*
D02*
X3308Y284D02*
X3335Y284D01*
D02*
X3408Y284D02*
X3435Y284D01*
D02*
X1521Y1368D02*
X1521Y1650D01*
D02*
X2622Y2120D02*
X2623Y2184D01*
D02*
X2623Y2184D02*
X3671Y2184D01*
D02*
X3671Y2184D02*
X3671Y1968D01*
G54D20*
D02*
X2623Y1532D02*
X2471Y1532D01*
D02*
X2907Y2057D02*
X2623Y1532D01*
D02*
X2471Y1532D02*
X2471Y1414D01*
G54D19*
D02*
X1719Y1284D02*
X2571Y1283D01*
D02*
X1721Y1350D02*
X1719Y1284D01*
D02*
X2571Y1283D02*
X2571Y1348D01*
D02*
X2171Y1420D02*
X2171Y1584D01*
D02*
X2171Y1584D02*
X1523Y1584D01*
D02*
X1523Y1584D02*
X1521Y1368D01*
D02*
X1519Y836D02*
X1519Y384D01*
D02*
X1923Y384D02*
X1922Y320D01*
D02*
X1519Y384D02*
X1923Y384D01*
D02*
X1519Y836D02*
X1521Y900D01*
D02*
X1519Y836D02*
X3371Y836D01*
D02*
X3371Y836D02*
X3371Y1348D01*
D02*
X3407Y484D02*
X3671Y484D01*
D02*
X3671Y484D02*
X3671Y1500D01*
D02*
X3608Y284D02*
X3635Y284D01*
D02*
X1908Y2084D02*
X1935Y2084D01*
D02*
X2021Y320D02*
X2023Y732D01*
D02*
X2023Y732D02*
X3171Y732D01*
D02*
X3171Y732D02*
X3171Y520D01*
G54D21*
D02*
X229Y334D02*
X171Y332D01*
D02*
X171Y332D02*
X171Y496D01*
D02*
X471Y332D02*
X413Y334D01*
D02*
X471Y595D02*
X471Y332D01*
D02*
X171Y1284D02*
X171Y1075D01*
D02*
X231Y1285D02*
X171Y1284D01*
D02*
X471Y1284D02*
X411Y1285D01*
D02*
X471Y979D02*
X471Y1284D01*
D02*
X271Y1325D02*
X271Y1545D01*
D02*
X371Y1325D02*
X371Y1545D01*
D02*
X271Y1627D02*
X271Y1896D01*
D02*
X171Y2084D02*
X171Y1975D01*
D02*
X780Y2084D02*
X171Y2084D01*
D02*
X1123Y1936D02*
X1122Y2042D01*
D02*
X311Y1936D02*
X1123Y1936D01*
D02*
X171Y1896D02*
X171Y1627D01*
G54D19*
D02*
X3271Y84D02*
X3271Y248D01*
D02*
X1623Y84D02*
X3271Y84D01*
D02*
X1621Y253D02*
X1623Y84D01*
D02*
X1623Y84D02*
X1123Y84D01*
D02*
X1123Y84D02*
X1121Y253D01*
D02*
X1621Y253D02*
X1623Y84D01*
G54D20*
D02*
X1323Y184D02*
X1223Y384D01*
D02*
X1223Y384D02*
X1023Y384D01*
D02*
X1471Y184D02*
X1323Y184D01*
D02*
X1023Y384D02*
X1022Y315D01*
D02*
X1507Y256D02*
X1471Y184D01*
D02*
X1521Y315D02*
X1521Y905D01*
G54D19*
D02*
X923Y484D02*
X1371Y484D01*
D02*
X1371Y484D02*
X1371Y1332D01*
D02*
X1371Y1332D02*
X1493Y1334D01*
D02*
X921Y315D02*
X923Y484D01*
D02*
X1371Y1336D02*
X1493Y1334D01*
D02*
X1371Y484D02*
X1371Y1336D01*
D02*
X1371Y332D02*
X1371Y484D01*
D02*
X1399Y305D02*
X1371Y332D01*
D02*
X1371Y1336D02*
X1371Y984D01*
D02*
X1371Y984D02*
X1147Y984D01*
D02*
X1493Y1334D02*
X1371Y1336D01*
D02*
X1123Y84D02*
X723Y84D01*
D02*
X1123Y684D02*
X1122Y758D01*
D02*
X719Y684D02*
X1123Y684D01*
D02*
X723Y84D02*
X719Y684D01*
D02*
X1121Y253D02*
X1123Y84D01*
G54D20*
D02*
X1023Y184D02*
X823Y184D01*
D02*
X823Y584D02*
X1223Y584D01*
D02*
X823Y184D02*
X823Y584D01*
D02*
X1022Y253D02*
X1023Y184D01*
D02*
X1223Y584D02*
X1223Y884D01*
D02*
X1223Y884D02*
X1147Y884D01*
D02*
X3071Y315D02*
X3071Y454D01*
D02*
X2971Y315D02*
X2971Y454D01*
D02*
X2871Y315D02*
X2871Y454D01*
D02*
X2771Y315D02*
X2771Y454D01*
D02*
X2671Y315D02*
X2671Y454D01*
D02*
X2571Y315D02*
X2571Y454D01*
D02*
X2471Y315D02*
X2471Y454D01*
D02*
X2371Y315D02*
X2371Y454D01*
D02*
X3107Y2056D02*
X2785Y1411D01*
D02*
X3207Y2056D02*
X2885Y1411D01*
D02*
X3407Y2056D02*
X3085Y1411D01*
D02*
X3511Y2055D02*
X3281Y1412D01*
G54D19*
D02*
X1052Y2084D02*
X1091Y2084D01*
D02*
X891Y2084D02*
X852Y2084D01*
G54D20*
D02*
X3307Y2056D02*
X2985Y1411D01*
G04 End of Copper0*
M02*