G04 MADE WITH FRITZING*
G04 WWW.FRITZING.ORG*
G04 DOUBLE SIDED*
G04 HOLES PLATED*
G04 CONTOUR ON CENTER OF CONTOUR VECTOR*
%ASAXBY*%
%FSLAX23Y23*%
%MOIN*%
%OFA0B0*%
%SFA1.0B1.0*%
%ADD10C,0.078000*%
%ADD11C,0.075000*%
%ADD12C,0.082000*%
%ADD13C,0.079370*%
%ADD14C,0.075433*%
%ADD15R,0.078000X0.078000*%
%ADD16R,0.075000X0.075000*%
%ADD17R,0.082000X0.082000*%
%ADD18R,0.079370X0.079370*%
%LNCOPPER1*%
G90*
G70*
G54D10*
X371Y1586D03*
X271Y1586D03*
X171Y1586D03*
X2171Y484D03*
X2171Y1384D03*
X2271Y484D03*
X2271Y1384D03*
X2371Y484D03*
X2371Y1384D03*
X2471Y484D03*
X2471Y1384D03*
X2571Y484D03*
X2571Y1384D03*
X2671Y484D03*
X2671Y1384D03*
X2771Y484D03*
X2771Y1384D03*
X2871Y484D03*
X2871Y1384D03*
X2971Y484D03*
X2971Y1384D03*
X3071Y484D03*
X3071Y1384D03*
X3171Y484D03*
X3171Y1384D03*
X3271Y484D03*
X3271Y1384D03*
X3371Y484D03*
X3371Y1384D03*
G54D11*
X271Y1936D03*
X171Y1936D03*
G54D12*
X471Y936D03*
X471Y638D03*
G54D11*
X171Y536D03*
X171Y1036D03*
X271Y1286D03*
X371Y1286D03*
X1521Y2084D03*
X1521Y1684D03*
X3671Y1934D03*
X3671Y1534D03*
X1721Y1784D03*
X1721Y1384D03*
X1521Y1334D03*
X1521Y934D03*
G54D13*
X3671Y284D03*
X3571Y284D03*
X3471Y284D03*
X3371Y284D03*
X3271Y284D03*
X2121Y284D03*
X2021Y284D03*
X1921Y284D03*
X1871Y2084D03*
X1971Y2084D03*
X2071Y2084D03*
X2171Y2084D03*
X822Y2084D03*
X922Y2084D03*
X1022Y2084D03*
X1122Y2084D03*
X371Y336D03*
X271Y336D03*
X1621Y284D03*
X1521Y284D03*
X1421Y284D03*
X1121Y284D03*
X1021Y284D03*
X921Y284D03*
X3071Y284D03*
X2971Y284D03*
X2871Y284D03*
X2771Y284D03*
X2671Y284D03*
X2571Y284D03*
X2471Y284D03*
X2371Y284D03*
X2421Y2084D03*
X2521Y2084D03*
X2621Y2084D03*
X2721Y2084D03*
X2821Y2084D03*
X2921Y2084D03*
X3021Y2084D03*
X3121Y2084D03*
X3221Y2084D03*
X3321Y2084D03*
X3421Y2084D03*
X3521Y2084D03*
G54D14*
X1121Y984D03*
X1121Y884D03*
X1121Y784D03*
G54D15*
X371Y1586D03*
X2172Y485D03*
G54D16*
X271Y1936D03*
G54D17*
X471Y937D03*
G54D16*
X271Y1286D03*
G54D18*
X3671Y284D03*
X2121Y284D03*
X1871Y2084D03*
X822Y2084D03*
X371Y336D03*
X1621Y284D03*
X1121Y284D03*
X3071Y284D03*
X2421Y2084D03*
G04 End of Copper1*
M02*