G04 MADE WITH FRITZING*
G04 WWW.FRITZING.ORG*
G04 DOUBLE SIDED*
G04 HOLES PLATED*
G04 CONTOUR ON CENTER OF CONTOUR VECTOR*
%ASAXBY*%
%FSLAX23Y23*%
%MOIN*%
%OFA0B0*%
%SFA1.0B1.0*%
%ADD10R,3.937010X2.362200X3.921010X2.346200*%
%ADD11C,0.008000*%
%ADD12R,0.001000X0.001000*%
%LNSILK0*%
G90*
G70*
G54D11*
X4Y2358D02*
X3933Y2358D01*
X3933Y4D01*
X4Y4D01*
X4Y2358D01*
D02*
G54D12*
X3289Y2333D02*
X3293Y2333D01*
X3337Y2333D02*
X3341Y2333D01*
X3288Y2332D02*
X3294Y2332D01*
X3336Y2332D02*
X3343Y2332D01*
X684Y2331D02*
X728Y2331D01*
X3287Y2331D02*
X3295Y2331D01*
X3335Y2331D02*
X3343Y2331D01*
X682Y2330D02*
X728Y2330D01*
X3286Y2330D02*
X3296Y2330D01*
X3334Y2330D02*
X3344Y2330D01*
X682Y2329D02*
X728Y2329D01*
X2593Y2329D02*
X2637Y2329D01*
X2724Y2329D02*
X2729Y2329D01*
X2848Y2329D02*
X2853Y2329D01*
X2900Y2329D02*
X2953Y2329D01*
X3011Y2329D02*
X3052Y2329D01*
X3286Y2329D02*
X3296Y2329D01*
X3334Y2329D02*
X3344Y2329D01*
X3506Y2329D02*
X3552Y2329D01*
X681Y2328D02*
X728Y2328D01*
X2591Y2328D02*
X2639Y2328D01*
X2722Y2328D02*
X2730Y2328D01*
X2846Y2328D02*
X2854Y2328D01*
X2898Y2328D02*
X2954Y2328D01*
X3008Y2328D02*
X3052Y2328D01*
X3285Y2328D02*
X3297Y2328D01*
X3333Y2328D02*
X3345Y2328D01*
X3503Y2328D02*
X3552Y2328D01*
X681Y2327D02*
X728Y2327D01*
X919Y2327D02*
X926Y2327D01*
X2590Y2327D02*
X2640Y2327D01*
X2722Y2327D02*
X2731Y2327D01*
X2846Y2327D02*
X2855Y2327D01*
X2898Y2327D02*
X2955Y2327D01*
X3006Y2327D02*
X3052Y2327D01*
X3285Y2327D02*
X3297Y2327D01*
X3333Y2327D02*
X3345Y2327D01*
X3501Y2327D02*
X3552Y2327D01*
X680Y2326D02*
X728Y2326D01*
X918Y2326D02*
X927Y2326D01*
X2589Y2326D02*
X2641Y2326D01*
X2721Y2326D02*
X2731Y2326D01*
X2845Y2326D02*
X2855Y2326D01*
X2897Y2326D02*
X2955Y2326D01*
X3004Y2326D02*
X3052Y2326D01*
X3285Y2326D02*
X3297Y2326D01*
X3333Y2326D02*
X3345Y2326D01*
X3500Y2326D02*
X3552Y2326D01*
X681Y2325D02*
X728Y2325D01*
X917Y2325D02*
X928Y2325D01*
X2588Y2325D02*
X2642Y2325D01*
X2721Y2325D02*
X2732Y2325D01*
X2845Y2325D02*
X2856Y2325D01*
X2897Y2325D02*
X2956Y2325D01*
X3003Y2325D02*
X3052Y2325D01*
X3285Y2325D02*
X3297Y2325D01*
X3333Y2325D02*
X3345Y2325D01*
X3499Y2325D02*
X3552Y2325D01*
X681Y2324D02*
X728Y2324D01*
X916Y2324D02*
X929Y2324D01*
X2587Y2324D02*
X2643Y2324D01*
X2720Y2324D02*
X2732Y2324D01*
X2845Y2324D02*
X2856Y2324D01*
X2896Y2324D02*
X2956Y2324D01*
X3002Y2324D02*
X3052Y2324D01*
X3285Y2324D02*
X3297Y2324D01*
X3333Y2324D02*
X3345Y2324D01*
X3498Y2324D02*
X3552Y2324D01*
X681Y2323D02*
X728Y2323D01*
X915Y2323D02*
X930Y2323D01*
X2587Y2323D02*
X2643Y2323D01*
X2720Y2323D02*
X2732Y2323D01*
X2845Y2323D02*
X2856Y2323D01*
X2897Y2323D02*
X2956Y2323D01*
X3000Y2323D02*
X3052Y2323D01*
X3285Y2323D02*
X3297Y2323D01*
X3333Y2323D02*
X3345Y2323D01*
X3497Y2323D02*
X3552Y2323D01*
X682Y2322D02*
X728Y2322D01*
X915Y2322D02*
X930Y2322D01*
X2586Y2322D02*
X2644Y2322D01*
X2720Y2322D02*
X2733Y2322D01*
X2845Y2322D02*
X2856Y2322D01*
X2897Y2322D02*
X2956Y2322D01*
X3000Y2322D02*
X3052Y2322D01*
X3285Y2322D02*
X3297Y2322D01*
X3333Y2322D02*
X3345Y2322D01*
X3496Y2322D02*
X3552Y2322D01*
X683Y2321D02*
X728Y2321D01*
X914Y2321D02*
X931Y2321D01*
X2586Y2321D02*
X2644Y2321D01*
X2720Y2321D02*
X2733Y2321D01*
X2845Y2321D02*
X2856Y2321D01*
X2897Y2321D02*
X2955Y2321D01*
X2999Y2321D02*
X3052Y2321D01*
X3285Y2321D02*
X3297Y2321D01*
X3333Y2321D02*
X3345Y2321D01*
X3495Y2321D02*
X3552Y2321D01*
X685Y2320D02*
X728Y2320D01*
X914Y2320D02*
X931Y2320D01*
X2586Y2320D02*
X2644Y2320D01*
X2719Y2320D02*
X2733Y2320D01*
X2845Y2320D02*
X2856Y2320D01*
X2898Y2320D02*
X2954Y2320D01*
X2998Y2320D02*
X3052Y2320D01*
X3285Y2320D02*
X3297Y2320D01*
X3333Y2320D02*
X3345Y2320D01*
X3495Y2320D02*
X3552Y2320D01*
X717Y2319D02*
X728Y2319D01*
X914Y2319D02*
X931Y2319D01*
X2585Y2319D02*
X2645Y2319D01*
X2719Y2319D02*
X2733Y2319D01*
X2845Y2319D02*
X2856Y2319D01*
X2899Y2319D02*
X2953Y2319D01*
X2997Y2319D02*
X3052Y2319D01*
X3285Y2319D02*
X3297Y2319D01*
X3333Y2319D02*
X3345Y2319D01*
X3494Y2319D02*
X3552Y2319D01*
X717Y2318D02*
X728Y2318D01*
X914Y2318D02*
X931Y2318D01*
X2585Y2318D02*
X2645Y2318D01*
X2719Y2318D02*
X2734Y2318D01*
X2845Y2318D02*
X2856Y2318D01*
X2901Y2318D02*
X2952Y2318D01*
X2996Y2318D02*
X3052Y2318D01*
X3285Y2318D02*
X3297Y2318D01*
X3333Y2318D02*
X3345Y2318D01*
X3494Y2318D02*
X3552Y2318D01*
X717Y2317D02*
X728Y2317D01*
X914Y2317D02*
X931Y2317D01*
X2585Y2317D02*
X2597Y2317D01*
X2633Y2317D02*
X2645Y2317D01*
X2718Y2317D02*
X2734Y2317D01*
X2845Y2317D02*
X2856Y2317D01*
X2921Y2317D02*
X2932Y2317D01*
X2996Y2317D02*
X3013Y2317D01*
X3041Y2317D02*
X3052Y2317D01*
X3285Y2317D02*
X3297Y2317D01*
X3333Y2317D02*
X3345Y2317D01*
X3494Y2317D02*
X3508Y2317D01*
X3541Y2317D02*
X3552Y2317D01*
X717Y2316D02*
X728Y2316D01*
X914Y2316D02*
X931Y2316D01*
X2585Y2316D02*
X2597Y2316D01*
X2633Y2316D02*
X2645Y2316D01*
X2718Y2316D02*
X2734Y2316D01*
X2845Y2316D02*
X2856Y2316D01*
X2921Y2316D02*
X2932Y2316D01*
X2995Y2316D02*
X3010Y2316D01*
X3041Y2316D02*
X3052Y2316D01*
X3285Y2316D02*
X3297Y2316D01*
X3333Y2316D02*
X3345Y2316D01*
X3493Y2316D02*
X3506Y2316D01*
X3541Y2316D02*
X3552Y2316D01*
X717Y2315D02*
X728Y2315D01*
X914Y2315D02*
X931Y2315D01*
X2585Y2315D02*
X2597Y2315D01*
X2633Y2315D02*
X2645Y2315D01*
X2718Y2315D02*
X2735Y2315D01*
X2845Y2315D02*
X2856Y2315D01*
X2921Y2315D02*
X2932Y2315D01*
X2995Y2315D02*
X3009Y2315D01*
X3041Y2315D02*
X3052Y2315D01*
X3285Y2315D02*
X3297Y2315D01*
X3333Y2315D02*
X3345Y2315D01*
X3493Y2315D02*
X3505Y2315D01*
X3541Y2315D02*
X3552Y2315D01*
X717Y2314D02*
X728Y2314D01*
X914Y2314D02*
X931Y2314D01*
X2585Y2314D02*
X2597Y2314D01*
X2633Y2314D02*
X2645Y2314D01*
X2717Y2314D02*
X2735Y2314D01*
X2845Y2314D02*
X2856Y2314D01*
X2921Y2314D02*
X2932Y2314D01*
X2994Y2314D02*
X3008Y2314D01*
X3041Y2314D02*
X3052Y2314D01*
X3285Y2314D02*
X3297Y2314D01*
X3333Y2314D02*
X3345Y2314D01*
X3493Y2314D02*
X3505Y2314D01*
X3541Y2314D02*
X3552Y2314D01*
X717Y2313D02*
X728Y2313D01*
X914Y2313D02*
X931Y2313D01*
X2585Y2313D02*
X2597Y2313D01*
X2633Y2313D02*
X2645Y2313D01*
X2717Y2313D02*
X2735Y2313D01*
X2845Y2313D02*
X2856Y2313D01*
X2921Y2313D02*
X2932Y2313D01*
X2994Y2313D02*
X3007Y2313D01*
X3041Y2313D02*
X3052Y2313D01*
X3285Y2313D02*
X3297Y2313D01*
X3333Y2313D02*
X3345Y2313D01*
X3493Y2313D02*
X3504Y2313D01*
X3541Y2313D02*
X3552Y2313D01*
X717Y2312D02*
X728Y2312D01*
X914Y2312D02*
X931Y2312D01*
X2585Y2312D02*
X2597Y2312D01*
X2633Y2312D02*
X2645Y2312D01*
X2717Y2312D02*
X2736Y2312D01*
X2845Y2312D02*
X2856Y2312D01*
X2921Y2312D02*
X2932Y2312D01*
X2994Y2312D02*
X3006Y2312D01*
X3041Y2312D02*
X3052Y2312D01*
X3285Y2312D02*
X3297Y2312D01*
X3333Y2312D02*
X3345Y2312D01*
X3493Y2312D02*
X3504Y2312D01*
X3541Y2312D02*
X3552Y2312D01*
X717Y2311D02*
X728Y2311D01*
X914Y2311D02*
X931Y2311D01*
X2585Y2311D02*
X2597Y2311D01*
X2633Y2311D02*
X2645Y2311D01*
X2717Y2311D02*
X2736Y2311D01*
X2845Y2311D02*
X2856Y2311D01*
X2921Y2311D02*
X2932Y2311D01*
X2993Y2311D02*
X3005Y2311D01*
X3041Y2311D02*
X3052Y2311D01*
X3285Y2311D02*
X3297Y2311D01*
X3333Y2311D02*
X3345Y2311D01*
X3493Y2311D02*
X3504Y2311D01*
X3541Y2311D02*
X3552Y2311D01*
X717Y2310D02*
X728Y2310D01*
X914Y2310D02*
X931Y2310D01*
X2585Y2310D02*
X2597Y2310D01*
X2633Y2310D02*
X2645Y2310D01*
X2716Y2310D02*
X2736Y2310D01*
X2845Y2310D02*
X2856Y2310D01*
X2921Y2310D02*
X2932Y2310D01*
X2993Y2310D02*
X3005Y2310D01*
X3041Y2310D02*
X3052Y2310D01*
X3285Y2310D02*
X3297Y2310D01*
X3333Y2310D02*
X3345Y2310D01*
X3493Y2310D02*
X3504Y2310D01*
X3541Y2310D02*
X3552Y2310D01*
X717Y2309D02*
X728Y2309D01*
X914Y2309D02*
X931Y2309D01*
X2585Y2309D02*
X2597Y2309D01*
X2633Y2309D02*
X2645Y2309D01*
X2716Y2309D02*
X2736Y2309D01*
X2845Y2309D02*
X2856Y2309D01*
X2921Y2309D02*
X2932Y2309D01*
X2993Y2309D02*
X3005Y2309D01*
X3041Y2309D02*
X3052Y2309D01*
X3285Y2309D02*
X3297Y2309D01*
X3333Y2309D02*
X3345Y2309D01*
X3493Y2309D02*
X3504Y2309D01*
X3541Y2309D02*
X3552Y2309D01*
X717Y2308D02*
X728Y2308D01*
X914Y2308D02*
X931Y2308D01*
X2585Y2308D02*
X2597Y2308D01*
X2633Y2308D02*
X2645Y2308D01*
X2716Y2308D02*
X2737Y2308D01*
X2845Y2308D02*
X2856Y2308D01*
X2921Y2308D02*
X2932Y2308D01*
X2993Y2308D02*
X3004Y2308D01*
X3041Y2308D02*
X3052Y2308D01*
X3285Y2308D02*
X3297Y2308D01*
X3333Y2308D02*
X3345Y2308D01*
X3493Y2308D02*
X3504Y2308D01*
X3541Y2308D02*
X3552Y2308D01*
X717Y2307D02*
X728Y2307D01*
X914Y2307D02*
X931Y2307D01*
X2585Y2307D02*
X2597Y2307D01*
X2633Y2307D02*
X2645Y2307D01*
X2715Y2307D02*
X2737Y2307D01*
X2845Y2307D02*
X2856Y2307D01*
X2921Y2307D02*
X2932Y2307D01*
X2993Y2307D02*
X3004Y2307D01*
X3041Y2307D02*
X3052Y2307D01*
X3285Y2307D02*
X3297Y2307D01*
X3333Y2307D02*
X3345Y2307D01*
X3493Y2307D02*
X3504Y2307D01*
X3541Y2307D02*
X3552Y2307D01*
X598Y2306D02*
X600Y2306D01*
X646Y2306D02*
X648Y2306D01*
X717Y2306D02*
X728Y2306D01*
X914Y2306D02*
X931Y2306D01*
X2585Y2306D02*
X2597Y2306D01*
X2633Y2306D02*
X2645Y2306D01*
X2715Y2306D02*
X2737Y2306D01*
X2845Y2306D02*
X2856Y2306D01*
X2921Y2306D02*
X2932Y2306D01*
X2993Y2306D02*
X3004Y2306D01*
X3041Y2306D02*
X3052Y2306D01*
X3285Y2306D02*
X3297Y2306D01*
X3333Y2306D02*
X3345Y2306D01*
X3493Y2306D02*
X3504Y2306D01*
X3541Y2306D02*
X3552Y2306D01*
X596Y2305D02*
X601Y2305D01*
X644Y2305D02*
X650Y2305D01*
X717Y2305D02*
X728Y2305D01*
X914Y2305D02*
X931Y2305D01*
X2585Y2305D02*
X2597Y2305D01*
X2633Y2305D02*
X2645Y2305D01*
X2715Y2305D02*
X2738Y2305D01*
X2845Y2305D02*
X2856Y2305D01*
X2921Y2305D02*
X2932Y2305D01*
X2993Y2305D02*
X3004Y2305D01*
X3041Y2305D02*
X3052Y2305D01*
X3286Y2305D02*
X3298Y2305D01*
X3332Y2305D02*
X3344Y2305D01*
X3493Y2305D02*
X3504Y2305D01*
X3541Y2305D02*
X3552Y2305D01*
X594Y2304D02*
X603Y2304D01*
X643Y2304D02*
X651Y2304D01*
X717Y2304D02*
X728Y2304D01*
X914Y2304D02*
X931Y2304D01*
X2585Y2304D02*
X2597Y2304D01*
X2633Y2304D02*
X2645Y2304D01*
X2715Y2304D02*
X2738Y2304D01*
X2845Y2304D02*
X2856Y2304D01*
X2921Y2304D02*
X2932Y2304D01*
X2993Y2304D02*
X3004Y2304D01*
X3041Y2304D02*
X3052Y2304D01*
X3286Y2304D02*
X3298Y2304D01*
X3332Y2304D02*
X3344Y2304D01*
X3493Y2304D02*
X3504Y2304D01*
X3541Y2304D02*
X3552Y2304D01*
X594Y2303D02*
X603Y2303D01*
X642Y2303D02*
X651Y2303D01*
X717Y2303D02*
X728Y2303D01*
X914Y2303D02*
X931Y2303D01*
X2585Y2303D02*
X2597Y2303D01*
X2633Y2303D02*
X2645Y2303D01*
X2714Y2303D02*
X2738Y2303D01*
X2845Y2303D02*
X2856Y2303D01*
X2921Y2303D02*
X2932Y2303D01*
X2993Y2303D02*
X3004Y2303D01*
X3041Y2303D02*
X3052Y2303D01*
X3286Y2303D02*
X3299Y2303D01*
X3331Y2303D02*
X3344Y2303D01*
X3493Y2303D02*
X3504Y2303D01*
X3541Y2303D02*
X3552Y2303D01*
X593Y2302D02*
X604Y2302D01*
X641Y2302D02*
X652Y2302D01*
X717Y2302D02*
X728Y2302D01*
X914Y2302D02*
X931Y2302D01*
X2585Y2302D02*
X2597Y2302D01*
X2633Y2302D02*
X2645Y2302D01*
X2714Y2302D02*
X2738Y2302D01*
X2845Y2302D02*
X2856Y2302D01*
X2921Y2302D02*
X2932Y2302D01*
X2993Y2302D02*
X3004Y2302D01*
X3041Y2302D02*
X3052Y2302D01*
X3287Y2302D02*
X3299Y2302D01*
X3331Y2302D02*
X3343Y2302D01*
X3493Y2302D02*
X3505Y2302D01*
X3541Y2302D02*
X3552Y2302D01*
X593Y2301D02*
X604Y2301D01*
X641Y2301D02*
X652Y2301D01*
X717Y2301D02*
X728Y2301D01*
X914Y2301D02*
X931Y2301D01*
X2585Y2301D02*
X2597Y2301D01*
X2633Y2301D02*
X2645Y2301D01*
X2714Y2301D02*
X2739Y2301D01*
X2845Y2301D02*
X2856Y2301D01*
X2921Y2301D02*
X2932Y2301D01*
X2993Y2301D02*
X3004Y2301D01*
X3041Y2301D02*
X3052Y2301D01*
X3287Y2301D02*
X3299Y2301D01*
X3331Y2301D02*
X3343Y2301D01*
X3493Y2301D02*
X3506Y2301D01*
X3541Y2301D02*
X3552Y2301D01*
X593Y2300D02*
X604Y2300D01*
X641Y2300D02*
X652Y2300D01*
X717Y2300D02*
X728Y2300D01*
X914Y2300D02*
X931Y2300D01*
X2585Y2300D02*
X2597Y2300D01*
X2633Y2300D02*
X2645Y2300D01*
X2713Y2300D02*
X2725Y2300D01*
X2727Y2300D02*
X2739Y2300D01*
X2845Y2300D02*
X2856Y2300D01*
X2921Y2300D02*
X2932Y2300D01*
X2993Y2300D02*
X3004Y2300D01*
X3041Y2300D02*
X3052Y2300D01*
X3288Y2300D02*
X3300Y2300D01*
X3330Y2300D02*
X3343Y2300D01*
X3494Y2300D02*
X3507Y2300D01*
X3541Y2300D02*
X3552Y2300D01*
X593Y2299D02*
X604Y2299D01*
X641Y2299D02*
X652Y2299D01*
X717Y2299D02*
X728Y2299D01*
X914Y2299D02*
X931Y2299D01*
X2585Y2299D02*
X2597Y2299D01*
X2633Y2299D02*
X2645Y2299D01*
X2713Y2299D02*
X2725Y2299D01*
X2728Y2299D02*
X2739Y2299D01*
X2845Y2299D02*
X2856Y2299D01*
X2921Y2299D02*
X2932Y2299D01*
X2993Y2299D02*
X3004Y2299D01*
X3041Y2299D02*
X3052Y2299D01*
X3288Y2299D02*
X3300Y2299D01*
X3330Y2299D02*
X3342Y2299D01*
X3494Y2299D02*
X3552Y2299D01*
X593Y2298D02*
X604Y2298D01*
X641Y2298D02*
X652Y2298D01*
X717Y2298D02*
X728Y2298D01*
X914Y2298D02*
X931Y2298D01*
X2585Y2298D02*
X2597Y2298D01*
X2633Y2298D02*
X2645Y2298D01*
X2713Y2298D02*
X2725Y2298D01*
X2728Y2298D02*
X2740Y2298D01*
X2845Y2298D02*
X2856Y2298D01*
X2921Y2298D02*
X2932Y2298D01*
X2993Y2298D02*
X3004Y2298D01*
X3041Y2298D02*
X3052Y2298D01*
X3288Y2298D02*
X3301Y2298D01*
X3330Y2298D02*
X3342Y2298D01*
X3494Y2298D02*
X3552Y2298D01*
X593Y2297D02*
X604Y2297D01*
X641Y2297D02*
X652Y2297D01*
X717Y2297D02*
X728Y2297D01*
X914Y2297D02*
X931Y2297D01*
X2585Y2297D02*
X2597Y2297D01*
X2633Y2297D02*
X2645Y2297D01*
X2713Y2297D02*
X2724Y2297D01*
X2728Y2297D02*
X2740Y2297D01*
X2845Y2297D02*
X2856Y2297D01*
X2921Y2297D02*
X2932Y2297D01*
X2993Y2297D02*
X3005Y2297D01*
X3041Y2297D02*
X3052Y2297D01*
X3289Y2297D02*
X3301Y2297D01*
X3329Y2297D02*
X3341Y2297D01*
X3495Y2297D02*
X3552Y2297D01*
X593Y2296D02*
X604Y2296D01*
X641Y2296D02*
X652Y2296D01*
X717Y2296D02*
X728Y2296D01*
X914Y2296D02*
X931Y2296D01*
X2585Y2296D02*
X2597Y2296D01*
X2633Y2296D02*
X2645Y2296D01*
X2712Y2296D02*
X2724Y2296D01*
X2728Y2296D02*
X2740Y2296D01*
X2845Y2296D02*
X2856Y2296D01*
X2921Y2296D02*
X2932Y2296D01*
X2993Y2296D02*
X3005Y2296D01*
X3041Y2296D02*
X3052Y2296D01*
X3289Y2296D02*
X3301Y2296D01*
X3329Y2296D02*
X3341Y2296D01*
X3495Y2296D02*
X3552Y2296D01*
X593Y2295D02*
X604Y2295D01*
X641Y2295D02*
X652Y2295D01*
X717Y2295D02*
X728Y2295D01*
X914Y2295D02*
X931Y2295D01*
X2585Y2295D02*
X2597Y2295D01*
X2633Y2295D02*
X2645Y2295D01*
X2712Y2295D02*
X2724Y2295D01*
X2729Y2295D02*
X2741Y2295D01*
X2845Y2295D02*
X2856Y2295D01*
X2921Y2295D02*
X2932Y2295D01*
X2993Y2295D02*
X3006Y2295D01*
X3041Y2295D02*
X3052Y2295D01*
X3290Y2295D02*
X3302Y2295D01*
X3328Y2295D02*
X3341Y2295D01*
X3496Y2295D02*
X3552Y2295D01*
X593Y2294D02*
X604Y2294D01*
X641Y2294D02*
X652Y2294D01*
X717Y2294D02*
X728Y2294D01*
X914Y2294D02*
X931Y2294D01*
X2585Y2294D02*
X2597Y2294D01*
X2633Y2294D02*
X2645Y2294D01*
X2712Y2294D02*
X2723Y2294D01*
X2729Y2294D02*
X2741Y2294D01*
X2845Y2294D02*
X2856Y2294D01*
X2921Y2294D02*
X2932Y2294D01*
X2994Y2294D02*
X3006Y2294D01*
X3041Y2294D02*
X3052Y2294D01*
X3290Y2294D02*
X3302Y2294D01*
X3328Y2294D02*
X3340Y2294D01*
X3497Y2294D02*
X3552Y2294D01*
X593Y2293D02*
X604Y2293D01*
X641Y2293D02*
X652Y2293D01*
X717Y2293D02*
X728Y2293D01*
X914Y2293D02*
X931Y2293D01*
X2585Y2293D02*
X2597Y2293D01*
X2633Y2293D02*
X2645Y2293D01*
X2711Y2293D02*
X2723Y2293D01*
X2729Y2293D02*
X2741Y2293D01*
X2845Y2293D02*
X2856Y2293D01*
X2921Y2293D02*
X2932Y2293D01*
X2994Y2293D02*
X3007Y2293D01*
X3041Y2293D02*
X3052Y2293D01*
X3290Y2293D02*
X3302Y2293D01*
X3328Y2293D02*
X3340Y2293D01*
X3498Y2293D02*
X3552Y2293D01*
X593Y2292D02*
X604Y2292D01*
X641Y2292D02*
X652Y2292D01*
X717Y2292D02*
X728Y2292D01*
X885Y2292D02*
X960Y2292D01*
X1085Y2292D02*
X1160Y2292D01*
X2585Y2292D02*
X2597Y2292D01*
X2633Y2292D02*
X2645Y2292D01*
X2711Y2292D02*
X2723Y2292D01*
X2730Y2292D02*
X2741Y2292D01*
X2845Y2292D02*
X2856Y2292D01*
X2921Y2292D02*
X2932Y2292D01*
X2994Y2292D02*
X3008Y2292D01*
X3041Y2292D02*
X3052Y2292D01*
X3291Y2292D02*
X3303Y2292D01*
X3327Y2292D02*
X3339Y2292D01*
X3499Y2292D02*
X3552Y2292D01*
X593Y2291D02*
X604Y2291D01*
X641Y2291D02*
X652Y2291D01*
X716Y2291D02*
X728Y2291D01*
X883Y2291D02*
X962Y2291D01*
X1083Y2291D02*
X1162Y2291D01*
X2585Y2291D02*
X2597Y2291D01*
X2633Y2291D02*
X2645Y2291D01*
X2711Y2291D02*
X2723Y2291D01*
X2730Y2291D02*
X2742Y2291D01*
X2845Y2291D02*
X2856Y2291D01*
X2921Y2291D02*
X2932Y2291D01*
X2995Y2291D02*
X3009Y2291D01*
X3041Y2291D02*
X3052Y2291D01*
X3291Y2291D02*
X3303Y2291D01*
X3327Y2291D02*
X3339Y2291D01*
X3500Y2291D02*
X3552Y2291D01*
X593Y2290D02*
X605Y2290D01*
X640Y2290D02*
X652Y2290D01*
X688Y2290D02*
X728Y2290D01*
X881Y2290D02*
X964Y2290D01*
X1081Y2290D02*
X1164Y2290D01*
X2585Y2290D02*
X2597Y2290D01*
X2633Y2290D02*
X2645Y2290D01*
X2710Y2290D02*
X2722Y2290D01*
X2730Y2290D02*
X2742Y2290D01*
X2845Y2290D02*
X2856Y2290D01*
X2921Y2290D02*
X2932Y2290D01*
X2995Y2290D02*
X3011Y2290D01*
X3041Y2290D02*
X3052Y2290D01*
X3291Y2290D02*
X3304Y2290D01*
X3326Y2290D02*
X3339Y2290D01*
X3501Y2290D02*
X3552Y2290D01*
X593Y2289D02*
X605Y2289D01*
X640Y2289D02*
X652Y2289D01*
X687Y2289D02*
X728Y2289D01*
X880Y2289D02*
X965Y2289D01*
X1080Y2289D02*
X1165Y2289D01*
X2585Y2289D02*
X2597Y2289D01*
X2633Y2289D02*
X2645Y2289D01*
X2710Y2289D02*
X2722Y2289D01*
X2731Y2289D02*
X2742Y2289D01*
X2845Y2289D02*
X2856Y2289D01*
X2921Y2289D02*
X2932Y2289D01*
X2996Y2289D02*
X3014Y2289D01*
X3041Y2289D02*
X3052Y2289D01*
X3292Y2289D02*
X3304Y2289D01*
X3326Y2289D02*
X3338Y2289D01*
X3503Y2289D02*
X3552Y2289D01*
X593Y2288D02*
X605Y2288D01*
X640Y2288D02*
X652Y2288D01*
X685Y2288D02*
X728Y2288D01*
X880Y2288D02*
X965Y2288D01*
X1080Y2288D02*
X1165Y2288D01*
X2585Y2288D02*
X2597Y2288D01*
X2633Y2288D02*
X2645Y2288D01*
X2710Y2288D02*
X2722Y2288D01*
X2731Y2288D02*
X2743Y2288D01*
X2845Y2288D02*
X2856Y2288D01*
X2921Y2288D02*
X2932Y2288D01*
X2997Y2288D02*
X3052Y2288D01*
X3292Y2288D02*
X3304Y2288D01*
X3326Y2288D02*
X3338Y2288D01*
X3505Y2288D02*
X3552Y2288D01*
X594Y2287D02*
X606Y2287D01*
X639Y2287D02*
X652Y2287D01*
X684Y2287D02*
X728Y2287D01*
X879Y2287D02*
X966Y2287D01*
X1079Y2287D02*
X1166Y2287D01*
X2585Y2287D02*
X2597Y2287D01*
X2633Y2287D02*
X2645Y2287D01*
X2710Y2287D02*
X2721Y2287D01*
X2731Y2287D02*
X2743Y2287D01*
X2845Y2287D02*
X2856Y2287D01*
X2921Y2287D02*
X2932Y2287D01*
X2997Y2287D02*
X3052Y2287D01*
X3293Y2287D02*
X3305Y2287D01*
X3325Y2287D02*
X3337Y2287D01*
X3509Y2287D02*
X3552Y2287D01*
X594Y2286D02*
X606Y2286D01*
X639Y2286D02*
X651Y2286D01*
X683Y2286D02*
X728Y2286D01*
X879Y2286D02*
X966Y2286D01*
X1079Y2286D02*
X1166Y2286D01*
X2585Y2286D02*
X2597Y2286D01*
X2633Y2286D02*
X2645Y2286D01*
X2709Y2286D02*
X2721Y2286D01*
X2731Y2286D02*
X2743Y2286D01*
X2845Y2286D02*
X2856Y2286D01*
X2921Y2286D02*
X2932Y2286D01*
X2998Y2286D02*
X3052Y2286D01*
X3293Y2286D02*
X3305Y2286D01*
X3325Y2286D02*
X3337Y2286D01*
X3518Y2286D02*
X3531Y2286D01*
X3541Y2286D02*
X3552Y2286D01*
X594Y2285D02*
X607Y2285D01*
X638Y2285D02*
X651Y2285D01*
X682Y2285D02*
X728Y2285D01*
X878Y2285D02*
X967Y2285D01*
X1078Y2285D02*
X1167Y2285D01*
X2585Y2285D02*
X2597Y2285D01*
X2633Y2285D02*
X2645Y2285D01*
X2709Y2285D02*
X2721Y2285D01*
X2732Y2285D02*
X2743Y2285D01*
X2845Y2285D02*
X2856Y2285D01*
X2921Y2285D02*
X2932Y2285D01*
X2999Y2285D02*
X3052Y2285D01*
X3293Y2285D02*
X3306Y2285D01*
X3324Y2285D02*
X3337Y2285D01*
X3517Y2285D02*
X3530Y2285D01*
X3541Y2285D02*
X3552Y2285D01*
X595Y2284D02*
X607Y2284D01*
X638Y2284D02*
X650Y2284D01*
X682Y2284D02*
X728Y2284D01*
X878Y2284D02*
X967Y2284D01*
X1078Y2284D02*
X1167Y2284D01*
X2585Y2284D02*
X2597Y2284D01*
X2633Y2284D02*
X2645Y2284D01*
X2709Y2284D02*
X2720Y2284D01*
X2732Y2284D02*
X2744Y2284D01*
X2845Y2284D02*
X2856Y2284D01*
X2921Y2284D02*
X2932Y2284D01*
X3000Y2284D02*
X3052Y2284D01*
X3294Y2284D02*
X3306Y2284D01*
X3324Y2284D02*
X3336Y2284D01*
X3517Y2284D02*
X3530Y2284D01*
X3541Y2284D02*
X3552Y2284D01*
X595Y2283D02*
X608Y2283D01*
X637Y2283D02*
X650Y2283D01*
X681Y2283D02*
X728Y2283D01*
X878Y2283D02*
X967Y2283D01*
X1078Y2283D02*
X1167Y2283D01*
X2585Y2283D02*
X2597Y2283D01*
X2633Y2283D02*
X2645Y2283D01*
X2708Y2283D02*
X2720Y2283D01*
X2732Y2283D02*
X2744Y2283D01*
X2845Y2283D02*
X2856Y2283D01*
X2921Y2283D02*
X2932Y2283D01*
X3001Y2283D02*
X3052Y2283D01*
X3294Y2283D02*
X3306Y2283D01*
X3324Y2283D02*
X3336Y2283D01*
X3516Y2283D02*
X3529Y2283D01*
X3541Y2283D02*
X3552Y2283D01*
X596Y2282D02*
X608Y2282D01*
X637Y2282D02*
X649Y2282D01*
X681Y2282D02*
X728Y2282D01*
X878Y2282D02*
X967Y2282D01*
X1078Y2282D02*
X1167Y2282D01*
X2585Y2282D02*
X2597Y2282D01*
X2633Y2282D02*
X2645Y2282D01*
X2708Y2282D02*
X2720Y2282D01*
X2733Y2282D02*
X2744Y2282D01*
X2845Y2282D02*
X2856Y2282D01*
X2921Y2282D02*
X2932Y2282D01*
X3001Y2282D02*
X3052Y2282D01*
X3295Y2282D02*
X3307Y2282D01*
X3323Y2282D02*
X3336Y2282D01*
X3515Y2282D02*
X3529Y2282D01*
X3541Y2282D02*
X3552Y2282D01*
X596Y2281D02*
X609Y2281D01*
X637Y2281D02*
X649Y2281D01*
X681Y2281D02*
X728Y2281D01*
X878Y2281D02*
X966Y2281D01*
X1078Y2281D02*
X1167Y2281D01*
X2585Y2281D02*
X2597Y2281D01*
X2633Y2281D02*
X2645Y2281D01*
X2708Y2281D02*
X2720Y2281D01*
X2733Y2281D02*
X2745Y2281D01*
X2845Y2281D02*
X2856Y2281D01*
X2921Y2281D02*
X2932Y2281D01*
X3000Y2281D02*
X3052Y2281D01*
X3295Y2281D02*
X3307Y2281D01*
X3323Y2281D02*
X3335Y2281D01*
X3515Y2281D02*
X3528Y2281D01*
X3541Y2281D02*
X3552Y2281D01*
X597Y2280D02*
X609Y2280D01*
X636Y2280D02*
X649Y2280D01*
X681Y2280D02*
X728Y2280D01*
X879Y2280D02*
X966Y2280D01*
X1078Y2280D02*
X1167Y2280D01*
X2585Y2280D02*
X2597Y2280D01*
X2633Y2280D02*
X2645Y2280D01*
X2708Y2280D02*
X2719Y2280D01*
X2733Y2280D02*
X2745Y2280D01*
X2845Y2280D02*
X2856Y2280D01*
X2921Y2280D02*
X2932Y2280D01*
X2999Y2280D02*
X3052Y2280D01*
X3295Y2280D02*
X3308Y2280D01*
X3322Y2280D02*
X3335Y2280D01*
X3514Y2280D02*
X3528Y2280D01*
X3541Y2280D02*
X3552Y2280D01*
X597Y2279D02*
X609Y2279D01*
X636Y2279D02*
X648Y2279D01*
X680Y2279D02*
X728Y2279D01*
X879Y2279D02*
X966Y2279D01*
X1078Y2279D02*
X1167Y2279D01*
X2585Y2279D02*
X2597Y2279D01*
X2633Y2279D02*
X2645Y2279D01*
X2707Y2279D02*
X2719Y2279D01*
X2733Y2279D02*
X2745Y2279D01*
X2845Y2279D02*
X2856Y2279D01*
X2921Y2279D02*
X2932Y2279D01*
X2998Y2279D02*
X3052Y2279D01*
X3296Y2279D02*
X3308Y2279D01*
X3322Y2279D02*
X3334Y2279D01*
X3514Y2279D02*
X3527Y2279D01*
X3541Y2279D02*
X3552Y2279D01*
X598Y2278D02*
X610Y2278D01*
X635Y2278D02*
X648Y2278D01*
X680Y2278D02*
X692Y2278D01*
X880Y2278D02*
X965Y2278D01*
X1078Y2278D02*
X1167Y2278D01*
X2585Y2278D02*
X2597Y2278D01*
X2633Y2278D02*
X2645Y2278D01*
X2707Y2278D02*
X2719Y2278D01*
X2734Y2278D02*
X2745Y2278D01*
X2845Y2278D02*
X2856Y2278D01*
X2921Y2278D02*
X2932Y2278D01*
X2997Y2278D02*
X3052Y2278D01*
X3296Y2278D02*
X3308Y2278D01*
X3322Y2278D02*
X3334Y2278D01*
X3513Y2278D02*
X3526Y2278D01*
X3541Y2278D02*
X3552Y2278D01*
X598Y2277D02*
X610Y2277D01*
X635Y2277D02*
X647Y2277D01*
X680Y2277D02*
X692Y2277D01*
X881Y2277D02*
X965Y2277D01*
X1078Y2277D02*
X1167Y2277D01*
X2585Y2277D02*
X2597Y2277D01*
X2633Y2277D02*
X2645Y2277D01*
X2707Y2277D02*
X2718Y2277D01*
X2734Y2277D02*
X2746Y2277D01*
X2845Y2277D02*
X2856Y2277D01*
X2921Y2277D02*
X2932Y2277D01*
X2996Y2277D02*
X3052Y2277D01*
X3297Y2277D02*
X3309Y2277D01*
X3321Y2277D02*
X3334Y2277D01*
X3513Y2277D02*
X3526Y2277D01*
X3541Y2277D02*
X3552Y2277D01*
X598Y2276D02*
X611Y2276D01*
X634Y2276D02*
X647Y2276D01*
X680Y2276D02*
X692Y2276D01*
X882Y2276D02*
X963Y2276D01*
X1078Y2276D02*
X1167Y2276D01*
X2585Y2276D02*
X2597Y2276D01*
X2633Y2276D02*
X2645Y2276D01*
X2706Y2276D02*
X2718Y2276D01*
X2734Y2276D02*
X2746Y2276D01*
X2845Y2276D02*
X2856Y2276D01*
X2921Y2276D02*
X2932Y2276D01*
X2996Y2276D02*
X3013Y2276D01*
X3041Y2276D02*
X3052Y2276D01*
X3297Y2276D02*
X3309Y2276D01*
X3321Y2276D02*
X3333Y2276D01*
X3512Y2276D02*
X3525Y2276D01*
X3541Y2276D02*
X3552Y2276D01*
X599Y2275D02*
X611Y2275D01*
X634Y2275D02*
X646Y2275D01*
X680Y2275D02*
X692Y2275D01*
X883Y2275D02*
X962Y2275D01*
X1078Y2275D02*
X1167Y2275D01*
X2585Y2275D02*
X2597Y2275D01*
X2633Y2275D02*
X2645Y2275D01*
X2706Y2275D02*
X2718Y2275D01*
X2735Y2275D02*
X2746Y2275D01*
X2845Y2275D02*
X2856Y2275D01*
X2921Y2275D02*
X2932Y2275D01*
X2995Y2275D02*
X3010Y2275D01*
X3041Y2275D02*
X3052Y2275D01*
X3297Y2275D02*
X3310Y2275D01*
X3321Y2275D02*
X3333Y2275D01*
X3511Y2275D02*
X3525Y2275D01*
X3541Y2275D02*
X3552Y2275D01*
X599Y2274D02*
X612Y2274D01*
X634Y2274D02*
X646Y2274D01*
X680Y2274D02*
X692Y2274D01*
X913Y2274D02*
X932Y2274D01*
X1078Y2274D02*
X1167Y2274D01*
X2585Y2274D02*
X2597Y2274D01*
X2633Y2274D02*
X2645Y2274D01*
X2706Y2274D02*
X2718Y2274D01*
X2735Y2274D02*
X2747Y2274D01*
X2845Y2274D02*
X2856Y2274D01*
X2921Y2274D02*
X2932Y2274D01*
X2995Y2274D02*
X3009Y2274D01*
X3041Y2274D02*
X3052Y2274D01*
X3298Y2274D02*
X3310Y2274D01*
X3320Y2274D02*
X3332Y2274D01*
X3511Y2274D02*
X3524Y2274D01*
X3541Y2274D02*
X3552Y2274D01*
X600Y2273D02*
X612Y2273D01*
X633Y2273D02*
X645Y2273D01*
X680Y2273D02*
X692Y2273D01*
X914Y2273D02*
X931Y2273D01*
X1079Y2273D02*
X1166Y2273D01*
X2585Y2273D02*
X2597Y2273D01*
X2633Y2273D02*
X2645Y2273D01*
X2706Y2273D02*
X2717Y2273D01*
X2735Y2273D02*
X2747Y2273D01*
X2845Y2273D02*
X2856Y2273D01*
X2921Y2273D02*
X2932Y2273D01*
X2994Y2273D02*
X3008Y2273D01*
X3041Y2273D02*
X3052Y2273D01*
X3298Y2273D02*
X3310Y2273D01*
X3320Y2273D02*
X3332Y2273D01*
X3510Y2273D02*
X3523Y2273D01*
X3541Y2273D02*
X3552Y2273D01*
X600Y2272D02*
X612Y2272D01*
X633Y2272D02*
X645Y2272D01*
X680Y2272D02*
X692Y2272D01*
X914Y2272D02*
X931Y2272D01*
X1079Y2272D02*
X1166Y2272D01*
X2585Y2272D02*
X2597Y2272D01*
X2633Y2272D02*
X2645Y2272D01*
X2705Y2272D02*
X2717Y2272D01*
X2735Y2272D02*
X2747Y2272D01*
X2845Y2272D02*
X2856Y2272D01*
X2921Y2272D02*
X2932Y2272D01*
X2994Y2272D02*
X3007Y2272D01*
X3041Y2272D02*
X3052Y2272D01*
X3299Y2272D02*
X3311Y2272D01*
X3319Y2272D02*
X3332Y2272D01*
X3510Y2272D02*
X3523Y2272D01*
X3541Y2272D02*
X3552Y2272D01*
X601Y2271D02*
X613Y2271D01*
X632Y2271D02*
X645Y2271D01*
X680Y2271D02*
X692Y2271D01*
X914Y2271D02*
X931Y2271D01*
X1079Y2271D02*
X1166Y2271D01*
X2585Y2271D02*
X2597Y2271D01*
X2633Y2271D02*
X2645Y2271D01*
X2705Y2271D02*
X2717Y2271D01*
X2736Y2271D02*
X2748Y2271D01*
X2845Y2271D02*
X2856Y2271D01*
X2921Y2271D02*
X2932Y2271D01*
X2994Y2271D02*
X3006Y2271D01*
X3041Y2271D02*
X3052Y2271D01*
X3299Y2271D02*
X3311Y2271D01*
X3319Y2271D02*
X3331Y2271D01*
X3509Y2271D02*
X3522Y2271D01*
X3541Y2271D02*
X3552Y2271D01*
X601Y2270D02*
X613Y2270D01*
X632Y2270D02*
X644Y2270D01*
X680Y2270D02*
X692Y2270D01*
X914Y2270D02*
X931Y2270D01*
X1080Y2270D02*
X1165Y2270D01*
X2585Y2270D02*
X2597Y2270D01*
X2633Y2270D02*
X2645Y2270D01*
X2705Y2270D02*
X2716Y2270D01*
X2736Y2270D02*
X2748Y2270D01*
X2845Y2270D02*
X2856Y2270D01*
X2921Y2270D02*
X2932Y2270D01*
X2993Y2270D02*
X3005Y2270D01*
X3041Y2270D02*
X3052Y2270D01*
X3299Y2270D02*
X3311Y2270D01*
X3319Y2270D02*
X3331Y2270D01*
X3508Y2270D02*
X3522Y2270D01*
X3541Y2270D02*
X3552Y2270D01*
X601Y2269D02*
X614Y2269D01*
X631Y2269D02*
X644Y2269D01*
X680Y2269D02*
X692Y2269D01*
X914Y2269D02*
X931Y2269D01*
X1081Y2269D02*
X1164Y2269D01*
X2585Y2269D02*
X2597Y2269D01*
X2633Y2269D02*
X2645Y2269D01*
X2704Y2269D02*
X2716Y2269D01*
X2736Y2269D02*
X2748Y2269D01*
X2845Y2269D02*
X2856Y2269D01*
X2921Y2269D02*
X2932Y2269D01*
X2993Y2269D02*
X3005Y2269D01*
X3041Y2269D02*
X3052Y2269D01*
X3300Y2269D02*
X3312Y2269D01*
X3318Y2269D02*
X3330Y2269D01*
X3508Y2269D02*
X3521Y2269D01*
X3541Y2269D02*
X3552Y2269D01*
X602Y2268D02*
X614Y2268D01*
X631Y2268D02*
X643Y2268D01*
X680Y2268D02*
X692Y2268D01*
X914Y2268D02*
X931Y2268D01*
X1082Y2268D02*
X1163Y2268D01*
X2585Y2268D02*
X2597Y2268D01*
X2633Y2268D02*
X2645Y2268D01*
X2704Y2268D02*
X2748Y2268D01*
X2845Y2268D02*
X2856Y2268D01*
X2921Y2268D02*
X2932Y2268D01*
X2993Y2268D02*
X3005Y2268D01*
X3041Y2268D02*
X3052Y2268D01*
X3300Y2268D02*
X3312Y2268D01*
X3318Y2268D02*
X3330Y2268D01*
X3507Y2268D02*
X3521Y2268D01*
X3541Y2268D02*
X3552Y2268D01*
X602Y2267D02*
X615Y2267D01*
X631Y2267D02*
X643Y2267D01*
X680Y2267D02*
X692Y2267D01*
X914Y2267D02*
X931Y2267D01*
X1084Y2267D02*
X1161Y2267D01*
X2585Y2267D02*
X2597Y2267D01*
X2633Y2267D02*
X2645Y2267D01*
X2704Y2267D02*
X2749Y2267D01*
X2845Y2267D02*
X2856Y2267D01*
X2921Y2267D02*
X2932Y2267D01*
X2993Y2267D02*
X3004Y2267D01*
X3041Y2267D02*
X3052Y2267D01*
X3300Y2267D02*
X3313Y2267D01*
X3317Y2267D02*
X3330Y2267D01*
X3507Y2267D02*
X3520Y2267D01*
X3541Y2267D02*
X3552Y2267D01*
X603Y2266D02*
X615Y2266D01*
X630Y2266D02*
X642Y2266D01*
X680Y2266D02*
X692Y2266D01*
X914Y2266D02*
X931Y2266D01*
X2585Y2266D02*
X2597Y2266D01*
X2633Y2266D02*
X2645Y2266D01*
X2703Y2266D02*
X2749Y2266D01*
X2845Y2266D02*
X2856Y2266D01*
X2921Y2266D02*
X2932Y2266D01*
X2993Y2266D02*
X3004Y2266D01*
X3041Y2266D02*
X3052Y2266D01*
X3301Y2266D02*
X3313Y2266D01*
X3317Y2266D02*
X3329Y2266D01*
X3506Y2266D02*
X3519Y2266D01*
X3541Y2266D02*
X3552Y2266D01*
X603Y2265D02*
X616Y2265D01*
X630Y2265D02*
X642Y2265D01*
X680Y2265D02*
X692Y2265D01*
X914Y2265D02*
X931Y2265D01*
X2585Y2265D02*
X2597Y2265D01*
X2633Y2265D02*
X2645Y2265D01*
X2703Y2265D02*
X2749Y2265D01*
X2845Y2265D02*
X2856Y2265D01*
X2921Y2265D02*
X2932Y2265D01*
X2993Y2265D02*
X3004Y2265D01*
X3041Y2265D02*
X3052Y2265D01*
X3301Y2265D02*
X3313Y2265D01*
X3317Y2265D02*
X3329Y2265D01*
X3505Y2265D02*
X3519Y2265D01*
X3541Y2265D02*
X3552Y2265D01*
X604Y2264D02*
X616Y2264D01*
X629Y2264D02*
X642Y2264D01*
X680Y2264D02*
X692Y2264D01*
X914Y2264D02*
X931Y2264D01*
X2585Y2264D02*
X2597Y2264D01*
X2633Y2264D02*
X2645Y2264D01*
X2703Y2264D02*
X2750Y2264D01*
X2845Y2264D02*
X2856Y2264D01*
X2921Y2264D02*
X2932Y2264D01*
X2993Y2264D02*
X3004Y2264D01*
X3041Y2264D02*
X3052Y2264D01*
X3302Y2264D02*
X3314Y2264D01*
X3316Y2264D02*
X3329Y2264D01*
X3505Y2264D02*
X3518Y2264D01*
X3541Y2264D02*
X3552Y2264D01*
X604Y2263D02*
X616Y2263D01*
X629Y2263D02*
X641Y2263D01*
X680Y2263D02*
X692Y2263D01*
X914Y2263D02*
X931Y2263D01*
X2585Y2263D02*
X2597Y2263D01*
X2633Y2263D02*
X2645Y2263D01*
X2703Y2263D02*
X2750Y2263D01*
X2845Y2263D02*
X2856Y2263D01*
X2921Y2263D02*
X2932Y2263D01*
X2993Y2263D02*
X3004Y2263D01*
X3041Y2263D02*
X3052Y2263D01*
X3302Y2263D02*
X3314Y2263D01*
X3316Y2263D02*
X3328Y2263D01*
X3504Y2263D02*
X3518Y2263D01*
X3541Y2263D02*
X3552Y2263D01*
X605Y2262D02*
X617Y2262D01*
X628Y2262D02*
X641Y2262D01*
X680Y2262D02*
X692Y2262D01*
X914Y2262D02*
X931Y2262D01*
X2585Y2262D02*
X2597Y2262D01*
X2633Y2262D02*
X2645Y2262D01*
X2702Y2262D02*
X2750Y2262D01*
X2845Y2262D02*
X2856Y2262D01*
X2921Y2262D02*
X2932Y2262D01*
X2993Y2262D02*
X3004Y2262D01*
X3041Y2262D02*
X3052Y2262D01*
X3302Y2262D02*
X3328Y2262D01*
X3504Y2262D02*
X3517Y2262D01*
X3541Y2262D02*
X3552Y2262D01*
X605Y2261D02*
X617Y2261D01*
X628Y2261D02*
X640Y2261D01*
X680Y2261D02*
X692Y2261D01*
X914Y2261D02*
X931Y2261D01*
X2585Y2261D02*
X2597Y2261D01*
X2633Y2261D02*
X2645Y2261D01*
X2702Y2261D02*
X2750Y2261D01*
X2845Y2261D02*
X2856Y2261D01*
X2921Y2261D02*
X2932Y2261D01*
X2993Y2261D02*
X3004Y2261D01*
X3041Y2261D02*
X3052Y2261D01*
X3303Y2261D02*
X3327Y2261D01*
X3503Y2261D02*
X3516Y2261D01*
X3541Y2261D02*
X3552Y2261D01*
X605Y2260D02*
X618Y2260D01*
X627Y2260D02*
X640Y2260D01*
X680Y2260D02*
X692Y2260D01*
X914Y2260D02*
X931Y2260D01*
X2585Y2260D02*
X2597Y2260D01*
X2633Y2260D02*
X2645Y2260D01*
X2702Y2260D02*
X2751Y2260D01*
X2845Y2260D02*
X2856Y2260D01*
X2921Y2260D02*
X2932Y2260D01*
X2993Y2260D02*
X3004Y2260D01*
X3041Y2260D02*
X3052Y2260D01*
X3303Y2260D02*
X3327Y2260D01*
X3503Y2260D02*
X3516Y2260D01*
X3541Y2260D02*
X3552Y2260D01*
X606Y2259D02*
X618Y2259D01*
X627Y2259D02*
X639Y2259D01*
X680Y2259D02*
X692Y2259D01*
X914Y2259D02*
X931Y2259D01*
X2585Y2259D02*
X2597Y2259D01*
X2633Y2259D02*
X2645Y2259D01*
X2701Y2259D02*
X2751Y2259D01*
X2845Y2259D02*
X2856Y2259D01*
X2921Y2259D02*
X2932Y2259D01*
X2993Y2259D02*
X3004Y2259D01*
X3041Y2259D02*
X3052Y2259D01*
X3304Y2259D02*
X3327Y2259D01*
X3502Y2259D02*
X3515Y2259D01*
X3541Y2259D02*
X3552Y2259D01*
X606Y2258D02*
X619Y2258D01*
X627Y2258D02*
X639Y2258D01*
X680Y2258D02*
X692Y2258D01*
X914Y2258D02*
X931Y2258D01*
X2585Y2258D02*
X2597Y2258D01*
X2633Y2258D02*
X2645Y2258D01*
X2701Y2258D02*
X2751Y2258D01*
X2845Y2258D02*
X2856Y2258D01*
X2921Y2258D02*
X2932Y2258D01*
X2993Y2258D02*
X3004Y2258D01*
X3041Y2258D02*
X3052Y2258D01*
X3304Y2258D02*
X3326Y2258D01*
X3501Y2258D02*
X3515Y2258D01*
X3541Y2258D02*
X3552Y2258D01*
X607Y2257D02*
X619Y2257D01*
X626Y2257D02*
X638Y2257D01*
X680Y2257D02*
X692Y2257D01*
X914Y2257D02*
X931Y2257D01*
X2585Y2257D02*
X2597Y2257D01*
X2633Y2257D02*
X2645Y2257D01*
X2701Y2257D02*
X2752Y2257D01*
X2845Y2257D02*
X2856Y2257D01*
X2921Y2257D02*
X2932Y2257D01*
X2993Y2257D02*
X3004Y2257D01*
X3041Y2257D02*
X3052Y2257D01*
X3304Y2257D02*
X3326Y2257D01*
X3501Y2257D02*
X3514Y2257D01*
X3541Y2257D02*
X3552Y2257D01*
X607Y2256D02*
X620Y2256D01*
X626Y2256D02*
X638Y2256D01*
X680Y2256D02*
X692Y2256D01*
X914Y2256D02*
X931Y2256D01*
X2585Y2256D02*
X2597Y2256D01*
X2633Y2256D02*
X2645Y2256D01*
X2701Y2256D02*
X2752Y2256D01*
X2845Y2256D02*
X2856Y2256D01*
X2921Y2256D02*
X2932Y2256D01*
X2993Y2256D02*
X3005Y2256D01*
X3041Y2256D02*
X3052Y2256D01*
X3305Y2256D02*
X3325Y2256D01*
X3500Y2256D02*
X3514Y2256D01*
X3541Y2256D02*
X3552Y2256D01*
X608Y2255D02*
X620Y2255D01*
X625Y2255D02*
X638Y2255D01*
X680Y2255D02*
X692Y2255D01*
X914Y2255D02*
X931Y2255D01*
X2585Y2255D02*
X2597Y2255D01*
X2633Y2255D02*
X2645Y2255D01*
X2700Y2255D02*
X2712Y2255D01*
X2740Y2255D02*
X2752Y2255D01*
X2845Y2255D02*
X2856Y2255D01*
X2921Y2255D02*
X2932Y2255D01*
X2993Y2255D02*
X3005Y2255D01*
X3041Y2255D02*
X3052Y2255D01*
X3305Y2255D02*
X3325Y2255D01*
X3500Y2255D02*
X3513Y2255D01*
X3541Y2255D02*
X3552Y2255D01*
X608Y2254D02*
X620Y2254D01*
X625Y2254D02*
X637Y2254D01*
X680Y2254D02*
X692Y2254D01*
X732Y2254D02*
X736Y2254D01*
X914Y2254D02*
X931Y2254D01*
X2585Y2254D02*
X2597Y2254D01*
X2633Y2254D02*
X2645Y2254D01*
X2700Y2254D02*
X2712Y2254D01*
X2741Y2254D02*
X2753Y2254D01*
X2845Y2254D02*
X2856Y2254D01*
X2921Y2254D02*
X2932Y2254D01*
X2993Y2254D02*
X3006Y2254D01*
X3041Y2254D02*
X3052Y2254D01*
X3306Y2254D02*
X3325Y2254D01*
X3499Y2254D02*
X3512Y2254D01*
X3541Y2254D02*
X3552Y2254D01*
X608Y2253D02*
X621Y2253D01*
X624Y2253D02*
X637Y2253D01*
X680Y2253D02*
X692Y2253D01*
X729Y2253D02*
X738Y2253D01*
X914Y2253D02*
X931Y2253D01*
X2585Y2253D02*
X2597Y2253D01*
X2633Y2253D02*
X2645Y2253D01*
X2700Y2253D02*
X2711Y2253D01*
X2741Y2253D02*
X2753Y2253D01*
X2845Y2253D02*
X2856Y2253D01*
X2921Y2253D02*
X2932Y2253D01*
X2994Y2253D02*
X3006Y2253D01*
X3041Y2253D02*
X3052Y2253D01*
X3306Y2253D02*
X3324Y2253D01*
X3498Y2253D02*
X3512Y2253D01*
X3541Y2253D02*
X3552Y2253D01*
X609Y2252D02*
X621Y2252D01*
X624Y2252D02*
X636Y2252D01*
X680Y2252D02*
X692Y2252D01*
X727Y2252D02*
X739Y2252D01*
X914Y2252D02*
X931Y2252D01*
X2585Y2252D02*
X2597Y2252D01*
X2633Y2252D02*
X2645Y2252D01*
X2699Y2252D02*
X2711Y2252D01*
X2741Y2252D02*
X2753Y2252D01*
X2845Y2252D02*
X2856Y2252D01*
X2921Y2252D02*
X2932Y2252D01*
X2994Y2252D02*
X3007Y2252D01*
X3041Y2252D02*
X3052Y2252D01*
X3306Y2252D02*
X3324Y2252D01*
X3498Y2252D02*
X3511Y2252D01*
X3541Y2252D02*
X3552Y2252D01*
X609Y2251D02*
X622Y2251D01*
X624Y2251D02*
X636Y2251D01*
X680Y2251D02*
X692Y2251D01*
X725Y2251D02*
X739Y2251D01*
X914Y2251D02*
X931Y2251D01*
X2585Y2251D02*
X2597Y2251D01*
X2633Y2251D02*
X2645Y2251D01*
X2699Y2251D02*
X2711Y2251D01*
X2742Y2251D02*
X2753Y2251D01*
X2845Y2251D02*
X2856Y2251D01*
X2921Y2251D02*
X2932Y2251D01*
X2994Y2251D02*
X3008Y2251D01*
X3041Y2251D02*
X3052Y2251D01*
X3307Y2251D02*
X3323Y2251D01*
X3497Y2251D02*
X3511Y2251D01*
X3541Y2251D02*
X3552Y2251D01*
X610Y2250D02*
X635Y2250D01*
X680Y2250D02*
X692Y2250D01*
X722Y2250D02*
X740Y2250D01*
X914Y2250D02*
X931Y2250D01*
X2585Y2250D02*
X2597Y2250D01*
X2633Y2250D02*
X2645Y2250D01*
X2699Y2250D02*
X2710Y2250D01*
X2742Y2250D02*
X2754Y2250D01*
X2845Y2250D02*
X2856Y2250D01*
X2921Y2250D02*
X2932Y2250D01*
X2995Y2250D02*
X3009Y2250D01*
X3041Y2250D02*
X3052Y2250D01*
X3307Y2250D02*
X3323Y2250D01*
X3497Y2250D02*
X3510Y2250D01*
X3541Y2250D02*
X3552Y2250D01*
X610Y2249D02*
X635Y2249D01*
X680Y2249D02*
X740Y2249D01*
X914Y2249D02*
X931Y2249D01*
X2585Y2249D02*
X2597Y2249D01*
X2633Y2249D02*
X2645Y2249D01*
X2699Y2249D02*
X2710Y2249D01*
X2742Y2249D02*
X2754Y2249D01*
X2845Y2249D02*
X2856Y2249D01*
X2921Y2249D02*
X2932Y2249D01*
X2995Y2249D02*
X3011Y2249D01*
X3041Y2249D02*
X3052Y2249D01*
X3307Y2249D02*
X3323Y2249D01*
X3496Y2249D02*
X3509Y2249D01*
X3541Y2249D02*
X3552Y2249D01*
X611Y2248D02*
X635Y2248D01*
X681Y2248D02*
X740Y2248D01*
X914Y2248D02*
X931Y2248D01*
X2585Y2248D02*
X2597Y2248D01*
X2633Y2248D02*
X2645Y2248D01*
X2698Y2248D02*
X2710Y2248D01*
X2743Y2248D02*
X2754Y2248D01*
X2844Y2248D02*
X2856Y2248D01*
X2921Y2248D02*
X2932Y2248D01*
X2996Y2248D02*
X3013Y2248D01*
X3041Y2248D02*
X3052Y2248D01*
X3308Y2248D02*
X3322Y2248D01*
X3496Y2248D02*
X3509Y2248D01*
X3541Y2248D02*
X3552Y2248D01*
X611Y2247D02*
X634Y2247D01*
X681Y2247D02*
X740Y2247D01*
X914Y2247D02*
X931Y2247D01*
X2585Y2247D02*
X2645Y2247D01*
X2698Y2247D02*
X2710Y2247D01*
X2743Y2247D02*
X2755Y2247D01*
X2800Y2247D02*
X2856Y2247D01*
X2900Y2247D02*
X2952Y2247D01*
X2997Y2247D02*
X3052Y2247D01*
X3308Y2247D02*
X3322Y2247D01*
X3495Y2247D02*
X3508Y2247D01*
X3541Y2247D02*
X3552Y2247D01*
X612Y2246D02*
X634Y2246D01*
X681Y2246D02*
X739Y2246D01*
X914Y2246D02*
X931Y2246D01*
X2586Y2246D02*
X2645Y2246D01*
X2698Y2246D02*
X2709Y2246D01*
X2743Y2246D02*
X2755Y2246D01*
X2799Y2246D02*
X2856Y2246D01*
X2899Y2246D02*
X2954Y2246D01*
X2997Y2246D02*
X3052Y2246D01*
X3309Y2246D02*
X3322Y2246D01*
X3494Y2246D02*
X3508Y2246D01*
X3541Y2246D02*
X3552Y2246D01*
X612Y2245D02*
X633Y2245D01*
X681Y2245D02*
X739Y2245D01*
X914Y2245D02*
X931Y2245D01*
X2586Y2245D02*
X2644Y2245D01*
X2697Y2245D02*
X2709Y2245D01*
X2743Y2245D02*
X2755Y2245D01*
X2798Y2245D02*
X2856Y2245D01*
X2898Y2245D02*
X2955Y2245D01*
X2998Y2245D02*
X3052Y2245D01*
X3309Y2245D02*
X3321Y2245D01*
X3494Y2245D02*
X3507Y2245D01*
X3541Y2245D02*
X3552Y2245D01*
X612Y2244D02*
X633Y2244D01*
X682Y2244D02*
X738Y2244D01*
X915Y2244D02*
X930Y2244D01*
X2586Y2244D02*
X2644Y2244D01*
X2697Y2244D02*
X2709Y2244D01*
X2744Y2244D02*
X2755Y2244D01*
X2797Y2244D02*
X2856Y2244D01*
X2897Y2244D02*
X2955Y2244D01*
X2999Y2244D02*
X3052Y2244D01*
X3309Y2244D02*
X3321Y2244D01*
X3493Y2244D02*
X3507Y2244D01*
X3541Y2244D02*
X3552Y2244D01*
X613Y2243D02*
X632Y2243D01*
X683Y2243D02*
X736Y2243D01*
X915Y2243D02*
X930Y2243D01*
X2586Y2243D02*
X2644Y2243D01*
X2697Y2243D02*
X2708Y2243D01*
X2744Y2243D02*
X2756Y2243D01*
X2797Y2243D02*
X2856Y2243D01*
X2897Y2243D02*
X2956Y2243D01*
X3000Y2243D02*
X3052Y2243D01*
X3310Y2243D02*
X3320Y2243D01*
X3493Y2243D02*
X3506Y2243D01*
X3541Y2243D02*
X3552Y2243D01*
X613Y2242D02*
X632Y2242D01*
X683Y2242D02*
X734Y2242D01*
X916Y2242D02*
X929Y2242D01*
X2587Y2242D02*
X2643Y2242D01*
X2696Y2242D02*
X2708Y2242D01*
X2744Y2242D02*
X2756Y2242D01*
X2797Y2242D02*
X2856Y2242D01*
X2897Y2242D02*
X2956Y2242D01*
X3001Y2242D02*
X3052Y2242D01*
X3310Y2242D02*
X3320Y2242D01*
X3493Y2242D02*
X3505Y2242D01*
X3541Y2242D02*
X3552Y2242D01*
X614Y2241D02*
X631Y2241D01*
X684Y2241D02*
X732Y2241D01*
X917Y2241D02*
X928Y2241D01*
X2587Y2241D02*
X2643Y2241D01*
X2696Y2241D02*
X2708Y2241D01*
X2745Y2241D02*
X2756Y2241D01*
X2797Y2241D02*
X2856Y2241D01*
X2897Y2241D02*
X2956Y2241D01*
X3002Y2241D02*
X3052Y2241D01*
X3311Y2241D02*
X3319Y2241D01*
X3493Y2241D02*
X3505Y2241D01*
X3541Y2241D02*
X3552Y2241D01*
X614Y2240D02*
X631Y2240D01*
X685Y2240D02*
X730Y2240D01*
X918Y2240D02*
X927Y2240D01*
X2588Y2240D02*
X2642Y2240D01*
X2697Y2240D02*
X2708Y2240D01*
X2745Y2240D02*
X2756Y2240D01*
X2797Y2240D02*
X2856Y2240D01*
X2897Y2240D02*
X2956Y2240D01*
X3003Y2240D02*
X3052Y2240D01*
X3312Y2240D02*
X3318Y2240D01*
X3493Y2240D02*
X3504Y2240D01*
X3541Y2240D02*
X3552Y2240D01*
X615Y2239D02*
X630Y2239D01*
X687Y2239D02*
X727Y2239D01*
X919Y2239D02*
X926Y2239D01*
X2589Y2239D02*
X2641Y2239D01*
X2697Y2239D02*
X2707Y2239D01*
X2745Y2239D02*
X2756Y2239D01*
X2797Y2239D02*
X2856Y2239D01*
X2897Y2239D02*
X2955Y2239D01*
X3005Y2239D02*
X3052Y2239D01*
X3493Y2239D02*
X3504Y2239D01*
X3541Y2239D02*
X3551Y2239D01*
X617Y2238D02*
X629Y2238D01*
X689Y2238D02*
X724Y2238D01*
X2590Y2238D02*
X2640Y2238D01*
X2698Y2238D02*
X2707Y2238D01*
X2746Y2238D02*
X2755Y2238D01*
X2798Y2238D02*
X2856Y2238D01*
X2898Y2238D02*
X2955Y2238D01*
X3007Y2238D02*
X3052Y2238D01*
X3494Y2238D02*
X3503Y2238D01*
X3542Y2238D02*
X3551Y2238D01*
X2592Y2237D02*
X2638Y2237D01*
X2699Y2237D02*
X2706Y2237D01*
X2747Y2237D02*
X2754Y2237D01*
X2799Y2237D02*
X2856Y2237D01*
X2899Y2237D02*
X2954Y2237D01*
X3009Y2237D02*
X3052Y2237D01*
X3495Y2237D02*
X3502Y2237D01*
X3543Y2237D02*
X3550Y2237D01*
X2594Y2236D02*
X2636Y2236D01*
X2700Y2236D02*
X2704Y2236D01*
X2748Y2236D02*
X2752Y2236D01*
X2800Y2236D02*
X2856Y2236D01*
X2900Y2236D02*
X2952Y2236D01*
X3012Y2236D02*
X3052Y2236D01*
X3496Y2236D02*
X3501Y2236D01*
X3545Y2236D02*
X3549Y2236D01*
X2395Y2015D02*
X2437Y2015D01*
X2508Y2015D02*
X2544Y2015D01*
X2390Y2014D02*
X2437Y2014D01*
X2503Y2014D02*
X2545Y2014D01*
X2388Y2013D02*
X2437Y2013D01*
X2500Y2013D02*
X2545Y2013D01*
X2386Y2012D02*
X2437Y2012D01*
X2498Y2012D02*
X2545Y2012D01*
X2385Y2011D02*
X2437Y2011D01*
X2496Y2011D02*
X2545Y2011D01*
X2384Y2010D02*
X2437Y2010D01*
X2495Y2010D02*
X2545Y2010D01*
X2383Y2009D02*
X2437Y2009D01*
X2494Y2009D02*
X2545Y2009D01*
X2382Y2008D02*
X2437Y2008D01*
X2493Y2008D02*
X2545Y2008D01*
X2381Y2007D02*
X2437Y2007D01*
X2492Y2007D02*
X2545Y2007D01*
X2381Y2006D02*
X2437Y2006D01*
X2491Y2006D02*
X2545Y2006D01*
X2380Y2005D02*
X2437Y2005D01*
X2490Y2005D02*
X2545Y2005D01*
X2380Y2004D02*
X2437Y2004D01*
X2489Y2004D02*
X2545Y2004D01*
X2379Y2003D02*
X2437Y2003D01*
X2489Y2003D02*
X2545Y2003D01*
X2379Y2002D02*
X2392Y2002D01*
X2426Y2002D02*
X2437Y2002D01*
X2488Y2002D02*
X2504Y2002D01*
X2533Y2002D02*
X2545Y2002D01*
X2379Y2001D02*
X2391Y2001D01*
X2426Y2001D02*
X2437Y2001D01*
X2488Y2001D02*
X2503Y2001D01*
X2533Y2001D02*
X2545Y2001D01*
X2378Y2000D02*
X2390Y2000D01*
X2426Y2000D02*
X2437Y2000D01*
X2487Y2000D02*
X2501Y2000D01*
X2533Y2000D02*
X2545Y2000D01*
X2378Y1999D02*
X2390Y1999D01*
X2426Y1999D02*
X2437Y1999D01*
X2487Y1999D02*
X2500Y1999D01*
X2533Y1999D02*
X2545Y1999D01*
X2378Y1998D02*
X2389Y1998D01*
X2426Y1998D02*
X2437Y1998D01*
X2486Y1998D02*
X2499Y1998D01*
X2533Y1998D02*
X2545Y1998D01*
X2378Y1997D02*
X2389Y1997D01*
X2426Y1997D02*
X2437Y1997D01*
X2486Y1997D02*
X2499Y1997D01*
X2533Y1997D02*
X2545Y1997D01*
X2378Y1996D02*
X2389Y1996D01*
X2426Y1996D02*
X2437Y1996D01*
X2486Y1996D02*
X2498Y1996D01*
X2533Y1996D02*
X2545Y1996D01*
X2378Y1995D02*
X2389Y1995D01*
X2426Y1995D02*
X2437Y1995D01*
X2486Y1995D02*
X2497Y1995D01*
X2533Y1995D02*
X2545Y1995D01*
X2378Y1994D02*
X2389Y1994D01*
X2426Y1994D02*
X2437Y1994D01*
X2486Y1994D02*
X2497Y1994D01*
X2533Y1994D02*
X2545Y1994D01*
X2378Y1993D02*
X2389Y1993D01*
X2426Y1993D02*
X2437Y1993D01*
X2485Y1993D02*
X2497Y1993D01*
X2533Y1993D02*
X2545Y1993D01*
X2378Y1992D02*
X2389Y1992D01*
X2426Y1992D02*
X2437Y1992D01*
X2485Y1992D02*
X2497Y1992D01*
X2533Y1992D02*
X2545Y1992D01*
X2378Y1991D02*
X2389Y1991D01*
X2426Y1991D02*
X2437Y1991D01*
X2485Y1991D02*
X2497Y1991D01*
X2533Y1991D02*
X2545Y1991D01*
X2378Y1990D02*
X2389Y1990D01*
X2426Y1990D02*
X2437Y1990D01*
X2485Y1990D02*
X2497Y1990D01*
X2533Y1990D02*
X2545Y1990D01*
X2378Y1989D02*
X2389Y1989D01*
X2426Y1989D02*
X2437Y1989D01*
X2485Y1989D02*
X2497Y1989D01*
X2533Y1989D02*
X2545Y1989D01*
X2378Y1988D02*
X2390Y1988D01*
X2426Y1988D02*
X2437Y1988D01*
X2485Y1988D02*
X2497Y1988D01*
X2533Y1988D02*
X2545Y1988D01*
X2378Y1987D02*
X2390Y1987D01*
X2426Y1987D02*
X2437Y1987D01*
X2485Y1987D02*
X2497Y1987D01*
X2533Y1987D02*
X2545Y1987D01*
X2379Y1986D02*
X2391Y1986D01*
X2426Y1986D02*
X2437Y1986D01*
X2485Y1986D02*
X2497Y1986D01*
X2533Y1986D02*
X2545Y1986D01*
X2379Y1985D02*
X2393Y1985D01*
X2426Y1985D02*
X2437Y1985D01*
X2485Y1985D02*
X2497Y1985D01*
X2533Y1985D02*
X2545Y1985D01*
X2379Y1984D02*
X2437Y1984D01*
X2485Y1984D02*
X2497Y1984D01*
X2533Y1984D02*
X2545Y1984D01*
X2380Y1983D02*
X2437Y1983D01*
X2486Y1983D02*
X2497Y1983D01*
X2533Y1983D02*
X2545Y1983D01*
X2380Y1982D02*
X2437Y1982D01*
X2486Y1982D02*
X2497Y1982D01*
X2533Y1982D02*
X2545Y1982D01*
X2381Y1981D02*
X2437Y1981D01*
X2486Y1981D02*
X2498Y1981D01*
X2533Y1981D02*
X2545Y1981D01*
X2381Y1980D02*
X2437Y1980D01*
X2486Y1980D02*
X2498Y1980D01*
X2533Y1980D02*
X2545Y1980D01*
X2382Y1979D02*
X2437Y1979D01*
X2486Y1979D02*
X2499Y1979D01*
X2533Y1979D02*
X2545Y1979D01*
X2383Y1978D02*
X2437Y1978D01*
X2487Y1978D02*
X2500Y1978D01*
X2533Y1978D02*
X2545Y1978D01*
X2384Y1977D02*
X2437Y1977D01*
X2487Y1977D02*
X2501Y1977D01*
X2533Y1977D02*
X2545Y1977D01*
X2385Y1976D02*
X2437Y1976D01*
X2488Y1976D02*
X2502Y1976D01*
X2533Y1976D02*
X2545Y1976D01*
X2386Y1975D02*
X2437Y1975D01*
X2488Y1975D02*
X2504Y1975D01*
X2533Y1975D02*
X2545Y1975D01*
X2388Y1974D02*
X2437Y1974D01*
X2489Y1974D02*
X2545Y1974D01*
X2391Y1973D02*
X2437Y1973D01*
X2489Y1973D02*
X2545Y1973D01*
X2396Y1972D02*
X2437Y1972D01*
X2490Y1972D02*
X2545Y1972D01*
X2403Y1971D02*
X2416Y1971D01*
X2426Y1971D02*
X2437Y1971D01*
X2491Y1971D02*
X2545Y1971D01*
X2402Y1970D02*
X2416Y1970D01*
X2426Y1970D02*
X2437Y1970D01*
X2492Y1970D02*
X2545Y1970D01*
X2402Y1969D02*
X2415Y1969D01*
X2426Y1969D02*
X2437Y1969D01*
X2493Y1969D02*
X2545Y1969D01*
X1872Y1968D02*
X1917Y1968D01*
X2047Y1968D02*
X2092Y1968D01*
X2401Y1968D02*
X2414Y1968D01*
X2426Y1968D02*
X2437Y1968D01*
X2494Y1968D02*
X2545Y1968D01*
X1869Y1967D02*
X1919Y1967D01*
X2044Y1967D02*
X2094Y1967D01*
X2400Y1967D02*
X2414Y1967D01*
X2426Y1967D02*
X2437Y1967D01*
X2493Y1967D02*
X2545Y1967D01*
X1867Y1966D02*
X1920Y1966D01*
X2042Y1966D02*
X2095Y1966D01*
X2400Y1966D02*
X2413Y1966D01*
X2426Y1966D02*
X2437Y1966D01*
X2492Y1966D02*
X2545Y1966D01*
X1866Y1965D02*
X1920Y1965D01*
X2041Y1965D02*
X2095Y1965D01*
X2399Y1965D02*
X2413Y1965D01*
X2426Y1965D02*
X2437Y1965D01*
X2491Y1965D02*
X2545Y1965D01*
X1865Y1964D02*
X1921Y1964D01*
X2040Y1964D02*
X2096Y1964D01*
X2399Y1964D02*
X2412Y1964D01*
X2426Y1964D02*
X2437Y1964D01*
X2490Y1964D02*
X2545Y1964D01*
X1864Y1963D02*
X1921Y1963D01*
X2039Y1963D02*
X2096Y1963D01*
X2398Y1963D02*
X2411Y1963D01*
X2426Y1963D02*
X2437Y1963D01*
X2490Y1963D02*
X2545Y1963D01*
X1863Y1962D02*
X1921Y1962D01*
X2039Y1962D02*
X2096Y1962D01*
X2398Y1962D02*
X2411Y1962D01*
X2426Y1962D02*
X2437Y1962D01*
X2489Y1962D02*
X2545Y1962D01*
X1863Y1961D02*
X1921Y1961D01*
X2038Y1961D02*
X2096Y1961D01*
X2397Y1961D02*
X2410Y1961D01*
X2426Y1961D02*
X2437Y1961D01*
X2488Y1961D02*
X2505Y1961D01*
X2533Y1961D02*
X2545Y1961D01*
X1862Y1960D02*
X1921Y1960D01*
X2038Y1960D02*
X2096Y1960D01*
X2396Y1960D02*
X2410Y1960D01*
X2426Y1960D02*
X2437Y1960D01*
X2488Y1960D02*
X2503Y1960D01*
X2533Y1960D02*
X2545Y1960D01*
X1862Y1959D02*
X1920Y1959D01*
X2037Y1959D02*
X2095Y1959D01*
X2396Y1959D02*
X2409Y1959D01*
X2426Y1959D02*
X2437Y1959D01*
X2487Y1959D02*
X2501Y1959D01*
X2533Y1959D02*
X2545Y1959D01*
X1862Y1958D02*
X1919Y1958D01*
X2037Y1958D02*
X2095Y1958D01*
X2395Y1958D02*
X2409Y1958D01*
X2426Y1958D02*
X2437Y1958D01*
X2487Y1958D02*
X2500Y1958D01*
X2533Y1958D02*
X2545Y1958D01*
X1862Y1957D02*
X1918Y1957D01*
X2037Y1957D02*
X2093Y1957D01*
X2395Y1957D02*
X2408Y1957D01*
X2426Y1957D02*
X2437Y1957D01*
X2487Y1957D02*
X2499Y1957D01*
X2533Y1957D02*
X2545Y1957D01*
X1862Y1956D02*
X1873Y1956D01*
X2037Y1956D02*
X2049Y1956D01*
X2394Y1956D02*
X2407Y1956D01*
X2426Y1956D02*
X2437Y1956D01*
X2486Y1956D02*
X2499Y1956D01*
X2533Y1956D02*
X2545Y1956D01*
X1862Y1955D02*
X1873Y1955D01*
X2037Y1955D02*
X2048Y1955D01*
X2393Y1955D02*
X2407Y1955D01*
X2426Y1955D02*
X2437Y1955D01*
X2486Y1955D02*
X2498Y1955D01*
X2533Y1955D02*
X2545Y1955D01*
X1862Y1954D02*
X1873Y1954D01*
X2037Y1954D02*
X2048Y1954D01*
X2393Y1954D02*
X2406Y1954D01*
X2426Y1954D02*
X2437Y1954D01*
X2486Y1954D02*
X2497Y1954D01*
X2533Y1954D02*
X2545Y1954D01*
X1862Y1953D02*
X1873Y1953D01*
X2037Y1953D02*
X2048Y1953D01*
X2392Y1953D02*
X2406Y1953D01*
X2426Y1953D02*
X2437Y1953D01*
X2486Y1953D02*
X2497Y1953D01*
X2533Y1953D02*
X2545Y1953D01*
X1862Y1952D02*
X1873Y1952D01*
X2037Y1952D02*
X2048Y1952D01*
X2392Y1952D02*
X2405Y1952D01*
X2426Y1952D02*
X2437Y1952D01*
X2485Y1952D02*
X2497Y1952D01*
X2533Y1952D02*
X2545Y1952D01*
X1862Y1951D02*
X1873Y1951D01*
X2037Y1951D02*
X2048Y1951D01*
X2391Y1951D02*
X2404Y1951D01*
X2426Y1951D02*
X2437Y1951D01*
X2485Y1951D02*
X2497Y1951D01*
X2533Y1951D02*
X2545Y1951D01*
X1862Y1950D02*
X1873Y1950D01*
X2037Y1950D02*
X2048Y1950D01*
X2391Y1950D02*
X2404Y1950D01*
X2426Y1950D02*
X2437Y1950D01*
X2485Y1950D02*
X2497Y1950D01*
X2533Y1950D02*
X2545Y1950D01*
X1862Y1949D02*
X1873Y1949D01*
X2037Y1949D02*
X2048Y1949D01*
X2390Y1949D02*
X2403Y1949D01*
X2426Y1949D02*
X2437Y1949D01*
X2485Y1949D02*
X2497Y1949D01*
X2533Y1949D02*
X2545Y1949D01*
X1862Y1948D02*
X1873Y1948D01*
X2037Y1948D02*
X2048Y1948D01*
X2389Y1948D02*
X2403Y1948D01*
X2426Y1948D02*
X2437Y1948D01*
X2485Y1948D02*
X2497Y1948D01*
X2533Y1948D02*
X2545Y1948D01*
X1862Y1947D02*
X1873Y1947D01*
X2037Y1947D02*
X2048Y1947D01*
X2389Y1947D02*
X2402Y1947D01*
X2426Y1947D02*
X2437Y1947D01*
X2485Y1947D02*
X2497Y1947D01*
X2533Y1947D02*
X2545Y1947D01*
X1862Y1946D02*
X1873Y1946D01*
X2037Y1946D02*
X2048Y1946D01*
X2388Y1946D02*
X2402Y1946D01*
X2426Y1946D02*
X2437Y1946D01*
X2485Y1946D02*
X2497Y1946D01*
X2533Y1946D02*
X2545Y1946D01*
X1862Y1945D02*
X1873Y1945D01*
X2037Y1945D02*
X2048Y1945D01*
X2388Y1945D02*
X2401Y1945D01*
X2426Y1945D02*
X2437Y1945D01*
X2485Y1945D02*
X2497Y1945D01*
X2533Y1945D02*
X2545Y1945D01*
X1862Y1944D02*
X1873Y1944D01*
X2037Y1944D02*
X2048Y1944D01*
X2387Y1944D02*
X2400Y1944D01*
X2426Y1944D02*
X2437Y1944D01*
X2485Y1944D02*
X2497Y1944D01*
X2533Y1944D02*
X2545Y1944D01*
X1862Y1943D02*
X1873Y1943D01*
X2037Y1943D02*
X2048Y1943D01*
X2386Y1943D02*
X2400Y1943D01*
X2426Y1943D02*
X2437Y1943D01*
X2485Y1943D02*
X2497Y1943D01*
X2533Y1943D02*
X2545Y1943D01*
X1862Y1942D02*
X1873Y1942D01*
X1953Y1942D02*
X1957Y1942D01*
X2001Y1942D02*
X2005Y1942D01*
X2037Y1942D02*
X2048Y1942D01*
X2386Y1942D02*
X2399Y1942D01*
X2426Y1942D02*
X2437Y1942D01*
X2486Y1942D02*
X2497Y1942D01*
X2533Y1942D02*
X2545Y1942D01*
X1862Y1941D02*
X1873Y1941D01*
X1952Y1941D02*
X1959Y1941D01*
X2000Y1941D02*
X2007Y1941D01*
X2037Y1941D02*
X2048Y1941D01*
X2385Y1941D02*
X2399Y1941D01*
X2426Y1941D02*
X2437Y1941D01*
X2486Y1941D02*
X2497Y1941D01*
X2533Y1941D02*
X2545Y1941D01*
X1862Y1940D02*
X1873Y1940D01*
X1951Y1940D02*
X1959Y1940D01*
X1999Y1940D02*
X2007Y1940D01*
X2037Y1940D02*
X2048Y1940D01*
X2385Y1940D02*
X2398Y1940D01*
X2426Y1940D02*
X2437Y1940D01*
X2486Y1940D02*
X2498Y1940D01*
X2533Y1940D02*
X2545Y1940D01*
X1862Y1939D02*
X1873Y1939D01*
X1950Y1939D02*
X1960Y1939D01*
X1998Y1939D02*
X2008Y1939D01*
X2037Y1939D02*
X2048Y1939D01*
X2384Y1939D02*
X2397Y1939D01*
X2426Y1939D02*
X2437Y1939D01*
X2486Y1939D02*
X2498Y1939D01*
X2533Y1939D02*
X2545Y1939D01*
X1862Y1938D02*
X1873Y1938D01*
X1950Y1938D02*
X1960Y1938D01*
X1998Y1938D02*
X2008Y1938D01*
X2037Y1938D02*
X2048Y1938D01*
X2384Y1938D02*
X2397Y1938D01*
X2426Y1938D02*
X2437Y1938D01*
X2486Y1938D02*
X2499Y1938D01*
X2533Y1938D02*
X2545Y1938D01*
X1862Y1937D02*
X1873Y1937D01*
X1949Y1937D02*
X1961Y1937D01*
X1998Y1937D02*
X2009Y1937D01*
X2037Y1937D02*
X2048Y1937D01*
X2383Y1937D02*
X2396Y1937D01*
X2426Y1937D02*
X2437Y1937D01*
X2487Y1937D02*
X2500Y1937D01*
X2533Y1937D02*
X2545Y1937D01*
X1862Y1936D02*
X1873Y1936D01*
X1949Y1936D02*
X1961Y1936D01*
X1997Y1936D02*
X2009Y1936D01*
X2037Y1936D02*
X2048Y1936D01*
X2382Y1936D02*
X2396Y1936D01*
X2426Y1936D02*
X2437Y1936D01*
X2487Y1936D02*
X2501Y1936D01*
X2533Y1936D02*
X2545Y1936D01*
X1862Y1935D02*
X1873Y1935D01*
X1949Y1935D02*
X1961Y1935D01*
X1997Y1935D02*
X2009Y1935D01*
X2037Y1935D02*
X2048Y1935D01*
X2382Y1935D02*
X2395Y1935D01*
X2426Y1935D02*
X2437Y1935D01*
X2488Y1935D02*
X2502Y1935D01*
X2533Y1935D02*
X2545Y1935D01*
X1862Y1934D02*
X1873Y1934D01*
X1949Y1934D02*
X1961Y1934D01*
X1997Y1934D02*
X2009Y1934D01*
X2037Y1934D02*
X2048Y1934D01*
X2381Y1934D02*
X2395Y1934D01*
X2426Y1934D02*
X2437Y1934D01*
X2488Y1934D02*
X2504Y1934D01*
X2533Y1934D02*
X2545Y1934D01*
X1862Y1933D02*
X1873Y1933D01*
X1949Y1933D02*
X1961Y1933D01*
X1997Y1933D02*
X2009Y1933D01*
X2037Y1933D02*
X2048Y1933D01*
X2381Y1933D02*
X2394Y1933D01*
X2426Y1933D02*
X2437Y1933D01*
X2489Y1933D02*
X2507Y1933D01*
X2533Y1933D02*
X2545Y1933D01*
X1862Y1932D02*
X1873Y1932D01*
X1949Y1932D02*
X1961Y1932D01*
X1997Y1932D02*
X2009Y1932D01*
X2037Y1932D02*
X2048Y1932D01*
X2380Y1932D02*
X2393Y1932D01*
X2426Y1932D02*
X2437Y1932D01*
X2489Y1932D02*
X2545Y1932D01*
X1862Y1931D02*
X1874Y1931D01*
X1949Y1931D02*
X1961Y1931D01*
X1997Y1931D02*
X2009Y1931D01*
X2037Y1931D02*
X2049Y1931D01*
X2380Y1931D02*
X2393Y1931D01*
X2426Y1931D02*
X2437Y1931D01*
X2490Y1931D02*
X2545Y1931D01*
X1862Y1930D02*
X1874Y1930D01*
X1949Y1930D02*
X1961Y1930D01*
X1997Y1930D02*
X2009Y1930D01*
X2037Y1930D02*
X2049Y1930D01*
X2379Y1930D02*
X2392Y1930D01*
X2426Y1930D02*
X2437Y1930D01*
X2491Y1930D02*
X2545Y1930D01*
X1862Y1929D02*
X1875Y1929D01*
X1949Y1929D02*
X1961Y1929D01*
X1997Y1929D02*
X2009Y1929D01*
X2037Y1929D02*
X2050Y1929D01*
X2378Y1929D02*
X2392Y1929D01*
X2426Y1929D02*
X2437Y1929D01*
X2492Y1929D02*
X2545Y1929D01*
X1863Y1928D02*
X1876Y1928D01*
X1949Y1928D02*
X1961Y1928D01*
X1997Y1928D02*
X2009Y1928D01*
X2038Y1928D02*
X2052Y1928D01*
X2378Y1928D02*
X2391Y1928D01*
X2426Y1928D02*
X2437Y1928D01*
X2493Y1928D02*
X2545Y1928D01*
X1863Y1927D02*
X1905Y1927D01*
X1949Y1927D02*
X1961Y1927D01*
X1997Y1927D02*
X2009Y1927D01*
X2038Y1927D02*
X2080Y1927D01*
X2378Y1927D02*
X2390Y1927D01*
X2426Y1927D02*
X2437Y1927D01*
X2494Y1927D02*
X2545Y1927D01*
X1863Y1926D02*
X1907Y1926D01*
X1949Y1926D02*
X1961Y1926D01*
X1997Y1926D02*
X2009Y1926D01*
X2039Y1926D02*
X2082Y1926D01*
X2378Y1926D02*
X2390Y1926D01*
X2426Y1926D02*
X2437Y1926D01*
X2495Y1926D02*
X2545Y1926D01*
X1864Y1925D02*
X1908Y1925D01*
X1950Y1925D02*
X1962Y1925D01*
X1996Y1925D02*
X2009Y1925D01*
X2039Y1925D02*
X2083Y1925D01*
X2378Y1925D02*
X2389Y1925D01*
X2426Y1925D02*
X2437Y1925D01*
X2496Y1925D02*
X2545Y1925D01*
X1864Y1924D02*
X1908Y1924D01*
X1950Y1924D02*
X1962Y1924D01*
X1996Y1924D02*
X2008Y1924D01*
X2040Y1924D02*
X2083Y1924D01*
X2379Y1924D02*
X2389Y1924D01*
X2427Y1924D02*
X2437Y1924D01*
X2498Y1924D02*
X2545Y1924D01*
X1865Y1923D02*
X1909Y1923D01*
X1950Y1923D02*
X1963Y1923D01*
X1996Y1923D02*
X2008Y1923D01*
X2040Y1923D02*
X2084Y1923D01*
X2379Y1923D02*
X2388Y1923D01*
X2427Y1923D02*
X2436Y1923D01*
X2500Y1923D02*
X2545Y1923D01*
X1866Y1922D02*
X1909Y1922D01*
X1951Y1922D02*
X1963Y1922D01*
X1995Y1922D02*
X2007Y1922D01*
X2041Y1922D02*
X2084Y1922D01*
X2380Y1922D02*
X2387Y1922D01*
X2428Y1922D02*
X2435Y1922D01*
X2502Y1922D02*
X2545Y1922D01*
X1866Y1921D02*
X1909Y1921D01*
X1951Y1921D02*
X1963Y1921D01*
X1995Y1921D02*
X2007Y1921D01*
X2042Y1921D02*
X2084Y1921D01*
X2382Y1921D02*
X2385Y1921D01*
X2430Y1921D02*
X2433Y1921D01*
X2505Y1921D02*
X2545Y1921D01*
X1866Y1920D02*
X1909Y1920D01*
X1952Y1920D02*
X1964Y1920D01*
X1994Y1920D02*
X2007Y1920D01*
X2041Y1920D02*
X2084Y1920D01*
X1865Y1919D02*
X1909Y1919D01*
X1952Y1919D02*
X1964Y1919D01*
X1994Y1919D02*
X2006Y1919D01*
X2040Y1919D02*
X2084Y1919D01*
X1864Y1918D02*
X1908Y1918D01*
X1952Y1918D02*
X1965Y1918D01*
X1993Y1918D02*
X2006Y1918D01*
X2040Y1918D02*
X2083Y1918D01*
X1864Y1917D02*
X1908Y1917D01*
X1953Y1917D02*
X1965Y1917D01*
X1993Y1917D02*
X2005Y1917D01*
X2039Y1917D02*
X2083Y1917D01*
X1863Y1916D02*
X1906Y1916D01*
X1953Y1916D02*
X1966Y1916D01*
X1992Y1916D02*
X2005Y1916D01*
X2038Y1916D02*
X2081Y1916D01*
X1863Y1915D02*
X1903Y1915D01*
X1954Y1915D02*
X1966Y1915D01*
X1992Y1915D02*
X2004Y1915D01*
X2038Y1915D02*
X2078Y1915D01*
X1863Y1914D02*
X1876Y1914D01*
X1954Y1914D02*
X1967Y1914D01*
X1992Y1914D02*
X2004Y1914D01*
X2038Y1914D02*
X2051Y1914D01*
X1862Y1913D02*
X1875Y1913D01*
X1955Y1913D02*
X1967Y1913D01*
X1991Y1913D02*
X2004Y1913D01*
X2037Y1913D02*
X2050Y1913D01*
X1862Y1912D02*
X1874Y1912D01*
X1955Y1912D02*
X1967Y1912D01*
X1991Y1912D02*
X2003Y1912D01*
X2037Y1912D02*
X2049Y1912D01*
X1862Y1911D02*
X1873Y1911D01*
X1956Y1911D02*
X1968Y1911D01*
X1990Y1911D02*
X2003Y1911D01*
X2037Y1911D02*
X2049Y1911D01*
X1862Y1910D02*
X1873Y1910D01*
X1956Y1910D02*
X1968Y1910D01*
X1990Y1910D02*
X2002Y1910D01*
X2037Y1910D02*
X2048Y1910D01*
X1862Y1909D02*
X1873Y1909D01*
X1956Y1909D02*
X1969Y1909D01*
X1989Y1909D02*
X2002Y1909D01*
X2037Y1909D02*
X2048Y1909D01*
X1862Y1908D02*
X1873Y1908D01*
X1957Y1908D02*
X1969Y1908D01*
X1989Y1908D02*
X2001Y1908D01*
X2037Y1908D02*
X2048Y1908D01*
X1862Y1907D02*
X1873Y1907D01*
X1957Y1907D02*
X1970Y1907D01*
X1989Y1907D02*
X2001Y1907D01*
X2037Y1907D02*
X2048Y1907D01*
X1862Y1906D02*
X1873Y1906D01*
X1958Y1906D02*
X1970Y1906D01*
X1988Y1906D02*
X2000Y1906D01*
X2037Y1906D02*
X2048Y1906D01*
X1862Y1905D02*
X1873Y1905D01*
X1958Y1905D02*
X1970Y1905D01*
X1988Y1905D02*
X2000Y1905D01*
X2037Y1905D02*
X2048Y1905D01*
X1862Y1904D02*
X1873Y1904D01*
X1959Y1904D02*
X1971Y1904D01*
X1987Y1904D02*
X2000Y1904D01*
X2037Y1904D02*
X2048Y1904D01*
X1862Y1903D02*
X1873Y1903D01*
X1959Y1903D02*
X1971Y1903D01*
X1987Y1903D02*
X1999Y1903D01*
X2037Y1903D02*
X2048Y1903D01*
X1862Y1902D02*
X1873Y1902D01*
X1959Y1902D02*
X1972Y1902D01*
X1986Y1902D02*
X1999Y1902D01*
X2037Y1902D02*
X2048Y1902D01*
X1862Y1901D02*
X1873Y1901D01*
X1960Y1901D02*
X1972Y1901D01*
X1986Y1901D02*
X1998Y1901D01*
X2037Y1901D02*
X2048Y1901D01*
X1862Y1900D02*
X1873Y1900D01*
X1960Y1900D02*
X1973Y1900D01*
X1986Y1900D02*
X1998Y1900D01*
X2037Y1900D02*
X2048Y1900D01*
X1862Y1899D02*
X1873Y1899D01*
X1961Y1899D02*
X1973Y1899D01*
X1985Y1899D02*
X1997Y1899D01*
X2037Y1899D02*
X2048Y1899D01*
X1862Y1898D02*
X1873Y1898D01*
X1961Y1898D02*
X1974Y1898D01*
X1985Y1898D02*
X1997Y1898D01*
X2037Y1898D02*
X2048Y1898D01*
X1862Y1897D02*
X1873Y1897D01*
X1962Y1897D02*
X1974Y1897D01*
X1984Y1897D02*
X1997Y1897D01*
X2037Y1897D02*
X2048Y1897D01*
X1862Y1896D02*
X1873Y1896D01*
X1962Y1896D02*
X1974Y1896D01*
X1984Y1896D02*
X1996Y1896D01*
X2037Y1896D02*
X2048Y1896D01*
X1862Y1895D02*
X1873Y1895D01*
X1963Y1895D02*
X1975Y1895D01*
X1983Y1895D02*
X1996Y1895D01*
X2037Y1895D02*
X2048Y1895D01*
X1862Y1894D02*
X1873Y1894D01*
X1963Y1894D02*
X1975Y1894D01*
X1983Y1894D02*
X1995Y1894D01*
X2037Y1894D02*
X2048Y1894D01*
X1862Y1893D02*
X1873Y1893D01*
X1963Y1893D02*
X1976Y1893D01*
X1983Y1893D02*
X1995Y1893D01*
X2037Y1893D02*
X2048Y1893D01*
X1862Y1892D02*
X1873Y1892D01*
X1964Y1892D02*
X1976Y1892D01*
X1982Y1892D02*
X1994Y1892D01*
X2037Y1892D02*
X2048Y1892D01*
X1862Y1891D02*
X1873Y1891D01*
X1964Y1891D02*
X1977Y1891D01*
X1982Y1891D02*
X1994Y1891D01*
X2037Y1891D02*
X2048Y1891D01*
X1862Y1890D02*
X1873Y1890D01*
X1965Y1890D02*
X1977Y1890D01*
X1981Y1890D02*
X1993Y1890D01*
X2037Y1890D02*
X2048Y1890D01*
X1862Y1889D02*
X1873Y1889D01*
X1965Y1889D02*
X1978Y1889D01*
X1981Y1889D02*
X1993Y1889D01*
X2037Y1889D02*
X2048Y1889D01*
X1862Y1888D02*
X1873Y1888D01*
X1966Y1888D02*
X1978Y1888D01*
X1980Y1888D02*
X1993Y1888D01*
X2037Y1888D02*
X2048Y1888D01*
X1862Y1887D02*
X1873Y1887D01*
X1966Y1887D02*
X1978Y1887D01*
X1980Y1887D02*
X1992Y1887D01*
X2037Y1887D02*
X2048Y1887D01*
X1862Y1886D02*
X1915Y1886D01*
X1966Y1886D02*
X1992Y1886D01*
X2037Y1886D02*
X2091Y1886D01*
X1862Y1885D02*
X1918Y1885D01*
X1967Y1885D02*
X1991Y1885D01*
X2037Y1885D02*
X2093Y1885D01*
X1862Y1884D02*
X1919Y1884D01*
X1967Y1884D02*
X1991Y1884D01*
X2037Y1884D02*
X2095Y1884D01*
X1862Y1883D02*
X1920Y1883D01*
X1968Y1883D02*
X1990Y1883D01*
X2037Y1883D02*
X2095Y1883D01*
X1863Y1882D02*
X1921Y1882D01*
X1968Y1882D02*
X1990Y1882D01*
X2038Y1882D02*
X2096Y1882D01*
X1863Y1881D02*
X1921Y1881D01*
X1969Y1881D02*
X1990Y1881D01*
X2038Y1881D02*
X2096Y1881D01*
X1863Y1880D02*
X1921Y1880D01*
X1969Y1880D02*
X1989Y1880D01*
X2039Y1880D02*
X2096Y1880D01*
X1864Y1879D02*
X1921Y1879D01*
X1970Y1879D02*
X1989Y1879D01*
X2039Y1879D02*
X2096Y1879D01*
X1865Y1878D02*
X1921Y1878D01*
X1970Y1878D02*
X1988Y1878D01*
X2040Y1878D02*
X2096Y1878D01*
X1866Y1877D02*
X1920Y1877D01*
X1970Y1877D02*
X1988Y1877D01*
X2041Y1877D02*
X2095Y1877D01*
X1867Y1876D02*
X1920Y1876D01*
X1971Y1876D02*
X1987Y1876D01*
X2042Y1876D02*
X2095Y1876D01*
X1869Y1875D02*
X1918Y1875D01*
X1972Y1875D02*
X1986Y1875D01*
X2044Y1875D02*
X2094Y1875D01*
X1872Y1874D02*
X1917Y1874D01*
X1974Y1874D02*
X1984Y1874D01*
X2047Y1874D02*
X2092Y1874D01*
X998Y1072D02*
X1002Y1072D01*
X996Y1071D02*
X1004Y1071D01*
X995Y1070D02*
X1006Y1070D01*
X994Y1069D02*
X1007Y1069D01*
X993Y1068D02*
X1008Y1068D01*
X993Y1067D02*
X1008Y1067D01*
X992Y1066D02*
X1008Y1066D01*
X992Y1065D02*
X1009Y1065D01*
X992Y1064D02*
X1009Y1064D01*
X992Y1063D02*
X1009Y1063D01*
X992Y1062D02*
X1009Y1062D01*
X992Y1061D02*
X1009Y1061D01*
X992Y1060D02*
X1009Y1060D01*
X992Y1059D02*
X1009Y1059D01*
X992Y1058D02*
X1009Y1058D01*
X992Y1057D02*
X1009Y1057D01*
X992Y1056D02*
X1009Y1056D01*
X992Y1055D02*
X1009Y1055D01*
X992Y1054D02*
X1009Y1054D01*
X992Y1053D02*
X1009Y1053D01*
X992Y1052D02*
X1009Y1052D01*
X992Y1051D02*
X1009Y1051D01*
X992Y1050D02*
X1009Y1050D01*
X992Y1049D02*
X1009Y1049D01*
X992Y1048D02*
X1009Y1048D01*
X992Y1047D02*
X1009Y1047D01*
X992Y1046D02*
X1009Y1046D01*
X992Y1045D02*
X1009Y1045D01*
X992Y1044D02*
X1009Y1044D01*
X992Y1043D02*
X1009Y1043D01*
X992Y1042D02*
X1009Y1042D01*
X992Y1041D02*
X1009Y1041D01*
X992Y1040D02*
X1009Y1040D01*
X992Y1039D02*
X1009Y1039D01*
X992Y1038D02*
X1009Y1038D01*
X992Y1037D02*
X1009Y1037D01*
X961Y1036D02*
X1039Y1036D01*
X960Y1035D02*
X1041Y1035D01*
X959Y1034D02*
X1042Y1034D01*
X958Y1033D02*
X1043Y1033D01*
X957Y1032D02*
X1043Y1032D01*
X957Y1031D02*
X1044Y1031D01*
X956Y1030D02*
X1044Y1030D01*
X956Y1029D02*
X1044Y1029D01*
X956Y1028D02*
X1044Y1028D01*
X956Y1027D02*
X1044Y1027D01*
X956Y1026D02*
X1044Y1026D01*
X956Y1025D02*
X1044Y1025D01*
X957Y1024D02*
X1044Y1024D01*
X957Y1023D02*
X1043Y1023D01*
X958Y1022D02*
X1043Y1022D01*
X959Y1021D02*
X1042Y1021D01*
X960Y1020D02*
X1041Y1020D01*
X962Y1019D02*
X1038Y1019D01*
X992Y1018D02*
X1009Y1018D01*
X992Y1017D02*
X1009Y1017D01*
X992Y1016D02*
X1009Y1016D01*
X992Y1015D02*
X1009Y1015D01*
X992Y1014D02*
X1009Y1014D01*
X992Y1013D02*
X1009Y1013D01*
X992Y1012D02*
X1009Y1012D01*
X992Y1011D02*
X1009Y1011D01*
X992Y1010D02*
X1009Y1010D01*
X992Y1009D02*
X1009Y1009D01*
X992Y1008D02*
X1009Y1008D01*
X992Y1007D02*
X1009Y1007D01*
X992Y1006D02*
X1009Y1006D01*
X992Y1005D02*
X1009Y1005D01*
X992Y1004D02*
X1009Y1004D01*
X992Y1003D02*
X1009Y1003D01*
X992Y1002D02*
X1009Y1002D01*
X992Y1001D02*
X1009Y1001D01*
X992Y1000D02*
X1009Y1000D01*
X992Y999D02*
X1009Y999D01*
X992Y998D02*
X1009Y998D01*
X992Y997D02*
X1009Y997D01*
X992Y996D02*
X1009Y996D01*
X992Y995D02*
X1009Y995D01*
X992Y994D02*
X1009Y994D01*
X992Y993D02*
X1009Y993D01*
X992Y992D02*
X1009Y992D01*
X992Y991D02*
X1009Y991D01*
X992Y990D02*
X1009Y990D01*
X992Y989D02*
X1008Y989D01*
X993Y988D02*
X1008Y988D01*
X993Y987D02*
X1007Y987D01*
X994Y986D02*
X1007Y986D01*
X995Y985D02*
X1006Y985D01*
X996Y984D02*
X1004Y984D01*
X999Y983D02*
X1002Y983D01*
X986Y936D02*
X1016Y936D01*
X981Y935D02*
X1021Y935D01*
X979Y934D02*
X1023Y934D01*
X977Y933D02*
X1024Y933D01*
X976Y932D02*
X1025Y932D01*
X975Y931D02*
X1026Y931D01*
X974Y930D02*
X1027Y930D01*
X973Y929D02*
X1027Y929D01*
X972Y928D02*
X1028Y928D01*
X972Y927D02*
X1028Y927D01*
X971Y926D02*
X1029Y926D01*
X971Y925D02*
X1029Y925D01*
X971Y924D02*
X1029Y924D01*
X970Y923D02*
X983Y923D01*
X1018Y923D02*
X1029Y923D01*
X970Y922D02*
X982Y922D01*
X1018Y922D02*
X1029Y922D01*
X970Y921D02*
X981Y921D01*
X1017Y921D02*
X1029Y921D01*
X970Y920D02*
X981Y920D01*
X1017Y920D02*
X1029Y920D01*
X970Y919D02*
X981Y919D01*
X1016Y919D02*
X1029Y919D01*
X970Y918D02*
X981Y918D01*
X1015Y918D02*
X1029Y918D01*
X971Y917D02*
X980Y917D01*
X1014Y917D02*
X1028Y917D01*
X971Y916D02*
X980Y916D01*
X1014Y916D02*
X1028Y916D01*
X972Y915D02*
X979Y915D01*
X1013Y915D02*
X1027Y915D01*
X974Y914D02*
X977Y914D01*
X1012Y914D02*
X1027Y914D01*
X1011Y913D02*
X1026Y913D01*
X1010Y912D02*
X1025Y912D01*
X1010Y911D02*
X1024Y911D01*
X1009Y910D02*
X1024Y910D01*
X1008Y909D02*
X1023Y909D01*
X1007Y908D02*
X1022Y908D01*
X1007Y907D02*
X1021Y907D01*
X1006Y906D02*
X1020Y906D01*
X1005Y905D02*
X1020Y905D01*
X1004Y904D02*
X1019Y904D01*
X1003Y903D02*
X1018Y903D01*
X1003Y902D02*
X1017Y902D01*
X1002Y901D02*
X1017Y901D01*
X1001Y900D02*
X1016Y900D01*
X1000Y899D02*
X1015Y899D01*
X999Y898D02*
X1014Y898D01*
X999Y897D02*
X1013Y897D01*
X998Y896D02*
X1013Y896D01*
X997Y895D02*
X1012Y895D01*
X996Y894D02*
X1011Y894D01*
X996Y893D02*
X1010Y893D01*
X995Y892D02*
X1010Y892D01*
X994Y891D02*
X1009Y891D01*
X993Y890D02*
X1008Y890D01*
X992Y889D02*
X1007Y889D01*
X992Y888D02*
X1006Y888D01*
X991Y887D02*
X1006Y887D01*
X990Y886D02*
X1005Y886D01*
X989Y885D02*
X1004Y885D01*
X989Y884D02*
X1003Y884D01*
X988Y883D02*
X1003Y883D01*
X987Y882D02*
X1002Y882D01*
X986Y881D02*
X1001Y881D01*
X985Y880D02*
X1000Y880D01*
X985Y879D02*
X999Y879D01*
X984Y878D02*
X999Y878D01*
X983Y877D02*
X998Y877D01*
X982Y876D02*
X997Y876D01*
X982Y875D02*
X996Y875D01*
X981Y874D02*
X996Y874D01*
X980Y873D02*
X995Y873D01*
X979Y872D02*
X994Y872D01*
X978Y871D02*
X993Y871D01*
X978Y870D02*
X992Y870D01*
X977Y869D02*
X992Y869D01*
X976Y868D02*
X991Y868D01*
X975Y867D02*
X990Y867D01*
X975Y866D02*
X989Y866D01*
X974Y865D02*
X989Y865D01*
X973Y864D02*
X988Y864D01*
X1023Y864D02*
X1024Y864D01*
X972Y863D02*
X987Y863D01*
X1021Y863D02*
X1026Y863D01*
X972Y862D02*
X986Y862D01*
X1020Y862D02*
X1028Y862D01*
X971Y861D02*
X985Y861D01*
X1019Y861D02*
X1028Y861D01*
X971Y860D02*
X985Y860D01*
X1018Y860D02*
X1029Y860D01*
X970Y859D02*
X984Y859D01*
X1018Y859D02*
X1029Y859D01*
X970Y858D02*
X983Y858D01*
X1018Y858D02*
X1029Y858D01*
X970Y857D02*
X982Y857D01*
X1018Y857D02*
X1029Y857D01*
X970Y856D02*
X982Y856D01*
X1017Y856D02*
X1029Y856D01*
X970Y855D02*
X981Y855D01*
X1017Y855D02*
X1029Y855D01*
X970Y854D02*
X982Y854D01*
X1015Y854D02*
X1029Y854D01*
X970Y853D02*
X1028Y853D01*
X970Y852D02*
X1028Y852D01*
X971Y851D02*
X1028Y851D01*
X971Y850D02*
X1027Y850D01*
X972Y849D02*
X1027Y849D01*
X972Y848D02*
X1026Y848D01*
X973Y847D02*
X1025Y847D01*
X974Y846D02*
X1024Y846D01*
X975Y845D02*
X1023Y845D01*
X976Y844D02*
X1021Y844D01*
X978Y843D02*
X1019Y843D01*
X980Y842D02*
X1017Y842D01*
X958Y773D02*
X1036Y773D01*
X956Y772D02*
X1037Y772D01*
X955Y771D02*
X1038Y771D01*
X954Y770D02*
X1039Y770D01*
X953Y769D02*
X1040Y769D01*
X953Y768D02*
X1040Y768D01*
X953Y767D02*
X1040Y767D01*
X952Y766D02*
X1041Y766D01*
X952Y765D02*
X1041Y765D01*
X952Y764D02*
X1041Y764D01*
X952Y763D02*
X1041Y763D01*
X952Y762D02*
X1041Y762D01*
X952Y761D02*
X1041Y761D01*
X952Y760D02*
X1041Y760D01*
X952Y759D02*
X1041Y759D01*
X952Y758D02*
X1041Y758D01*
X952Y757D02*
X1041Y757D01*
X952Y756D02*
X1041Y756D01*
X952Y755D02*
X1041Y755D01*
X953Y754D02*
X1040Y754D01*
X953Y753D02*
X1040Y753D01*
X954Y752D02*
X1039Y752D01*
X955Y751D02*
X1039Y751D01*
X956Y750D02*
X1037Y750D01*
X957Y749D02*
X1036Y749D01*
X960Y748D02*
X1033Y748D01*
X2535Y689D02*
X2537Y689D01*
X2598Y689D02*
X2601Y689D01*
X2857Y689D02*
X2871Y689D01*
X2902Y689D02*
X2916Y689D01*
X2533Y688D02*
X2539Y688D01*
X2596Y688D02*
X2603Y688D01*
X2857Y688D02*
X2872Y688D01*
X2901Y688D02*
X2916Y688D01*
X2532Y687D02*
X2540Y687D01*
X2595Y687D02*
X2604Y687D01*
X2857Y687D02*
X2873Y687D01*
X2900Y687D02*
X2916Y687D01*
X2531Y686D02*
X2541Y686D01*
X2595Y686D02*
X2605Y686D01*
X2857Y686D02*
X2873Y686D01*
X2899Y686D02*
X2916Y686D01*
X2531Y685D02*
X2541Y685D01*
X2594Y685D02*
X2605Y685D01*
X2857Y685D02*
X2874Y685D01*
X2899Y685D02*
X2916Y685D01*
X2372Y684D02*
X2374Y684D01*
X2530Y684D02*
X2542Y684D01*
X2594Y684D02*
X2606Y684D01*
X2857Y684D02*
X2875Y684D01*
X2898Y684D02*
X2916Y684D01*
X2370Y683D02*
X2376Y683D01*
X2530Y683D02*
X2542Y683D01*
X2594Y683D02*
X2606Y683D01*
X2857Y683D02*
X2875Y683D01*
X2897Y683D02*
X2916Y683D01*
X2369Y682D02*
X2377Y682D01*
X2530Y682D02*
X2542Y682D01*
X2594Y682D02*
X2607Y682D01*
X2857Y682D02*
X2876Y682D01*
X2897Y682D02*
X2916Y682D01*
X2368Y681D02*
X2378Y681D01*
X2530Y681D02*
X2543Y681D01*
X2594Y681D02*
X2607Y681D01*
X2857Y681D02*
X2877Y681D01*
X2896Y681D02*
X2916Y681D01*
X2368Y680D02*
X2378Y680D01*
X2529Y680D02*
X2543Y680D01*
X2595Y680D02*
X2608Y680D01*
X2857Y680D02*
X2877Y680D01*
X2895Y680D02*
X2916Y680D01*
X2367Y679D02*
X2378Y679D01*
X2529Y679D02*
X2543Y679D01*
X2595Y679D02*
X2609Y679D01*
X2857Y679D02*
X2878Y679D01*
X2894Y679D02*
X2916Y679D01*
X2367Y678D02*
X2378Y678D01*
X2529Y678D02*
X2543Y678D01*
X2596Y678D02*
X2609Y678D01*
X2857Y678D02*
X2879Y678D01*
X2894Y678D02*
X2916Y678D01*
X2367Y677D02*
X2378Y677D01*
X2528Y677D02*
X2544Y677D01*
X2597Y677D02*
X2610Y677D01*
X2857Y677D02*
X2880Y677D01*
X2893Y677D02*
X2916Y677D01*
X2367Y676D02*
X2378Y676D01*
X2528Y676D02*
X2544Y676D01*
X2597Y676D02*
X2610Y676D01*
X2857Y676D02*
X2880Y676D01*
X2892Y676D02*
X2916Y676D01*
X2367Y675D02*
X2378Y675D01*
X2528Y675D02*
X2544Y675D01*
X2598Y675D02*
X2611Y675D01*
X2857Y675D02*
X2881Y675D01*
X2892Y675D02*
X2916Y675D01*
X2367Y674D02*
X2378Y674D01*
X2527Y674D02*
X2545Y674D01*
X2598Y674D02*
X2612Y674D01*
X2857Y674D02*
X2882Y674D01*
X2891Y674D02*
X2916Y674D01*
X2367Y673D02*
X2378Y673D01*
X2527Y673D02*
X2545Y673D01*
X2599Y673D02*
X2612Y673D01*
X2857Y673D02*
X2882Y673D01*
X2890Y673D02*
X2916Y673D01*
X2367Y672D02*
X2378Y672D01*
X2527Y672D02*
X2545Y672D01*
X2599Y672D02*
X2613Y672D01*
X2857Y672D02*
X2883Y672D01*
X2890Y672D02*
X2916Y672D01*
X2367Y671D02*
X2378Y671D01*
X2527Y671D02*
X2545Y671D01*
X2600Y671D02*
X2613Y671D01*
X2857Y671D02*
X2868Y671D01*
X2870Y671D02*
X2884Y671D01*
X2889Y671D02*
X2903Y671D01*
X2905Y671D02*
X2916Y671D01*
X2367Y670D02*
X2378Y670D01*
X2526Y670D02*
X2546Y670D01*
X2601Y670D02*
X2614Y670D01*
X2857Y670D02*
X2868Y670D01*
X2871Y670D02*
X2884Y670D01*
X2888Y670D02*
X2902Y670D01*
X2905Y670D02*
X2916Y670D01*
X2367Y669D02*
X2378Y669D01*
X2526Y669D02*
X2546Y669D01*
X2601Y669D02*
X2614Y669D01*
X2857Y669D02*
X2868Y669D01*
X2871Y669D02*
X2885Y669D01*
X2887Y669D02*
X2901Y669D01*
X2905Y669D02*
X2916Y669D01*
X2367Y668D02*
X2378Y668D01*
X2526Y668D02*
X2546Y668D01*
X2602Y668D02*
X2615Y668D01*
X2857Y668D02*
X2868Y668D01*
X2872Y668D02*
X2901Y668D01*
X2905Y668D02*
X2916Y668D01*
X2367Y667D02*
X2378Y667D01*
X2525Y667D02*
X2547Y667D01*
X2602Y667D02*
X2616Y667D01*
X2857Y667D02*
X2868Y667D01*
X2873Y667D02*
X2900Y667D01*
X2905Y667D02*
X2916Y667D01*
X2367Y666D02*
X2378Y666D01*
X2525Y666D02*
X2547Y666D01*
X2603Y666D02*
X2616Y666D01*
X2857Y666D02*
X2868Y666D01*
X2873Y666D02*
X2899Y666D01*
X2905Y666D02*
X2916Y666D01*
X2367Y665D02*
X2378Y665D01*
X2525Y665D02*
X2547Y665D01*
X2604Y665D02*
X2617Y665D01*
X2857Y665D02*
X2868Y665D01*
X2874Y665D02*
X2899Y665D01*
X2905Y665D02*
X2916Y665D01*
X2367Y664D02*
X2379Y664D01*
X2525Y664D02*
X2548Y664D01*
X2604Y664D02*
X2617Y664D01*
X2857Y664D02*
X2868Y664D01*
X2875Y664D02*
X2898Y664D01*
X2905Y664D02*
X2916Y664D01*
X2261Y663D02*
X2285Y663D01*
X2341Y663D02*
X2387Y663D01*
X2422Y663D02*
X2426Y663D01*
X2471Y663D02*
X2475Y663D01*
X2524Y663D02*
X2548Y663D01*
X2605Y663D02*
X2618Y663D01*
X2697Y663D02*
X2712Y663D01*
X2733Y663D02*
X2737Y663D01*
X2784Y663D02*
X2813Y663D01*
X2857Y663D02*
X2868Y663D01*
X2875Y663D02*
X2897Y663D01*
X2905Y663D02*
X2916Y663D01*
X2259Y662D02*
X2288Y662D01*
X2339Y662D02*
X2388Y662D01*
X2421Y662D02*
X2428Y662D01*
X2469Y662D02*
X2476Y662D01*
X2524Y662D02*
X2548Y662D01*
X2605Y662D02*
X2619Y662D01*
X2694Y662D02*
X2714Y662D01*
X2732Y662D02*
X2739Y662D01*
X2781Y662D02*
X2814Y662D01*
X2857Y662D02*
X2868Y662D01*
X2876Y662D02*
X2897Y662D01*
X2905Y662D02*
X2916Y662D01*
X2257Y661D02*
X2290Y661D01*
X2339Y661D02*
X2389Y661D01*
X2420Y661D02*
X2429Y661D01*
X2468Y661D02*
X2477Y661D01*
X2524Y661D02*
X2548Y661D01*
X2606Y661D02*
X2619Y661D01*
X2692Y661D02*
X2716Y661D01*
X2731Y661D02*
X2740Y661D01*
X2779Y661D02*
X2815Y661D01*
X2857Y661D02*
X2868Y661D01*
X2877Y661D02*
X2896Y661D01*
X2905Y661D02*
X2916Y661D01*
X2256Y660D02*
X2291Y660D01*
X2338Y660D02*
X2390Y660D01*
X2419Y660D02*
X2429Y660D01*
X2467Y660D02*
X2477Y660D01*
X2523Y660D02*
X2535Y660D01*
X2537Y660D02*
X2549Y660D01*
X2606Y660D02*
X2620Y660D01*
X2690Y660D02*
X2718Y660D01*
X2730Y660D02*
X2740Y660D01*
X2778Y660D02*
X2816Y660D01*
X2857Y660D02*
X2868Y660D01*
X2878Y660D02*
X2895Y660D01*
X2905Y660D02*
X2916Y660D01*
X2254Y659D02*
X2292Y659D01*
X2338Y659D02*
X2390Y659D01*
X2419Y659D02*
X2430Y659D01*
X2467Y659D02*
X2478Y659D01*
X2523Y659D02*
X2535Y659D01*
X2537Y659D02*
X2549Y659D01*
X2607Y659D02*
X2620Y659D01*
X2689Y659D02*
X2720Y659D01*
X2730Y659D02*
X2741Y659D01*
X2777Y659D02*
X2816Y659D01*
X2857Y659D02*
X2868Y659D01*
X2878Y659D02*
X2894Y659D01*
X2905Y659D02*
X2916Y659D01*
X2253Y658D02*
X2294Y658D01*
X2337Y658D02*
X2390Y658D01*
X2419Y658D02*
X2430Y658D01*
X2467Y658D02*
X2478Y658D01*
X2523Y658D02*
X2535Y658D01*
X2538Y658D02*
X2549Y658D01*
X2608Y658D02*
X2621Y658D01*
X2688Y658D02*
X2721Y658D01*
X2730Y658D02*
X2741Y658D01*
X2776Y658D02*
X2816Y658D01*
X2857Y658D02*
X2868Y658D01*
X2879Y658D02*
X2894Y658D01*
X2905Y658D02*
X2916Y658D01*
X2252Y657D02*
X2295Y657D01*
X2337Y657D02*
X2390Y657D01*
X2419Y657D02*
X2430Y657D01*
X2467Y657D02*
X2478Y657D01*
X2523Y657D02*
X2534Y657D01*
X2538Y657D02*
X2550Y657D01*
X2608Y657D02*
X2622Y657D01*
X2687Y657D02*
X2723Y657D01*
X2730Y657D02*
X2741Y657D01*
X2775Y657D02*
X2816Y657D01*
X2857Y657D02*
X2868Y657D01*
X2880Y657D02*
X2893Y657D01*
X2905Y657D02*
X2916Y657D01*
X2251Y656D02*
X2296Y656D01*
X2338Y656D02*
X2390Y656D01*
X2419Y656D02*
X2430Y656D01*
X2467Y656D02*
X2478Y656D01*
X2522Y656D02*
X2534Y656D01*
X2538Y656D02*
X2550Y656D01*
X2609Y656D02*
X2622Y656D01*
X2686Y656D02*
X2724Y656D01*
X2730Y656D02*
X2741Y656D01*
X2774Y656D02*
X2816Y656D01*
X2857Y656D02*
X2868Y656D01*
X2880Y656D02*
X2892Y656D01*
X2905Y656D02*
X2916Y656D01*
X2250Y655D02*
X2297Y655D01*
X2338Y655D02*
X2390Y655D01*
X2419Y655D02*
X2430Y655D01*
X2467Y655D02*
X2478Y655D01*
X2522Y655D02*
X2534Y655D01*
X2538Y655D02*
X2550Y655D01*
X2609Y655D02*
X2623Y655D01*
X2686Y655D02*
X2726Y655D01*
X2730Y655D02*
X2741Y655D01*
X2773Y655D02*
X2816Y655D01*
X2857Y655D02*
X2868Y655D01*
X2881Y655D02*
X2892Y655D01*
X2905Y655D02*
X2916Y655D01*
X2249Y654D02*
X2298Y654D01*
X2339Y654D02*
X2389Y654D01*
X2419Y654D02*
X2430Y654D01*
X2467Y654D02*
X2478Y654D01*
X2522Y654D02*
X2533Y654D01*
X2539Y654D02*
X2550Y654D01*
X2610Y654D02*
X2623Y654D01*
X2685Y654D02*
X2727Y654D01*
X2730Y654D02*
X2741Y654D01*
X2773Y654D02*
X2815Y654D01*
X2857Y654D02*
X2868Y654D01*
X2881Y654D02*
X2892Y654D01*
X2905Y654D02*
X2916Y654D01*
X2248Y653D02*
X2299Y653D01*
X2339Y653D02*
X2389Y653D01*
X2419Y653D02*
X2430Y653D01*
X2467Y653D02*
X2478Y653D01*
X2521Y653D02*
X2533Y653D01*
X2539Y653D02*
X2551Y653D01*
X2611Y653D02*
X2624Y653D01*
X2685Y653D02*
X2741Y653D01*
X2772Y653D02*
X2814Y653D01*
X2857Y653D02*
X2868Y653D01*
X2881Y653D02*
X2892Y653D01*
X2905Y653D02*
X2916Y653D01*
X2247Y652D02*
X2300Y652D01*
X2341Y652D02*
X2387Y652D01*
X2419Y652D02*
X2430Y652D01*
X2467Y652D02*
X2478Y652D01*
X2521Y652D02*
X2533Y652D01*
X2539Y652D02*
X2551Y652D01*
X2611Y652D02*
X2624Y652D01*
X2684Y652D02*
X2741Y652D01*
X2772Y652D02*
X2813Y652D01*
X2857Y652D02*
X2868Y652D01*
X2881Y652D02*
X2892Y652D01*
X2905Y652D02*
X2916Y652D01*
X2246Y651D02*
X2263Y651D01*
X2283Y651D02*
X2300Y651D01*
X2367Y651D02*
X2379Y651D01*
X2419Y651D02*
X2430Y651D01*
X2467Y651D02*
X2478Y651D01*
X2521Y651D02*
X2533Y651D01*
X2540Y651D02*
X2551Y651D01*
X2612Y651D02*
X2625Y651D01*
X2684Y651D02*
X2698Y651D01*
X2710Y651D02*
X2741Y651D01*
X2772Y651D02*
X2785Y651D01*
X2857Y651D02*
X2868Y651D01*
X2881Y651D02*
X2892Y651D01*
X2905Y651D02*
X2916Y651D01*
X2246Y650D02*
X2261Y650D01*
X2285Y650D02*
X2301Y650D01*
X2367Y650D02*
X2378Y650D01*
X2419Y650D02*
X2430Y650D01*
X2467Y650D02*
X2478Y650D01*
X2520Y650D02*
X2532Y650D01*
X2540Y650D02*
X2552Y650D01*
X2612Y650D02*
X2626Y650D01*
X2684Y650D02*
X2697Y650D01*
X2712Y650D02*
X2741Y650D01*
X2771Y650D02*
X2784Y650D01*
X2857Y650D02*
X2868Y650D01*
X2881Y650D02*
X2891Y650D01*
X2905Y650D02*
X2916Y650D01*
X2245Y649D02*
X2260Y649D01*
X2287Y649D02*
X2301Y649D01*
X2367Y649D02*
X2378Y649D01*
X2419Y649D02*
X2430Y649D01*
X2467Y649D02*
X2478Y649D01*
X2520Y649D02*
X2532Y649D01*
X2540Y649D02*
X2552Y649D01*
X2613Y649D02*
X2626Y649D01*
X2683Y649D02*
X2696Y649D01*
X2713Y649D02*
X2741Y649D01*
X2771Y649D02*
X2783Y649D01*
X2857Y649D02*
X2868Y649D01*
X2882Y649D02*
X2891Y649D01*
X2905Y649D02*
X2916Y649D01*
X2245Y648D02*
X2258Y648D01*
X2288Y648D02*
X2302Y648D01*
X2367Y648D02*
X2378Y648D01*
X2419Y648D02*
X2430Y648D01*
X2467Y648D02*
X2478Y648D01*
X2520Y648D02*
X2532Y648D01*
X2540Y648D02*
X2552Y648D01*
X2613Y648D02*
X2627Y648D01*
X2683Y648D02*
X2695Y648D01*
X2715Y648D02*
X2741Y648D01*
X2771Y648D02*
X2783Y648D01*
X2857Y648D02*
X2868Y648D01*
X2883Y648D02*
X2890Y648D01*
X2905Y648D02*
X2916Y648D01*
X2244Y647D02*
X2257Y647D01*
X2289Y647D02*
X2302Y647D01*
X2367Y647D02*
X2378Y647D01*
X2419Y647D02*
X2430Y647D01*
X2467Y647D02*
X2478Y647D01*
X2520Y647D02*
X2531Y647D01*
X2541Y647D02*
X2553Y647D01*
X2614Y647D02*
X2627Y647D01*
X2683Y647D02*
X2695Y647D01*
X2717Y647D02*
X2741Y647D01*
X2771Y647D02*
X2782Y647D01*
X2857Y647D02*
X2868Y647D01*
X2884Y647D02*
X2889Y647D01*
X2905Y647D02*
X2916Y647D01*
X2244Y646D02*
X2257Y646D01*
X2290Y646D02*
X2302Y646D01*
X2367Y646D02*
X2378Y646D01*
X2419Y646D02*
X2430Y646D01*
X2467Y646D02*
X2478Y646D01*
X2519Y646D02*
X2531Y646D01*
X2541Y646D02*
X2553Y646D01*
X2615Y646D02*
X2628Y646D01*
X2683Y646D02*
X2694Y646D01*
X2718Y646D02*
X2741Y646D01*
X2771Y646D02*
X2782Y646D01*
X2857Y646D02*
X2868Y646D01*
X2905Y646D02*
X2916Y646D01*
X2244Y645D02*
X2256Y645D01*
X2291Y645D02*
X2303Y645D01*
X2367Y645D02*
X2378Y645D01*
X2419Y645D02*
X2430Y645D01*
X2467Y645D02*
X2478Y645D01*
X2519Y645D02*
X2531Y645D01*
X2541Y645D02*
X2553Y645D01*
X2615Y645D02*
X2629Y645D01*
X2683Y645D02*
X2694Y645D01*
X2720Y645D02*
X2741Y645D01*
X2771Y645D02*
X2782Y645D01*
X2857Y645D02*
X2868Y645D01*
X2905Y645D02*
X2916Y645D01*
X2244Y644D02*
X2255Y644D01*
X2291Y644D02*
X2303Y644D01*
X2367Y644D02*
X2378Y644D01*
X2419Y644D02*
X2430Y644D01*
X2466Y644D02*
X2478Y644D01*
X2519Y644D02*
X2530Y644D01*
X2542Y644D02*
X2553Y644D01*
X2616Y644D02*
X2629Y644D01*
X2683Y644D02*
X2694Y644D01*
X2721Y644D02*
X2741Y644D01*
X2771Y644D02*
X2782Y644D01*
X2857Y644D02*
X2868Y644D01*
X2905Y644D02*
X2916Y644D01*
X2244Y643D02*
X2255Y643D01*
X2292Y643D02*
X2303Y643D01*
X2367Y643D02*
X2378Y643D01*
X2419Y643D02*
X2430Y643D01*
X2466Y643D02*
X2478Y643D01*
X2518Y643D02*
X2530Y643D01*
X2542Y643D02*
X2554Y643D01*
X2616Y643D02*
X2630Y643D01*
X2683Y643D02*
X2694Y643D01*
X2723Y643D02*
X2741Y643D01*
X2771Y643D02*
X2782Y643D01*
X2857Y643D02*
X2868Y643D01*
X2905Y643D02*
X2916Y643D01*
X2244Y642D02*
X2255Y642D01*
X2292Y642D02*
X2303Y642D01*
X2367Y642D02*
X2378Y642D01*
X2419Y642D02*
X2430Y642D01*
X2466Y642D02*
X2478Y642D01*
X2518Y642D02*
X2530Y642D01*
X2542Y642D02*
X2554Y642D01*
X2617Y642D02*
X2630Y642D01*
X2683Y642D02*
X2694Y642D01*
X2724Y642D02*
X2741Y642D01*
X2770Y642D02*
X2782Y642D01*
X2857Y642D02*
X2868Y642D01*
X2905Y642D02*
X2916Y642D01*
X2244Y641D02*
X2255Y641D01*
X2292Y641D02*
X2303Y641D01*
X2367Y641D02*
X2378Y641D01*
X2419Y641D02*
X2430Y641D01*
X2466Y641D02*
X2478Y641D01*
X2518Y641D02*
X2530Y641D01*
X2543Y641D02*
X2554Y641D01*
X2618Y641D02*
X2631Y641D01*
X2683Y641D02*
X2694Y641D01*
X2726Y641D02*
X2741Y641D01*
X2770Y641D02*
X2782Y641D01*
X2857Y641D02*
X2868Y641D01*
X2905Y641D02*
X2916Y641D01*
X2244Y640D02*
X2255Y640D01*
X2292Y640D02*
X2303Y640D01*
X2367Y640D02*
X2378Y640D01*
X2419Y640D02*
X2430Y640D01*
X2466Y640D02*
X2478Y640D01*
X2518Y640D02*
X2529Y640D01*
X2543Y640D02*
X2555Y640D01*
X2618Y640D02*
X2631Y640D01*
X2683Y640D02*
X2694Y640D01*
X2727Y640D02*
X2741Y640D01*
X2770Y640D02*
X2782Y640D01*
X2857Y640D02*
X2868Y640D01*
X2905Y640D02*
X2916Y640D01*
X2244Y639D02*
X2255Y639D01*
X2292Y639D02*
X2303Y639D01*
X2367Y639D02*
X2378Y639D01*
X2419Y639D02*
X2430Y639D01*
X2466Y639D02*
X2477Y639D01*
X2517Y639D02*
X2529Y639D01*
X2543Y639D02*
X2555Y639D01*
X2619Y639D02*
X2632Y639D01*
X2683Y639D02*
X2694Y639D01*
X2729Y639D02*
X2741Y639D01*
X2770Y639D02*
X2782Y639D01*
X2857Y639D02*
X2868Y639D01*
X2905Y639D02*
X2916Y639D01*
X2244Y638D02*
X2255Y638D01*
X2292Y638D02*
X2303Y638D01*
X2367Y638D02*
X2378Y638D01*
X2419Y638D02*
X2430Y638D01*
X2466Y638D02*
X2477Y638D01*
X2517Y638D02*
X2529Y638D01*
X2543Y638D02*
X2555Y638D01*
X2619Y638D02*
X2633Y638D01*
X2683Y638D02*
X2694Y638D01*
X2730Y638D02*
X2741Y638D01*
X2770Y638D02*
X2782Y638D01*
X2857Y638D02*
X2868Y638D01*
X2905Y638D02*
X2916Y638D01*
X2244Y637D02*
X2255Y637D01*
X2292Y637D02*
X2303Y637D01*
X2367Y637D02*
X2378Y637D01*
X2419Y637D02*
X2430Y637D01*
X2466Y637D02*
X2477Y637D01*
X2517Y637D02*
X2528Y637D01*
X2544Y637D02*
X2555Y637D01*
X2620Y637D02*
X2633Y637D01*
X2683Y637D02*
X2694Y637D01*
X2730Y637D02*
X2741Y637D01*
X2770Y637D02*
X2816Y637D01*
X2857Y637D02*
X2868Y637D01*
X2905Y637D02*
X2916Y637D01*
X2244Y636D02*
X2255Y636D01*
X2292Y636D02*
X2303Y636D01*
X2367Y636D02*
X2378Y636D01*
X2419Y636D02*
X2430Y636D01*
X2466Y636D02*
X2477Y636D01*
X2516Y636D02*
X2528Y636D01*
X2544Y636D02*
X2556Y636D01*
X2621Y636D02*
X2634Y636D01*
X2683Y636D02*
X2694Y636D01*
X2730Y636D02*
X2741Y636D01*
X2770Y636D02*
X2818Y636D01*
X2857Y636D02*
X2868Y636D01*
X2905Y636D02*
X2916Y636D01*
X2244Y635D02*
X2255Y635D01*
X2292Y635D02*
X2303Y635D01*
X2367Y635D02*
X2378Y635D01*
X2419Y635D02*
X2430Y635D01*
X2466Y635D02*
X2477Y635D01*
X2516Y635D02*
X2528Y635D01*
X2544Y635D02*
X2556Y635D01*
X2621Y635D02*
X2634Y635D01*
X2683Y635D02*
X2694Y635D01*
X2730Y635D02*
X2741Y635D01*
X2770Y635D02*
X2820Y635D01*
X2857Y635D02*
X2868Y635D01*
X2905Y635D02*
X2916Y635D01*
X2244Y634D02*
X2255Y634D01*
X2292Y634D02*
X2303Y634D01*
X2367Y634D02*
X2378Y634D01*
X2419Y634D02*
X2430Y634D01*
X2466Y634D02*
X2477Y634D01*
X2516Y634D02*
X2528Y634D01*
X2545Y634D02*
X2556Y634D01*
X2622Y634D02*
X2635Y634D01*
X2683Y634D02*
X2694Y634D01*
X2730Y634D02*
X2741Y634D01*
X2770Y634D02*
X2821Y634D01*
X2857Y634D02*
X2868Y634D01*
X2905Y634D02*
X2916Y634D01*
X2244Y633D02*
X2255Y633D01*
X2292Y633D02*
X2303Y633D01*
X2367Y633D02*
X2378Y633D01*
X2419Y633D02*
X2430Y633D01*
X2466Y633D02*
X2477Y633D01*
X2516Y633D02*
X2527Y633D01*
X2545Y633D02*
X2557Y633D01*
X2622Y633D02*
X2636Y633D01*
X2683Y633D02*
X2694Y633D01*
X2730Y633D02*
X2741Y633D01*
X2770Y633D02*
X2823Y633D01*
X2857Y633D02*
X2868Y633D01*
X2905Y633D02*
X2916Y633D01*
X2244Y632D02*
X2255Y632D01*
X2292Y632D02*
X2303Y632D01*
X2367Y632D02*
X2378Y632D01*
X2419Y632D02*
X2430Y632D01*
X2466Y632D02*
X2477Y632D01*
X2515Y632D02*
X2527Y632D01*
X2545Y632D02*
X2557Y632D01*
X2623Y632D02*
X2636Y632D01*
X2683Y632D02*
X2694Y632D01*
X2730Y632D02*
X2741Y632D01*
X2770Y632D02*
X2824Y632D01*
X2857Y632D02*
X2868Y632D01*
X2905Y632D02*
X2916Y632D01*
X2244Y631D02*
X2255Y631D01*
X2292Y631D02*
X2303Y631D01*
X2367Y631D02*
X2378Y631D01*
X2419Y631D02*
X2430Y631D01*
X2466Y631D02*
X2477Y631D01*
X2515Y631D02*
X2527Y631D01*
X2545Y631D02*
X2557Y631D01*
X2623Y631D02*
X2637Y631D01*
X2683Y631D02*
X2694Y631D01*
X2730Y631D02*
X2741Y631D01*
X2770Y631D02*
X2824Y631D01*
X2857Y631D02*
X2868Y631D01*
X2905Y631D02*
X2916Y631D01*
X2244Y630D02*
X2255Y630D01*
X2292Y630D02*
X2303Y630D01*
X2367Y630D02*
X2378Y630D01*
X2419Y630D02*
X2430Y630D01*
X2466Y630D02*
X2477Y630D01*
X2515Y630D02*
X2526Y630D01*
X2546Y630D02*
X2557Y630D01*
X2624Y630D02*
X2637Y630D01*
X2683Y630D02*
X2694Y630D01*
X2730Y630D02*
X2741Y630D01*
X2770Y630D02*
X2825Y630D01*
X2857Y630D02*
X2868Y630D01*
X2905Y630D02*
X2916Y630D01*
X2244Y629D02*
X2255Y629D01*
X2292Y629D02*
X2303Y629D01*
X2367Y629D02*
X2378Y629D01*
X2419Y629D02*
X2430Y629D01*
X2466Y629D02*
X2477Y629D01*
X2514Y629D02*
X2526Y629D01*
X2546Y629D02*
X2558Y629D01*
X2625Y629D02*
X2638Y629D01*
X2682Y629D02*
X2694Y629D01*
X2730Y629D02*
X2741Y629D01*
X2770Y629D02*
X2826Y629D01*
X2857Y629D02*
X2868Y629D01*
X2905Y629D02*
X2916Y629D01*
X2244Y628D02*
X2255Y628D01*
X2292Y628D02*
X2303Y628D01*
X2367Y628D02*
X2378Y628D01*
X2419Y628D02*
X2430Y628D01*
X2466Y628D02*
X2477Y628D01*
X2514Y628D02*
X2526Y628D01*
X2546Y628D02*
X2558Y628D01*
X2625Y628D02*
X2638Y628D01*
X2682Y628D02*
X2694Y628D01*
X2730Y628D02*
X2741Y628D01*
X2770Y628D02*
X2826Y628D01*
X2857Y628D02*
X2868Y628D01*
X2905Y628D02*
X2916Y628D01*
X2244Y627D02*
X2255Y627D01*
X2292Y627D02*
X2303Y627D01*
X2367Y627D02*
X2378Y627D01*
X2419Y627D02*
X2430Y627D01*
X2466Y627D02*
X2477Y627D01*
X2514Y627D02*
X2558Y627D01*
X2626Y627D02*
X2639Y627D01*
X2682Y627D02*
X2694Y627D01*
X2730Y627D02*
X2741Y627D01*
X2770Y627D02*
X2827Y627D01*
X2857Y627D02*
X2868Y627D01*
X2905Y627D02*
X2916Y627D01*
X2244Y626D02*
X2255Y626D01*
X2292Y626D02*
X2303Y626D01*
X2367Y626D02*
X2378Y626D01*
X2419Y626D02*
X2430Y626D01*
X2466Y626D02*
X2477Y626D01*
X2513Y626D02*
X2559Y626D01*
X2626Y626D02*
X2640Y626D01*
X2682Y626D02*
X2694Y626D01*
X2730Y626D02*
X2741Y626D01*
X2770Y626D02*
X2827Y626D01*
X2857Y626D02*
X2868Y626D01*
X2905Y626D02*
X2916Y626D01*
X2244Y625D02*
X2255Y625D01*
X2292Y625D02*
X2303Y625D01*
X2367Y625D02*
X2378Y625D01*
X2419Y625D02*
X2430Y625D01*
X2466Y625D02*
X2477Y625D01*
X2513Y625D02*
X2559Y625D01*
X2627Y625D02*
X2640Y625D01*
X2682Y625D02*
X2694Y625D01*
X2730Y625D02*
X2741Y625D01*
X2770Y625D02*
X2784Y625D01*
X2814Y625D02*
X2828Y625D01*
X2857Y625D02*
X2868Y625D01*
X2905Y625D02*
X2916Y625D01*
X2244Y624D02*
X2255Y624D01*
X2292Y624D02*
X2303Y624D01*
X2367Y624D02*
X2378Y624D01*
X2419Y624D02*
X2430Y624D01*
X2466Y624D02*
X2477Y624D01*
X2513Y624D02*
X2559Y624D01*
X2628Y624D02*
X2641Y624D01*
X2682Y624D02*
X2694Y624D01*
X2730Y624D02*
X2741Y624D01*
X2770Y624D02*
X2783Y624D01*
X2815Y624D02*
X2828Y624D01*
X2857Y624D02*
X2868Y624D01*
X2905Y624D02*
X2916Y624D01*
X2244Y623D02*
X2255Y623D01*
X2292Y623D02*
X2303Y623D01*
X2367Y623D02*
X2378Y623D01*
X2419Y623D02*
X2430Y623D01*
X2466Y623D02*
X2477Y623D01*
X2513Y623D02*
X2560Y623D01*
X2628Y623D02*
X2641Y623D01*
X2682Y623D02*
X2693Y623D01*
X2730Y623D02*
X2741Y623D01*
X2770Y623D02*
X2782Y623D01*
X2816Y623D02*
X2828Y623D01*
X2857Y623D02*
X2868Y623D01*
X2905Y623D02*
X2916Y623D01*
X2244Y622D02*
X2255Y622D01*
X2292Y622D02*
X2303Y622D01*
X2367Y622D02*
X2378Y622D01*
X2419Y622D02*
X2430Y622D01*
X2466Y622D02*
X2477Y622D01*
X2512Y622D02*
X2560Y622D01*
X2629Y622D02*
X2642Y622D01*
X2682Y622D02*
X2693Y622D01*
X2730Y622D02*
X2741Y622D01*
X2770Y622D02*
X2782Y622D01*
X2817Y622D02*
X2828Y622D01*
X2857Y622D02*
X2868Y622D01*
X2905Y622D02*
X2916Y622D01*
X2244Y621D02*
X2255Y621D01*
X2292Y621D02*
X2303Y621D01*
X2367Y621D02*
X2378Y621D01*
X2419Y621D02*
X2430Y621D01*
X2466Y621D02*
X2477Y621D01*
X2512Y621D02*
X2560Y621D01*
X2629Y621D02*
X2643Y621D01*
X2682Y621D02*
X2693Y621D01*
X2730Y621D02*
X2741Y621D01*
X2770Y621D02*
X2781Y621D01*
X2817Y621D02*
X2828Y621D01*
X2857Y621D02*
X2868Y621D01*
X2905Y621D02*
X2916Y621D01*
X2244Y620D02*
X2255Y620D01*
X2292Y620D02*
X2303Y620D01*
X2367Y620D02*
X2378Y620D01*
X2419Y620D02*
X2430Y620D01*
X2466Y620D02*
X2477Y620D01*
X2512Y620D02*
X2560Y620D01*
X2630Y620D02*
X2643Y620D01*
X2682Y620D02*
X2693Y620D01*
X2730Y620D02*
X2741Y620D01*
X2770Y620D02*
X2781Y620D01*
X2817Y620D02*
X2828Y620D01*
X2857Y620D02*
X2868Y620D01*
X2905Y620D02*
X2916Y620D01*
X2244Y619D02*
X2255Y619D01*
X2292Y619D02*
X2303Y619D01*
X2367Y619D02*
X2378Y619D01*
X2419Y619D02*
X2431Y619D01*
X2466Y619D02*
X2477Y619D01*
X2511Y619D02*
X2561Y619D01*
X2630Y619D02*
X2644Y619D01*
X2682Y619D02*
X2693Y619D01*
X2730Y619D02*
X2741Y619D01*
X2770Y619D02*
X2781Y619D01*
X2817Y619D02*
X2828Y619D01*
X2857Y619D02*
X2868Y619D01*
X2905Y619D02*
X2916Y619D01*
X2244Y618D02*
X2255Y618D01*
X2292Y618D02*
X2303Y618D01*
X2367Y618D02*
X2378Y618D01*
X2419Y618D02*
X2433Y618D01*
X2466Y618D02*
X2477Y618D01*
X2511Y618D02*
X2561Y618D01*
X2631Y618D02*
X2644Y618D01*
X2682Y618D02*
X2693Y618D01*
X2730Y618D02*
X2741Y618D01*
X2770Y618D02*
X2781Y618D01*
X2817Y618D02*
X2828Y618D01*
X2857Y618D02*
X2868Y618D01*
X2905Y618D02*
X2916Y618D01*
X2244Y617D02*
X2255Y617D01*
X2292Y617D02*
X2303Y617D01*
X2335Y617D02*
X2338Y617D01*
X2367Y617D02*
X2378Y617D01*
X2419Y617D02*
X2434Y617D01*
X2466Y617D02*
X2477Y617D01*
X2511Y617D02*
X2561Y617D01*
X2632Y617D02*
X2645Y617D01*
X2682Y617D02*
X2693Y617D01*
X2730Y617D02*
X2741Y617D01*
X2770Y617D02*
X2781Y617D01*
X2817Y617D02*
X2828Y617D01*
X2857Y617D02*
X2868Y617D01*
X2905Y617D02*
X2916Y617D01*
X2244Y616D02*
X2255Y616D01*
X2292Y616D02*
X2303Y616D01*
X2334Y616D02*
X2340Y616D01*
X2367Y616D02*
X2378Y616D01*
X2419Y616D02*
X2436Y616D01*
X2465Y616D02*
X2477Y616D01*
X2511Y616D02*
X2562Y616D01*
X2632Y616D02*
X2645Y616D01*
X2682Y616D02*
X2693Y616D01*
X2730Y616D02*
X2741Y616D01*
X2770Y616D02*
X2781Y616D01*
X2817Y616D02*
X2828Y616D01*
X2857Y616D02*
X2868Y616D01*
X2905Y616D02*
X2916Y616D01*
X2244Y615D02*
X2255Y615D01*
X2291Y615D02*
X2303Y615D01*
X2333Y615D02*
X2341Y615D01*
X2367Y615D02*
X2378Y615D01*
X2419Y615D02*
X2437Y615D01*
X2465Y615D02*
X2477Y615D01*
X2510Y615D02*
X2522Y615D01*
X2550Y615D02*
X2562Y615D01*
X2633Y615D02*
X2646Y615D01*
X2682Y615D02*
X2693Y615D01*
X2730Y615D02*
X2741Y615D01*
X2770Y615D02*
X2781Y615D01*
X2817Y615D02*
X2828Y615D01*
X2857Y615D02*
X2868Y615D01*
X2905Y615D02*
X2916Y615D01*
X2244Y614D02*
X2256Y614D01*
X2291Y614D02*
X2303Y614D01*
X2332Y614D02*
X2342Y614D01*
X2367Y614D02*
X2378Y614D01*
X2419Y614D02*
X2439Y614D01*
X2465Y614D02*
X2477Y614D01*
X2510Y614D02*
X2522Y614D01*
X2550Y614D02*
X2562Y614D01*
X2633Y614D02*
X2647Y614D01*
X2682Y614D02*
X2693Y614D01*
X2730Y614D02*
X2741Y614D01*
X2770Y614D02*
X2782Y614D01*
X2817Y614D02*
X2828Y614D01*
X2857Y614D02*
X2868Y614D01*
X2905Y614D02*
X2916Y614D01*
X2244Y613D02*
X2256Y613D01*
X2290Y613D02*
X2303Y613D01*
X2331Y613D02*
X2342Y613D01*
X2367Y613D02*
X2378Y613D01*
X2419Y613D02*
X2440Y613D01*
X2465Y613D02*
X2477Y613D01*
X2510Y613D02*
X2521Y613D01*
X2551Y613D02*
X2562Y613D01*
X2634Y613D02*
X2647Y613D01*
X2682Y613D02*
X2693Y613D01*
X2730Y613D02*
X2741Y613D01*
X2769Y613D02*
X2784Y613D01*
X2817Y613D02*
X2828Y613D01*
X2857Y613D02*
X2868Y613D01*
X2905Y613D02*
X2916Y613D01*
X2244Y612D02*
X2257Y612D01*
X2289Y612D02*
X2302Y612D01*
X2331Y612D02*
X2342Y612D01*
X2367Y612D02*
X2378Y612D01*
X2419Y612D02*
X2442Y612D01*
X2465Y612D02*
X2477Y612D01*
X2509Y612D02*
X2521Y612D01*
X2551Y612D02*
X2563Y612D01*
X2635Y612D02*
X2648Y612D01*
X2682Y612D02*
X2693Y612D01*
X2730Y612D02*
X2741Y612D01*
X2769Y612D02*
X2786Y612D01*
X2817Y612D02*
X2828Y612D01*
X2857Y612D02*
X2868Y612D01*
X2905Y612D02*
X2916Y612D01*
X2244Y611D02*
X2258Y611D01*
X2288Y611D02*
X2302Y611D01*
X2331Y611D02*
X2343Y611D01*
X2367Y611D02*
X2378Y611D01*
X2419Y611D02*
X2444Y611D01*
X2465Y611D02*
X2476Y611D01*
X2509Y611D02*
X2521Y611D01*
X2551Y611D02*
X2563Y611D01*
X2635Y611D02*
X2648Y611D01*
X2682Y611D02*
X2693Y611D01*
X2730Y611D02*
X2741Y611D01*
X2769Y611D02*
X2787Y611D01*
X2817Y611D02*
X2828Y611D01*
X2857Y611D02*
X2868Y611D01*
X2905Y611D02*
X2916Y611D01*
X2245Y610D02*
X2259Y610D01*
X2287Y610D02*
X2302Y610D01*
X2331Y610D02*
X2343Y610D01*
X2366Y610D02*
X2378Y610D01*
X2419Y610D02*
X2445Y610D01*
X2464Y610D02*
X2476Y610D01*
X2509Y610D02*
X2520Y610D01*
X2552Y610D02*
X2563Y610D01*
X2636Y610D02*
X2649Y610D01*
X2682Y610D02*
X2693Y610D01*
X2730Y610D02*
X2741Y610D01*
X2769Y610D02*
X2789Y610D01*
X2816Y610D02*
X2828Y610D01*
X2857Y610D02*
X2868Y610D01*
X2905Y610D02*
X2916Y610D01*
X2245Y609D02*
X2260Y609D01*
X2286Y609D02*
X2301Y609D01*
X2331Y609D02*
X2344Y609D01*
X2366Y609D02*
X2378Y609D01*
X2419Y609D02*
X2447Y609D01*
X2464Y609D02*
X2476Y609D01*
X2509Y609D02*
X2520Y609D01*
X2552Y609D02*
X2564Y609D01*
X2636Y609D02*
X2650Y609D01*
X2682Y609D02*
X2693Y609D01*
X2730Y609D02*
X2741Y609D01*
X2769Y609D02*
X2791Y609D01*
X2816Y609D02*
X2828Y609D01*
X2857Y609D02*
X2868Y609D01*
X2905Y609D02*
X2916Y609D01*
X2246Y608D02*
X2262Y608D01*
X2284Y608D02*
X2301Y608D01*
X2332Y608D02*
X2345Y608D01*
X2364Y608D02*
X2378Y608D01*
X2419Y608D02*
X2448Y608D01*
X2462Y608D02*
X2476Y608D01*
X2508Y608D02*
X2520Y608D01*
X2552Y608D02*
X2564Y608D01*
X2637Y608D02*
X2650Y608D01*
X2682Y608D02*
X2693Y608D01*
X2730Y608D02*
X2741Y608D01*
X2769Y608D02*
X2792Y608D01*
X2814Y608D02*
X2828Y608D01*
X2857Y608D02*
X2868Y608D01*
X2905Y608D02*
X2916Y608D01*
X2247Y607D02*
X2300Y607D01*
X2332Y607D02*
X2377Y607D01*
X2419Y607D02*
X2476Y607D01*
X2508Y607D02*
X2520Y607D01*
X2552Y607D02*
X2564Y607D01*
X2637Y607D02*
X2651Y607D01*
X2682Y607D02*
X2693Y607D01*
X2730Y607D02*
X2741Y607D01*
X2769Y607D02*
X2827Y607D01*
X2857Y607D02*
X2868Y607D01*
X2905Y607D02*
X2916Y607D01*
X2247Y606D02*
X2300Y606D01*
X2333Y606D02*
X2377Y606D01*
X2419Y606D02*
X2475Y606D01*
X2508Y606D02*
X2519Y606D01*
X2553Y606D02*
X2565Y606D01*
X2638Y606D02*
X2651Y606D01*
X2682Y606D02*
X2693Y606D01*
X2730Y606D02*
X2741Y606D01*
X2769Y606D02*
X2827Y606D01*
X2857Y606D02*
X2868Y606D01*
X2905Y606D02*
X2916Y606D01*
X2248Y605D02*
X2299Y605D01*
X2333Y605D02*
X2377Y605D01*
X2419Y605D02*
X2475Y605D01*
X2507Y605D02*
X2519Y605D01*
X2553Y605D02*
X2565Y605D01*
X2639Y605D02*
X2652Y605D01*
X2682Y605D02*
X2693Y605D01*
X2730Y605D02*
X2741Y605D01*
X2769Y605D02*
X2827Y605D01*
X2857Y605D02*
X2868Y605D01*
X2905Y605D02*
X2916Y605D01*
X2249Y604D02*
X2298Y604D01*
X2334Y604D02*
X2376Y604D01*
X2419Y604D02*
X2430Y604D01*
X2433Y604D02*
X2474Y604D01*
X2507Y604D02*
X2519Y604D01*
X2553Y604D02*
X2565Y604D01*
X2639Y604D02*
X2652Y604D01*
X2682Y604D02*
X2693Y604D01*
X2730Y604D02*
X2741Y604D01*
X2769Y604D02*
X2826Y604D01*
X2857Y604D02*
X2868Y604D01*
X2905Y604D02*
X2916Y604D01*
X2250Y603D02*
X2297Y603D01*
X2334Y603D02*
X2375Y603D01*
X2419Y603D02*
X2430Y603D01*
X2434Y603D02*
X2474Y603D01*
X2507Y603D02*
X2518Y603D01*
X2554Y603D02*
X2565Y603D01*
X2640Y603D02*
X2653Y603D01*
X2682Y603D02*
X2693Y603D01*
X2730Y603D02*
X2741Y603D01*
X2769Y603D02*
X2825Y603D01*
X2857Y603D02*
X2868Y603D01*
X2905Y603D02*
X2916Y603D01*
X2251Y602D02*
X2296Y602D01*
X2335Y602D02*
X2375Y602D01*
X2419Y602D02*
X2430Y602D01*
X2436Y602D02*
X2473Y602D01*
X2506Y602D02*
X2518Y602D01*
X2554Y602D02*
X2566Y602D01*
X2640Y602D02*
X2653Y602D01*
X2682Y602D02*
X2693Y602D01*
X2730Y602D02*
X2741Y602D01*
X2769Y602D02*
X2825Y602D01*
X2857Y602D02*
X2868Y602D01*
X2905Y602D02*
X2916Y602D01*
X2252Y601D02*
X2294Y601D01*
X2336Y601D02*
X2374Y601D01*
X2419Y601D02*
X2430Y601D01*
X2438Y601D02*
X2472Y601D01*
X2506Y601D02*
X2518Y601D01*
X2554Y601D02*
X2566Y601D01*
X2641Y601D02*
X2653Y601D01*
X2682Y601D02*
X2693Y601D01*
X2730Y601D02*
X2741Y601D01*
X2769Y601D02*
X2824Y601D01*
X2857Y601D02*
X2868Y601D01*
X2905Y601D02*
X2916Y601D01*
X2253Y600D02*
X2293Y600D01*
X2337Y600D02*
X2373Y600D01*
X2419Y600D02*
X2430Y600D01*
X2439Y600D02*
X2471Y600D01*
X2506Y600D02*
X2518Y600D01*
X2555Y600D02*
X2566Y600D01*
X2642Y600D02*
X2653Y600D01*
X2682Y600D02*
X2693Y600D01*
X2730Y600D02*
X2741Y600D01*
X2769Y600D02*
X2780Y600D01*
X2783Y600D02*
X2823Y600D01*
X2857Y600D02*
X2868Y600D01*
X2905Y600D02*
X2916Y600D01*
X2255Y599D02*
X2292Y599D01*
X2338Y599D02*
X2372Y599D01*
X2419Y599D02*
X2430Y599D01*
X2441Y599D02*
X2470Y599D01*
X2507Y599D02*
X2517Y599D01*
X2555Y599D02*
X2566Y599D01*
X2642Y599D02*
X2653Y599D01*
X2682Y599D02*
X2692Y599D01*
X2730Y599D02*
X2740Y599D01*
X2769Y599D02*
X2780Y599D01*
X2784Y599D02*
X2822Y599D01*
X2857Y599D02*
X2868Y599D01*
X2905Y599D02*
X2916Y599D01*
X2256Y598D02*
X2290Y598D01*
X2339Y598D02*
X2371Y598D01*
X2420Y598D02*
X2429Y598D01*
X2442Y598D02*
X2469Y598D01*
X2507Y598D02*
X2517Y598D01*
X2555Y598D02*
X2565Y598D01*
X2643Y598D02*
X2652Y598D01*
X2682Y598D02*
X2692Y598D01*
X2730Y598D02*
X2740Y598D01*
X2770Y598D02*
X2779Y598D01*
X2786Y598D02*
X2820Y598D01*
X2857Y598D02*
X2867Y598D01*
X2906Y598D02*
X2915Y598D01*
X2258Y597D02*
X2289Y597D01*
X2341Y597D02*
X2369Y597D01*
X2420Y597D02*
X2428Y597D01*
X2444Y597D02*
X2467Y597D01*
X2508Y597D02*
X2516Y597D01*
X2556Y597D02*
X2564Y597D01*
X2643Y597D02*
X2652Y597D01*
X2683Y597D02*
X2691Y597D01*
X2731Y597D02*
X2739Y597D01*
X2771Y597D02*
X2779Y597D01*
X2788Y597D02*
X2819Y597D01*
X2858Y597D02*
X2866Y597D01*
X2906Y597D02*
X2914Y597D01*
X2260Y596D02*
X2287Y596D01*
X2343Y596D02*
X2367Y596D01*
X2421Y596D02*
X2427Y596D01*
X2446Y596D02*
X2465Y596D01*
X2509Y596D02*
X2515Y596D01*
X2557Y596D02*
X2563Y596D01*
X2644Y596D02*
X2651Y596D01*
X2684Y596D02*
X2690Y596D01*
X2732Y596D02*
X2738Y596D01*
X2772Y596D02*
X2778Y596D01*
X2790Y596D02*
X2817Y596D01*
X2859Y596D02*
X2865Y596D01*
X2907Y596D02*
X2913Y596D01*
X2264Y595D02*
X2283Y595D01*
X2347Y595D02*
X2363Y595D01*
X2423Y595D02*
X2425Y595D01*
X2450Y595D02*
X2461Y595D01*
X2511Y595D02*
X2513Y595D01*
X2559Y595D02*
X2561Y595D01*
X2647Y595D02*
X2649Y595D01*
X2686Y595D02*
X2688Y595D01*
X2734Y595D02*
X2736Y595D01*
X2774Y595D02*
X2776Y595D01*
X2792Y595D02*
X2813Y595D01*
X2861Y595D02*
X2863Y595D01*
X2909Y595D02*
X2911Y595D01*
X1901Y533D02*
X1939Y533D01*
X1898Y532D02*
X1941Y532D01*
X1897Y531D02*
X1943Y531D01*
X1895Y530D02*
X1944Y530D01*
X1894Y529D02*
X1945Y529D01*
X1893Y528D02*
X1946Y528D01*
X1892Y527D02*
X1946Y527D01*
X1892Y526D02*
X1947Y526D01*
X1891Y525D02*
X1947Y525D01*
X1891Y524D02*
X1948Y524D01*
X1890Y523D02*
X1948Y523D01*
X1890Y522D02*
X1948Y522D01*
X1889Y521D02*
X1903Y521D01*
X1937Y521D02*
X1948Y521D01*
X1889Y520D02*
X1901Y520D01*
X1937Y520D02*
X1948Y520D01*
X1889Y519D02*
X1901Y519D01*
X1937Y519D02*
X1948Y519D01*
X1889Y518D02*
X1900Y518D01*
X1936Y518D02*
X1948Y518D01*
X1889Y517D02*
X1900Y517D01*
X1935Y517D02*
X1948Y517D01*
X1889Y516D02*
X1900Y516D01*
X1934Y516D02*
X1948Y516D01*
X1890Y515D02*
X1900Y515D01*
X1934Y515D02*
X1947Y515D01*
X1890Y514D02*
X1899Y514D01*
X1933Y514D02*
X1947Y514D01*
X1891Y513D02*
X1898Y513D01*
X1932Y513D02*
X1947Y513D01*
X1892Y512D02*
X1897Y512D01*
X1931Y512D02*
X1946Y512D01*
X1931Y511D02*
X1945Y511D01*
X1930Y510D02*
X1944Y510D01*
X1929Y509D02*
X1944Y509D01*
X1928Y508D02*
X1943Y508D01*
X1927Y507D02*
X1942Y507D01*
X1927Y506D02*
X1941Y506D01*
X1926Y505D02*
X1941Y505D01*
X1925Y504D02*
X1940Y504D01*
X1924Y503D02*
X1939Y503D01*
X1924Y502D02*
X1938Y502D01*
X1923Y501D02*
X1937Y501D01*
X1922Y500D02*
X1937Y500D01*
X1921Y499D02*
X1936Y499D01*
X1920Y498D02*
X1935Y498D01*
X1920Y497D02*
X1934Y497D01*
X1919Y496D02*
X1934Y496D01*
X1918Y495D02*
X1933Y495D01*
X1917Y494D02*
X1932Y494D01*
X1917Y493D02*
X1931Y493D01*
X1916Y492D02*
X1931Y492D01*
X1915Y491D02*
X1930Y491D01*
X1914Y490D02*
X1929Y490D01*
X1913Y489D02*
X1928Y489D01*
X1913Y488D02*
X1927Y488D01*
X1912Y487D02*
X1927Y487D01*
X1911Y486D02*
X1926Y486D01*
X1910Y485D02*
X1925Y485D01*
X1910Y484D02*
X1924Y484D01*
X1909Y483D02*
X1924Y483D01*
X1908Y482D02*
X1923Y482D01*
X1907Y481D02*
X1922Y481D01*
X1906Y480D02*
X1921Y480D01*
X1906Y479D02*
X1920Y479D01*
X1905Y478D02*
X1920Y478D01*
X1904Y477D02*
X1919Y477D01*
X1903Y476D02*
X1918Y476D01*
X1903Y475D02*
X1917Y475D01*
X1902Y474D02*
X1917Y474D01*
X1901Y473D02*
X1916Y473D01*
X1900Y472D02*
X1915Y472D01*
X1899Y471D02*
X1914Y471D01*
X1899Y470D02*
X1913Y470D01*
X1898Y469D02*
X1913Y469D01*
X1897Y468D02*
X1912Y468D01*
X1896Y467D02*
X1911Y467D01*
X1896Y466D02*
X1910Y466D01*
X1895Y465D02*
X1910Y465D01*
X1894Y464D02*
X1909Y464D01*
X1893Y463D02*
X1908Y463D01*
X1892Y462D02*
X1907Y462D01*
X1892Y461D02*
X1906Y461D01*
X1940Y461D02*
X1945Y461D01*
X1891Y460D02*
X1906Y460D01*
X1939Y460D02*
X1947Y460D01*
X1890Y459D02*
X1905Y459D01*
X1938Y459D02*
X1947Y459D01*
X1890Y458D02*
X1904Y458D01*
X1938Y458D02*
X1948Y458D01*
X1890Y457D02*
X1903Y457D01*
X1937Y457D02*
X1948Y457D01*
X1889Y456D02*
X1903Y456D01*
X1937Y456D02*
X1948Y456D01*
X1889Y455D02*
X1902Y455D01*
X1937Y455D02*
X1948Y455D01*
X1889Y454D02*
X1901Y454D01*
X1937Y454D02*
X1948Y454D01*
X1889Y453D02*
X1900Y453D01*
X1936Y453D02*
X1948Y453D01*
X1889Y452D02*
X1901Y452D01*
X1935Y452D02*
X1948Y452D01*
X1889Y451D02*
X1948Y451D01*
X1890Y450D02*
X1947Y450D01*
X1890Y449D02*
X1947Y449D01*
X1890Y448D02*
X1946Y448D01*
X1891Y447D02*
X1946Y447D01*
X1891Y446D02*
X1945Y446D01*
X1892Y445D02*
X1944Y445D01*
X1893Y444D02*
X1943Y444D01*
X1894Y443D02*
X1942Y443D01*
X1895Y442D02*
X1941Y442D01*
X1896Y441D02*
X1939Y441D01*
X1899Y440D02*
X1937Y440D01*
X2226Y321D02*
X2270Y321D01*
X2222Y320D02*
X2270Y320D01*
X2220Y319D02*
X2270Y319D01*
X2219Y318D02*
X2270Y318D01*
X2217Y317D02*
X2270Y317D01*
X2216Y316D02*
X2270Y316D01*
X2215Y315D02*
X2270Y315D01*
X2215Y314D02*
X2270Y314D01*
X2214Y313D02*
X2270Y313D01*
X2213Y312D02*
X2270Y312D01*
X2213Y311D02*
X2270Y311D01*
X2212Y310D02*
X2270Y310D01*
X2212Y309D02*
X2228Y309D01*
X2258Y309D02*
X2270Y309D01*
X2211Y308D02*
X2225Y308D01*
X2259Y308D02*
X2270Y308D01*
X2211Y307D02*
X2224Y307D01*
X2259Y307D02*
X2270Y307D01*
X2211Y306D02*
X2223Y306D01*
X2259Y306D02*
X2270Y306D01*
X2211Y305D02*
X2222Y305D01*
X2259Y305D02*
X2270Y305D01*
X2211Y304D02*
X2222Y304D01*
X2259Y304D02*
X2270Y304D01*
X2211Y303D02*
X2222Y303D01*
X2259Y303D02*
X2270Y303D01*
X2211Y302D02*
X2222Y302D01*
X2259Y302D02*
X2270Y302D01*
X2211Y301D02*
X2222Y301D01*
X2259Y301D02*
X2270Y301D01*
X2211Y300D02*
X2222Y300D01*
X2259Y300D02*
X2270Y300D01*
X2211Y299D02*
X2222Y299D01*
X2259Y299D02*
X2270Y299D01*
X2211Y298D02*
X2222Y298D01*
X2259Y298D02*
X2270Y298D01*
X2211Y297D02*
X2222Y297D01*
X2259Y297D02*
X2270Y297D01*
X2211Y296D02*
X2222Y296D01*
X2259Y296D02*
X2270Y296D01*
X2211Y295D02*
X2222Y295D01*
X2259Y295D02*
X2270Y295D01*
X2211Y294D02*
X2223Y294D01*
X2259Y294D02*
X2270Y294D01*
X2211Y293D02*
X2223Y293D01*
X2259Y293D02*
X2270Y293D01*
X2211Y292D02*
X2224Y292D01*
X2259Y292D02*
X2270Y292D01*
X2212Y291D02*
X2226Y291D01*
X2259Y291D02*
X2270Y291D01*
X2212Y290D02*
X2270Y290D01*
X2212Y289D02*
X2270Y289D01*
X1702Y288D02*
X1780Y288D01*
X2213Y288D02*
X2270Y288D01*
X1701Y287D02*
X1781Y287D01*
X2213Y287D02*
X2270Y287D01*
X1699Y286D02*
X1783Y286D01*
X2214Y286D02*
X2270Y286D01*
X1699Y285D02*
X1783Y285D01*
X2215Y285D02*
X2270Y285D01*
X1698Y284D02*
X1784Y284D01*
X2216Y284D02*
X2270Y284D01*
X1697Y283D02*
X1785Y283D01*
X2217Y283D02*
X2270Y283D01*
X538Y282D02*
X541Y282D01*
X1697Y282D02*
X1785Y282D01*
X2218Y282D02*
X2270Y282D01*
X535Y281D02*
X543Y281D01*
X1697Y281D02*
X1785Y281D01*
X2219Y281D02*
X2270Y281D01*
X534Y280D02*
X545Y280D01*
X1697Y280D02*
X1785Y280D01*
X2221Y280D02*
X2270Y280D01*
X533Y279D02*
X546Y279D01*
X1697Y279D02*
X1785Y279D01*
X2224Y279D02*
X2270Y279D01*
X532Y278D02*
X546Y278D01*
X1697Y278D02*
X1785Y278D01*
X2236Y278D02*
X2249Y278D01*
X2258Y278D02*
X2270Y278D01*
X532Y277D02*
X547Y277D01*
X1697Y277D02*
X1785Y277D01*
X2235Y277D02*
X2249Y277D01*
X2259Y277D02*
X2270Y277D01*
X531Y276D02*
X547Y276D01*
X1697Y276D02*
X1785Y276D01*
X2235Y276D02*
X2248Y276D01*
X2259Y276D02*
X2270Y276D01*
X531Y275D02*
X548Y275D01*
X1697Y275D02*
X1785Y275D01*
X2234Y275D02*
X2248Y275D01*
X2259Y275D02*
X2270Y275D01*
X531Y274D02*
X548Y274D01*
X1697Y274D02*
X1785Y274D01*
X2234Y274D02*
X2247Y274D01*
X2259Y274D02*
X2270Y274D01*
X531Y273D02*
X548Y273D01*
X1697Y273D02*
X1785Y273D01*
X2233Y273D02*
X2246Y273D01*
X2259Y273D02*
X2270Y273D01*
X531Y272D02*
X548Y272D01*
X1697Y272D02*
X1785Y272D01*
X2232Y272D02*
X2246Y272D01*
X2259Y272D02*
X2270Y272D01*
X531Y271D02*
X548Y271D01*
X1697Y271D02*
X1785Y271D01*
X2232Y271D02*
X2245Y271D01*
X2259Y271D02*
X2270Y271D01*
X78Y270D02*
X152Y270D01*
X531Y270D02*
X548Y270D01*
X1697Y270D02*
X1785Y270D01*
X2231Y270D02*
X2245Y270D01*
X2259Y270D02*
X2270Y270D01*
X76Y269D02*
X155Y269D01*
X531Y269D02*
X548Y269D01*
X1697Y269D02*
X1785Y269D01*
X2231Y269D02*
X2244Y269D01*
X2259Y269D02*
X2270Y269D01*
X74Y268D02*
X156Y268D01*
X531Y268D02*
X548Y268D01*
X1698Y268D02*
X1784Y268D01*
X2230Y268D02*
X2243Y268D01*
X2259Y268D02*
X2270Y268D01*
X73Y267D02*
X157Y267D01*
X531Y267D02*
X548Y267D01*
X1698Y267D02*
X1784Y267D01*
X2230Y267D02*
X2243Y267D01*
X2259Y267D02*
X2270Y267D01*
X72Y266D02*
X158Y266D01*
X531Y266D02*
X548Y266D01*
X1699Y266D02*
X1783Y266D01*
X2229Y266D02*
X2242Y266D01*
X2259Y266D02*
X2270Y266D01*
X72Y265D02*
X158Y265D01*
X531Y265D02*
X548Y265D01*
X1700Y265D02*
X1782Y265D01*
X2228Y265D02*
X2242Y265D01*
X2259Y265D02*
X2270Y265D01*
X71Y264D02*
X159Y264D01*
X531Y264D02*
X548Y264D01*
X1701Y264D02*
X1781Y264D01*
X2228Y264D02*
X2241Y264D01*
X2259Y264D02*
X2270Y264D01*
X71Y263D02*
X159Y263D01*
X531Y263D02*
X548Y263D01*
X1704Y263D02*
X1778Y263D01*
X2227Y263D02*
X2241Y263D01*
X2259Y263D02*
X2270Y263D01*
X71Y262D02*
X159Y262D01*
X531Y262D02*
X548Y262D01*
X2227Y262D02*
X2240Y262D01*
X2259Y262D02*
X2270Y262D01*
X71Y261D02*
X159Y261D01*
X531Y261D02*
X548Y261D01*
X2226Y261D02*
X2239Y261D01*
X2259Y261D02*
X2270Y261D01*
X71Y260D02*
X159Y260D01*
X531Y260D02*
X548Y260D01*
X2225Y260D02*
X2239Y260D01*
X2259Y260D02*
X2270Y260D01*
X71Y259D02*
X159Y259D01*
X531Y259D02*
X548Y259D01*
X2225Y259D02*
X2238Y259D01*
X2259Y259D02*
X2270Y259D01*
X71Y258D02*
X159Y258D01*
X531Y258D02*
X548Y258D01*
X2224Y258D02*
X2238Y258D01*
X2259Y258D02*
X2270Y258D01*
X71Y257D02*
X159Y257D01*
X531Y257D02*
X548Y257D01*
X2224Y257D02*
X2237Y257D01*
X2259Y257D02*
X2270Y257D01*
X71Y256D02*
X159Y256D01*
X531Y256D02*
X548Y256D01*
X2223Y256D02*
X2236Y256D01*
X2259Y256D02*
X2270Y256D01*
X71Y255D02*
X159Y255D01*
X531Y255D02*
X548Y255D01*
X2223Y255D02*
X2236Y255D01*
X2259Y255D02*
X2270Y255D01*
X71Y254D02*
X159Y254D01*
X531Y254D02*
X548Y254D01*
X2222Y254D02*
X2235Y254D01*
X2259Y254D02*
X2270Y254D01*
X71Y253D02*
X159Y253D01*
X531Y253D02*
X548Y253D01*
X2221Y253D02*
X2235Y253D01*
X2259Y253D02*
X2270Y253D01*
X71Y252D02*
X159Y252D01*
X531Y252D02*
X548Y252D01*
X2221Y252D02*
X2234Y252D01*
X2259Y252D02*
X2270Y252D01*
X71Y251D02*
X159Y251D01*
X531Y251D02*
X548Y251D01*
X2220Y251D02*
X2234Y251D01*
X2259Y251D02*
X2270Y251D01*
X71Y250D02*
X159Y250D01*
X531Y250D02*
X548Y250D01*
X2220Y250D02*
X2233Y250D01*
X2259Y250D02*
X2270Y250D01*
X72Y249D02*
X158Y249D01*
X531Y249D02*
X548Y249D01*
X2219Y249D02*
X2232Y249D01*
X2259Y249D02*
X2270Y249D01*
X73Y248D02*
X158Y248D01*
X531Y248D02*
X548Y248D01*
X2218Y248D02*
X2232Y248D01*
X2259Y248D02*
X2270Y248D01*
X73Y247D02*
X157Y247D01*
X531Y247D02*
X548Y247D01*
X2218Y247D02*
X2231Y247D01*
X2259Y247D02*
X2270Y247D01*
X75Y246D02*
X156Y246D01*
X501Y246D02*
X578Y246D01*
X2217Y246D02*
X2231Y246D01*
X2259Y246D02*
X2270Y246D01*
X76Y245D02*
X154Y245D01*
X499Y245D02*
X580Y245D01*
X2217Y245D02*
X2230Y245D01*
X2259Y245D02*
X2270Y245D01*
X498Y244D02*
X581Y244D01*
X2216Y244D02*
X2229Y244D01*
X2259Y244D02*
X2270Y244D01*
X497Y243D02*
X582Y243D01*
X2216Y243D02*
X2229Y243D01*
X2259Y243D02*
X2270Y243D01*
X496Y242D02*
X582Y242D01*
X2215Y242D02*
X2228Y242D01*
X2259Y242D02*
X2270Y242D01*
X496Y241D02*
X583Y241D01*
X2214Y241D02*
X2228Y241D01*
X2259Y241D02*
X2270Y241D01*
X495Y240D02*
X583Y240D01*
X2214Y240D02*
X2227Y240D01*
X2259Y240D02*
X2270Y240D01*
X495Y239D02*
X583Y239D01*
X2213Y239D02*
X2226Y239D01*
X2259Y239D02*
X2270Y239D01*
X495Y238D02*
X583Y238D01*
X2213Y238D02*
X2226Y238D01*
X2259Y238D02*
X2270Y238D01*
X495Y237D02*
X583Y237D01*
X2212Y237D02*
X2225Y237D01*
X2259Y237D02*
X2270Y237D01*
X495Y236D02*
X583Y236D01*
X2211Y236D02*
X2225Y236D01*
X2259Y236D02*
X2270Y236D01*
X495Y235D02*
X583Y235D01*
X2211Y235D02*
X2224Y235D01*
X2259Y235D02*
X2270Y235D01*
X496Y234D02*
X583Y234D01*
X2211Y234D02*
X2224Y234D01*
X2259Y234D02*
X2270Y234D01*
X496Y233D02*
X582Y233D01*
X2211Y233D02*
X2223Y233D01*
X2259Y233D02*
X2270Y233D01*
X497Y232D02*
X582Y232D01*
X2211Y232D02*
X2222Y232D01*
X2259Y232D02*
X2270Y232D01*
X498Y231D02*
X581Y231D01*
X2211Y231D02*
X2222Y231D01*
X2259Y231D02*
X2270Y231D01*
X499Y230D02*
X580Y230D01*
X2212Y230D02*
X2221Y230D01*
X2260Y230D02*
X2269Y230D01*
X501Y229D02*
X578Y229D01*
X2212Y229D02*
X2220Y229D01*
X2260Y229D02*
X2268Y229D01*
X531Y228D02*
X548Y228D01*
X2213Y228D02*
X2219Y228D01*
X2261Y228D02*
X2267Y228D01*
X531Y227D02*
X548Y227D01*
X2215Y227D02*
X2217Y227D01*
X2263Y227D02*
X2265Y227D01*
X531Y226D02*
X548Y226D01*
X531Y225D02*
X548Y225D01*
X531Y224D02*
X548Y224D01*
X531Y223D02*
X548Y223D01*
X531Y222D02*
X548Y222D01*
X531Y221D02*
X548Y221D01*
X531Y220D02*
X548Y220D01*
X531Y219D02*
X548Y219D01*
X531Y218D02*
X548Y218D01*
X531Y217D02*
X548Y217D01*
X531Y216D02*
X548Y216D01*
X531Y215D02*
X548Y215D01*
X531Y214D02*
X548Y214D01*
X531Y213D02*
X548Y213D01*
X531Y212D02*
X548Y212D01*
X531Y211D02*
X548Y211D01*
X531Y210D02*
X548Y210D01*
X531Y209D02*
X548Y209D01*
X531Y208D02*
X548Y208D01*
X531Y207D02*
X548Y207D01*
X531Y206D02*
X548Y206D01*
X531Y205D02*
X548Y205D01*
X531Y204D02*
X548Y204D01*
X531Y203D02*
X548Y203D01*
X531Y202D02*
X548Y202D01*
X531Y201D02*
X548Y201D01*
X531Y200D02*
X548Y200D01*
X531Y199D02*
X547Y199D01*
X532Y198D02*
X547Y198D01*
X532Y197D02*
X546Y197D01*
X533Y196D02*
X546Y196D01*
X534Y195D02*
X545Y195D01*
X535Y194D02*
X543Y194D01*
X538Y193D02*
X541Y193D01*
X329Y153D02*
X333Y153D01*
X377Y153D02*
X424Y153D01*
X328Y152D02*
X335Y152D01*
X375Y152D02*
X425Y152D01*
X327Y151D02*
X336Y151D01*
X373Y151D02*
X426Y151D01*
X326Y150D02*
X336Y150D01*
X372Y150D02*
X427Y150D01*
X326Y149D02*
X337Y149D01*
X371Y149D02*
X427Y149D01*
X326Y148D02*
X337Y148D01*
X370Y148D02*
X427Y148D01*
X326Y147D02*
X337Y147D01*
X370Y147D02*
X427Y147D01*
X326Y146D02*
X337Y146D01*
X369Y146D02*
X427Y146D01*
X326Y145D02*
X337Y145D01*
X369Y145D02*
X427Y145D01*
X326Y144D02*
X337Y144D01*
X368Y144D02*
X426Y144D01*
X294Y143D02*
X296Y143D01*
X326Y143D02*
X337Y143D01*
X368Y143D02*
X425Y143D01*
X3385Y143D02*
X3390Y143D01*
X3560Y143D02*
X3586Y143D01*
X292Y142D02*
X298Y142D01*
X326Y142D02*
X337Y142D01*
X368Y142D02*
X424Y142D01*
X3383Y142D02*
X3391Y142D01*
X3558Y142D02*
X3588Y142D01*
X291Y141D02*
X299Y141D01*
X326Y141D02*
X337Y141D01*
X368Y141D02*
X379Y141D01*
X3383Y141D02*
X3392Y141D01*
X3558Y141D02*
X3590Y141D01*
X290Y140D02*
X300Y140D01*
X326Y140D02*
X337Y140D01*
X368Y140D02*
X379Y140D01*
X3382Y140D02*
X3392Y140D01*
X3557Y140D02*
X3591Y140D01*
X290Y139D02*
X301Y139D01*
X326Y139D02*
X337Y139D01*
X368Y139D02*
X379Y139D01*
X3382Y139D02*
X3393Y139D01*
X3557Y139D02*
X3592Y139D01*
X290Y138D02*
X301Y138D01*
X326Y138D02*
X337Y138D01*
X368Y138D02*
X379Y138D01*
X3381Y138D02*
X3393Y138D01*
X3557Y138D02*
X3593Y138D01*
X290Y137D02*
X301Y137D01*
X326Y137D02*
X337Y137D01*
X368Y137D02*
X379Y137D01*
X3381Y137D02*
X3393Y137D01*
X3557Y137D02*
X3594Y137D01*
X290Y136D02*
X301Y136D01*
X326Y136D02*
X337Y136D01*
X368Y136D02*
X379Y136D01*
X3381Y136D02*
X3393Y136D01*
X3557Y136D02*
X3595Y136D01*
X290Y135D02*
X301Y135D01*
X326Y135D02*
X337Y135D01*
X368Y135D02*
X379Y135D01*
X3381Y135D02*
X3393Y135D01*
X3557Y135D02*
X3596Y135D01*
X290Y134D02*
X301Y134D01*
X326Y134D02*
X337Y134D01*
X368Y134D02*
X379Y134D01*
X3381Y134D02*
X3393Y134D01*
X3558Y134D02*
X3597Y134D01*
X290Y133D02*
X301Y133D01*
X326Y133D02*
X337Y133D01*
X368Y133D02*
X379Y133D01*
X3381Y133D02*
X3393Y133D01*
X3559Y133D02*
X3597Y133D01*
X290Y132D02*
X301Y132D01*
X326Y132D02*
X337Y132D01*
X368Y132D02*
X379Y132D01*
X3381Y132D02*
X3393Y132D01*
X3561Y132D02*
X3598Y132D01*
X290Y131D02*
X301Y131D01*
X326Y131D02*
X337Y131D01*
X368Y131D02*
X379Y131D01*
X3381Y131D02*
X3393Y131D01*
X3584Y131D02*
X3599Y131D01*
X290Y130D02*
X301Y130D01*
X326Y130D02*
X337Y130D01*
X368Y130D02*
X379Y130D01*
X3381Y130D02*
X3393Y130D01*
X3585Y130D02*
X3600Y130D01*
X290Y129D02*
X301Y129D01*
X326Y129D02*
X337Y129D01*
X368Y129D02*
X379Y129D01*
X3381Y129D02*
X3393Y129D01*
X3586Y129D02*
X3600Y129D01*
X290Y128D02*
X301Y128D01*
X326Y128D02*
X337Y128D01*
X368Y128D02*
X379Y128D01*
X3381Y128D02*
X3393Y128D01*
X3587Y128D02*
X3601Y128D01*
X196Y127D02*
X201Y127D01*
X244Y127D02*
X249Y127D01*
X290Y127D02*
X301Y127D01*
X326Y127D02*
X337Y127D01*
X368Y127D02*
X379Y127D01*
X3381Y127D02*
X3393Y127D01*
X3587Y127D02*
X3602Y127D01*
X195Y126D02*
X202Y126D01*
X243Y126D02*
X250Y126D01*
X290Y126D02*
X301Y126D01*
X326Y126D02*
X337Y126D01*
X368Y126D02*
X379Y126D01*
X3381Y126D02*
X3393Y126D01*
X3588Y126D02*
X3603Y126D01*
X194Y125D02*
X203Y125D01*
X242Y125D02*
X251Y125D01*
X290Y125D02*
X301Y125D01*
X326Y125D02*
X337Y125D01*
X368Y125D02*
X379Y125D01*
X3381Y125D02*
X3393Y125D01*
X3589Y125D02*
X3604Y125D01*
X193Y124D02*
X204Y124D01*
X241Y124D02*
X252Y124D01*
X290Y124D02*
X301Y124D01*
X326Y124D02*
X337Y124D01*
X368Y124D02*
X379Y124D01*
X3381Y124D02*
X3393Y124D01*
X3590Y124D02*
X3604Y124D01*
X193Y123D02*
X204Y123D01*
X241Y123D02*
X252Y123D01*
X290Y123D02*
X301Y123D01*
X326Y123D02*
X337Y123D01*
X368Y123D02*
X379Y123D01*
X3381Y123D02*
X3393Y123D01*
X3591Y123D02*
X3605Y123D01*
X193Y122D02*
X204Y122D01*
X241Y122D02*
X252Y122D01*
X290Y122D02*
X301Y122D01*
X326Y122D02*
X337Y122D01*
X368Y122D02*
X379Y122D01*
X3381Y122D02*
X3393Y122D01*
X3591Y122D02*
X3606Y122D01*
X193Y121D02*
X204Y121D01*
X241Y121D02*
X252Y121D01*
X290Y121D02*
X301Y121D01*
X326Y121D02*
X337Y121D01*
X368Y121D02*
X379Y121D01*
X3381Y121D02*
X3393Y121D01*
X3592Y121D02*
X3607Y121D01*
X193Y120D02*
X204Y120D01*
X241Y120D02*
X252Y120D01*
X290Y120D02*
X301Y120D01*
X326Y120D02*
X337Y120D01*
X368Y120D02*
X379Y120D01*
X3381Y120D02*
X3393Y120D01*
X3593Y120D02*
X3607Y120D01*
X193Y119D02*
X204Y119D01*
X241Y119D02*
X252Y119D01*
X290Y119D02*
X301Y119D01*
X326Y119D02*
X337Y119D01*
X368Y119D02*
X379Y119D01*
X3381Y119D02*
X3393Y119D01*
X3594Y119D02*
X3608Y119D01*
X193Y118D02*
X204Y118D01*
X241Y118D02*
X252Y118D01*
X290Y118D02*
X301Y118D01*
X326Y118D02*
X337Y118D01*
X368Y118D02*
X379Y118D01*
X3381Y118D02*
X3393Y118D01*
X3408Y118D02*
X3421Y118D01*
X3487Y118D02*
X3497Y118D01*
X3522Y118D02*
X3524Y118D01*
X3594Y118D02*
X3609Y118D01*
X193Y117D02*
X204Y117D01*
X241Y117D02*
X252Y117D01*
X290Y117D02*
X301Y117D01*
X326Y117D02*
X337Y117D01*
X368Y117D02*
X379Y117D01*
X3381Y117D02*
X3393Y117D01*
X3404Y117D02*
X3425Y117D01*
X3482Y117D02*
X3501Y117D01*
X3520Y117D02*
X3526Y117D01*
X3595Y117D02*
X3610Y117D01*
X193Y116D02*
X204Y116D01*
X241Y116D02*
X252Y116D01*
X290Y116D02*
X301Y116D01*
X326Y116D02*
X337Y116D01*
X368Y116D02*
X379Y116D01*
X3381Y116D02*
X3393Y116D01*
X3402Y116D02*
X3427Y116D01*
X3480Y116D02*
X3503Y116D01*
X3519Y116D02*
X3527Y116D01*
X3596Y116D02*
X3610Y116D01*
X193Y115D02*
X204Y115D01*
X241Y115D02*
X252Y115D01*
X290Y115D02*
X301Y115D01*
X326Y115D02*
X337Y115D01*
X368Y115D02*
X379Y115D01*
X3381Y115D02*
X3393Y115D01*
X3400Y115D02*
X3428Y115D01*
X3478Y115D02*
X3505Y115D01*
X3518Y115D02*
X3528Y115D01*
X3597Y115D02*
X3611Y115D01*
X193Y114D02*
X204Y114D01*
X241Y114D02*
X252Y114D01*
X290Y114D02*
X301Y114D01*
X326Y114D02*
X337Y114D01*
X368Y114D02*
X379Y114D01*
X3381Y114D02*
X3393Y114D01*
X3399Y114D02*
X3430Y114D01*
X3477Y114D02*
X3507Y114D01*
X3517Y114D02*
X3528Y114D01*
X3598Y114D02*
X3612Y114D01*
X193Y113D02*
X204Y113D01*
X241Y113D02*
X252Y113D01*
X290Y113D02*
X301Y113D01*
X326Y113D02*
X337Y113D01*
X368Y113D02*
X379Y113D01*
X3381Y113D02*
X3393Y113D01*
X3397Y113D02*
X3431Y113D01*
X3476Y113D02*
X3508Y113D01*
X3517Y113D02*
X3528Y113D01*
X3598Y113D02*
X3613Y113D01*
X193Y112D02*
X205Y112D01*
X241Y112D02*
X252Y112D01*
X290Y112D02*
X301Y112D01*
X326Y112D02*
X337Y112D01*
X368Y112D02*
X418Y112D01*
X3381Y112D02*
X3393Y112D01*
X3396Y112D02*
X3432Y112D01*
X3475Y112D02*
X3510Y112D01*
X3517Y112D02*
X3528Y112D01*
X3599Y112D02*
X3613Y112D01*
X193Y111D02*
X205Y111D01*
X240Y111D02*
X252Y111D01*
X290Y111D02*
X301Y111D01*
X326Y111D02*
X337Y111D01*
X368Y111D02*
X421Y111D01*
X3381Y111D02*
X3393Y111D01*
X3395Y111D02*
X3433Y111D01*
X3474Y111D02*
X3511Y111D01*
X3517Y111D02*
X3528Y111D01*
X3600Y111D02*
X3614Y111D01*
X193Y110D02*
X205Y110D01*
X240Y110D02*
X252Y110D01*
X290Y110D02*
X301Y110D01*
X326Y110D02*
X337Y110D01*
X368Y110D02*
X422Y110D01*
X3381Y110D02*
X3434Y110D01*
X3474Y110D02*
X3513Y110D01*
X3517Y110D02*
X3528Y110D01*
X3601Y110D02*
X3614Y110D01*
X194Y109D02*
X206Y109D01*
X239Y109D02*
X252Y109D01*
X290Y109D02*
X301Y109D01*
X326Y109D02*
X337Y109D01*
X369Y109D02*
X424Y109D01*
X3381Y109D02*
X3435Y109D01*
X3473Y109D02*
X3514Y109D01*
X3517Y109D02*
X3528Y109D01*
X3601Y109D02*
X3614Y109D01*
X194Y108D02*
X206Y108D01*
X239Y108D02*
X251Y108D01*
X290Y108D02*
X301Y108D01*
X326Y108D02*
X337Y108D01*
X369Y108D02*
X424Y108D01*
X3381Y108D02*
X3436Y108D01*
X3472Y108D02*
X3528Y108D01*
X3602Y108D02*
X3615Y108D01*
X194Y107D02*
X207Y107D01*
X239Y107D02*
X251Y107D01*
X290Y107D02*
X301Y107D01*
X326Y107D02*
X337Y107D01*
X369Y107D02*
X425Y107D01*
X3381Y107D02*
X3437Y107D01*
X3472Y107D02*
X3528Y107D01*
X3603Y107D02*
X3615Y107D01*
X195Y106D02*
X207Y106D01*
X238Y106D02*
X250Y106D01*
X290Y106D02*
X301Y106D01*
X326Y106D02*
X337Y106D01*
X370Y106D02*
X426Y106D01*
X3381Y106D02*
X3438Y106D01*
X3472Y106D02*
X3528Y106D01*
X3603Y106D02*
X3615Y106D01*
X195Y105D02*
X208Y105D01*
X238Y105D02*
X250Y105D01*
X290Y105D02*
X301Y105D01*
X326Y105D02*
X337Y105D01*
X371Y105D02*
X426Y105D01*
X3381Y105D02*
X3406Y105D01*
X3423Y105D02*
X3439Y105D01*
X3471Y105D02*
X3485Y105D01*
X3499Y105D02*
X3528Y105D01*
X3604Y105D02*
X3616Y105D01*
X196Y104D02*
X208Y104D01*
X237Y104D02*
X250Y104D01*
X290Y104D02*
X301Y104D01*
X326Y104D02*
X337Y104D01*
X372Y104D02*
X427Y104D01*
X3381Y104D02*
X3405Y104D01*
X3424Y104D02*
X3439Y104D01*
X3471Y104D02*
X3484Y104D01*
X3500Y104D02*
X3528Y104D01*
X3604Y104D02*
X3616Y104D01*
X196Y103D02*
X208Y103D01*
X237Y103D02*
X249Y103D01*
X290Y103D02*
X301Y103D01*
X326Y103D02*
X337Y103D01*
X373Y103D02*
X427Y103D01*
X3381Y103D02*
X3404Y103D01*
X3425Y103D02*
X3440Y103D01*
X3471Y103D02*
X3483Y103D01*
X3502Y103D02*
X3528Y103D01*
X3604Y103D02*
X3616Y103D01*
X197Y102D02*
X209Y102D01*
X236Y102D02*
X249Y102D01*
X288Y102D02*
X337Y102D01*
X374Y102D02*
X427Y102D01*
X3381Y102D02*
X3402Y102D01*
X3426Y102D02*
X3440Y102D01*
X3471Y102D02*
X3482Y102D01*
X3504Y102D02*
X3528Y102D01*
X3605Y102D02*
X3616Y102D01*
X197Y101D02*
X209Y101D01*
X236Y101D02*
X248Y101D01*
X286Y101D02*
X337Y101D01*
X376Y101D02*
X427Y101D01*
X3381Y101D02*
X3401Y101D01*
X3427Y101D02*
X3440Y101D01*
X3471Y101D02*
X3482Y101D01*
X3505Y101D02*
X3528Y101D01*
X3605Y101D02*
X3616Y101D01*
X197Y100D02*
X210Y100D01*
X235Y100D02*
X248Y100D01*
X285Y100D02*
X337Y100D01*
X416Y100D02*
X427Y100D01*
X3381Y100D02*
X3400Y100D01*
X3428Y100D02*
X3440Y100D01*
X3471Y100D02*
X3482Y100D01*
X3507Y100D02*
X3528Y100D01*
X3605Y100D02*
X3616Y100D01*
X198Y99D02*
X210Y99D01*
X235Y99D02*
X247Y99D01*
X284Y99D02*
X337Y99D01*
X416Y99D02*
X427Y99D01*
X3381Y99D02*
X3399Y99D01*
X3429Y99D02*
X3441Y99D01*
X3471Y99D02*
X3482Y99D01*
X3508Y99D02*
X3528Y99D01*
X3605Y99D02*
X3616Y99D01*
X198Y98D02*
X211Y98D01*
X235Y98D02*
X247Y98D01*
X284Y98D02*
X337Y98D01*
X416Y98D02*
X427Y98D01*
X3381Y98D02*
X3398Y98D01*
X3429Y98D02*
X3441Y98D01*
X3471Y98D02*
X3482Y98D01*
X3510Y98D02*
X3528Y98D01*
X3605Y98D02*
X3616Y98D01*
X199Y97D02*
X211Y97D01*
X234Y97D02*
X247Y97D01*
X284Y97D02*
X337Y97D01*
X416Y97D02*
X427Y97D01*
X3381Y97D02*
X3397Y97D01*
X3429Y97D02*
X3441Y97D01*
X3470Y97D02*
X3482Y97D01*
X3511Y97D02*
X3528Y97D01*
X3605Y97D02*
X3616Y97D01*
X199Y96D02*
X212Y96D01*
X234Y96D02*
X246Y96D01*
X284Y96D02*
X337Y96D01*
X416Y96D02*
X427Y96D01*
X3381Y96D02*
X3395Y96D01*
X3430Y96D02*
X3441Y96D01*
X3470Y96D02*
X3482Y96D01*
X3513Y96D02*
X3528Y96D01*
X3605Y96D02*
X3616Y96D01*
X200Y95D02*
X212Y95D01*
X233Y95D02*
X246Y95D01*
X284Y95D02*
X337Y95D01*
X416Y95D02*
X427Y95D01*
X3381Y95D02*
X3394Y95D01*
X3430Y95D02*
X3441Y95D01*
X3470Y95D02*
X3482Y95D01*
X3514Y95D02*
X3528Y95D01*
X3605Y95D02*
X3616Y95D01*
X200Y94D02*
X212Y94D01*
X233Y94D02*
X245Y94D01*
X284Y94D02*
X337Y94D01*
X416Y94D02*
X427Y94D01*
X3381Y94D02*
X3394Y94D01*
X3430Y94D02*
X3441Y94D01*
X3470Y94D02*
X3482Y94D01*
X3516Y94D02*
X3528Y94D01*
X3605Y94D02*
X3616Y94D01*
X201Y93D02*
X213Y93D01*
X232Y93D02*
X245Y93D01*
X284Y93D02*
X337Y93D01*
X416Y93D02*
X427Y93D01*
X3381Y93D02*
X3393Y93D01*
X3430Y93D02*
X3441Y93D01*
X3470Y93D02*
X3482Y93D01*
X3517Y93D02*
X3528Y93D01*
X3605Y93D02*
X3616Y93D01*
X201Y92D02*
X213Y92D01*
X232Y92D02*
X244Y92D01*
X285Y92D02*
X337Y92D01*
X416Y92D02*
X427Y92D01*
X3381Y92D02*
X3393Y92D01*
X3430Y92D02*
X3441Y92D01*
X3470Y92D02*
X3482Y92D01*
X3517Y92D02*
X3528Y92D01*
X3557Y92D02*
X3582Y92D01*
X3605Y92D02*
X3616Y92D01*
X201Y91D02*
X214Y91D01*
X232Y91D02*
X244Y91D01*
X286Y91D02*
X337Y91D01*
X416Y91D02*
X427Y91D01*
X3381Y91D02*
X3393Y91D01*
X3430Y91D02*
X3441Y91D01*
X3470Y91D02*
X3482Y91D01*
X3517Y91D02*
X3528Y91D01*
X3557Y91D02*
X3584Y91D01*
X3605Y91D02*
X3616Y91D01*
X202Y90D02*
X214Y90D01*
X231Y90D02*
X243Y90D01*
X289Y90D02*
X336Y90D01*
X416Y90D02*
X427Y90D01*
X3381Y90D02*
X3393Y90D01*
X3430Y90D02*
X3441Y90D01*
X3470Y90D02*
X3481Y90D01*
X3517Y90D02*
X3528Y90D01*
X3557Y90D02*
X3585Y90D01*
X3605Y90D02*
X3616Y90D01*
X202Y89D02*
X215Y89D01*
X231Y89D02*
X243Y89D01*
X290Y89D02*
X301Y89D01*
X416Y89D02*
X427Y89D01*
X3381Y89D02*
X3393Y89D01*
X3430Y89D02*
X3441Y89D01*
X3470Y89D02*
X3481Y89D01*
X3517Y89D02*
X3528Y89D01*
X3557Y89D02*
X3585Y89D01*
X3605Y89D02*
X3616Y89D01*
X203Y88D02*
X215Y88D01*
X230Y88D02*
X243Y88D01*
X290Y88D02*
X301Y88D01*
X416Y88D02*
X427Y88D01*
X3381Y88D02*
X3393Y88D01*
X3430Y88D02*
X3441Y88D01*
X3470Y88D02*
X3481Y88D01*
X3517Y88D02*
X3528Y88D01*
X3557Y88D02*
X3586Y88D01*
X3605Y88D02*
X3616Y88D01*
X203Y87D02*
X215Y87D01*
X230Y87D02*
X242Y87D01*
X290Y87D02*
X301Y87D01*
X416Y87D02*
X427Y87D01*
X3381Y87D02*
X3393Y87D01*
X3430Y87D02*
X3441Y87D01*
X3470Y87D02*
X3481Y87D01*
X3517Y87D02*
X3528Y87D01*
X3557Y87D02*
X3586Y87D01*
X3605Y87D02*
X3616Y87D01*
X204Y86D02*
X216Y86D01*
X229Y86D02*
X242Y86D01*
X290Y86D02*
X301Y86D01*
X416Y86D02*
X427Y86D01*
X3381Y86D02*
X3393Y86D01*
X3430Y86D02*
X3441Y86D01*
X3470Y86D02*
X3481Y86D01*
X3517Y86D02*
X3528Y86D01*
X3557Y86D02*
X3586Y86D01*
X3605Y86D02*
X3616Y86D01*
X204Y85D02*
X216Y85D01*
X229Y85D02*
X241Y85D01*
X290Y85D02*
X301Y85D01*
X416Y85D02*
X427Y85D01*
X3381Y85D02*
X3393Y85D01*
X3430Y85D02*
X3441Y85D01*
X3470Y85D02*
X3481Y85D01*
X3517Y85D02*
X3528Y85D01*
X3557Y85D02*
X3586Y85D01*
X3605Y85D02*
X3616Y85D01*
X204Y84D02*
X217Y84D01*
X229Y84D02*
X241Y84D01*
X290Y84D02*
X301Y84D01*
X416Y84D02*
X427Y84D01*
X3381Y84D02*
X3393Y84D01*
X3430Y84D02*
X3441Y84D01*
X3470Y84D02*
X3481Y84D01*
X3517Y84D02*
X3528Y84D01*
X3557Y84D02*
X3585Y84D01*
X3605Y84D02*
X3616Y84D01*
X205Y83D02*
X217Y83D01*
X228Y83D02*
X240Y83D01*
X290Y83D02*
X301Y83D01*
X416Y83D02*
X427Y83D01*
X3381Y83D02*
X3393Y83D01*
X3430Y83D02*
X3441Y83D01*
X3470Y83D02*
X3481Y83D01*
X3517Y83D02*
X3528Y83D01*
X3557Y83D02*
X3585Y83D01*
X3605Y83D02*
X3616Y83D01*
X205Y82D02*
X218Y82D01*
X228Y82D02*
X240Y82D01*
X290Y82D02*
X301Y82D01*
X416Y82D02*
X427Y82D01*
X3381Y82D02*
X3393Y82D01*
X3430Y82D02*
X3441Y82D01*
X3470Y82D02*
X3481Y82D01*
X3517Y82D02*
X3528Y82D01*
X3557Y82D02*
X3584Y82D01*
X3605Y82D02*
X3616Y82D01*
X206Y81D02*
X218Y81D01*
X227Y81D02*
X240Y81D01*
X290Y81D02*
X301Y81D01*
X416Y81D02*
X427Y81D01*
X3381Y81D02*
X3393Y81D01*
X3430Y81D02*
X3441Y81D01*
X3470Y81D02*
X3481Y81D01*
X3517Y81D02*
X3528Y81D01*
X3557Y81D02*
X3583Y81D01*
X3605Y81D02*
X3616Y81D01*
X206Y80D02*
X219Y80D01*
X227Y80D02*
X239Y80D01*
X290Y80D02*
X301Y80D01*
X416Y80D02*
X427Y80D01*
X3381Y80D02*
X3393Y80D01*
X3430Y80D02*
X3441Y80D01*
X3470Y80D02*
X3481Y80D01*
X3517Y80D02*
X3528Y80D01*
X3557Y80D02*
X3568Y80D01*
X3605Y80D02*
X3616Y80D01*
X207Y79D02*
X219Y79D01*
X226Y79D02*
X239Y79D01*
X290Y79D02*
X301Y79D01*
X416Y79D02*
X427Y79D01*
X3381Y79D02*
X3393Y79D01*
X3430Y79D02*
X3441Y79D01*
X3470Y79D02*
X3481Y79D01*
X3517Y79D02*
X3528Y79D01*
X3557Y79D02*
X3568Y79D01*
X3605Y79D02*
X3616Y79D01*
X207Y78D02*
X219Y78D01*
X226Y78D02*
X238Y78D01*
X290Y78D02*
X301Y78D01*
X416Y78D02*
X427Y78D01*
X3381Y78D02*
X3393Y78D01*
X3430Y78D02*
X3441Y78D01*
X3470Y78D02*
X3481Y78D01*
X3517Y78D02*
X3528Y78D01*
X3557Y78D02*
X3568Y78D01*
X3605Y78D02*
X3616Y78D01*
X208Y77D02*
X220Y77D01*
X226Y77D02*
X238Y77D01*
X290Y77D02*
X301Y77D01*
X416Y77D02*
X427Y77D01*
X3381Y77D02*
X3393Y77D01*
X3430Y77D02*
X3441Y77D01*
X3470Y77D02*
X3481Y77D01*
X3517Y77D02*
X3528Y77D01*
X3557Y77D02*
X3568Y77D01*
X3605Y77D02*
X3616Y77D01*
X208Y76D02*
X220Y76D01*
X225Y76D02*
X237Y76D01*
X290Y76D02*
X301Y76D01*
X416Y76D02*
X427Y76D01*
X3381Y76D02*
X3393Y76D01*
X3430Y76D02*
X3441Y76D01*
X3470Y76D02*
X3481Y76D01*
X3517Y76D02*
X3528Y76D01*
X3557Y76D02*
X3568Y76D01*
X3605Y76D02*
X3616Y76D01*
X208Y75D02*
X221Y75D01*
X225Y75D02*
X237Y75D01*
X290Y75D02*
X301Y75D01*
X416Y75D02*
X427Y75D01*
X3381Y75D02*
X3393Y75D01*
X3430Y75D02*
X3441Y75D01*
X3470Y75D02*
X3481Y75D01*
X3517Y75D02*
X3528Y75D01*
X3557Y75D02*
X3568Y75D01*
X3605Y75D02*
X3616Y75D01*
X209Y74D02*
X221Y74D01*
X224Y74D02*
X236Y74D01*
X290Y74D02*
X301Y74D01*
X416Y74D02*
X427Y74D01*
X3381Y74D02*
X3393Y74D01*
X3430Y74D02*
X3441Y74D01*
X3470Y74D02*
X3481Y74D01*
X3517Y74D02*
X3528Y74D01*
X3557Y74D02*
X3568Y74D01*
X3605Y74D02*
X3616Y74D01*
X209Y73D02*
X222Y73D01*
X224Y73D02*
X236Y73D01*
X290Y73D02*
X301Y73D01*
X416Y73D02*
X427Y73D01*
X3381Y73D02*
X3394Y73D01*
X3430Y73D02*
X3441Y73D01*
X3470Y73D02*
X3481Y73D01*
X3517Y73D02*
X3528Y73D01*
X3557Y73D02*
X3568Y73D01*
X3605Y73D02*
X3616Y73D01*
X210Y72D02*
X236Y72D01*
X290Y72D02*
X301Y72D01*
X416Y72D02*
X427Y72D01*
X3381Y72D02*
X3395Y72D01*
X3430Y72D02*
X3441Y72D01*
X3470Y72D02*
X3481Y72D01*
X3517Y72D02*
X3528Y72D01*
X3557Y72D02*
X3568Y72D01*
X3605Y72D02*
X3616Y72D01*
X210Y71D02*
X235Y71D01*
X290Y71D02*
X301Y71D01*
X372Y71D02*
X427Y71D01*
X3381Y71D02*
X3396Y71D01*
X3429Y71D02*
X3441Y71D01*
X3470Y71D02*
X3481Y71D01*
X3517Y71D02*
X3528Y71D01*
X3557Y71D02*
X3568Y71D01*
X3605Y71D02*
X3616Y71D01*
X211Y70D02*
X235Y70D01*
X290Y70D02*
X301Y70D01*
X371Y70D02*
X427Y70D01*
X3381Y70D02*
X3397Y70D01*
X3429Y70D02*
X3441Y70D01*
X3470Y70D02*
X3481Y70D01*
X3517Y70D02*
X3528Y70D01*
X3557Y70D02*
X3568Y70D01*
X3605Y70D02*
X3616Y70D01*
X211Y69D02*
X234Y69D01*
X290Y69D02*
X301Y69D01*
X370Y69D02*
X427Y69D01*
X3381Y69D02*
X3398Y69D01*
X3429Y69D02*
X3441Y69D01*
X3470Y69D02*
X3481Y69D01*
X3517Y69D02*
X3528Y69D01*
X3557Y69D02*
X3568Y69D01*
X3605Y69D02*
X3616Y69D01*
X211Y68D02*
X234Y68D01*
X290Y68D02*
X301Y68D01*
X369Y68D02*
X427Y68D01*
X3381Y68D02*
X3400Y68D01*
X3428Y68D02*
X3440Y68D01*
X3470Y68D02*
X3481Y68D01*
X3517Y68D02*
X3528Y68D01*
X3557Y68D02*
X3568Y68D01*
X3605Y68D02*
X3616Y68D01*
X212Y67D02*
X233Y67D01*
X290Y67D02*
X301Y67D01*
X368Y67D02*
X427Y67D01*
X3381Y67D02*
X3401Y67D01*
X3428Y67D02*
X3440Y67D01*
X3470Y67D02*
X3481Y67D01*
X3517Y67D02*
X3528Y67D01*
X3557Y67D02*
X3568Y67D01*
X3605Y67D02*
X3616Y67D01*
X212Y66D02*
X233Y66D01*
X290Y66D02*
X301Y66D01*
X368Y66D02*
X427Y66D01*
X3381Y66D02*
X3402Y66D01*
X3427Y66D02*
X3440Y66D01*
X3469Y66D02*
X3481Y66D01*
X3517Y66D02*
X3528Y66D01*
X3557Y66D02*
X3568Y66D01*
X3604Y66D02*
X3616Y66D01*
X213Y65D02*
X233Y65D01*
X290Y65D02*
X301Y65D01*
X368Y65D02*
X427Y65D01*
X3381Y65D02*
X3403Y65D01*
X3426Y65D02*
X3440Y65D01*
X3469Y65D02*
X3481Y65D01*
X3517Y65D02*
X3528Y65D01*
X3557Y65D02*
X3569Y65D01*
X3604Y65D02*
X3616Y65D01*
X213Y64D02*
X232Y64D01*
X290Y64D02*
X301Y64D01*
X368Y64D02*
X427Y64D01*
X3381Y64D02*
X3404Y64D01*
X3424Y64D02*
X3439Y64D01*
X3469Y64D02*
X3481Y64D01*
X3517Y64D02*
X3528Y64D01*
X3557Y64D02*
X3569Y64D01*
X3603Y64D02*
X3616Y64D01*
X214Y63D02*
X232Y63D01*
X290Y63D02*
X300Y63D01*
X369Y63D02*
X427Y63D01*
X3381Y63D02*
X3405Y63D01*
X3423Y63D02*
X3439Y63D01*
X3469Y63D02*
X3481Y63D01*
X3517Y63D02*
X3528Y63D01*
X3557Y63D02*
X3570Y63D01*
X3602Y63D02*
X3615Y63D01*
X214Y62D02*
X231Y62D01*
X291Y62D02*
X300Y62D01*
X369Y62D02*
X427Y62D01*
X3381Y62D02*
X3407Y62D01*
X3421Y62D02*
X3438Y62D01*
X3469Y62D02*
X3480Y62D01*
X3517Y62D02*
X3528Y62D01*
X3558Y62D02*
X3572Y62D01*
X3601Y62D02*
X3615Y62D01*
X215Y61D02*
X230Y61D01*
X291Y61D02*
X299Y61D01*
X370Y61D02*
X427Y61D01*
X3381Y61D02*
X3438Y61D01*
X3469Y61D02*
X3480Y61D01*
X3517Y61D02*
X3528Y61D01*
X3558Y61D02*
X3615Y61D01*
X216Y60D02*
X229Y60D01*
X293Y60D02*
X298Y60D01*
X371Y60D02*
X427Y60D01*
X3381Y60D02*
X3437Y60D01*
X3469Y60D02*
X3480Y60D01*
X3517Y60D02*
X3528Y60D01*
X3558Y60D02*
X3614Y60D01*
X3381Y59D02*
X3436Y59D01*
X3469Y59D02*
X3480Y59D01*
X3517Y59D02*
X3528Y59D01*
X3559Y59D02*
X3614Y59D01*
X3381Y58D02*
X3435Y58D01*
X3469Y58D02*
X3480Y58D01*
X3517Y58D02*
X3528Y58D01*
X3559Y58D02*
X3613Y58D01*
X3381Y57D02*
X3434Y57D01*
X3469Y57D02*
X3480Y57D01*
X3517Y57D02*
X3528Y57D01*
X3560Y57D02*
X3612Y57D01*
X3381Y56D02*
X3393Y56D01*
X3395Y56D02*
X3433Y56D01*
X3469Y56D02*
X3480Y56D01*
X3517Y56D02*
X3528Y56D01*
X3561Y56D02*
X3612Y56D01*
X3381Y55D02*
X3393Y55D01*
X3396Y55D02*
X3432Y55D01*
X3469Y55D02*
X3480Y55D01*
X3517Y55D02*
X3528Y55D01*
X3562Y55D02*
X3611Y55D01*
X3382Y54D02*
X3392Y54D01*
X3398Y54D02*
X3430Y54D01*
X3469Y54D02*
X3480Y54D01*
X3517Y54D02*
X3528Y54D01*
X3563Y54D02*
X3610Y54D01*
X3382Y53D02*
X3392Y53D01*
X3399Y53D02*
X3429Y53D01*
X3470Y53D02*
X3480Y53D01*
X3518Y53D02*
X3528Y53D01*
X3564Y53D02*
X3608Y53D01*
X3383Y52D02*
X3391Y52D01*
X3401Y52D02*
X3428Y52D01*
X3470Y52D02*
X3479Y52D01*
X3518Y52D02*
X3527Y52D01*
X3566Y52D02*
X3607Y52D01*
X3384Y51D02*
X3391Y51D01*
X3403Y51D02*
X3426Y51D01*
X3471Y51D02*
X3478Y51D01*
X3519Y51D02*
X3526Y51D01*
X3568Y51D02*
X3605Y51D01*
X3385Y50D02*
X3389Y50D01*
X3406Y50D02*
X3423Y50D01*
X3473Y50D02*
X3477Y50D01*
X3521Y50D02*
X3525Y50D01*
X3571Y50D02*
X3602Y50D01*
D02*
G04 End of Silk0*
M02*