G04 MADE WITH FRITZING*
G04 WWW.FRITZING.ORG*
G04 DOUBLE SIDED*
G04 HOLES PLATED*
G04 CONTOUR ON CENTER OF CONTOUR VECTOR*
%ASAXBY*%
%FSLAX23Y23*%
%MOIN*%
%OFA0B0*%
%SFA1.0B1.0*%
%ADD10C,0.075433*%
%ADD11C,0.078000*%
%ADD12C,0.075000*%
%ADD13C,0.082000*%
%ADD14C,0.079370*%
%ADD15C,0.099055*%
%ADD16R,0.078000X0.078000*%
%ADD17R,0.075000X0.075000*%
%ADD18R,0.082000X0.082000*%
%ADD19R,0.079370X0.079370*%
%ADD20R,0.099055X0.099055*%
%ADD21C,0.048000*%
%ADD22C,0.024000*%
%ADD23C,0.032000*%
%ADD24R,0.001000X0.001000*%
%LNCOPPER0*%
G90*
G70*
G54D10*
X1071Y984D03*
X121Y134D03*
X171Y2234D03*
X3721Y2234D03*
X3771Y134D03*
X1071Y884D03*
X1071Y784D03*
G54D11*
X371Y1586D03*
X271Y1586D03*
X171Y1586D03*
X2121Y484D03*
X2121Y1384D03*
X2221Y484D03*
X2221Y1384D03*
X2321Y484D03*
X2321Y1384D03*
X2421Y484D03*
X2421Y1384D03*
X2521Y484D03*
X2521Y1384D03*
X2621Y484D03*
X2621Y1384D03*
X2721Y484D03*
X2721Y1384D03*
X2821Y484D03*
X2821Y1384D03*
X2921Y484D03*
X2921Y1384D03*
X3021Y484D03*
X3021Y1384D03*
X3121Y484D03*
X3121Y1384D03*
X3221Y484D03*
X3221Y1384D03*
X3321Y484D03*
X3321Y1384D03*
G54D12*
X271Y1936D03*
X171Y1936D03*
G54D13*
X471Y936D03*
X471Y638D03*
G54D12*
X171Y536D03*
X171Y1036D03*
X271Y1286D03*
X371Y1286D03*
X1471Y2084D03*
X1471Y1684D03*
X3621Y1934D03*
X3621Y1534D03*
X1671Y1784D03*
X1671Y1384D03*
X1471Y1334D03*
X1471Y934D03*
G54D14*
X3021Y284D03*
X2921Y284D03*
X2821Y284D03*
X2721Y284D03*
X2621Y284D03*
X2521Y284D03*
X2421Y284D03*
X2321Y284D03*
G54D15*
X3621Y284D03*
X3521Y284D03*
X3421Y284D03*
X3321Y284D03*
X3221Y284D03*
G54D14*
X2071Y284D03*
X1971Y284D03*
X1871Y284D03*
X1071Y284D03*
X971Y284D03*
X871Y284D03*
X1571Y284D03*
X1471Y284D03*
X1371Y284D03*
X2371Y2084D03*
X2471Y2084D03*
X2571Y2084D03*
X2671Y2084D03*
X2771Y2084D03*
X2871Y2084D03*
X2971Y2084D03*
X3071Y2084D03*
X3171Y2084D03*
X3271Y2084D03*
X3371Y2084D03*
X3471Y2084D03*
G54D15*
X1821Y2084D03*
X1921Y2084D03*
X2021Y2084D03*
X2121Y2084D03*
G54D14*
X772Y2084D03*
X872Y2084D03*
X972Y2084D03*
X1072Y2084D03*
X371Y336D03*
X271Y336D03*
G54D16*
X371Y1586D03*
X2122Y485D03*
G54D17*
X271Y1936D03*
G54D18*
X471Y937D03*
G54D17*
X271Y1286D03*
G54D19*
X3021Y284D03*
G54D20*
X3621Y284D03*
G54D19*
X2071Y284D03*
X1071Y284D03*
X1571Y284D03*
X2371Y2084D03*
G54D20*
X1821Y2084D03*
G54D19*
X772Y2084D03*
X371Y336D03*
G54D21*
X1573Y84D02*
X1073Y84D01*
D02*
X1073Y84D02*
X1072Y242D01*
D02*
X1573Y84D02*
X3221Y84D01*
D02*
X3221Y84D02*
X3221Y240D01*
D02*
X1572Y242D02*
X1573Y84D01*
D02*
X1421Y184D02*
X1273Y184D01*
D02*
X1273Y184D02*
X1173Y384D01*
D02*
X1173Y384D02*
X973Y384D01*
D02*
X973Y384D02*
X972Y326D01*
D02*
X1452Y246D02*
X1421Y184D01*
D02*
X1572Y242D02*
X1573Y84D01*
D02*
X873Y484D02*
X1321Y484D01*
D02*
X1321Y484D02*
X1321Y1332D01*
D02*
X1321Y1332D02*
X1431Y1333D01*
D02*
X872Y326D02*
X873Y484D01*
D02*
X1321Y484D02*
X1321Y1336D01*
D02*
X1321Y1336D02*
X1431Y1334D01*
G54D22*
D02*
X1471Y315D02*
X1471Y905D01*
G54D21*
D02*
X2721Y326D02*
X2721Y443D01*
D02*
X2821Y326D02*
X2821Y443D01*
D02*
X2921Y326D02*
X2921Y443D01*
D02*
X3021Y326D02*
X3021Y443D01*
D02*
X1321Y984D02*
X1071Y984D01*
D02*
X1321Y332D02*
X1321Y484D01*
D02*
X973Y184D02*
X773Y184D01*
D02*
X773Y184D02*
X773Y584D01*
D02*
X773Y584D02*
X1173Y584D01*
D02*
X1173Y584D02*
X1173Y884D01*
D02*
X1173Y884D02*
X1071Y884D01*
D02*
X972Y242D02*
X973Y184D01*
D02*
X1073Y84D02*
X673Y84D01*
D02*
X669Y684D02*
X1073Y684D01*
D02*
X1073Y684D02*
X1071Y784D01*
D02*
X673Y84D02*
X669Y684D01*
D02*
X1072Y242D02*
X1073Y84D01*
D02*
X1321Y1336D02*
X1321Y984D01*
D02*
X1431Y1334D02*
X1321Y1336D01*
D02*
X1341Y313D02*
X1321Y332D01*
D02*
X3373Y1884D02*
X3045Y1418D01*
D02*
X3372Y2042D02*
X3373Y1884D01*
D02*
X3169Y1984D02*
X2821Y1432D01*
D02*
X2821Y1432D02*
X2821Y1425D01*
D02*
X3170Y2042D02*
X3169Y1984D01*
D02*
X3073Y2036D02*
X2721Y1432D01*
D02*
X2721Y1432D02*
X2721Y1425D01*
D02*
X3073Y2042D02*
X3073Y2036D01*
D02*
X2321Y326D02*
X2321Y443D01*
D02*
X2421Y326D02*
X2421Y443D01*
D02*
X2521Y326D02*
X2521Y443D01*
D02*
X2621Y326D02*
X2621Y443D01*
D02*
X3273Y1932D02*
X2921Y1432D01*
D02*
X2921Y1432D02*
X2921Y1425D01*
D02*
X3272Y2042D02*
X3273Y1932D01*
D02*
X830Y2084D02*
X813Y2084D01*
D02*
X1013Y2084D02*
X1030Y2084D01*
D02*
X3221Y1484D02*
X3221Y1425D01*
D02*
X3473Y1832D02*
X3221Y1484D01*
D02*
X3471Y2042D02*
X3473Y1832D01*
D02*
X3621Y484D02*
X3362Y484D01*
D02*
X3621Y328D02*
X3621Y484D01*
D02*
X2121Y1425D02*
X2121Y2032D01*
D02*
X2221Y1425D02*
X2221Y1736D01*
D02*
X2221Y1736D02*
X2469Y1732D01*
D02*
X2469Y1732D02*
X2650Y2048D01*
D02*
X2621Y1432D02*
X2621Y1425D01*
D02*
X2951Y2047D02*
X2621Y1432D01*
D02*
X2472Y2126D02*
X2473Y2284D01*
D02*
X2473Y2284D02*
X1469Y2284D01*
D02*
X1469Y2284D02*
X1471Y2124D01*
D02*
X1965Y2084D02*
X1977Y2084D01*
D02*
X2072Y242D02*
X2073Y184D01*
D02*
X3121Y336D02*
X3198Y450D01*
D02*
X3121Y184D02*
X3121Y336D01*
D02*
X2073Y184D02*
X3121Y184D01*
D02*
X3465Y284D02*
X3477Y284D01*
D02*
X1671Y1824D02*
X1673Y2184D01*
D02*
X1673Y2184D02*
X2369Y2184D01*
D02*
X2369Y2184D02*
X2370Y2126D01*
D02*
X2065Y2084D02*
X2077Y2084D01*
D02*
X2751Y2047D02*
X2521Y1632D01*
D02*
X2521Y1632D02*
X2321Y1632D01*
D02*
X2321Y1632D02*
X2321Y1425D01*
D02*
X3265Y284D02*
X3277Y284D01*
D02*
X3365Y284D02*
X3377Y284D01*
G54D23*
D02*
X1471Y1368D02*
X1471Y1650D01*
G54D21*
D02*
X2572Y2126D02*
X2573Y2184D01*
D02*
X2573Y2184D02*
X3621Y2184D01*
D02*
X3621Y2184D02*
X3621Y1974D01*
D02*
X2573Y1532D02*
X2421Y1532D01*
D02*
X2851Y2047D02*
X2573Y1532D01*
D02*
X2421Y1532D02*
X2421Y1425D01*
D02*
X1669Y1284D02*
X2521Y1283D01*
D02*
X1670Y1344D02*
X1669Y1284D01*
D02*
X2521Y1283D02*
X2521Y1343D01*
D02*
X2121Y1425D02*
X2121Y1584D01*
D02*
X2121Y1584D02*
X1473Y1584D01*
D02*
X1473Y1584D02*
X1471Y1374D01*
D02*
X1469Y836D02*
X1469Y384D01*
D02*
X1873Y384D02*
X1872Y326D01*
D02*
X1469Y384D02*
X1873Y384D01*
D02*
X1469Y836D02*
X1470Y894D01*
D02*
X1469Y836D02*
X3321Y836D01*
D02*
X3321Y836D02*
X3321Y1343D01*
D02*
X3362Y484D02*
X3621Y484D01*
D02*
X3621Y484D02*
X3621Y1494D01*
G54D23*
D02*
X3559Y284D02*
X3583Y284D01*
G54D21*
D02*
X1865Y2084D02*
X1877Y2084D01*
D02*
X1971Y326D02*
X1973Y732D01*
D02*
X1973Y732D02*
X3121Y732D01*
D02*
X3121Y732D02*
X3121Y525D01*
D02*
X171Y332D02*
X171Y496D01*
D02*
X229Y334D02*
X171Y332D01*
D02*
X471Y332D02*
X413Y334D01*
D02*
X471Y595D02*
X471Y332D01*
D02*
X171Y1284D02*
X171Y1075D01*
D02*
X231Y1285D02*
X171Y1284D01*
D02*
X471Y1284D02*
X411Y1285D01*
D02*
X471Y979D02*
X471Y1284D01*
D02*
X271Y1325D02*
X271Y1545D01*
D02*
X371Y1325D02*
X371Y1545D01*
D02*
X271Y1627D02*
X271Y1896D01*
D02*
X121Y2084D02*
X158Y1973D01*
D02*
X730Y2084D02*
X121Y2084D01*
D02*
X1073Y1936D02*
X1072Y2042D01*
D02*
X311Y1936D02*
X1073Y1936D01*
D02*
X171Y1896D02*
X171Y1627D01*
G54D24*
X3239Y2333D02*
X3243Y2333D01*
X3287Y2333D02*
X3291Y2333D01*
X3237Y2332D02*
X3244Y2332D01*
X3285Y2332D02*
X3292Y2332D01*
X684Y2331D02*
X728Y2331D01*
X3236Y2331D02*
X3245Y2331D01*
X3285Y2331D02*
X3293Y2331D01*
X682Y2330D02*
X728Y2330D01*
X3236Y2330D02*
X3246Y2330D01*
X3284Y2330D02*
X3294Y2330D01*
X681Y2329D02*
X728Y2329D01*
X2543Y2329D02*
X2587Y2329D01*
X2673Y2329D02*
X2679Y2329D01*
X2798Y2329D02*
X2802Y2329D01*
X2849Y2329D02*
X2902Y2329D01*
X2961Y2329D02*
X3002Y2329D01*
X3235Y2329D02*
X3246Y2329D01*
X3283Y2329D02*
X3294Y2329D01*
X3456Y2329D02*
X3502Y2329D01*
X681Y2328D02*
X728Y2328D01*
X2541Y2328D02*
X2589Y2328D01*
X2672Y2328D02*
X2680Y2328D01*
X2796Y2328D02*
X2804Y2328D01*
X2848Y2328D02*
X2904Y2328D01*
X2958Y2328D02*
X3002Y2328D01*
X3235Y2328D02*
X3246Y2328D01*
X3283Y2328D02*
X3294Y2328D01*
X3453Y2328D02*
X3502Y2328D01*
X681Y2327D02*
X728Y2327D01*
X2540Y2327D02*
X2590Y2327D01*
X2671Y2327D02*
X2681Y2327D01*
X2795Y2327D02*
X2805Y2327D01*
X2847Y2327D02*
X2905Y2327D01*
X2956Y2327D02*
X3002Y2327D01*
X3235Y2327D02*
X3246Y2327D01*
X3283Y2327D02*
X3294Y2327D01*
X3451Y2327D02*
X3502Y2327D01*
X680Y2326D02*
X728Y2326D01*
X2539Y2326D02*
X2591Y2326D01*
X2671Y2326D02*
X2681Y2326D01*
X2795Y2326D02*
X2805Y2326D01*
X2847Y2326D02*
X2905Y2326D01*
X2954Y2326D02*
X3002Y2326D01*
X3235Y2326D02*
X3246Y2326D01*
X3283Y2326D02*
X3294Y2326D01*
X3450Y2326D02*
X3502Y2326D01*
X680Y2325D02*
X728Y2325D01*
X2538Y2325D02*
X2592Y2325D01*
X2670Y2325D02*
X2682Y2325D01*
X2795Y2325D02*
X2805Y2325D01*
X2846Y2325D02*
X2905Y2325D01*
X2953Y2325D02*
X3002Y2325D01*
X3235Y2325D02*
X3246Y2325D01*
X3283Y2325D02*
X3294Y2325D01*
X3449Y2325D02*
X3502Y2325D01*
X681Y2324D02*
X728Y2324D01*
X780Y2324D02*
X787Y2324D01*
X2537Y2324D02*
X2593Y2324D01*
X2670Y2324D02*
X2682Y2324D01*
X2794Y2324D02*
X2806Y2324D01*
X2846Y2324D02*
X2906Y2324D01*
X2951Y2324D02*
X3002Y2324D01*
X3235Y2324D02*
X3246Y2324D01*
X3283Y2324D02*
X3294Y2324D01*
X3448Y2324D02*
X3502Y2324D01*
X681Y2323D02*
X728Y2323D01*
X778Y2323D02*
X789Y2323D01*
X2537Y2323D02*
X2593Y2323D01*
X2670Y2323D02*
X2682Y2323D01*
X2794Y2323D02*
X2806Y2323D01*
X2846Y2323D02*
X2906Y2323D01*
X2950Y2323D02*
X3002Y2323D01*
X3235Y2323D02*
X3246Y2323D01*
X3283Y2323D02*
X3294Y2323D01*
X3447Y2323D02*
X3502Y2323D01*
X682Y2322D02*
X728Y2322D01*
X777Y2322D02*
X790Y2322D01*
X2536Y2322D02*
X2594Y2322D01*
X2670Y2322D02*
X2682Y2322D01*
X2794Y2322D02*
X2806Y2322D01*
X2847Y2322D02*
X2905Y2322D01*
X2949Y2322D02*
X3002Y2322D01*
X3235Y2322D02*
X3246Y2322D01*
X3283Y2322D02*
X3294Y2322D01*
X3446Y2322D02*
X3502Y2322D01*
X683Y2321D02*
X728Y2321D01*
X777Y2321D02*
X791Y2321D01*
X2536Y2321D02*
X2594Y2321D01*
X2669Y2321D02*
X2683Y2321D01*
X2794Y2321D02*
X2806Y2321D01*
X2847Y2321D02*
X2905Y2321D01*
X2948Y2321D02*
X3002Y2321D01*
X3235Y2321D02*
X3246Y2321D01*
X3283Y2321D02*
X3294Y2321D01*
X3445Y2321D02*
X3502Y2321D01*
X685Y2320D02*
X728Y2320D01*
X776Y2320D02*
X791Y2320D01*
X2535Y2320D02*
X2594Y2320D01*
X2669Y2320D02*
X2683Y2320D01*
X2794Y2320D02*
X2806Y2320D01*
X2848Y2320D02*
X2904Y2320D01*
X2948Y2320D02*
X3002Y2320D01*
X3235Y2320D02*
X3246Y2320D01*
X3283Y2320D02*
X3294Y2320D01*
X3445Y2320D02*
X3502Y2320D01*
X716Y2319D02*
X728Y2319D01*
X776Y2319D02*
X792Y2319D01*
X2535Y2319D02*
X2594Y2319D01*
X2669Y2319D02*
X2683Y2319D01*
X2794Y2319D02*
X2806Y2319D01*
X2849Y2319D02*
X2903Y2319D01*
X2947Y2319D02*
X3002Y2319D01*
X3235Y2319D02*
X3246Y2319D01*
X3283Y2319D02*
X3294Y2319D01*
X3444Y2319D02*
X3502Y2319D01*
X716Y2318D02*
X728Y2318D01*
X775Y2318D02*
X792Y2318D01*
X2535Y2318D02*
X2594Y2318D01*
X2668Y2318D02*
X2684Y2318D01*
X2794Y2318D02*
X2806Y2318D01*
X2850Y2318D02*
X2902Y2318D01*
X2946Y2318D02*
X3002Y2318D01*
X3235Y2318D02*
X3246Y2318D01*
X3283Y2318D02*
X3294Y2318D01*
X3444Y2318D02*
X3502Y2318D01*
X716Y2317D02*
X728Y2317D01*
X775Y2317D02*
X792Y2317D01*
X2535Y2317D02*
X2546Y2317D01*
X2583Y2317D02*
X2595Y2317D01*
X2668Y2317D02*
X2684Y2317D01*
X2794Y2317D02*
X2806Y2317D01*
X2870Y2317D02*
X2882Y2317D01*
X2946Y2317D02*
X2962Y2317D01*
X2991Y2317D02*
X3002Y2317D01*
X3235Y2317D02*
X3246Y2317D01*
X3283Y2317D02*
X3294Y2317D01*
X3443Y2317D02*
X3457Y2317D01*
X3491Y2317D02*
X3502Y2317D01*
X716Y2316D02*
X728Y2316D01*
X775Y2316D02*
X792Y2316D01*
X2535Y2316D02*
X2546Y2316D01*
X2583Y2316D02*
X2595Y2316D01*
X2668Y2316D02*
X2684Y2316D01*
X2794Y2316D02*
X2806Y2316D01*
X2870Y2316D02*
X2882Y2316D01*
X2945Y2316D02*
X2960Y2316D01*
X2991Y2316D02*
X3002Y2316D01*
X3235Y2316D02*
X3246Y2316D01*
X3283Y2316D02*
X3294Y2316D01*
X3443Y2316D02*
X3456Y2316D01*
X3491Y2316D02*
X3502Y2316D01*
X716Y2315D02*
X728Y2315D01*
X775Y2315D02*
X792Y2315D01*
X2535Y2315D02*
X2546Y2315D01*
X2583Y2315D02*
X2595Y2315D01*
X2668Y2315D02*
X2684Y2315D01*
X2794Y2315D02*
X2806Y2315D01*
X2870Y2315D02*
X2882Y2315D01*
X2945Y2315D02*
X2959Y2315D01*
X2991Y2315D02*
X3002Y2315D01*
X3235Y2315D02*
X3246Y2315D01*
X3283Y2315D02*
X3294Y2315D01*
X3443Y2315D02*
X3455Y2315D01*
X3491Y2315D02*
X3502Y2315D01*
X716Y2314D02*
X728Y2314D01*
X775Y2314D02*
X792Y2314D01*
X2535Y2314D02*
X2546Y2314D01*
X2583Y2314D02*
X2595Y2314D01*
X2667Y2314D02*
X2685Y2314D01*
X2794Y2314D02*
X2806Y2314D01*
X2870Y2314D02*
X2882Y2314D01*
X2944Y2314D02*
X2958Y2314D01*
X2991Y2314D02*
X3002Y2314D01*
X3235Y2314D02*
X3246Y2314D01*
X3283Y2314D02*
X3294Y2314D01*
X3443Y2314D02*
X3454Y2314D01*
X3491Y2314D02*
X3502Y2314D01*
X716Y2313D02*
X728Y2313D01*
X775Y2313D02*
X792Y2313D01*
X2535Y2313D02*
X2546Y2313D01*
X2583Y2313D02*
X2595Y2313D01*
X2667Y2313D02*
X2685Y2313D01*
X2794Y2313D02*
X2806Y2313D01*
X2870Y2313D02*
X2882Y2313D01*
X2944Y2313D02*
X2957Y2313D01*
X2991Y2313D02*
X3002Y2313D01*
X3235Y2313D02*
X3246Y2313D01*
X3283Y2313D02*
X3294Y2313D01*
X3443Y2313D02*
X3454Y2313D01*
X3491Y2313D02*
X3502Y2313D01*
X716Y2312D02*
X728Y2312D01*
X775Y2312D02*
X792Y2312D01*
X2535Y2312D02*
X2546Y2312D01*
X2583Y2312D02*
X2595Y2312D01*
X2667Y2312D02*
X2685Y2312D01*
X2794Y2312D02*
X2806Y2312D01*
X2870Y2312D02*
X2882Y2312D01*
X2943Y2312D02*
X2956Y2312D01*
X2991Y2312D02*
X3002Y2312D01*
X3235Y2312D02*
X3246Y2312D01*
X3283Y2312D02*
X3294Y2312D01*
X3443Y2312D02*
X3454Y2312D01*
X3491Y2312D02*
X3502Y2312D01*
X716Y2311D02*
X728Y2311D01*
X775Y2311D02*
X792Y2311D01*
X2535Y2311D02*
X2546Y2311D01*
X2583Y2311D02*
X2595Y2311D01*
X2666Y2311D02*
X2686Y2311D01*
X2794Y2311D02*
X2806Y2311D01*
X2870Y2311D02*
X2882Y2311D01*
X2943Y2311D02*
X2955Y2311D01*
X2991Y2311D02*
X3002Y2311D01*
X3235Y2311D02*
X3246Y2311D01*
X3283Y2311D02*
X3294Y2311D01*
X3443Y2311D02*
X3454Y2311D01*
X3491Y2311D02*
X3502Y2311D01*
X716Y2310D02*
X728Y2310D01*
X775Y2310D02*
X792Y2310D01*
X2535Y2310D02*
X2546Y2310D01*
X2583Y2310D02*
X2595Y2310D01*
X2666Y2310D02*
X2686Y2310D01*
X2794Y2310D02*
X2806Y2310D01*
X2870Y2310D02*
X2882Y2310D01*
X2943Y2310D02*
X2955Y2310D01*
X2991Y2310D02*
X3002Y2310D01*
X3235Y2310D02*
X3246Y2310D01*
X3283Y2310D02*
X3294Y2310D01*
X3443Y2310D02*
X3454Y2310D01*
X3491Y2310D02*
X3502Y2310D01*
X716Y2309D02*
X728Y2309D01*
X775Y2309D02*
X792Y2309D01*
X2535Y2309D02*
X2546Y2309D01*
X2583Y2309D02*
X2595Y2309D01*
X2666Y2309D02*
X2686Y2309D01*
X2794Y2309D02*
X2806Y2309D01*
X2870Y2309D02*
X2882Y2309D01*
X2943Y2309D02*
X2954Y2309D01*
X2991Y2309D02*
X3002Y2309D01*
X3235Y2309D02*
X3246Y2309D01*
X3283Y2309D02*
X3294Y2309D01*
X3443Y2309D02*
X3454Y2309D01*
X3491Y2309D02*
X3502Y2309D01*
X716Y2308D02*
X728Y2308D01*
X775Y2308D02*
X792Y2308D01*
X2535Y2308D02*
X2546Y2308D01*
X2583Y2308D02*
X2595Y2308D01*
X2666Y2308D02*
X2687Y2308D01*
X2794Y2308D02*
X2806Y2308D01*
X2870Y2308D02*
X2882Y2308D01*
X2943Y2308D02*
X2954Y2308D01*
X2991Y2308D02*
X3002Y2308D01*
X3235Y2308D02*
X3246Y2308D01*
X3283Y2308D02*
X3294Y2308D01*
X3443Y2308D02*
X3454Y2308D01*
X3491Y2308D02*
X3502Y2308D01*
X716Y2307D02*
X728Y2307D01*
X775Y2307D02*
X792Y2307D01*
X2535Y2307D02*
X2546Y2307D01*
X2583Y2307D02*
X2595Y2307D01*
X2665Y2307D02*
X2687Y2307D01*
X2794Y2307D02*
X2806Y2307D01*
X2870Y2307D02*
X2882Y2307D01*
X2943Y2307D02*
X2954Y2307D01*
X2991Y2307D02*
X3002Y2307D01*
X3235Y2307D02*
X3247Y2307D01*
X3283Y2307D02*
X3294Y2307D01*
X3443Y2307D02*
X3454Y2307D01*
X3491Y2307D02*
X3502Y2307D01*
X597Y2306D02*
X600Y2306D01*
X646Y2306D02*
X648Y2306D01*
X716Y2306D02*
X728Y2306D01*
X775Y2306D02*
X792Y2306D01*
X2535Y2306D02*
X2546Y2306D01*
X2583Y2306D02*
X2595Y2306D01*
X2665Y2306D02*
X2687Y2306D01*
X2794Y2306D02*
X2806Y2306D01*
X2870Y2306D02*
X2882Y2306D01*
X2943Y2306D02*
X2954Y2306D01*
X2991Y2306D02*
X3002Y2306D01*
X3235Y2306D02*
X3247Y2306D01*
X3282Y2306D02*
X3294Y2306D01*
X3443Y2306D02*
X3454Y2306D01*
X3491Y2306D02*
X3502Y2306D01*
X596Y2305D02*
X601Y2305D01*
X644Y2305D02*
X650Y2305D01*
X716Y2305D02*
X728Y2305D01*
X775Y2305D02*
X792Y2305D01*
X2535Y2305D02*
X2546Y2305D01*
X2583Y2305D02*
X2595Y2305D01*
X2665Y2305D02*
X2687Y2305D01*
X2794Y2305D02*
X2806Y2305D01*
X2870Y2305D02*
X2882Y2305D01*
X2943Y2305D02*
X2954Y2305D01*
X2991Y2305D02*
X3002Y2305D01*
X3235Y2305D02*
X3248Y2305D01*
X3282Y2305D02*
X3294Y2305D01*
X3443Y2305D02*
X3454Y2305D01*
X3491Y2305D02*
X3502Y2305D01*
X594Y2304D02*
X603Y2304D01*
X642Y2304D02*
X651Y2304D01*
X716Y2304D02*
X728Y2304D01*
X775Y2304D02*
X792Y2304D01*
X2535Y2304D02*
X2546Y2304D01*
X2583Y2304D02*
X2595Y2304D01*
X2664Y2304D02*
X2688Y2304D01*
X2794Y2304D02*
X2806Y2304D01*
X2870Y2304D02*
X2882Y2304D01*
X2943Y2304D02*
X2954Y2304D01*
X2991Y2304D02*
X3002Y2304D01*
X3236Y2304D02*
X3248Y2304D01*
X3282Y2304D02*
X3294Y2304D01*
X3443Y2304D02*
X3454Y2304D01*
X3491Y2304D02*
X3502Y2304D01*
X594Y2303D02*
X603Y2303D01*
X642Y2303D02*
X651Y2303D01*
X716Y2303D02*
X728Y2303D01*
X775Y2303D02*
X792Y2303D01*
X2535Y2303D02*
X2546Y2303D01*
X2583Y2303D02*
X2595Y2303D01*
X2664Y2303D02*
X2688Y2303D01*
X2794Y2303D02*
X2806Y2303D01*
X2870Y2303D02*
X2882Y2303D01*
X2943Y2303D02*
X2954Y2303D01*
X2991Y2303D02*
X3002Y2303D01*
X3236Y2303D02*
X3248Y2303D01*
X3281Y2303D02*
X3293Y2303D01*
X3443Y2303D02*
X3454Y2303D01*
X3491Y2303D02*
X3502Y2303D01*
X593Y2302D02*
X604Y2302D01*
X641Y2302D02*
X652Y2302D01*
X716Y2302D02*
X728Y2302D01*
X775Y2302D02*
X792Y2302D01*
X2535Y2302D02*
X2546Y2302D01*
X2583Y2302D02*
X2595Y2302D01*
X2664Y2302D02*
X2688Y2302D01*
X2794Y2302D02*
X2806Y2302D01*
X2870Y2302D02*
X2882Y2302D01*
X2943Y2302D02*
X2954Y2302D01*
X2991Y2302D02*
X3002Y2302D01*
X3237Y2302D02*
X3249Y2302D01*
X3281Y2302D02*
X3293Y2302D01*
X3443Y2302D02*
X3455Y2302D01*
X3491Y2302D02*
X3502Y2302D01*
X593Y2301D02*
X604Y2301D01*
X641Y2301D02*
X652Y2301D01*
X716Y2301D02*
X728Y2301D01*
X775Y2301D02*
X792Y2301D01*
X2535Y2301D02*
X2546Y2301D01*
X2583Y2301D02*
X2595Y2301D01*
X2663Y2301D02*
X2675Y2301D01*
X2677Y2301D02*
X2689Y2301D01*
X2794Y2301D02*
X2806Y2301D01*
X2870Y2301D02*
X2882Y2301D01*
X2943Y2301D02*
X2954Y2301D01*
X2991Y2301D02*
X3002Y2301D01*
X3237Y2301D02*
X3249Y2301D01*
X3280Y2301D02*
X3293Y2301D01*
X3443Y2301D02*
X3456Y2301D01*
X3491Y2301D02*
X3502Y2301D01*
X593Y2300D02*
X604Y2300D01*
X641Y2300D02*
X652Y2300D01*
X716Y2300D02*
X728Y2300D01*
X775Y2300D02*
X792Y2300D01*
X2535Y2300D02*
X2546Y2300D01*
X2583Y2300D02*
X2595Y2300D01*
X2663Y2300D02*
X2675Y2300D01*
X2677Y2300D02*
X2689Y2300D01*
X2794Y2300D02*
X2806Y2300D01*
X2870Y2300D02*
X2882Y2300D01*
X2943Y2300D02*
X2954Y2300D01*
X2991Y2300D02*
X3002Y2300D01*
X3237Y2300D02*
X3250Y2300D01*
X3280Y2300D02*
X3292Y2300D01*
X3443Y2300D02*
X3457Y2300D01*
X3491Y2300D02*
X3502Y2300D01*
X593Y2299D02*
X604Y2299D01*
X641Y2299D02*
X652Y2299D01*
X716Y2299D02*
X728Y2299D01*
X775Y2299D02*
X792Y2299D01*
X2535Y2299D02*
X2546Y2299D01*
X2583Y2299D02*
X2595Y2299D01*
X2663Y2299D02*
X2675Y2299D01*
X2677Y2299D02*
X2689Y2299D01*
X2794Y2299D02*
X2806Y2299D01*
X2870Y2299D02*
X2882Y2299D01*
X2943Y2299D02*
X2954Y2299D01*
X2991Y2299D02*
X3002Y2299D01*
X3238Y2299D02*
X3250Y2299D01*
X3280Y2299D02*
X3292Y2299D01*
X3444Y2299D02*
X3460Y2299D01*
X3490Y2299D02*
X3502Y2299D01*
X593Y2298D02*
X604Y2298D01*
X641Y2298D02*
X652Y2298D01*
X716Y2298D02*
X728Y2298D01*
X775Y2298D02*
X792Y2298D01*
X2535Y2298D02*
X2546Y2298D01*
X2583Y2298D02*
X2595Y2298D01*
X2663Y2298D02*
X2674Y2298D01*
X2678Y2298D02*
X2689Y2298D01*
X2794Y2298D02*
X2806Y2298D01*
X2870Y2298D02*
X2882Y2298D01*
X2943Y2298D02*
X2954Y2298D01*
X2991Y2298D02*
X3002Y2298D01*
X3238Y2298D02*
X3250Y2298D01*
X3279Y2298D02*
X3292Y2298D01*
X3444Y2298D02*
X3502Y2298D01*
X593Y2297D02*
X604Y2297D01*
X641Y2297D02*
X652Y2297D01*
X716Y2297D02*
X728Y2297D01*
X775Y2297D02*
X792Y2297D01*
X2535Y2297D02*
X2546Y2297D01*
X2583Y2297D02*
X2595Y2297D01*
X2662Y2297D02*
X2674Y2297D01*
X2678Y2297D02*
X2690Y2297D01*
X2794Y2297D02*
X2806Y2297D01*
X2870Y2297D02*
X2882Y2297D01*
X2943Y2297D02*
X2955Y2297D01*
X2991Y2297D02*
X3002Y2297D01*
X3239Y2297D02*
X3251Y2297D01*
X3279Y2297D02*
X3291Y2297D01*
X3445Y2297D02*
X3502Y2297D01*
X593Y2296D02*
X604Y2296D01*
X641Y2296D02*
X652Y2296D01*
X716Y2296D02*
X728Y2296D01*
X775Y2296D02*
X792Y2296D01*
X2535Y2296D02*
X2546Y2296D01*
X2583Y2296D02*
X2595Y2296D01*
X2662Y2296D02*
X2674Y2296D01*
X2678Y2296D02*
X2690Y2296D01*
X2794Y2296D02*
X2806Y2296D01*
X2870Y2296D02*
X2882Y2296D01*
X2943Y2296D02*
X2955Y2296D01*
X2991Y2296D02*
X3002Y2296D01*
X3239Y2296D02*
X3251Y2296D01*
X3279Y2296D02*
X3291Y2296D01*
X3445Y2296D02*
X3502Y2296D01*
X593Y2295D02*
X604Y2295D01*
X641Y2295D02*
X652Y2295D01*
X716Y2295D02*
X728Y2295D01*
X775Y2295D02*
X792Y2295D01*
X2535Y2295D02*
X2546Y2295D01*
X2583Y2295D02*
X2595Y2295D01*
X2662Y2295D02*
X2674Y2295D01*
X2679Y2295D02*
X2690Y2295D01*
X2794Y2295D02*
X2806Y2295D01*
X2870Y2295D02*
X2882Y2295D01*
X2943Y2295D02*
X2955Y2295D01*
X2991Y2295D02*
X3002Y2295D01*
X3239Y2295D02*
X3251Y2295D01*
X3278Y2295D02*
X3290Y2295D01*
X3446Y2295D02*
X3502Y2295D01*
X593Y2294D02*
X604Y2294D01*
X641Y2294D02*
X652Y2294D01*
X716Y2294D02*
X728Y2294D01*
X775Y2294D02*
X792Y2294D01*
X2535Y2294D02*
X2546Y2294D01*
X2583Y2294D02*
X2595Y2294D01*
X2661Y2294D02*
X2673Y2294D01*
X2679Y2294D02*
X2691Y2294D01*
X2794Y2294D02*
X2806Y2294D01*
X2870Y2294D02*
X2882Y2294D01*
X2944Y2294D02*
X2956Y2294D01*
X2991Y2294D02*
X3002Y2294D01*
X3240Y2294D02*
X3252Y2294D01*
X3278Y2294D02*
X3290Y2294D01*
X3447Y2294D02*
X3502Y2294D01*
X593Y2293D02*
X604Y2293D01*
X641Y2293D02*
X652Y2293D01*
X716Y2293D02*
X728Y2293D01*
X775Y2293D02*
X792Y2293D01*
X2535Y2293D02*
X2546Y2293D01*
X2583Y2293D02*
X2595Y2293D01*
X2661Y2293D02*
X2673Y2293D01*
X2679Y2293D02*
X2691Y2293D01*
X2794Y2293D02*
X2806Y2293D01*
X2870Y2293D02*
X2882Y2293D01*
X2944Y2293D02*
X2957Y2293D01*
X2991Y2293D02*
X3002Y2293D01*
X3240Y2293D02*
X3252Y2293D01*
X3277Y2293D02*
X3290Y2293D01*
X3447Y2293D02*
X3502Y2293D01*
X593Y2292D02*
X604Y2292D01*
X641Y2292D02*
X652Y2292D01*
X716Y2292D02*
X728Y2292D01*
X775Y2292D02*
X792Y2292D01*
X1035Y2292D02*
X1109Y2292D01*
X2535Y2292D02*
X2546Y2292D01*
X2583Y2292D02*
X2595Y2292D01*
X2661Y2292D02*
X2673Y2292D01*
X2679Y2292D02*
X2691Y2292D01*
X2794Y2292D02*
X2806Y2292D01*
X2870Y2292D02*
X2882Y2292D01*
X2944Y2292D02*
X2958Y2292D01*
X2991Y2292D02*
X3002Y2292D01*
X3240Y2292D02*
X3253Y2292D01*
X3277Y2292D02*
X3289Y2292D01*
X3448Y2292D02*
X3502Y2292D01*
X593Y2291D02*
X604Y2291D01*
X641Y2291D02*
X652Y2291D01*
X716Y2291D02*
X728Y2291D01*
X775Y2291D02*
X792Y2291D01*
X1033Y2291D02*
X1112Y2291D01*
X2535Y2291D02*
X2546Y2291D01*
X2583Y2291D02*
X2595Y2291D01*
X2661Y2291D02*
X2672Y2291D01*
X2680Y2291D02*
X2691Y2291D01*
X2794Y2291D02*
X2806Y2291D01*
X2870Y2291D02*
X2882Y2291D01*
X2945Y2291D02*
X2959Y2291D01*
X2991Y2291D02*
X3002Y2291D01*
X3241Y2291D02*
X3253Y2291D01*
X3277Y2291D02*
X3289Y2291D01*
X3449Y2291D02*
X3502Y2291D01*
X593Y2290D02*
X605Y2290D01*
X640Y2290D02*
X652Y2290D01*
X688Y2290D02*
X728Y2290D01*
X775Y2290D02*
X792Y2290D01*
X1031Y2290D02*
X1113Y2290D01*
X2535Y2290D02*
X2546Y2290D01*
X2583Y2290D02*
X2595Y2290D01*
X2660Y2290D02*
X2672Y2290D01*
X2680Y2290D02*
X2692Y2290D01*
X2794Y2290D02*
X2806Y2290D01*
X2870Y2290D02*
X2882Y2290D01*
X2945Y2290D02*
X2961Y2290D01*
X2991Y2290D02*
X3002Y2290D01*
X3241Y2290D02*
X3253Y2290D01*
X3276Y2290D02*
X3288Y2290D01*
X3451Y2290D02*
X3502Y2290D01*
X593Y2289D02*
X605Y2289D01*
X640Y2289D02*
X652Y2289D01*
X686Y2289D02*
X728Y2289D01*
X746Y2289D02*
X821Y2289D01*
X1030Y2289D02*
X1114Y2289D01*
X2535Y2289D02*
X2546Y2289D01*
X2583Y2289D02*
X2595Y2289D01*
X2660Y2289D02*
X2672Y2289D01*
X2680Y2289D02*
X2692Y2289D01*
X2794Y2289D02*
X2806Y2289D01*
X2870Y2289D02*
X2882Y2289D01*
X2946Y2289D02*
X2964Y2289D01*
X2990Y2289D02*
X3002Y2289D01*
X3242Y2289D02*
X3254Y2289D01*
X3276Y2289D02*
X3288Y2289D01*
X3452Y2289D02*
X3502Y2289D01*
X593Y2288D02*
X605Y2288D01*
X640Y2288D02*
X652Y2288D01*
X685Y2288D02*
X728Y2288D01*
X744Y2288D02*
X824Y2288D01*
X1030Y2288D02*
X1115Y2288D01*
X2535Y2288D02*
X2546Y2288D01*
X2583Y2288D02*
X2595Y2288D01*
X2660Y2288D02*
X2671Y2288D01*
X2681Y2288D02*
X2692Y2288D01*
X2794Y2288D02*
X2806Y2288D01*
X2870Y2288D02*
X2882Y2288D01*
X2946Y2288D02*
X3002Y2288D01*
X3242Y2288D02*
X3254Y2288D01*
X3275Y2288D02*
X3288Y2288D01*
X3454Y2288D02*
X3502Y2288D01*
X594Y2287D02*
X606Y2287D01*
X639Y2287D02*
X652Y2287D01*
X684Y2287D02*
X728Y2287D01*
X742Y2287D02*
X825Y2287D01*
X1029Y2287D02*
X1116Y2287D01*
X2535Y2287D02*
X2546Y2287D01*
X2583Y2287D02*
X2595Y2287D01*
X2659Y2287D02*
X2671Y2287D01*
X2681Y2287D02*
X2693Y2287D01*
X2794Y2287D02*
X2806Y2287D01*
X2870Y2287D02*
X2882Y2287D01*
X2947Y2287D02*
X3002Y2287D01*
X3242Y2287D02*
X3255Y2287D01*
X3275Y2287D02*
X3287Y2287D01*
X3458Y2287D02*
X3502Y2287D01*
X594Y2286D02*
X606Y2286D01*
X639Y2286D02*
X651Y2286D01*
X683Y2286D02*
X728Y2286D01*
X741Y2286D02*
X826Y2286D01*
X1029Y2286D02*
X1116Y2286D01*
X2535Y2286D02*
X2546Y2286D01*
X2583Y2286D02*
X2595Y2286D01*
X2659Y2286D02*
X2671Y2286D01*
X2681Y2286D02*
X2693Y2286D01*
X2794Y2286D02*
X2806Y2286D01*
X2870Y2286D02*
X2882Y2286D01*
X2948Y2286D02*
X3002Y2286D01*
X3243Y2286D02*
X3255Y2286D01*
X3275Y2286D02*
X3287Y2286D01*
X3468Y2286D02*
X3481Y2286D01*
X3491Y2286D02*
X3502Y2286D01*
X594Y2285D02*
X607Y2285D01*
X638Y2285D02*
X651Y2285D01*
X682Y2285D02*
X728Y2285D01*
X741Y2285D02*
X826Y2285D01*
X1028Y2285D02*
X1116Y2285D01*
X2535Y2285D02*
X2546Y2285D01*
X2583Y2285D02*
X2595Y2285D01*
X2659Y2285D02*
X2671Y2285D01*
X2681Y2285D02*
X2693Y2285D01*
X2794Y2285D02*
X2806Y2285D01*
X2870Y2285D02*
X2882Y2285D01*
X2949Y2285D02*
X3002Y2285D01*
X3243Y2285D02*
X3255Y2285D01*
X3274Y2285D02*
X3286Y2285D01*
X3467Y2285D02*
X3480Y2285D01*
X3491Y2285D02*
X3502Y2285D01*
X595Y2284D02*
X607Y2284D01*
X638Y2284D02*
X650Y2284D01*
X682Y2284D02*
X728Y2284D01*
X740Y2284D02*
X827Y2284D01*
X1028Y2284D02*
X1117Y2284D01*
X2535Y2284D02*
X2546Y2284D01*
X2583Y2284D02*
X2595Y2284D01*
X2659Y2284D02*
X2670Y2284D01*
X2682Y2284D02*
X2694Y2284D01*
X2794Y2284D02*
X2806Y2284D01*
X2870Y2284D02*
X2882Y2284D01*
X2950Y2284D02*
X3002Y2284D01*
X3244Y2284D02*
X3256Y2284D01*
X3274Y2284D02*
X3286Y2284D01*
X3466Y2284D02*
X3480Y2284D01*
X3491Y2284D02*
X3502Y2284D01*
X595Y2283D02*
X608Y2283D01*
X637Y2283D02*
X650Y2283D01*
X681Y2283D02*
X728Y2283D01*
X740Y2283D02*
X827Y2283D01*
X1028Y2283D02*
X1117Y2283D01*
X2535Y2283D02*
X2546Y2283D01*
X2583Y2283D02*
X2595Y2283D01*
X2658Y2283D02*
X2670Y2283D01*
X2682Y2283D02*
X2694Y2283D01*
X2794Y2283D02*
X2806Y2283D01*
X2870Y2283D02*
X2882Y2283D01*
X2951Y2283D02*
X3002Y2283D01*
X3244Y2283D02*
X3256Y2283D01*
X3273Y2283D02*
X3286Y2283D01*
X3466Y2283D02*
X3479Y2283D01*
X3491Y2283D02*
X3502Y2283D01*
X596Y2282D02*
X608Y2282D01*
X637Y2282D02*
X649Y2282D01*
X681Y2282D02*
X728Y2282D01*
X739Y2282D02*
X828Y2282D01*
X1028Y2282D02*
X1117Y2282D01*
X2535Y2282D02*
X2546Y2282D01*
X2583Y2282D02*
X2595Y2282D01*
X2658Y2282D02*
X2670Y2282D01*
X2682Y2282D02*
X2694Y2282D01*
X2794Y2282D02*
X2806Y2282D01*
X2870Y2282D02*
X2882Y2282D01*
X2950Y2282D02*
X3002Y2282D01*
X3244Y2282D02*
X3257Y2282D01*
X3273Y2282D02*
X3285Y2282D01*
X3465Y2282D02*
X3478Y2282D01*
X3491Y2282D02*
X3502Y2282D01*
X596Y2281D02*
X608Y2281D01*
X637Y2281D02*
X649Y2281D01*
X681Y2281D02*
X728Y2281D01*
X739Y2281D02*
X828Y2281D01*
X1028Y2281D02*
X1117Y2281D01*
X2535Y2281D02*
X2546Y2281D01*
X2583Y2281D02*
X2595Y2281D01*
X2658Y2281D02*
X2669Y2281D01*
X2683Y2281D02*
X2694Y2281D01*
X2794Y2281D02*
X2806Y2281D01*
X2870Y2281D02*
X2882Y2281D01*
X2950Y2281D02*
X3002Y2281D01*
X3245Y2281D02*
X3257Y2281D01*
X3273Y2281D02*
X3285Y2281D01*
X3465Y2281D02*
X3478Y2281D01*
X3491Y2281D02*
X3502Y2281D01*
X597Y2280D02*
X609Y2280D01*
X636Y2280D02*
X648Y2280D01*
X681Y2280D02*
X728Y2280D01*
X739Y2280D02*
X828Y2280D01*
X1028Y2280D02*
X1117Y2280D01*
X2535Y2280D02*
X2546Y2280D01*
X2583Y2280D02*
X2595Y2280D01*
X2657Y2280D02*
X2669Y2280D01*
X2683Y2280D02*
X2695Y2280D01*
X2794Y2280D02*
X2806Y2280D01*
X2870Y2280D02*
X2882Y2280D01*
X2949Y2280D02*
X3002Y2280D01*
X3245Y2280D02*
X3257Y2280D01*
X3272Y2280D02*
X3285Y2280D01*
X3464Y2280D02*
X3477Y2280D01*
X3491Y2280D02*
X3502Y2280D01*
X597Y2279D02*
X609Y2279D01*
X636Y2279D02*
X648Y2279D01*
X680Y2279D02*
X728Y2279D01*
X739Y2279D02*
X828Y2279D01*
X1028Y2279D02*
X1117Y2279D01*
X2535Y2279D02*
X2546Y2279D01*
X2583Y2279D02*
X2595Y2279D01*
X2657Y2279D02*
X2669Y2279D01*
X2683Y2279D02*
X2695Y2279D01*
X2794Y2279D02*
X2806Y2279D01*
X2870Y2279D02*
X2882Y2279D01*
X2948Y2279D02*
X3002Y2279D01*
X3246Y2279D02*
X3258Y2279D01*
X3272Y2279D02*
X3284Y2279D01*
X3463Y2279D02*
X3477Y2279D01*
X3491Y2279D02*
X3502Y2279D01*
X598Y2278D02*
X610Y2278D01*
X635Y2278D02*
X648Y2278D01*
X680Y2278D02*
X692Y2278D01*
X740Y2278D02*
X828Y2278D01*
X1028Y2278D02*
X1117Y2278D01*
X2535Y2278D02*
X2546Y2278D01*
X2583Y2278D02*
X2595Y2278D01*
X2657Y2278D02*
X2669Y2278D01*
X2684Y2278D02*
X2695Y2278D01*
X2794Y2278D02*
X2806Y2278D01*
X2870Y2278D02*
X2882Y2278D01*
X2947Y2278D02*
X3002Y2278D01*
X3246Y2278D02*
X3258Y2278D01*
X3271Y2278D02*
X3284Y2278D01*
X3463Y2278D02*
X3476Y2278D01*
X3491Y2278D02*
X3502Y2278D01*
X598Y2277D02*
X610Y2277D01*
X635Y2277D02*
X647Y2277D01*
X680Y2277D02*
X692Y2277D01*
X740Y2277D02*
X827Y2277D01*
X1028Y2277D02*
X1117Y2277D01*
X2535Y2277D02*
X2546Y2277D01*
X2583Y2277D02*
X2595Y2277D01*
X2656Y2277D02*
X2668Y2277D01*
X2684Y2277D02*
X2696Y2277D01*
X2794Y2277D02*
X2806Y2277D01*
X2870Y2277D02*
X2882Y2277D01*
X2946Y2277D02*
X3002Y2277D01*
X3246Y2277D02*
X3259Y2277D01*
X3271Y2277D02*
X3283Y2277D01*
X3462Y2277D02*
X3476Y2277D01*
X3491Y2277D02*
X3502Y2277D01*
X598Y2276D02*
X611Y2276D01*
X634Y2276D02*
X647Y2276D01*
X680Y2276D02*
X692Y2276D01*
X740Y2276D02*
X827Y2276D01*
X1028Y2276D02*
X1117Y2276D01*
X2535Y2276D02*
X2546Y2276D01*
X2583Y2276D02*
X2595Y2276D01*
X2656Y2276D02*
X2668Y2276D01*
X2684Y2276D02*
X2696Y2276D01*
X2794Y2276D02*
X2806Y2276D01*
X2870Y2276D02*
X2882Y2276D01*
X2946Y2276D02*
X2963Y2276D01*
X2991Y2276D02*
X3002Y2276D01*
X3247Y2276D02*
X3259Y2276D01*
X3271Y2276D02*
X3283Y2276D01*
X3462Y2276D02*
X3475Y2276D01*
X3491Y2276D02*
X3502Y2276D01*
X599Y2275D02*
X611Y2275D01*
X634Y2275D02*
X646Y2275D01*
X680Y2275D02*
X692Y2275D01*
X741Y2275D02*
X826Y2275D01*
X1028Y2275D02*
X1117Y2275D01*
X2535Y2275D02*
X2546Y2275D01*
X2583Y2275D02*
X2595Y2275D01*
X2656Y2275D02*
X2668Y2275D01*
X2684Y2275D02*
X2696Y2275D01*
X2794Y2275D02*
X2806Y2275D01*
X2870Y2275D02*
X2882Y2275D01*
X2945Y2275D02*
X2960Y2275D01*
X2991Y2275D02*
X3002Y2275D01*
X3247Y2275D02*
X3259Y2275D01*
X3270Y2275D02*
X3283Y2275D01*
X3461Y2275D02*
X3474Y2275D01*
X3491Y2275D02*
X3502Y2275D01*
X599Y2274D02*
X612Y2274D01*
X634Y2274D02*
X646Y2274D01*
X680Y2274D02*
X692Y2274D01*
X742Y2274D02*
X825Y2274D01*
X1028Y2274D02*
X1117Y2274D01*
X2535Y2274D02*
X2546Y2274D01*
X2583Y2274D02*
X2595Y2274D01*
X2656Y2274D02*
X2667Y2274D01*
X2685Y2274D02*
X2696Y2274D01*
X2794Y2274D02*
X2806Y2274D01*
X2870Y2274D02*
X2882Y2274D01*
X2945Y2274D02*
X2959Y2274D01*
X2991Y2274D02*
X3002Y2274D01*
X3248Y2274D02*
X3260Y2274D01*
X3270Y2274D02*
X3282Y2274D01*
X3461Y2274D02*
X3474Y2274D01*
X3491Y2274D02*
X3502Y2274D01*
X600Y2273D02*
X612Y2273D01*
X633Y2273D02*
X645Y2273D01*
X680Y2273D02*
X692Y2273D01*
X743Y2273D02*
X824Y2273D01*
X1028Y2273D02*
X1116Y2273D01*
X2535Y2273D02*
X2546Y2273D01*
X2583Y2273D02*
X2595Y2273D01*
X2655Y2273D02*
X2667Y2273D01*
X2685Y2273D02*
X2697Y2273D01*
X2794Y2273D02*
X2806Y2273D01*
X2870Y2273D02*
X2882Y2273D01*
X2944Y2273D02*
X2958Y2273D01*
X2991Y2273D02*
X3002Y2273D01*
X3248Y2273D02*
X3260Y2273D01*
X3270Y2273D02*
X3282Y2273D01*
X3460Y2273D02*
X3473Y2273D01*
X3491Y2273D02*
X3502Y2273D01*
X600Y2272D02*
X612Y2272D01*
X633Y2272D02*
X645Y2272D01*
X680Y2272D02*
X692Y2272D01*
X745Y2272D02*
X823Y2272D01*
X1029Y2272D02*
X1116Y2272D01*
X2535Y2272D02*
X2546Y2272D01*
X2583Y2272D02*
X2595Y2272D01*
X2655Y2272D02*
X2667Y2272D01*
X2685Y2272D02*
X2697Y2272D01*
X2794Y2272D02*
X2806Y2272D01*
X2870Y2272D02*
X2882Y2272D01*
X2944Y2272D02*
X2957Y2272D01*
X2991Y2272D02*
X3002Y2272D01*
X3248Y2272D02*
X3260Y2272D01*
X3269Y2272D02*
X3281Y2272D01*
X3459Y2272D02*
X3473Y2272D01*
X3491Y2272D02*
X3502Y2272D01*
X601Y2271D02*
X613Y2271D01*
X632Y2271D02*
X645Y2271D01*
X680Y2271D02*
X692Y2271D01*
X775Y2271D02*
X792Y2271D01*
X1029Y2271D02*
X1115Y2271D01*
X2535Y2271D02*
X2546Y2271D01*
X2583Y2271D02*
X2595Y2271D01*
X2655Y2271D02*
X2666Y2271D01*
X2686Y2271D02*
X2697Y2271D01*
X2794Y2271D02*
X2806Y2271D01*
X2870Y2271D02*
X2882Y2271D01*
X2943Y2271D02*
X2956Y2271D01*
X2991Y2271D02*
X3002Y2271D01*
X3249Y2271D02*
X3261Y2271D01*
X3269Y2271D02*
X3281Y2271D01*
X3459Y2271D02*
X3472Y2271D01*
X3491Y2271D02*
X3502Y2271D01*
X601Y2270D02*
X613Y2270D01*
X632Y2270D02*
X644Y2270D01*
X680Y2270D02*
X692Y2270D01*
X775Y2270D02*
X792Y2270D01*
X1030Y2270D02*
X1115Y2270D01*
X2535Y2270D02*
X2546Y2270D01*
X2583Y2270D02*
X2595Y2270D01*
X2654Y2270D02*
X2666Y2270D01*
X2686Y2270D02*
X2698Y2270D01*
X2794Y2270D02*
X2806Y2270D01*
X2870Y2270D02*
X2882Y2270D01*
X2943Y2270D02*
X2955Y2270D01*
X2991Y2270D02*
X3002Y2270D01*
X3249Y2270D02*
X3261Y2270D01*
X3268Y2270D02*
X3281Y2270D01*
X3458Y2270D02*
X3471Y2270D01*
X3491Y2270D02*
X3502Y2270D01*
X601Y2269D02*
X614Y2269D01*
X631Y2269D02*
X644Y2269D01*
X680Y2269D02*
X692Y2269D01*
X775Y2269D02*
X792Y2269D01*
X1031Y2269D02*
X1114Y2269D01*
X2535Y2269D02*
X2546Y2269D01*
X2583Y2269D02*
X2595Y2269D01*
X2654Y2269D02*
X2666Y2269D01*
X2686Y2269D02*
X2698Y2269D01*
X2794Y2269D02*
X2806Y2269D01*
X2870Y2269D02*
X2882Y2269D01*
X2943Y2269D02*
X2955Y2269D01*
X2991Y2269D02*
X3002Y2269D01*
X3249Y2269D02*
X3262Y2269D01*
X3268Y2269D02*
X3280Y2269D01*
X3458Y2269D02*
X3471Y2269D01*
X3491Y2269D02*
X3502Y2269D01*
X602Y2268D02*
X614Y2268D01*
X631Y2268D02*
X643Y2268D01*
X680Y2268D02*
X692Y2268D01*
X775Y2268D02*
X792Y2268D01*
X1032Y2268D02*
X1113Y2268D01*
X2535Y2268D02*
X2546Y2268D01*
X2583Y2268D02*
X2595Y2268D01*
X2654Y2268D02*
X2698Y2268D01*
X2794Y2268D02*
X2806Y2268D01*
X2870Y2268D02*
X2882Y2268D01*
X2943Y2268D02*
X2954Y2268D01*
X2991Y2268D02*
X3002Y2268D01*
X3250Y2268D02*
X3262Y2268D01*
X3268Y2268D02*
X3280Y2268D01*
X3457Y2268D02*
X3470Y2268D01*
X3491Y2268D02*
X3502Y2268D01*
X602Y2267D02*
X615Y2267D01*
X630Y2267D02*
X643Y2267D01*
X680Y2267D02*
X692Y2267D01*
X775Y2267D02*
X792Y2267D01*
X1034Y2267D02*
X1111Y2267D01*
X2535Y2267D02*
X2546Y2267D01*
X2583Y2267D02*
X2595Y2267D01*
X2654Y2267D02*
X2699Y2267D01*
X2794Y2267D02*
X2806Y2267D01*
X2870Y2267D02*
X2882Y2267D01*
X2943Y2267D02*
X2954Y2267D01*
X2991Y2267D02*
X3002Y2267D01*
X3250Y2267D02*
X3262Y2267D01*
X3267Y2267D02*
X3279Y2267D01*
X3456Y2267D02*
X3470Y2267D01*
X3491Y2267D02*
X3502Y2267D01*
X603Y2266D02*
X615Y2266D01*
X630Y2266D02*
X642Y2266D01*
X680Y2266D02*
X692Y2266D01*
X775Y2266D02*
X792Y2266D01*
X2535Y2266D02*
X2546Y2266D01*
X2583Y2266D02*
X2595Y2266D01*
X2653Y2266D02*
X2699Y2266D01*
X2794Y2266D02*
X2806Y2266D01*
X2870Y2266D02*
X2882Y2266D01*
X2943Y2266D02*
X2954Y2266D01*
X2991Y2266D02*
X3002Y2266D01*
X3251Y2266D02*
X3263Y2266D01*
X3267Y2266D02*
X3279Y2266D01*
X3456Y2266D02*
X3469Y2266D01*
X3491Y2266D02*
X3502Y2266D01*
X603Y2265D02*
X616Y2265D01*
X630Y2265D02*
X642Y2265D01*
X680Y2265D02*
X692Y2265D01*
X775Y2265D02*
X792Y2265D01*
X2535Y2265D02*
X2546Y2265D01*
X2583Y2265D02*
X2595Y2265D01*
X2653Y2265D02*
X2699Y2265D01*
X2794Y2265D02*
X2806Y2265D01*
X2870Y2265D02*
X2882Y2265D01*
X2943Y2265D02*
X2954Y2265D01*
X2991Y2265D02*
X3002Y2265D01*
X3251Y2265D02*
X3263Y2265D01*
X3266Y2265D02*
X3279Y2265D01*
X3455Y2265D02*
X3469Y2265D01*
X3491Y2265D02*
X3502Y2265D01*
X604Y2264D02*
X616Y2264D01*
X629Y2264D02*
X641Y2264D01*
X680Y2264D02*
X692Y2264D01*
X775Y2264D02*
X792Y2264D01*
X2535Y2264D02*
X2546Y2264D01*
X2583Y2264D02*
X2595Y2264D01*
X2653Y2264D02*
X2699Y2264D01*
X2794Y2264D02*
X2806Y2264D01*
X2870Y2264D02*
X2882Y2264D01*
X2943Y2264D02*
X2954Y2264D01*
X2991Y2264D02*
X3002Y2264D01*
X3251Y2264D02*
X3264Y2264D01*
X3266Y2264D02*
X3278Y2264D01*
X3455Y2264D02*
X3468Y2264D01*
X3491Y2264D02*
X3502Y2264D01*
X604Y2263D02*
X616Y2263D01*
X629Y2263D02*
X641Y2263D01*
X680Y2263D02*
X692Y2263D01*
X775Y2263D02*
X792Y2263D01*
X2535Y2263D02*
X2546Y2263D01*
X2583Y2263D02*
X2595Y2263D01*
X2652Y2263D02*
X2700Y2263D01*
X2794Y2263D02*
X2806Y2263D01*
X2870Y2263D02*
X2882Y2263D01*
X2943Y2263D02*
X2954Y2263D01*
X2991Y2263D02*
X3002Y2263D01*
X3252Y2263D02*
X3264Y2263D01*
X3266Y2263D02*
X3278Y2263D01*
X3454Y2263D02*
X3467Y2263D01*
X3491Y2263D02*
X3502Y2263D01*
X604Y2262D02*
X617Y2262D01*
X628Y2262D02*
X641Y2262D01*
X680Y2262D02*
X692Y2262D01*
X775Y2262D02*
X792Y2262D01*
X2535Y2262D02*
X2546Y2262D01*
X2583Y2262D02*
X2595Y2262D01*
X2652Y2262D02*
X2700Y2262D01*
X2794Y2262D02*
X2806Y2262D01*
X2870Y2262D02*
X2882Y2262D01*
X2943Y2262D02*
X2954Y2262D01*
X2991Y2262D02*
X3002Y2262D01*
X3252Y2262D02*
X3278Y2262D01*
X3454Y2262D02*
X3467Y2262D01*
X3491Y2262D02*
X3502Y2262D01*
X605Y2261D02*
X617Y2261D01*
X628Y2261D02*
X640Y2261D01*
X680Y2261D02*
X692Y2261D01*
X775Y2261D02*
X792Y2261D01*
X2535Y2261D02*
X2546Y2261D01*
X2583Y2261D02*
X2595Y2261D01*
X2652Y2261D02*
X2700Y2261D01*
X2794Y2261D02*
X2806Y2261D01*
X2870Y2261D02*
X2882Y2261D01*
X2943Y2261D02*
X2954Y2261D01*
X2991Y2261D02*
X3002Y2261D01*
X3253Y2261D02*
X3277Y2261D01*
X3453Y2261D02*
X3466Y2261D01*
X3491Y2261D02*
X3502Y2261D01*
X605Y2260D02*
X618Y2260D01*
X627Y2260D02*
X640Y2260D01*
X680Y2260D02*
X692Y2260D01*
X775Y2260D02*
X792Y2260D01*
X2535Y2260D02*
X2546Y2260D01*
X2583Y2260D02*
X2595Y2260D01*
X2652Y2260D02*
X2701Y2260D01*
X2794Y2260D02*
X2806Y2260D01*
X2870Y2260D02*
X2882Y2260D01*
X2943Y2260D02*
X2954Y2260D01*
X2991Y2260D02*
X3002Y2260D01*
X3253Y2260D02*
X3277Y2260D01*
X3452Y2260D02*
X3466Y2260D01*
X3491Y2260D02*
X3502Y2260D01*
X606Y2259D02*
X618Y2259D01*
X627Y2259D02*
X639Y2259D01*
X680Y2259D02*
X692Y2259D01*
X775Y2259D02*
X792Y2259D01*
X2535Y2259D02*
X2546Y2259D01*
X2583Y2259D02*
X2595Y2259D01*
X2651Y2259D02*
X2701Y2259D01*
X2794Y2259D02*
X2806Y2259D01*
X2870Y2259D02*
X2882Y2259D01*
X2943Y2259D02*
X2954Y2259D01*
X2991Y2259D02*
X3002Y2259D01*
X3253Y2259D02*
X3276Y2259D01*
X3452Y2259D02*
X3465Y2259D01*
X3491Y2259D02*
X3502Y2259D01*
X606Y2258D02*
X619Y2258D01*
X627Y2258D02*
X639Y2258D01*
X680Y2258D02*
X692Y2258D01*
X775Y2258D02*
X792Y2258D01*
X2535Y2258D02*
X2546Y2258D01*
X2583Y2258D02*
X2595Y2258D01*
X2651Y2258D02*
X2701Y2258D01*
X2794Y2258D02*
X2806Y2258D01*
X2870Y2258D02*
X2882Y2258D01*
X2943Y2258D02*
X2954Y2258D01*
X2991Y2258D02*
X3002Y2258D01*
X3254Y2258D02*
X3276Y2258D01*
X3451Y2258D02*
X3464Y2258D01*
X3491Y2258D02*
X3502Y2258D01*
X607Y2257D02*
X619Y2257D01*
X626Y2257D02*
X638Y2257D01*
X680Y2257D02*
X692Y2257D01*
X775Y2257D02*
X792Y2257D01*
X2535Y2257D02*
X2546Y2257D01*
X2583Y2257D02*
X2595Y2257D01*
X2651Y2257D02*
X2701Y2257D01*
X2794Y2257D02*
X2806Y2257D01*
X2870Y2257D02*
X2882Y2257D01*
X2943Y2257D02*
X2954Y2257D01*
X2991Y2257D02*
X3002Y2257D01*
X3254Y2257D02*
X3276Y2257D01*
X3451Y2257D02*
X3464Y2257D01*
X3491Y2257D02*
X3502Y2257D01*
X607Y2256D02*
X619Y2256D01*
X626Y2256D02*
X638Y2256D01*
X680Y2256D02*
X692Y2256D01*
X775Y2256D02*
X792Y2256D01*
X2535Y2256D02*
X2546Y2256D01*
X2583Y2256D02*
X2595Y2256D01*
X2650Y2256D02*
X2702Y2256D01*
X2794Y2256D02*
X2806Y2256D01*
X2870Y2256D02*
X2882Y2256D01*
X2943Y2256D02*
X2954Y2256D01*
X2991Y2256D02*
X3002Y2256D01*
X3255Y2256D02*
X3275Y2256D01*
X3450Y2256D02*
X3463Y2256D01*
X3491Y2256D02*
X3502Y2256D01*
X608Y2255D02*
X620Y2255D01*
X625Y2255D02*
X638Y2255D01*
X680Y2255D02*
X692Y2255D01*
X775Y2255D02*
X792Y2255D01*
X2535Y2255D02*
X2546Y2255D01*
X2583Y2255D02*
X2595Y2255D01*
X2650Y2255D02*
X2662Y2255D01*
X2690Y2255D02*
X2702Y2255D01*
X2794Y2255D02*
X2806Y2255D01*
X2870Y2255D02*
X2882Y2255D01*
X2943Y2255D02*
X2955Y2255D01*
X2991Y2255D02*
X3002Y2255D01*
X3255Y2255D02*
X3275Y2255D01*
X3449Y2255D02*
X3463Y2255D01*
X3491Y2255D02*
X3502Y2255D01*
X608Y2254D02*
X620Y2254D01*
X625Y2254D02*
X637Y2254D01*
X680Y2254D02*
X692Y2254D01*
X732Y2254D02*
X736Y2254D01*
X775Y2254D02*
X792Y2254D01*
X2535Y2254D02*
X2546Y2254D01*
X2583Y2254D02*
X2595Y2254D01*
X2650Y2254D02*
X2661Y2254D01*
X2691Y2254D02*
X2702Y2254D01*
X2794Y2254D02*
X2806Y2254D01*
X2870Y2254D02*
X2882Y2254D01*
X2943Y2254D02*
X2955Y2254D01*
X2991Y2254D02*
X3002Y2254D01*
X3255Y2254D02*
X3274Y2254D01*
X3449Y2254D02*
X3462Y2254D01*
X3491Y2254D02*
X3502Y2254D01*
X608Y2253D02*
X621Y2253D01*
X624Y2253D02*
X637Y2253D01*
X680Y2253D02*
X692Y2253D01*
X729Y2253D02*
X738Y2253D01*
X775Y2253D02*
X792Y2253D01*
X2535Y2253D02*
X2546Y2253D01*
X2583Y2253D02*
X2595Y2253D01*
X2650Y2253D02*
X2661Y2253D01*
X2691Y2253D02*
X2703Y2253D01*
X2794Y2253D02*
X2806Y2253D01*
X2870Y2253D02*
X2882Y2253D01*
X2944Y2253D02*
X2956Y2253D01*
X2991Y2253D02*
X3002Y2253D01*
X3256Y2253D02*
X3274Y2253D01*
X3448Y2253D02*
X3462Y2253D01*
X3491Y2253D02*
X3502Y2253D01*
X609Y2252D02*
X621Y2252D01*
X624Y2252D02*
X636Y2252D01*
X680Y2252D02*
X692Y2252D01*
X727Y2252D02*
X739Y2252D01*
X775Y2252D02*
X792Y2252D01*
X2535Y2252D02*
X2546Y2252D01*
X2583Y2252D02*
X2595Y2252D01*
X2649Y2252D02*
X2661Y2252D01*
X2691Y2252D02*
X2703Y2252D01*
X2794Y2252D02*
X2806Y2252D01*
X2870Y2252D02*
X2882Y2252D01*
X2944Y2252D02*
X2957Y2252D01*
X2991Y2252D02*
X3002Y2252D01*
X3256Y2252D02*
X3274Y2252D01*
X3448Y2252D02*
X3461Y2252D01*
X3491Y2252D02*
X3502Y2252D01*
X609Y2251D02*
X622Y2251D01*
X624Y2251D02*
X636Y2251D01*
X680Y2251D02*
X692Y2251D01*
X725Y2251D02*
X739Y2251D01*
X775Y2251D02*
X792Y2251D01*
X2535Y2251D02*
X2546Y2251D01*
X2583Y2251D02*
X2595Y2251D01*
X2649Y2251D02*
X2661Y2251D01*
X2691Y2251D02*
X2703Y2251D01*
X2794Y2251D02*
X2806Y2251D01*
X2870Y2251D02*
X2882Y2251D01*
X2944Y2251D02*
X2958Y2251D01*
X2991Y2251D02*
X3002Y2251D01*
X3256Y2251D02*
X3273Y2251D01*
X3447Y2251D02*
X3460Y2251D01*
X3491Y2251D02*
X3502Y2251D01*
X610Y2250D02*
X635Y2250D01*
X680Y2250D02*
X692Y2250D01*
X722Y2250D02*
X740Y2250D01*
X775Y2250D02*
X792Y2250D01*
X2535Y2250D02*
X2546Y2250D01*
X2583Y2250D02*
X2595Y2250D01*
X2649Y2250D02*
X2660Y2250D01*
X2692Y2250D02*
X2703Y2250D01*
X2794Y2250D02*
X2806Y2250D01*
X2870Y2250D02*
X2882Y2250D01*
X2945Y2250D02*
X2959Y2250D01*
X2991Y2250D02*
X3002Y2250D01*
X3257Y2250D02*
X3273Y2250D01*
X3447Y2250D02*
X3460Y2250D01*
X3491Y2250D02*
X3502Y2250D01*
X610Y2249D02*
X635Y2249D01*
X680Y2249D02*
X740Y2249D01*
X775Y2249D02*
X792Y2249D01*
X2535Y2249D02*
X2546Y2249D01*
X2583Y2249D02*
X2595Y2249D01*
X2648Y2249D02*
X2660Y2249D01*
X2692Y2249D02*
X2704Y2249D01*
X2794Y2249D02*
X2806Y2249D01*
X2870Y2249D02*
X2882Y2249D01*
X2945Y2249D02*
X2961Y2249D01*
X2991Y2249D02*
X3002Y2249D01*
X3257Y2249D02*
X3272Y2249D01*
X3446Y2249D02*
X3459Y2249D01*
X3491Y2249D02*
X3502Y2249D01*
X611Y2248D02*
X634Y2248D01*
X681Y2248D02*
X740Y2248D01*
X775Y2248D02*
X792Y2248D01*
X2535Y2248D02*
X2546Y2248D01*
X2583Y2248D02*
X2595Y2248D01*
X2648Y2248D02*
X2660Y2248D01*
X2692Y2248D02*
X2704Y2248D01*
X2794Y2248D02*
X2806Y2248D01*
X2870Y2248D02*
X2882Y2248D01*
X2946Y2248D02*
X2963Y2248D01*
X2991Y2248D02*
X3002Y2248D01*
X3258Y2248D02*
X3272Y2248D01*
X3445Y2248D02*
X3459Y2248D01*
X3491Y2248D02*
X3502Y2248D01*
X611Y2247D02*
X634Y2247D01*
X681Y2247D02*
X740Y2247D01*
X775Y2247D02*
X792Y2247D01*
X2535Y2247D02*
X2594Y2247D01*
X2648Y2247D02*
X2659Y2247D01*
X2693Y2247D02*
X2704Y2247D01*
X2750Y2247D02*
X2806Y2247D01*
X2850Y2247D02*
X2902Y2247D01*
X2946Y2247D02*
X3002Y2247D01*
X3258Y2247D02*
X3272Y2247D01*
X3445Y2247D02*
X3458Y2247D01*
X3491Y2247D02*
X3502Y2247D01*
X611Y2246D02*
X634Y2246D01*
X681Y2246D02*
X739Y2246D01*
X775Y2246D02*
X792Y2246D01*
X2535Y2246D02*
X2594Y2246D01*
X2647Y2246D02*
X2659Y2246D01*
X2693Y2246D02*
X2705Y2246D01*
X2748Y2246D02*
X2806Y2246D01*
X2848Y2246D02*
X2904Y2246D01*
X2947Y2246D02*
X3002Y2246D01*
X3258Y2246D02*
X3271Y2246D01*
X3444Y2246D02*
X3457Y2246D01*
X3491Y2246D02*
X3502Y2246D01*
X612Y2245D02*
X633Y2245D01*
X681Y2245D02*
X739Y2245D01*
X775Y2245D02*
X792Y2245D01*
X2535Y2245D02*
X2594Y2245D01*
X2647Y2245D02*
X2659Y2245D01*
X2693Y2245D02*
X2705Y2245D01*
X2748Y2245D02*
X2806Y2245D01*
X2848Y2245D02*
X2904Y2245D01*
X2948Y2245D02*
X3002Y2245D01*
X3259Y2245D02*
X3271Y2245D01*
X3444Y2245D02*
X3457Y2245D01*
X3491Y2245D02*
X3502Y2245D01*
X612Y2244D02*
X633Y2244D01*
X682Y2244D02*
X738Y2244D01*
X775Y2244D02*
X792Y2244D01*
X2536Y2244D02*
X2594Y2244D01*
X2647Y2244D02*
X2659Y2244D01*
X2693Y2244D02*
X2705Y2244D01*
X2747Y2244D02*
X2806Y2244D01*
X2847Y2244D02*
X2905Y2244D01*
X2949Y2244D02*
X3002Y2244D01*
X3259Y2244D02*
X3271Y2244D01*
X3443Y2244D02*
X3456Y2244D01*
X3491Y2244D02*
X3502Y2244D01*
X613Y2243D02*
X632Y2243D01*
X682Y2243D02*
X736Y2243D01*
X775Y2243D02*
X792Y2243D01*
X2536Y2243D02*
X2594Y2243D01*
X2647Y2243D02*
X2658Y2243D01*
X2694Y2243D02*
X2706Y2243D01*
X2746Y2243D02*
X2806Y2243D01*
X2846Y2243D02*
X2905Y2243D01*
X2950Y2243D02*
X3002Y2243D01*
X3260Y2243D02*
X3270Y2243D01*
X3443Y2243D02*
X3456Y2243D01*
X3491Y2243D02*
X3502Y2243D01*
X613Y2242D02*
X632Y2242D01*
X683Y2242D02*
X734Y2242D01*
X775Y2242D02*
X792Y2242D01*
X2537Y2242D02*
X2593Y2242D01*
X2646Y2242D02*
X2658Y2242D01*
X2694Y2242D02*
X2706Y2242D01*
X2746Y2242D02*
X2806Y2242D01*
X2846Y2242D02*
X2906Y2242D01*
X2951Y2242D02*
X3002Y2242D01*
X3260Y2242D02*
X3270Y2242D01*
X3443Y2242D02*
X3455Y2242D01*
X3491Y2242D02*
X3502Y2242D01*
X614Y2241D02*
X631Y2241D01*
X684Y2241D02*
X732Y2241D01*
X776Y2241D02*
X791Y2241D01*
X2537Y2241D02*
X2592Y2241D01*
X2646Y2241D02*
X2658Y2241D01*
X2694Y2241D02*
X2706Y2241D01*
X2746Y2241D02*
X2806Y2241D01*
X2846Y2241D02*
X2906Y2241D01*
X2952Y2241D02*
X3002Y2241D01*
X3261Y2241D02*
X3269Y2241D01*
X3443Y2241D02*
X3455Y2241D01*
X3491Y2241D02*
X3502Y2241D01*
X614Y2240D02*
X631Y2240D01*
X685Y2240D02*
X730Y2240D01*
X776Y2240D02*
X791Y2240D01*
X2538Y2240D02*
X2592Y2240D01*
X2646Y2240D02*
X2657Y2240D01*
X2695Y2240D02*
X2706Y2240D01*
X2746Y2240D02*
X2806Y2240D01*
X2846Y2240D02*
X2905Y2240D01*
X2953Y2240D02*
X3002Y2240D01*
X3262Y2240D02*
X3268Y2240D01*
X3443Y2240D02*
X3454Y2240D01*
X3491Y2240D02*
X3502Y2240D01*
X615Y2239D02*
X630Y2239D01*
X687Y2239D02*
X727Y2239D01*
X777Y2239D02*
X790Y2239D01*
X2539Y2239D02*
X2591Y2239D01*
X2647Y2239D02*
X2657Y2239D01*
X2695Y2239D02*
X2705Y2239D01*
X2747Y2239D02*
X2806Y2239D01*
X2847Y2239D02*
X2905Y2239D01*
X2955Y2239D02*
X3002Y2239D01*
X3443Y2239D02*
X3453Y2239D01*
X3491Y2239D02*
X3501Y2239D01*
X617Y2238D02*
X629Y2238D01*
X689Y2238D02*
X724Y2238D01*
X778Y2238D02*
X789Y2238D01*
X2540Y2238D02*
X2590Y2238D01*
X2647Y2238D02*
X2656Y2238D01*
X2696Y2238D02*
X2705Y2238D01*
X2748Y2238D02*
X2806Y2238D01*
X2848Y2238D02*
X2904Y2238D01*
X2956Y2238D02*
X3002Y2238D01*
X3444Y2238D02*
X3453Y2238D01*
X3492Y2238D02*
X3501Y2238D01*
X779Y2237D02*
X788Y2237D01*
X2542Y2237D02*
X2588Y2237D01*
X2648Y2237D02*
X2655Y2237D01*
X2697Y2237D02*
X2704Y2237D01*
X2748Y2237D02*
X2806Y2237D01*
X2848Y2237D02*
X2904Y2237D01*
X2958Y2237D02*
X3002Y2237D01*
X3445Y2237D02*
X3452Y2237D01*
X3493Y2237D02*
X3500Y2237D01*
X781Y2236D02*
X786Y2236D01*
X2544Y2236D02*
X2586Y2236D01*
X2650Y2236D02*
X2654Y2236D01*
X2698Y2236D02*
X2702Y2236D01*
X2750Y2236D02*
X2806Y2236D01*
X2850Y2236D02*
X2902Y2236D01*
X2962Y2236D02*
X3002Y2236D01*
X3446Y2236D02*
X3450Y2236D01*
X3494Y2236D02*
X3498Y2236D01*
X2345Y2015D02*
X2387Y2015D01*
X2458Y2015D02*
X2494Y2015D01*
X2340Y2014D02*
X2387Y2014D01*
X2452Y2014D02*
X2495Y2014D01*
X2338Y2013D02*
X2387Y2013D01*
X2450Y2013D02*
X2495Y2013D01*
X2336Y2012D02*
X2387Y2012D01*
X2448Y2012D02*
X2495Y2012D01*
X2335Y2011D02*
X2387Y2011D01*
X2446Y2011D02*
X2495Y2011D01*
X2334Y2010D02*
X2387Y2010D01*
X2445Y2010D02*
X2495Y2010D01*
X2333Y2009D02*
X2387Y2009D01*
X2444Y2009D02*
X2495Y2009D01*
X2332Y2008D02*
X2387Y2008D01*
X2443Y2008D02*
X2495Y2008D01*
X2331Y2007D02*
X2387Y2007D01*
X2442Y2007D02*
X2495Y2007D01*
X2330Y2006D02*
X2387Y2006D01*
X2441Y2006D02*
X2495Y2006D01*
X2330Y2005D02*
X2387Y2005D01*
X2440Y2005D02*
X2495Y2005D01*
X2329Y2004D02*
X2387Y2004D01*
X2439Y2004D02*
X2495Y2004D01*
X2329Y2003D02*
X2387Y2003D01*
X2439Y2003D02*
X2495Y2003D01*
X2329Y2002D02*
X2342Y2002D01*
X2376Y2002D02*
X2387Y2002D01*
X2438Y2002D02*
X2454Y2002D01*
X2483Y2002D02*
X2495Y2002D01*
X2328Y2001D02*
X2341Y2001D01*
X2376Y2001D02*
X2387Y2001D01*
X2438Y2001D02*
X2452Y2001D01*
X2483Y2001D02*
X2495Y2001D01*
X2328Y2000D02*
X2340Y2000D01*
X2376Y2000D02*
X2387Y2000D01*
X2437Y2000D02*
X2451Y2000D01*
X2483Y2000D02*
X2495Y2000D01*
X2328Y1999D02*
X2340Y1999D01*
X2376Y1999D02*
X2387Y1999D01*
X2437Y1999D02*
X2450Y1999D01*
X2483Y1999D02*
X2495Y1999D01*
X2328Y1998D02*
X2339Y1998D01*
X2376Y1998D02*
X2387Y1998D01*
X2436Y1998D02*
X2449Y1998D01*
X2483Y1998D02*
X2495Y1998D01*
X2328Y1997D02*
X2339Y1997D01*
X2376Y1997D02*
X2387Y1997D01*
X2436Y1997D02*
X2448Y1997D01*
X2483Y1997D02*
X2495Y1997D01*
X2328Y1996D02*
X2339Y1996D01*
X2376Y1996D02*
X2387Y1996D01*
X2436Y1996D02*
X2448Y1996D01*
X2483Y1996D02*
X2495Y1996D01*
X2328Y1995D02*
X2339Y1995D01*
X2376Y1995D02*
X2387Y1995D01*
X2436Y1995D02*
X2447Y1995D01*
X2483Y1995D02*
X2495Y1995D01*
X2328Y1994D02*
X2339Y1994D01*
X2376Y1994D02*
X2387Y1994D01*
X2435Y1994D02*
X2447Y1994D01*
X2483Y1994D02*
X2495Y1994D01*
X2328Y1993D02*
X2339Y1993D01*
X2376Y1993D02*
X2387Y1993D01*
X2435Y1993D02*
X2447Y1993D01*
X2483Y1993D02*
X2495Y1993D01*
X2328Y1992D02*
X2339Y1992D01*
X2376Y1992D02*
X2387Y1992D01*
X2435Y1992D02*
X2447Y1992D01*
X2483Y1992D02*
X2495Y1992D01*
X2328Y1991D02*
X2339Y1991D01*
X2376Y1991D02*
X2387Y1991D01*
X2435Y1991D02*
X2446Y1991D01*
X2483Y1991D02*
X2495Y1991D01*
X2328Y1990D02*
X2339Y1990D01*
X2376Y1990D02*
X2387Y1990D01*
X2435Y1990D02*
X2446Y1990D01*
X2483Y1990D02*
X2495Y1990D01*
X2328Y1989D02*
X2339Y1989D01*
X2376Y1989D02*
X2387Y1989D01*
X2435Y1989D02*
X2446Y1989D01*
X2483Y1989D02*
X2495Y1989D01*
X2328Y1988D02*
X2340Y1988D01*
X2376Y1988D02*
X2387Y1988D01*
X2435Y1988D02*
X2446Y1988D01*
X2483Y1988D02*
X2495Y1988D01*
X2328Y1987D02*
X2340Y1987D01*
X2376Y1987D02*
X2387Y1987D01*
X2435Y1987D02*
X2446Y1987D01*
X2483Y1987D02*
X2495Y1987D01*
X2328Y1986D02*
X2341Y1986D01*
X2376Y1986D02*
X2387Y1986D01*
X2435Y1986D02*
X2446Y1986D01*
X2483Y1986D02*
X2495Y1986D01*
X2329Y1985D02*
X2342Y1985D01*
X2376Y1985D02*
X2387Y1985D01*
X2435Y1985D02*
X2447Y1985D01*
X2483Y1985D02*
X2495Y1985D01*
X2329Y1984D02*
X2387Y1984D01*
X2435Y1984D02*
X2447Y1984D01*
X2483Y1984D02*
X2495Y1984D01*
X2329Y1983D02*
X2387Y1983D01*
X2435Y1983D02*
X2447Y1983D01*
X2483Y1983D02*
X2495Y1983D01*
X2330Y1982D02*
X2387Y1982D01*
X2436Y1982D02*
X2447Y1982D01*
X2483Y1982D02*
X2495Y1982D01*
X2330Y1981D02*
X2387Y1981D01*
X2436Y1981D02*
X2448Y1981D01*
X2483Y1981D02*
X2495Y1981D01*
X2331Y1980D02*
X2387Y1980D01*
X2436Y1980D02*
X2448Y1980D01*
X2483Y1980D02*
X2495Y1980D01*
X2332Y1979D02*
X2387Y1979D01*
X2436Y1979D02*
X2449Y1979D01*
X2483Y1979D02*
X2495Y1979D01*
X2333Y1978D02*
X2387Y1978D01*
X2437Y1978D02*
X2450Y1978D01*
X2483Y1978D02*
X2495Y1978D01*
X2334Y1977D02*
X2387Y1977D01*
X2437Y1977D02*
X2451Y1977D01*
X2483Y1977D02*
X2495Y1977D01*
X2335Y1976D02*
X2387Y1976D01*
X2437Y1976D02*
X2452Y1976D01*
X2483Y1976D02*
X2495Y1976D01*
X2336Y1975D02*
X2387Y1975D01*
X2438Y1975D02*
X2454Y1975D01*
X2483Y1975D02*
X2495Y1975D01*
X2338Y1974D02*
X2387Y1974D01*
X2438Y1974D02*
X2495Y1974D01*
X2340Y1973D02*
X2387Y1973D01*
X2439Y1973D02*
X2495Y1973D01*
X2346Y1972D02*
X2387Y1972D01*
X2440Y1972D02*
X2495Y1972D01*
X2353Y1971D02*
X2366Y1971D01*
X2376Y1971D02*
X2387Y1971D01*
X2441Y1971D02*
X2495Y1971D01*
X2352Y1970D02*
X2365Y1970D01*
X2376Y1970D02*
X2387Y1970D01*
X2442Y1970D02*
X2495Y1970D01*
X2352Y1969D02*
X2365Y1969D01*
X2376Y1969D02*
X2387Y1969D01*
X2443Y1969D02*
X2495Y1969D01*
X1821Y1968D02*
X1867Y1968D01*
X1997Y1968D02*
X2042Y1968D01*
X2351Y1968D02*
X2364Y1968D01*
X2376Y1968D02*
X2387Y1968D01*
X2443Y1968D02*
X2495Y1968D01*
X1819Y1967D02*
X1868Y1967D01*
X1994Y1967D02*
X2044Y1967D01*
X2350Y1967D02*
X2364Y1967D01*
X2376Y1967D02*
X2387Y1967D01*
X2443Y1967D02*
X2495Y1967D01*
X1817Y1966D02*
X1870Y1966D01*
X1992Y1966D02*
X2045Y1966D01*
X2350Y1966D02*
X2363Y1966D01*
X2376Y1966D02*
X2387Y1966D01*
X2442Y1966D02*
X2495Y1966D01*
X1816Y1965D02*
X1870Y1965D01*
X1991Y1965D02*
X2045Y1965D01*
X2349Y1965D02*
X2362Y1965D01*
X2376Y1965D02*
X2387Y1965D01*
X2441Y1965D02*
X2495Y1965D01*
X1815Y1964D02*
X1871Y1964D01*
X1990Y1964D02*
X2046Y1964D01*
X2349Y1964D02*
X2362Y1964D01*
X2376Y1964D02*
X2387Y1964D01*
X2440Y1964D02*
X2495Y1964D01*
X1814Y1963D02*
X1871Y1963D01*
X1989Y1963D02*
X2046Y1963D01*
X2348Y1963D02*
X2361Y1963D01*
X2376Y1963D02*
X2387Y1963D01*
X2439Y1963D02*
X2495Y1963D01*
X1813Y1962D02*
X1871Y1962D01*
X1988Y1962D02*
X2046Y1962D01*
X2347Y1962D02*
X2361Y1962D01*
X2376Y1962D02*
X2387Y1962D01*
X2439Y1962D02*
X2495Y1962D01*
X1813Y1961D02*
X1871Y1961D01*
X1988Y1961D02*
X2046Y1961D01*
X2347Y1961D02*
X2360Y1961D01*
X2376Y1961D02*
X2387Y1961D01*
X2438Y1961D02*
X2454Y1961D01*
X2483Y1961D02*
X2495Y1961D01*
X1812Y1960D02*
X1871Y1960D01*
X1988Y1960D02*
X2046Y1960D01*
X2346Y1960D02*
X2360Y1960D01*
X2376Y1960D02*
X2387Y1960D01*
X2438Y1960D02*
X2452Y1960D01*
X2483Y1960D02*
X2495Y1960D01*
X1812Y1959D02*
X1870Y1959D01*
X1987Y1959D02*
X2045Y1959D01*
X2346Y1959D02*
X2359Y1959D01*
X2376Y1959D02*
X2387Y1959D01*
X2437Y1959D02*
X2451Y1959D01*
X2483Y1959D02*
X2495Y1959D01*
X1812Y1958D02*
X1869Y1958D01*
X1987Y1958D02*
X2044Y1958D01*
X2345Y1958D02*
X2358Y1958D01*
X2376Y1958D02*
X2387Y1958D01*
X2437Y1958D02*
X2450Y1958D01*
X2483Y1958D02*
X2495Y1958D01*
X1812Y1957D02*
X1868Y1957D01*
X1987Y1957D02*
X2043Y1957D01*
X2345Y1957D02*
X2358Y1957D01*
X2376Y1957D02*
X2387Y1957D01*
X2436Y1957D02*
X2449Y1957D01*
X2483Y1957D02*
X2495Y1957D01*
X1812Y1956D02*
X1823Y1956D01*
X1987Y1956D02*
X1998Y1956D01*
X2344Y1956D02*
X2357Y1956D01*
X2376Y1956D02*
X2387Y1956D01*
X2436Y1956D02*
X2448Y1956D01*
X2483Y1956D02*
X2495Y1956D01*
X1812Y1955D02*
X1823Y1955D01*
X1987Y1955D02*
X1998Y1955D01*
X2343Y1955D02*
X2357Y1955D01*
X2376Y1955D02*
X2387Y1955D01*
X2436Y1955D02*
X2448Y1955D01*
X2483Y1955D02*
X2495Y1955D01*
X1812Y1954D02*
X1823Y1954D01*
X1987Y1954D02*
X1998Y1954D01*
X2343Y1954D02*
X2356Y1954D01*
X2376Y1954D02*
X2387Y1954D01*
X2436Y1954D02*
X2447Y1954D01*
X2483Y1954D02*
X2495Y1954D01*
X1812Y1953D02*
X1823Y1953D01*
X1987Y1953D02*
X1998Y1953D01*
X2342Y1953D02*
X2355Y1953D01*
X2376Y1953D02*
X2387Y1953D01*
X2435Y1953D02*
X2447Y1953D01*
X2483Y1953D02*
X2495Y1953D01*
X1812Y1952D02*
X1823Y1952D01*
X1987Y1952D02*
X1998Y1952D01*
X2342Y1952D02*
X2355Y1952D01*
X2376Y1952D02*
X2387Y1952D01*
X2435Y1952D02*
X2447Y1952D01*
X2483Y1952D02*
X2495Y1952D01*
X1812Y1951D02*
X1823Y1951D01*
X1987Y1951D02*
X1998Y1951D01*
X2341Y1951D02*
X2354Y1951D01*
X2376Y1951D02*
X2387Y1951D01*
X2435Y1951D02*
X2447Y1951D01*
X2483Y1951D02*
X2495Y1951D01*
X1812Y1950D02*
X1823Y1950D01*
X1987Y1950D02*
X1998Y1950D01*
X2340Y1950D02*
X2354Y1950D01*
X2376Y1950D02*
X2387Y1950D01*
X2435Y1950D02*
X2446Y1950D01*
X2483Y1950D02*
X2495Y1950D01*
X1812Y1949D02*
X1823Y1949D01*
X1987Y1949D02*
X1998Y1949D01*
X2340Y1949D02*
X2353Y1949D01*
X2376Y1949D02*
X2387Y1949D01*
X2435Y1949D02*
X2446Y1949D01*
X2483Y1949D02*
X2495Y1949D01*
X1812Y1948D02*
X1823Y1948D01*
X1987Y1948D02*
X1998Y1948D01*
X2339Y1948D02*
X2353Y1948D01*
X2376Y1948D02*
X2387Y1948D01*
X2435Y1948D02*
X2446Y1948D01*
X2483Y1948D02*
X2495Y1948D01*
X1812Y1947D02*
X1823Y1947D01*
X1987Y1947D02*
X1998Y1947D01*
X2339Y1947D02*
X2352Y1947D01*
X2376Y1947D02*
X2387Y1947D01*
X2435Y1947D02*
X2446Y1947D01*
X2483Y1947D02*
X2495Y1947D01*
X1812Y1946D02*
X1823Y1946D01*
X1987Y1946D02*
X1998Y1946D01*
X2338Y1946D02*
X2351Y1946D01*
X2376Y1946D02*
X2387Y1946D01*
X2435Y1946D02*
X2446Y1946D01*
X2483Y1946D02*
X2495Y1946D01*
X1812Y1945D02*
X1823Y1945D01*
X1987Y1945D02*
X1998Y1945D01*
X2338Y1945D02*
X2351Y1945D01*
X2376Y1945D02*
X2387Y1945D01*
X2435Y1945D02*
X2446Y1945D01*
X2483Y1945D02*
X2495Y1945D01*
X1812Y1944D02*
X1823Y1944D01*
X1987Y1944D02*
X1998Y1944D01*
X2337Y1944D02*
X2350Y1944D01*
X2376Y1944D02*
X2387Y1944D01*
X2435Y1944D02*
X2447Y1944D01*
X2483Y1944D02*
X2495Y1944D01*
X1812Y1943D02*
X1823Y1943D01*
X1987Y1943D02*
X1998Y1943D01*
X2336Y1943D02*
X2350Y1943D01*
X2376Y1943D02*
X2387Y1943D01*
X2435Y1943D02*
X2447Y1943D01*
X2483Y1943D02*
X2495Y1943D01*
X1812Y1942D02*
X1823Y1942D01*
X1903Y1942D02*
X1907Y1942D01*
X1951Y1942D02*
X1955Y1942D01*
X1987Y1942D02*
X1998Y1942D01*
X2336Y1942D02*
X2349Y1942D01*
X2376Y1942D02*
X2387Y1942D01*
X2435Y1942D02*
X2447Y1942D01*
X2483Y1942D02*
X2495Y1942D01*
X1812Y1941D02*
X1823Y1941D01*
X1901Y1941D02*
X1908Y1941D01*
X1949Y1941D02*
X1956Y1941D01*
X1987Y1941D02*
X1998Y1941D01*
X2335Y1941D02*
X2348Y1941D01*
X2376Y1941D02*
X2387Y1941D01*
X2436Y1941D02*
X2447Y1941D01*
X2483Y1941D02*
X2495Y1941D01*
X1812Y1940D02*
X1823Y1940D01*
X1901Y1940D02*
X1909Y1940D01*
X1949Y1940D02*
X1957Y1940D01*
X1987Y1940D02*
X1998Y1940D01*
X2335Y1940D02*
X2348Y1940D01*
X2376Y1940D02*
X2387Y1940D01*
X2436Y1940D02*
X2448Y1940D01*
X2483Y1940D02*
X2495Y1940D01*
X1812Y1939D02*
X1823Y1939D01*
X1900Y1939D02*
X1910Y1939D01*
X1948Y1939D02*
X1958Y1939D01*
X1987Y1939D02*
X1998Y1939D01*
X2334Y1939D02*
X2347Y1939D01*
X2376Y1939D02*
X2387Y1939D01*
X2436Y1939D02*
X2448Y1939D01*
X2483Y1939D02*
X2495Y1939D01*
X1812Y1938D02*
X1823Y1938D01*
X1899Y1938D02*
X1910Y1938D01*
X1948Y1938D02*
X1958Y1938D01*
X1987Y1938D02*
X1998Y1938D01*
X2333Y1938D02*
X2347Y1938D01*
X2376Y1938D02*
X2387Y1938D01*
X2436Y1938D02*
X2449Y1938D01*
X2483Y1938D02*
X2495Y1938D01*
X1812Y1937D02*
X1823Y1937D01*
X1899Y1937D02*
X1910Y1937D01*
X1947Y1937D02*
X1959Y1937D01*
X1987Y1937D02*
X1998Y1937D01*
X2333Y1937D02*
X2346Y1937D01*
X2376Y1937D02*
X2387Y1937D01*
X2437Y1937D02*
X2450Y1937D01*
X2483Y1937D02*
X2495Y1937D01*
X1812Y1936D02*
X1823Y1936D01*
X1899Y1936D02*
X1910Y1936D01*
X1947Y1936D02*
X1959Y1936D01*
X1987Y1936D02*
X1998Y1936D01*
X2332Y1936D02*
X2346Y1936D01*
X2376Y1936D02*
X2387Y1936D01*
X2437Y1936D02*
X2451Y1936D01*
X2483Y1936D02*
X2495Y1936D01*
X1812Y1935D02*
X1823Y1935D01*
X1899Y1935D02*
X1910Y1935D01*
X1947Y1935D02*
X1959Y1935D01*
X1987Y1935D02*
X1998Y1935D01*
X2332Y1935D02*
X2345Y1935D01*
X2376Y1935D02*
X2387Y1935D01*
X2437Y1935D02*
X2452Y1935D01*
X2483Y1935D02*
X2495Y1935D01*
X1812Y1934D02*
X1823Y1934D01*
X1899Y1934D02*
X1910Y1934D01*
X1947Y1934D02*
X1959Y1934D01*
X1987Y1934D02*
X1998Y1934D01*
X2331Y1934D02*
X2344Y1934D01*
X2376Y1934D02*
X2387Y1934D01*
X2438Y1934D02*
X2454Y1934D01*
X2483Y1934D02*
X2495Y1934D01*
X1812Y1933D02*
X1823Y1933D01*
X1899Y1933D02*
X1910Y1933D01*
X1947Y1933D02*
X1959Y1933D01*
X1987Y1933D02*
X1998Y1933D01*
X2330Y1933D02*
X2344Y1933D01*
X2376Y1933D02*
X2387Y1933D01*
X2439Y1933D02*
X2457Y1933D01*
X2483Y1933D02*
X2495Y1933D01*
X1812Y1932D02*
X1823Y1932D01*
X1899Y1932D02*
X1910Y1932D01*
X1947Y1932D02*
X1959Y1932D01*
X1987Y1932D02*
X1998Y1932D01*
X2330Y1932D02*
X2343Y1932D01*
X2376Y1932D02*
X2387Y1932D01*
X2439Y1932D02*
X2495Y1932D01*
X1812Y1931D02*
X1823Y1931D01*
X1899Y1931D02*
X1910Y1931D01*
X1947Y1931D02*
X1959Y1931D01*
X1987Y1931D02*
X1999Y1931D01*
X2329Y1931D02*
X2343Y1931D01*
X2376Y1931D02*
X2387Y1931D01*
X2440Y1931D02*
X2495Y1931D01*
X1812Y1930D02*
X1824Y1930D01*
X1899Y1930D02*
X1910Y1930D01*
X1947Y1930D02*
X1959Y1930D01*
X1987Y1930D02*
X1999Y1930D01*
X2329Y1930D02*
X2342Y1930D01*
X2376Y1930D02*
X2387Y1930D01*
X2441Y1930D02*
X2495Y1930D01*
X1812Y1929D02*
X1825Y1929D01*
X1899Y1929D02*
X1910Y1929D01*
X1947Y1929D02*
X1959Y1929D01*
X1987Y1929D02*
X2000Y1929D01*
X2328Y1929D02*
X2341Y1929D01*
X2376Y1929D02*
X2387Y1929D01*
X2442Y1929D02*
X2495Y1929D01*
X1813Y1928D02*
X1826Y1928D01*
X1899Y1928D02*
X1910Y1928D01*
X1947Y1928D02*
X1959Y1928D01*
X1988Y1928D02*
X2001Y1928D01*
X2328Y1928D02*
X2341Y1928D01*
X2376Y1928D02*
X2387Y1928D01*
X2442Y1928D02*
X2495Y1928D01*
X1813Y1927D02*
X1854Y1927D01*
X1899Y1927D02*
X1911Y1927D01*
X1947Y1927D02*
X1959Y1927D01*
X1988Y1927D02*
X2030Y1927D01*
X2328Y1927D02*
X2340Y1927D01*
X2376Y1927D02*
X2387Y1927D01*
X2444Y1927D02*
X2495Y1927D01*
X1813Y1926D02*
X1856Y1926D01*
X1899Y1926D02*
X1911Y1926D01*
X1947Y1926D02*
X1959Y1926D01*
X1988Y1926D02*
X2032Y1926D01*
X2328Y1926D02*
X2340Y1926D01*
X2376Y1926D02*
X2387Y1926D01*
X2445Y1926D02*
X2495Y1926D01*
X1814Y1925D02*
X1857Y1925D01*
X1899Y1925D02*
X1912Y1925D01*
X1946Y1925D02*
X1958Y1925D01*
X1989Y1925D02*
X2033Y1925D01*
X2328Y1925D02*
X2339Y1925D01*
X2376Y1925D02*
X2387Y1925D01*
X2446Y1925D02*
X2495Y1925D01*
X1814Y1924D02*
X1858Y1924D01*
X1900Y1924D02*
X1912Y1924D01*
X1946Y1924D02*
X1958Y1924D01*
X1989Y1924D02*
X2033Y1924D01*
X2329Y1924D02*
X2339Y1924D01*
X2377Y1924D02*
X2386Y1924D01*
X2448Y1924D02*
X2495Y1924D01*
X1815Y1923D02*
X1859Y1923D01*
X1900Y1923D02*
X1912Y1923D01*
X1945Y1923D02*
X1958Y1923D01*
X1990Y1923D02*
X2034Y1923D01*
X2329Y1923D02*
X2338Y1923D01*
X2377Y1923D02*
X2386Y1923D01*
X2449Y1923D02*
X2495Y1923D01*
X1816Y1922D02*
X1859Y1922D01*
X1901Y1922D02*
X1913Y1922D01*
X1945Y1922D02*
X1957Y1922D01*
X1991Y1922D02*
X2034Y1922D01*
X2330Y1922D02*
X2337Y1922D01*
X2378Y1922D02*
X2385Y1922D01*
X2452Y1922D02*
X2495Y1922D01*
X1816Y1921D02*
X1859Y1921D01*
X1901Y1921D02*
X1913Y1921D01*
X1945Y1921D02*
X1957Y1921D01*
X1991Y1921D02*
X2034Y1921D01*
X2332Y1921D02*
X2335Y1921D01*
X2380Y1921D02*
X2383Y1921D01*
X2455Y1921D02*
X2494Y1921D01*
X1816Y1920D02*
X1859Y1920D01*
X1901Y1920D02*
X1914Y1920D01*
X1944Y1920D02*
X1956Y1920D01*
X1991Y1920D02*
X2034Y1920D01*
X1815Y1919D02*
X1859Y1919D01*
X1902Y1919D02*
X1914Y1919D01*
X1944Y1919D02*
X1956Y1919D01*
X1990Y1919D02*
X2034Y1919D01*
X1814Y1918D02*
X1858Y1918D01*
X1902Y1918D02*
X1915Y1918D01*
X1943Y1918D02*
X1956Y1918D01*
X1989Y1918D02*
X2033Y1918D01*
X1814Y1917D02*
X1857Y1917D01*
X1903Y1917D02*
X1915Y1917D01*
X1943Y1917D02*
X1955Y1917D01*
X1989Y1917D02*
X2033Y1917D01*
X1813Y1916D02*
X1856Y1916D01*
X1903Y1916D02*
X1916Y1916D01*
X1942Y1916D02*
X1955Y1916D01*
X1988Y1916D02*
X2031Y1916D01*
X1813Y1915D02*
X1853Y1915D01*
X1904Y1915D02*
X1916Y1915D01*
X1942Y1915D02*
X1954Y1915D01*
X1988Y1915D02*
X2028Y1915D01*
X1812Y1914D02*
X1826Y1914D01*
X1904Y1914D02*
X1916Y1914D01*
X1941Y1914D02*
X1954Y1914D01*
X1988Y1914D02*
X2001Y1914D01*
X1812Y1913D02*
X1825Y1913D01*
X1905Y1913D02*
X1917Y1913D01*
X1941Y1913D02*
X1953Y1913D01*
X1987Y1913D02*
X2000Y1913D01*
X1812Y1912D02*
X1824Y1912D01*
X1905Y1912D02*
X1917Y1912D01*
X1941Y1912D02*
X1953Y1912D01*
X1987Y1912D02*
X1999Y1912D01*
X1812Y1911D02*
X1823Y1911D01*
X1905Y1911D02*
X1918Y1911D01*
X1940Y1911D02*
X1953Y1911D01*
X1987Y1911D02*
X1999Y1911D01*
X1812Y1910D02*
X1823Y1910D01*
X1906Y1910D02*
X1918Y1910D01*
X1940Y1910D02*
X1952Y1910D01*
X1987Y1910D02*
X1998Y1910D01*
X1812Y1909D02*
X1823Y1909D01*
X1906Y1909D02*
X1919Y1909D01*
X1939Y1909D02*
X1952Y1909D01*
X1987Y1909D02*
X1998Y1909D01*
X1812Y1908D02*
X1823Y1908D01*
X1907Y1908D02*
X1919Y1908D01*
X1939Y1908D02*
X1951Y1908D01*
X1987Y1908D02*
X1998Y1908D01*
X1812Y1907D02*
X1823Y1907D01*
X1907Y1907D02*
X1919Y1907D01*
X1938Y1907D02*
X1951Y1907D01*
X1987Y1907D02*
X1998Y1907D01*
X1812Y1906D02*
X1823Y1906D01*
X1908Y1906D02*
X1920Y1906D01*
X1938Y1906D02*
X1950Y1906D01*
X1987Y1906D02*
X1998Y1906D01*
X1812Y1905D02*
X1823Y1905D01*
X1908Y1905D02*
X1920Y1905D01*
X1938Y1905D02*
X1950Y1905D01*
X1987Y1905D02*
X1998Y1905D01*
X1812Y1904D02*
X1823Y1904D01*
X1908Y1904D02*
X1921Y1904D01*
X1937Y1904D02*
X1949Y1904D01*
X1987Y1904D02*
X1998Y1904D01*
X1812Y1903D02*
X1823Y1903D01*
X1909Y1903D02*
X1921Y1903D01*
X1937Y1903D02*
X1949Y1903D01*
X1987Y1903D02*
X1998Y1903D01*
X1812Y1902D02*
X1823Y1902D01*
X1909Y1902D02*
X1922Y1902D01*
X1936Y1902D02*
X1949Y1902D01*
X1987Y1902D02*
X1998Y1902D01*
X1812Y1901D02*
X1823Y1901D01*
X1910Y1901D02*
X1922Y1901D01*
X1936Y1901D02*
X1948Y1901D01*
X1987Y1901D02*
X1998Y1901D01*
X1812Y1900D02*
X1823Y1900D01*
X1910Y1900D02*
X1923Y1900D01*
X1935Y1900D02*
X1948Y1900D01*
X1987Y1900D02*
X1998Y1900D01*
X1812Y1899D02*
X1823Y1899D01*
X1911Y1899D02*
X1923Y1899D01*
X1935Y1899D02*
X1947Y1899D01*
X1987Y1899D02*
X1998Y1899D01*
X1812Y1898D02*
X1823Y1898D01*
X1911Y1898D02*
X1923Y1898D01*
X1935Y1898D02*
X1947Y1898D01*
X1987Y1898D02*
X1998Y1898D01*
X1812Y1897D02*
X1823Y1897D01*
X1912Y1897D02*
X1924Y1897D01*
X1934Y1897D02*
X1946Y1897D01*
X1987Y1897D02*
X1998Y1897D01*
X1812Y1896D02*
X1823Y1896D01*
X1912Y1896D02*
X1924Y1896D01*
X1934Y1896D02*
X1946Y1896D01*
X1987Y1896D02*
X1998Y1896D01*
X1812Y1895D02*
X1823Y1895D01*
X1912Y1895D02*
X1925Y1895D01*
X1933Y1895D02*
X1946Y1895D01*
X1987Y1895D02*
X1998Y1895D01*
X1812Y1894D02*
X1823Y1894D01*
X1913Y1894D02*
X1925Y1894D01*
X1933Y1894D02*
X1945Y1894D01*
X1987Y1894D02*
X1998Y1894D01*
X1812Y1893D02*
X1823Y1893D01*
X1913Y1893D02*
X1926Y1893D01*
X1932Y1893D02*
X1945Y1893D01*
X1987Y1893D02*
X1998Y1893D01*
X1812Y1892D02*
X1823Y1892D01*
X1914Y1892D02*
X1926Y1892D01*
X1932Y1892D02*
X1944Y1892D01*
X1987Y1892D02*
X1998Y1892D01*
X1812Y1891D02*
X1823Y1891D01*
X1914Y1891D02*
X1926Y1891D01*
X1932Y1891D02*
X1944Y1891D01*
X1987Y1891D02*
X1998Y1891D01*
X1812Y1890D02*
X1823Y1890D01*
X1915Y1890D02*
X1927Y1890D01*
X1931Y1890D02*
X1943Y1890D01*
X1987Y1890D02*
X1998Y1890D01*
X1812Y1889D02*
X1823Y1889D01*
X1915Y1889D02*
X1927Y1889D01*
X1931Y1889D02*
X1943Y1889D01*
X1987Y1889D02*
X1998Y1889D01*
X1812Y1888D02*
X1823Y1888D01*
X1915Y1888D02*
X1928Y1888D01*
X1930Y1888D02*
X1942Y1888D01*
X1987Y1888D02*
X1998Y1888D01*
X1812Y1887D02*
X1823Y1887D01*
X1916Y1887D02*
X1928Y1887D01*
X1930Y1887D02*
X1942Y1887D01*
X1987Y1887D02*
X1998Y1887D01*
X1812Y1886D02*
X1865Y1886D01*
X1916Y1886D02*
X1942Y1886D01*
X1987Y1886D02*
X2040Y1886D01*
X1812Y1885D02*
X1868Y1885D01*
X1917Y1885D02*
X1941Y1885D01*
X1987Y1885D02*
X2043Y1885D01*
X1812Y1884D02*
X1869Y1884D01*
X1917Y1884D02*
X1941Y1884D01*
X1987Y1884D02*
X2044Y1884D01*
X1812Y1883D02*
X1870Y1883D01*
X1918Y1883D02*
X1940Y1883D01*
X1987Y1883D02*
X2045Y1883D01*
X1812Y1882D02*
X1871Y1882D01*
X1918Y1882D02*
X1940Y1882D01*
X1988Y1882D02*
X2046Y1882D01*
X1813Y1881D02*
X1871Y1881D01*
X1919Y1881D02*
X1939Y1881D01*
X1988Y1881D02*
X2046Y1881D01*
X1813Y1880D02*
X1871Y1880D01*
X1919Y1880D02*
X1939Y1880D01*
X1989Y1880D02*
X2046Y1880D01*
X1814Y1879D02*
X1871Y1879D01*
X1919Y1879D02*
X1939Y1879D01*
X1989Y1879D02*
X2046Y1879D01*
X1815Y1878D02*
X1871Y1878D01*
X1920Y1878D02*
X1938Y1878D01*
X1990Y1878D02*
X2046Y1878D01*
X1816Y1877D02*
X1870Y1877D01*
X1920Y1877D02*
X1938Y1877D01*
X1991Y1877D02*
X2045Y1877D01*
X1817Y1876D02*
X1869Y1876D01*
X1921Y1876D02*
X1937Y1876D01*
X1992Y1876D02*
X2045Y1876D01*
X1819Y1875D02*
X1868Y1875D01*
X1922Y1875D02*
X1936Y1875D01*
X1994Y1875D02*
X2043Y1875D01*
X1822Y1874D02*
X1866Y1874D01*
X1924Y1874D02*
X1934Y1874D01*
X1997Y1874D02*
X2042Y1874D01*
X948Y1072D02*
X952Y1072D01*
X946Y1071D02*
X954Y1071D01*
X945Y1070D02*
X956Y1070D01*
X944Y1069D02*
X957Y1069D01*
X943Y1068D02*
X957Y1068D01*
X942Y1067D02*
X958Y1067D01*
X942Y1066D02*
X958Y1066D01*
X942Y1065D02*
X959Y1065D01*
X942Y1064D02*
X959Y1064D01*
X942Y1063D02*
X959Y1063D01*
X942Y1062D02*
X959Y1062D01*
X942Y1061D02*
X959Y1061D01*
X942Y1060D02*
X959Y1060D01*
X942Y1059D02*
X959Y1059D01*
X942Y1058D02*
X959Y1058D01*
X942Y1057D02*
X959Y1057D01*
X942Y1056D02*
X959Y1056D01*
X942Y1055D02*
X959Y1055D01*
X942Y1054D02*
X959Y1054D01*
X942Y1053D02*
X959Y1053D01*
X942Y1052D02*
X959Y1052D01*
X942Y1051D02*
X959Y1051D01*
X942Y1050D02*
X959Y1050D01*
X942Y1049D02*
X959Y1049D01*
X942Y1048D02*
X959Y1048D01*
X942Y1047D02*
X959Y1047D01*
X942Y1046D02*
X959Y1046D01*
X942Y1045D02*
X959Y1045D01*
X942Y1044D02*
X959Y1044D01*
X942Y1043D02*
X959Y1043D01*
X942Y1042D02*
X959Y1042D01*
X942Y1041D02*
X959Y1041D01*
X942Y1040D02*
X959Y1040D01*
X942Y1039D02*
X959Y1039D01*
X942Y1038D02*
X959Y1038D01*
X941Y1037D02*
X959Y1037D01*
X911Y1036D02*
X989Y1036D01*
X910Y1035D02*
X991Y1035D01*
X909Y1034D02*
X992Y1034D01*
X908Y1033D02*
X993Y1033D01*
X907Y1032D02*
X993Y1032D01*
X907Y1031D02*
X994Y1031D01*
X906Y1030D02*
X994Y1030D01*
X906Y1029D02*
X994Y1029D01*
X906Y1028D02*
X994Y1028D01*
X906Y1027D02*
X994Y1027D01*
X906Y1026D02*
X994Y1026D01*
X906Y1025D02*
X994Y1025D01*
X907Y1024D02*
X994Y1024D01*
X907Y1023D02*
X993Y1023D01*
X908Y1022D02*
X993Y1022D01*
X909Y1021D02*
X992Y1021D01*
X910Y1020D02*
X990Y1020D01*
X912Y1019D02*
X988Y1019D01*
X942Y1018D02*
X959Y1018D01*
X942Y1017D02*
X959Y1017D01*
X942Y1016D02*
X959Y1016D01*
X942Y1015D02*
X959Y1015D01*
X942Y1014D02*
X959Y1014D01*
X942Y1013D02*
X959Y1013D01*
X942Y1012D02*
X959Y1012D01*
X942Y1011D02*
X959Y1011D01*
X942Y1010D02*
X959Y1010D01*
X942Y1009D02*
X959Y1009D01*
X942Y1008D02*
X959Y1008D01*
X942Y1007D02*
X959Y1007D01*
X942Y1006D02*
X959Y1006D01*
X942Y1005D02*
X959Y1005D01*
X942Y1004D02*
X959Y1004D01*
X942Y1003D02*
X959Y1003D01*
X942Y1002D02*
X959Y1002D01*
X942Y1001D02*
X959Y1001D01*
X942Y1000D02*
X959Y1000D01*
X942Y999D02*
X959Y999D01*
X942Y998D02*
X959Y998D01*
X942Y997D02*
X959Y997D01*
X942Y996D02*
X959Y996D01*
X942Y995D02*
X959Y995D01*
X942Y994D02*
X959Y994D01*
X942Y993D02*
X959Y993D01*
X942Y992D02*
X959Y992D01*
X942Y991D02*
X959Y991D01*
X942Y990D02*
X959Y990D01*
X942Y989D02*
X958Y989D01*
X943Y988D02*
X958Y988D01*
X943Y987D02*
X957Y987D01*
X944Y986D02*
X957Y986D01*
X945Y985D02*
X956Y985D01*
X946Y984D02*
X954Y984D01*
X949Y983D02*
X952Y983D01*
X853Y944D02*
X864Y944D01*
X852Y943D02*
X866Y943D01*
X851Y942D02*
X866Y942D01*
X851Y941D02*
X867Y941D01*
X850Y940D02*
X867Y940D01*
X850Y939D02*
X868Y939D01*
X926Y939D02*
X964Y939D01*
X850Y938D02*
X868Y938D01*
X923Y938D02*
X966Y938D01*
X850Y937D02*
X868Y937D01*
X921Y937D02*
X967Y937D01*
X850Y936D02*
X868Y936D01*
X920Y936D02*
X969Y936D01*
X850Y935D02*
X868Y935D01*
X919Y935D02*
X970Y935D01*
X850Y934D02*
X868Y934D01*
X918Y934D02*
X970Y934D01*
X850Y933D02*
X868Y933D01*
X917Y933D02*
X971Y933D01*
X851Y932D02*
X867Y932D01*
X916Y932D02*
X972Y932D01*
X851Y931D02*
X867Y931D01*
X916Y931D02*
X972Y931D01*
X852Y930D02*
X866Y930D01*
X915Y930D02*
X972Y930D01*
X853Y929D02*
X865Y929D01*
X915Y929D02*
X973Y929D01*
X854Y928D02*
X864Y928D01*
X914Y928D02*
X973Y928D01*
X914Y927D02*
X927Y927D01*
X961Y927D02*
X973Y927D01*
X914Y926D02*
X926Y926D01*
X962Y926D02*
X973Y926D01*
X914Y925D02*
X925Y925D01*
X962Y925D02*
X973Y925D01*
X914Y924D02*
X925Y924D01*
X961Y924D02*
X973Y924D01*
X914Y923D02*
X925Y923D01*
X960Y923D02*
X973Y923D01*
X914Y922D02*
X925Y922D01*
X959Y922D02*
X972Y922D01*
X914Y921D02*
X924Y921D01*
X958Y921D02*
X972Y921D01*
X915Y920D02*
X924Y920D01*
X958Y920D02*
X972Y920D01*
X916Y919D02*
X923Y919D01*
X957Y919D02*
X971Y919D01*
X917Y918D02*
X922Y918D01*
X956Y918D02*
X971Y918D01*
X955Y917D02*
X970Y917D01*
X954Y916D02*
X969Y916D01*
X954Y915D02*
X968Y915D01*
X744Y914D02*
X744Y914D01*
X766Y914D02*
X776Y914D01*
X856Y914D02*
X874Y914D01*
X953Y914D02*
X968Y914D01*
X742Y913D02*
X747Y913D01*
X761Y913D02*
X782Y913D01*
X853Y913D02*
X877Y913D01*
X952Y913D02*
X967Y913D01*
X740Y912D02*
X748Y912D01*
X759Y912D02*
X784Y912D01*
X852Y912D02*
X878Y912D01*
X951Y912D02*
X966Y912D01*
X740Y911D02*
X749Y911D01*
X757Y911D02*
X785Y911D01*
X851Y911D02*
X879Y911D01*
X951Y911D02*
X965Y911D01*
X739Y910D02*
X749Y910D01*
X756Y910D02*
X787Y910D01*
X851Y910D02*
X879Y910D01*
X950Y910D02*
X965Y910D01*
X739Y909D02*
X750Y909D01*
X755Y909D02*
X788Y909D01*
X850Y909D02*
X879Y909D01*
X949Y909D02*
X964Y909D01*
X739Y908D02*
X750Y908D01*
X754Y908D02*
X789Y908D01*
X850Y908D02*
X880Y908D01*
X948Y908D02*
X963Y908D01*
X739Y907D02*
X750Y907D01*
X752Y907D02*
X790Y907D01*
X850Y907D02*
X879Y907D01*
X947Y907D02*
X962Y907D01*
X739Y906D02*
X791Y906D01*
X850Y906D02*
X879Y906D01*
X947Y906D02*
X961Y906D01*
X739Y905D02*
X793Y905D01*
X850Y905D02*
X879Y905D01*
X946Y905D02*
X961Y905D01*
X739Y904D02*
X793Y904D01*
X850Y904D02*
X878Y904D01*
X945Y904D02*
X960Y904D01*
X739Y903D02*
X794Y903D01*
X850Y903D02*
X877Y903D01*
X944Y903D02*
X959Y903D01*
X739Y902D02*
X795Y902D01*
X850Y902D02*
X875Y902D01*
X944Y902D02*
X958Y902D01*
X739Y901D02*
X763Y901D01*
X779Y901D02*
X796Y901D01*
X850Y901D02*
X861Y901D01*
X943Y901D02*
X958Y901D01*
X739Y900D02*
X762Y900D01*
X781Y900D02*
X796Y900D01*
X850Y900D02*
X861Y900D01*
X942Y900D02*
X957Y900D01*
X739Y899D02*
X761Y899D01*
X782Y899D02*
X797Y899D01*
X850Y899D02*
X861Y899D01*
X941Y899D02*
X956Y899D01*
X739Y898D02*
X760Y898D01*
X783Y898D02*
X797Y898D01*
X850Y898D02*
X861Y898D01*
X940Y898D02*
X955Y898D01*
X739Y897D02*
X759Y897D01*
X784Y897D02*
X797Y897D01*
X850Y897D02*
X861Y897D01*
X940Y897D02*
X954Y897D01*
X739Y896D02*
X757Y896D01*
X785Y896D02*
X798Y896D01*
X850Y896D02*
X861Y896D01*
X939Y896D02*
X954Y896D01*
X739Y895D02*
X756Y895D01*
X786Y895D02*
X798Y895D01*
X850Y895D02*
X861Y895D01*
X938Y895D02*
X953Y895D01*
X739Y894D02*
X755Y894D01*
X786Y894D02*
X798Y894D01*
X850Y894D02*
X861Y894D01*
X937Y894D02*
X952Y894D01*
X739Y893D02*
X754Y893D01*
X787Y893D02*
X798Y893D01*
X850Y893D02*
X861Y893D01*
X937Y893D02*
X951Y893D01*
X739Y892D02*
X753Y892D01*
X787Y892D02*
X798Y892D01*
X850Y892D02*
X861Y892D01*
X936Y892D02*
X951Y892D01*
X739Y891D02*
X752Y891D01*
X787Y891D02*
X798Y891D01*
X850Y891D02*
X861Y891D01*
X935Y891D02*
X950Y891D01*
X739Y890D02*
X751Y890D01*
X787Y890D02*
X798Y890D01*
X850Y890D02*
X861Y890D01*
X934Y890D02*
X949Y890D01*
X739Y889D02*
X750Y889D01*
X787Y889D02*
X798Y889D01*
X850Y889D02*
X861Y889D01*
X933Y889D02*
X948Y889D01*
X739Y888D02*
X750Y888D01*
X787Y888D02*
X798Y888D01*
X850Y888D02*
X861Y888D01*
X933Y888D02*
X947Y888D01*
X739Y887D02*
X750Y887D01*
X787Y887D02*
X798Y887D01*
X850Y887D02*
X861Y887D01*
X932Y887D02*
X947Y887D01*
X739Y886D02*
X750Y886D01*
X787Y886D02*
X798Y886D01*
X850Y886D02*
X861Y886D01*
X931Y886D02*
X946Y886D01*
X739Y885D02*
X750Y885D01*
X787Y885D02*
X798Y885D01*
X850Y885D02*
X861Y885D01*
X930Y885D02*
X945Y885D01*
X739Y884D02*
X750Y884D01*
X787Y884D02*
X798Y884D01*
X850Y884D02*
X861Y884D01*
X930Y884D02*
X944Y884D01*
X739Y883D02*
X750Y883D01*
X787Y883D02*
X798Y883D01*
X850Y883D02*
X861Y883D01*
X929Y883D02*
X944Y883D01*
X739Y882D02*
X750Y882D01*
X787Y882D02*
X798Y882D01*
X850Y882D02*
X861Y882D01*
X928Y882D02*
X943Y882D01*
X739Y881D02*
X750Y881D01*
X787Y881D02*
X798Y881D01*
X850Y881D02*
X861Y881D01*
X927Y881D02*
X942Y881D01*
X739Y880D02*
X750Y880D01*
X787Y880D02*
X798Y880D01*
X850Y880D02*
X861Y880D01*
X926Y880D02*
X941Y880D01*
X739Y879D02*
X750Y879D01*
X787Y879D02*
X798Y879D01*
X850Y879D02*
X861Y879D01*
X926Y879D02*
X940Y879D01*
X739Y878D02*
X750Y878D01*
X787Y878D02*
X798Y878D01*
X850Y878D02*
X861Y878D01*
X925Y878D02*
X940Y878D01*
X739Y877D02*
X750Y877D01*
X787Y877D02*
X798Y877D01*
X850Y877D02*
X861Y877D01*
X924Y877D02*
X939Y877D01*
X739Y876D02*
X750Y876D01*
X787Y876D02*
X798Y876D01*
X850Y876D02*
X861Y876D01*
X923Y876D02*
X938Y876D01*
X739Y875D02*
X750Y875D01*
X787Y875D02*
X798Y875D01*
X850Y875D02*
X861Y875D01*
X923Y875D02*
X937Y875D01*
X739Y874D02*
X751Y874D01*
X787Y874D02*
X798Y874D01*
X850Y874D02*
X861Y874D01*
X922Y874D02*
X937Y874D01*
X739Y873D02*
X752Y873D01*
X787Y873D02*
X798Y873D01*
X850Y873D02*
X861Y873D01*
X921Y873D02*
X936Y873D01*
X739Y872D02*
X753Y872D01*
X787Y872D02*
X798Y872D01*
X850Y872D02*
X861Y872D01*
X920Y872D02*
X935Y872D01*
X739Y871D02*
X754Y871D01*
X787Y871D02*
X798Y871D01*
X850Y871D02*
X861Y871D01*
X919Y871D02*
X934Y871D01*
X739Y870D02*
X755Y870D01*
X786Y870D02*
X798Y870D01*
X850Y870D02*
X861Y870D01*
X919Y870D02*
X933Y870D01*
X739Y869D02*
X757Y869D01*
X786Y869D02*
X798Y869D01*
X850Y869D02*
X861Y869D01*
X918Y869D02*
X933Y869D01*
X739Y868D02*
X758Y868D01*
X785Y868D02*
X797Y868D01*
X850Y868D02*
X861Y868D01*
X917Y868D02*
X932Y868D01*
X739Y867D02*
X759Y867D01*
X784Y867D02*
X797Y867D01*
X850Y867D02*
X861Y867D01*
X916Y867D02*
X931Y867D01*
X965Y867D02*
X970Y867D01*
X739Y866D02*
X760Y866D01*
X783Y866D02*
X797Y866D01*
X850Y866D02*
X861Y866D01*
X916Y866D02*
X930Y866D01*
X964Y866D02*
X971Y866D01*
X739Y865D02*
X761Y865D01*
X782Y865D02*
X796Y865D01*
X850Y865D02*
X861Y865D01*
X915Y865D02*
X930Y865D01*
X963Y865D02*
X972Y865D01*
X739Y864D02*
X762Y864D01*
X781Y864D02*
X796Y864D01*
X850Y864D02*
X861Y864D01*
X915Y864D02*
X929Y864D01*
X962Y864D02*
X973Y864D01*
X739Y863D02*
X764Y863D01*
X779Y863D02*
X795Y863D01*
X850Y863D02*
X861Y863D01*
X914Y863D02*
X928Y863D01*
X962Y863D02*
X973Y863D01*
X739Y862D02*
X795Y862D01*
X850Y862D02*
X861Y862D01*
X914Y862D02*
X927Y862D01*
X962Y862D02*
X973Y862D01*
X739Y861D02*
X794Y861D01*
X850Y861D02*
X861Y861D01*
X914Y861D02*
X926Y861D01*
X962Y861D02*
X973Y861D01*
X739Y860D02*
X793Y860D01*
X850Y860D02*
X861Y860D01*
X914Y860D02*
X926Y860D01*
X961Y860D02*
X973Y860D01*
X739Y859D02*
X792Y859D01*
X850Y859D02*
X861Y859D01*
X914Y859D02*
X925Y859D01*
X961Y859D02*
X973Y859D01*
X739Y858D02*
X791Y858D01*
X850Y858D02*
X861Y858D01*
X914Y858D02*
X925Y858D01*
X960Y858D02*
X973Y858D01*
X739Y857D02*
X750Y857D01*
X753Y857D02*
X790Y857D01*
X836Y857D02*
X876Y857D01*
X914Y857D02*
X972Y857D01*
X739Y856D02*
X750Y856D01*
X754Y856D02*
X789Y856D01*
X835Y856D02*
X877Y856D01*
X914Y856D02*
X972Y856D01*
X739Y855D02*
X750Y855D01*
X755Y855D02*
X787Y855D01*
X834Y855D02*
X878Y855D01*
X915Y855D02*
X972Y855D01*
X739Y854D02*
X750Y854D01*
X756Y854D02*
X786Y854D01*
X833Y854D02*
X879Y854D01*
X915Y854D02*
X971Y854D01*
X739Y853D02*
X750Y853D01*
X758Y853D02*
X785Y853D01*
X832Y853D02*
X879Y853D01*
X915Y853D02*
X971Y853D01*
X739Y852D02*
X750Y852D01*
X760Y852D02*
X783Y852D01*
X832Y852D02*
X880Y852D01*
X916Y852D02*
X970Y852D01*
X739Y851D02*
X750Y851D01*
X763Y851D02*
X780Y851D01*
X832Y851D02*
X880Y851D01*
X917Y851D02*
X969Y851D01*
X739Y850D02*
X750Y850D01*
X832Y850D02*
X879Y850D01*
X917Y850D02*
X968Y850D01*
X739Y849D02*
X750Y849D01*
X833Y849D02*
X879Y849D01*
X918Y849D02*
X967Y849D01*
X739Y848D02*
X750Y848D01*
X833Y848D02*
X878Y848D01*
X919Y848D02*
X966Y848D01*
X739Y847D02*
X750Y847D01*
X834Y847D02*
X878Y847D01*
X921Y847D02*
X964Y847D01*
X739Y846D02*
X750Y846D01*
X836Y846D02*
X876Y846D01*
X923Y846D02*
X961Y846D01*
X739Y845D02*
X750Y845D01*
X739Y844D02*
X750Y844D01*
X739Y843D02*
X750Y843D01*
X739Y842D02*
X750Y842D01*
X739Y841D02*
X750Y841D01*
X739Y840D02*
X750Y840D01*
X739Y839D02*
X750Y839D01*
X739Y838D02*
X751Y838D01*
X739Y837D02*
X752Y837D01*
X739Y836D02*
X753Y836D01*
X740Y835D02*
X754Y835D01*
X740Y834D02*
X755Y834D01*
X741Y833D02*
X757Y833D01*
X741Y832D02*
X759Y832D01*
X742Y831D02*
X789Y831D01*
X743Y830D02*
X790Y830D01*
X744Y829D02*
X791Y829D01*
X745Y828D02*
X791Y828D01*
X746Y827D02*
X792Y827D01*
X747Y826D02*
X792Y826D01*
X748Y825D02*
X792Y825D01*
X749Y824D02*
X792Y824D01*
X751Y823D02*
X791Y823D01*
X752Y822D02*
X791Y822D01*
X754Y821D02*
X790Y821D01*
X757Y820D02*
X788Y820D01*
X908Y773D02*
X985Y773D01*
X906Y772D02*
X987Y772D01*
X905Y771D02*
X988Y771D01*
X904Y770D02*
X989Y770D01*
X903Y769D02*
X990Y769D01*
X3183Y769D02*
X3185Y769D01*
X3254Y769D02*
X3257Y769D01*
X903Y768D02*
X990Y768D01*
X3181Y768D02*
X3187Y768D01*
X3253Y768D02*
X3259Y768D01*
X902Y767D02*
X990Y767D01*
X3180Y767D02*
X3188Y767D01*
X3252Y767D02*
X3260Y767D01*
X902Y766D02*
X991Y766D01*
X3179Y766D02*
X3188Y766D01*
X3251Y766D02*
X3260Y766D01*
X902Y765D02*
X991Y765D01*
X3179Y765D02*
X3188Y765D01*
X3251Y765D02*
X3260Y765D01*
X902Y764D02*
X991Y764D01*
X3179Y764D02*
X3189Y764D01*
X3251Y764D02*
X3261Y764D01*
X902Y763D02*
X991Y763D01*
X3179Y763D02*
X3189Y763D01*
X3251Y763D02*
X3261Y763D01*
X902Y762D02*
X991Y762D01*
X3179Y762D02*
X3189Y762D01*
X3251Y762D02*
X3261Y762D01*
X902Y761D02*
X991Y761D01*
X3179Y761D02*
X3189Y761D01*
X3251Y761D02*
X3261Y761D01*
X902Y760D02*
X991Y760D01*
X3179Y760D02*
X3189Y760D01*
X3251Y760D02*
X3261Y760D01*
X902Y759D02*
X991Y759D01*
X3179Y759D02*
X3189Y759D01*
X3251Y759D02*
X3261Y759D01*
X902Y758D02*
X991Y758D01*
X3179Y758D02*
X3189Y758D01*
X3251Y758D02*
X3261Y758D01*
X902Y757D02*
X991Y757D01*
X3179Y757D02*
X3189Y757D01*
X3251Y757D02*
X3261Y757D01*
X902Y756D02*
X991Y756D01*
X3179Y756D02*
X3189Y756D01*
X3251Y756D02*
X3261Y756D01*
X902Y755D02*
X990Y755D01*
X3179Y755D02*
X3189Y755D01*
X3251Y755D02*
X3261Y755D01*
X903Y754D02*
X990Y754D01*
X3179Y754D02*
X3189Y754D01*
X3251Y754D02*
X3261Y754D01*
X903Y753D02*
X990Y753D01*
X3179Y753D02*
X3189Y753D01*
X3251Y753D02*
X3261Y753D01*
X904Y752D02*
X989Y752D01*
X3179Y752D02*
X3189Y752D01*
X3251Y752D02*
X3261Y752D01*
X905Y751D02*
X988Y751D01*
X3179Y751D02*
X3189Y751D01*
X3251Y751D02*
X3261Y751D01*
X906Y750D02*
X987Y750D01*
X3179Y750D02*
X3189Y750D01*
X3251Y750D02*
X3261Y750D01*
X907Y749D02*
X986Y749D01*
X3179Y749D02*
X3189Y749D01*
X3251Y749D02*
X3261Y749D01*
X910Y748D02*
X983Y748D01*
X3179Y748D02*
X3189Y748D01*
X3251Y748D02*
X3261Y748D01*
X3179Y747D02*
X3189Y747D01*
X3251Y747D02*
X3261Y747D01*
X3179Y746D02*
X3189Y746D01*
X3251Y746D02*
X3261Y746D01*
X3179Y745D02*
X3189Y745D01*
X3251Y745D02*
X3261Y745D01*
X3179Y744D02*
X3189Y744D01*
X3251Y744D02*
X3261Y744D01*
X3179Y743D02*
X3189Y743D01*
X3251Y743D02*
X3261Y743D01*
X3179Y742D02*
X3189Y742D01*
X3250Y742D02*
X3260Y742D01*
X3179Y741D02*
X3190Y741D01*
X3250Y741D02*
X3260Y741D01*
X3180Y740D02*
X3191Y740D01*
X3249Y740D02*
X3260Y740D01*
X3180Y739D02*
X3193Y739D01*
X3247Y739D02*
X3260Y739D01*
X3180Y738D02*
X3195Y738D01*
X3245Y738D02*
X3259Y738D01*
X3181Y737D02*
X3197Y737D01*
X3243Y737D02*
X3259Y737D01*
X3181Y736D02*
X3199Y736D01*
X3241Y736D02*
X3258Y736D01*
X3182Y735D02*
X3201Y735D01*
X3239Y735D02*
X3258Y735D01*
X3183Y734D02*
X3203Y734D01*
X3237Y734D02*
X3257Y734D01*
X3184Y733D02*
X3205Y733D01*
X3235Y733D02*
X3256Y733D01*
X3185Y732D02*
X3207Y732D01*
X3233Y732D02*
X3255Y732D01*
X3186Y731D02*
X3209Y731D01*
X3231Y731D02*
X3254Y731D01*
X3188Y730D02*
X3211Y730D01*
X3229Y730D02*
X3252Y730D01*
X3190Y729D02*
X3213Y729D01*
X3227Y729D02*
X3250Y729D01*
X3192Y728D02*
X3215Y728D01*
X3224Y728D02*
X3248Y728D01*
X3194Y727D02*
X3246Y727D01*
X3196Y726D02*
X3244Y726D01*
X3197Y725D02*
X3242Y725D01*
X3199Y724D02*
X3240Y724D01*
X3201Y723D02*
X3238Y723D01*
X3203Y722D02*
X3236Y722D01*
X3206Y721D02*
X3234Y721D01*
X3208Y720D02*
X3232Y720D01*
X3210Y719D02*
X3230Y719D01*
X3212Y718D02*
X3227Y718D01*
X3216Y717D02*
X3224Y717D01*
X3254Y692D02*
X3258Y692D01*
X3252Y691D02*
X3259Y691D01*
X3250Y690D02*
X3260Y690D01*
X3248Y689D02*
X3260Y689D01*
X3247Y688D02*
X3261Y688D01*
X3245Y687D02*
X3261Y687D01*
X3243Y686D02*
X3260Y686D01*
X3242Y685D02*
X3260Y685D01*
X3240Y684D02*
X3259Y684D01*
X3238Y683D02*
X3258Y683D01*
X3236Y682D02*
X3257Y682D01*
X2356Y681D02*
X2361Y681D01*
X2419Y681D02*
X2425Y681D01*
X2531Y681D02*
X2554Y681D01*
X2942Y681D02*
X2957Y681D01*
X2986Y681D02*
X3001Y681D01*
X3235Y681D02*
X3255Y681D01*
X2355Y680D02*
X2362Y680D01*
X2418Y680D02*
X2426Y680D01*
X2530Y680D02*
X2555Y680D01*
X2942Y680D02*
X2957Y680D01*
X2985Y680D02*
X3001Y680D01*
X3233Y680D02*
X3253Y680D01*
X2354Y679D02*
X2363Y679D01*
X2417Y679D02*
X2427Y679D01*
X2529Y679D02*
X2556Y679D01*
X2942Y679D02*
X2958Y679D01*
X2985Y679D02*
X3001Y679D01*
X3231Y679D02*
X3252Y679D01*
X2353Y678D02*
X2364Y678D01*
X2417Y678D02*
X2427Y678D01*
X2528Y678D02*
X2557Y678D01*
X2942Y678D02*
X2959Y678D01*
X2984Y678D02*
X3001Y678D01*
X3230Y678D02*
X3250Y678D01*
X2353Y677D02*
X2364Y677D01*
X2416Y677D02*
X2428Y677D01*
X2528Y677D02*
X2557Y677D01*
X2942Y677D02*
X2959Y677D01*
X2983Y677D02*
X3001Y677D01*
X3228Y677D02*
X3248Y677D01*
X2193Y676D02*
X2198Y676D01*
X2353Y676D02*
X2364Y676D01*
X2416Y676D02*
X2428Y676D01*
X2528Y676D02*
X2557Y676D01*
X2942Y676D02*
X2960Y676D01*
X2983Y676D02*
X3001Y676D01*
X3226Y676D02*
X3247Y676D01*
X2192Y675D02*
X2199Y675D01*
X2352Y675D02*
X2365Y675D01*
X2416Y675D02*
X2429Y675D01*
X2528Y675D02*
X2557Y675D01*
X2942Y675D02*
X2961Y675D01*
X2982Y675D02*
X3001Y675D01*
X3224Y675D02*
X3245Y675D01*
X2191Y674D02*
X2200Y674D01*
X2352Y674D02*
X2365Y674D01*
X2417Y674D02*
X2430Y674D01*
X2528Y674D02*
X2557Y674D01*
X2942Y674D02*
X2962Y674D01*
X2981Y674D02*
X3001Y674D01*
X3223Y674D02*
X3243Y674D01*
X2190Y673D02*
X2200Y673D01*
X2352Y673D02*
X2365Y673D01*
X2417Y673D02*
X2430Y673D01*
X2528Y673D02*
X2556Y673D01*
X2942Y673D02*
X2962Y673D01*
X2981Y673D02*
X3001Y673D01*
X3221Y673D02*
X3241Y673D01*
X2190Y672D02*
X2201Y672D01*
X2351Y672D02*
X2365Y672D01*
X2417Y672D02*
X2431Y672D01*
X2528Y672D02*
X2556Y672D01*
X2942Y672D02*
X2963Y672D01*
X2980Y672D02*
X3001Y672D01*
X3219Y672D02*
X3240Y672D01*
X2190Y671D02*
X2201Y671D01*
X2351Y671D02*
X2366Y671D01*
X2418Y671D02*
X2431Y671D01*
X2528Y671D02*
X2555Y671D01*
X2942Y671D02*
X2964Y671D01*
X2979Y671D02*
X3001Y671D01*
X3218Y671D02*
X3238Y671D01*
X2190Y670D02*
X2201Y670D01*
X2351Y670D02*
X2366Y670D01*
X2419Y670D02*
X2432Y670D01*
X2528Y670D02*
X2553Y670D01*
X2942Y670D02*
X2964Y670D01*
X2978Y670D02*
X3001Y670D01*
X3216Y670D02*
X3236Y670D01*
X2190Y669D02*
X2201Y669D01*
X2351Y669D02*
X2366Y669D01*
X2419Y669D02*
X2433Y669D01*
X2528Y669D02*
X2539Y669D01*
X2942Y669D02*
X2965Y669D01*
X2978Y669D02*
X3001Y669D01*
X3214Y669D02*
X3235Y669D01*
X2190Y668D02*
X2201Y668D01*
X2350Y668D02*
X2367Y668D01*
X2420Y668D02*
X2433Y668D01*
X2528Y668D02*
X2539Y668D01*
X2942Y668D02*
X2966Y668D01*
X2977Y668D02*
X3001Y668D01*
X3213Y668D02*
X3233Y668D01*
X2190Y667D02*
X2201Y667D01*
X2350Y667D02*
X2367Y667D01*
X2420Y667D02*
X2434Y667D01*
X2528Y667D02*
X2539Y667D01*
X2942Y667D02*
X2966Y667D01*
X2976Y667D02*
X3001Y667D01*
X3211Y667D02*
X3231Y667D01*
X2190Y666D02*
X2201Y666D01*
X2350Y666D02*
X2367Y666D01*
X2421Y666D02*
X2434Y666D01*
X2528Y666D02*
X2539Y666D01*
X2942Y666D02*
X2967Y666D01*
X2976Y666D02*
X3001Y666D01*
X3209Y666D02*
X3229Y666D01*
X2190Y665D02*
X2201Y665D01*
X2349Y665D02*
X2367Y665D01*
X2422Y665D02*
X2435Y665D01*
X2528Y665D02*
X2539Y665D01*
X2942Y665D02*
X2968Y665D01*
X2975Y665D02*
X3001Y665D01*
X3207Y665D02*
X3228Y665D01*
X2190Y664D02*
X2201Y664D01*
X2349Y664D02*
X2368Y664D01*
X2422Y664D02*
X2435Y664D01*
X2528Y664D02*
X2539Y664D01*
X2942Y664D02*
X2953Y664D01*
X2955Y664D02*
X2969Y664D01*
X2974Y664D02*
X2988Y664D01*
X2990Y664D02*
X3001Y664D01*
X3206Y664D02*
X3226Y664D01*
X2190Y663D02*
X2201Y663D01*
X2349Y663D02*
X2368Y663D01*
X2423Y663D02*
X2436Y663D01*
X2528Y663D02*
X2539Y663D01*
X2942Y663D02*
X2953Y663D01*
X2955Y663D02*
X2969Y663D01*
X2974Y663D02*
X2988Y663D01*
X2990Y663D02*
X3001Y663D01*
X3204Y663D02*
X3224Y663D01*
X2190Y662D02*
X2201Y662D01*
X2349Y662D02*
X2368Y662D01*
X2423Y662D02*
X2437Y662D01*
X2528Y662D02*
X2539Y662D01*
X2942Y662D02*
X2953Y662D01*
X2956Y662D02*
X2970Y662D01*
X2973Y662D02*
X2987Y662D01*
X2990Y662D02*
X3001Y662D01*
X3202Y662D02*
X3223Y662D01*
X2190Y661D02*
X2201Y661D01*
X2348Y661D02*
X2369Y661D01*
X2424Y661D02*
X2437Y661D01*
X2528Y661D02*
X2539Y661D01*
X2942Y661D02*
X2953Y661D01*
X2957Y661D02*
X2986Y661D01*
X2990Y661D02*
X3001Y661D01*
X3201Y661D02*
X3221Y661D01*
X2190Y660D02*
X2201Y660D01*
X2348Y660D02*
X2369Y660D01*
X2425Y660D02*
X2438Y660D01*
X2528Y660D02*
X2539Y660D01*
X2942Y660D02*
X2953Y660D01*
X2957Y660D02*
X2985Y660D01*
X2990Y660D02*
X3001Y660D01*
X3199Y660D02*
X3219Y660D01*
X2190Y659D02*
X2201Y659D01*
X2348Y659D02*
X2369Y659D01*
X2425Y659D02*
X2438Y659D01*
X2528Y659D02*
X2539Y659D01*
X2942Y659D02*
X2953Y659D01*
X2958Y659D02*
X2985Y659D01*
X2990Y659D02*
X3001Y659D01*
X3197Y659D02*
X3217Y659D01*
X2190Y658D02*
X2201Y658D01*
X2347Y658D02*
X2370Y658D01*
X2426Y658D02*
X2439Y658D01*
X2528Y658D02*
X2539Y658D01*
X2942Y658D02*
X2953Y658D01*
X2959Y658D02*
X2984Y658D01*
X2990Y658D02*
X3001Y658D01*
X3195Y658D02*
X3216Y658D01*
X2190Y657D02*
X2201Y657D01*
X2347Y657D02*
X2370Y657D01*
X2426Y657D02*
X2440Y657D01*
X2528Y657D02*
X2539Y657D01*
X2942Y657D02*
X2953Y657D01*
X2960Y657D02*
X2983Y657D01*
X2990Y657D02*
X3001Y657D01*
X3194Y657D02*
X3214Y657D01*
X2086Y656D02*
X2105Y656D01*
X2164Y656D02*
X2208Y656D01*
X2246Y656D02*
X2248Y656D01*
X2294Y656D02*
X2296Y656D01*
X2347Y656D02*
X2370Y656D01*
X2427Y656D02*
X2440Y656D01*
X2528Y656D02*
X2539Y656D01*
X2609Y656D02*
X2634Y656D01*
X2684Y656D02*
X2686Y656D01*
X2732Y656D02*
X2734Y656D01*
X2784Y656D02*
X2795Y656D01*
X2819Y656D02*
X2821Y656D01*
X2872Y656D02*
X2897Y656D01*
X2942Y656D02*
X2953Y656D01*
X2960Y656D02*
X2983Y656D01*
X2990Y656D02*
X3001Y656D01*
X3192Y656D02*
X3212Y656D01*
X2082Y655D02*
X2109Y655D01*
X2162Y655D02*
X2210Y655D01*
X2244Y655D02*
X2250Y655D01*
X2292Y655D02*
X2298Y655D01*
X2346Y655D02*
X2370Y655D01*
X2427Y655D02*
X2441Y655D01*
X2528Y655D02*
X2539Y655D01*
X2605Y655D02*
X2636Y655D01*
X2682Y655D02*
X2688Y655D01*
X2730Y655D02*
X2736Y655D01*
X2780Y655D02*
X2798Y655D01*
X2817Y655D02*
X2823Y655D01*
X2867Y655D02*
X2899Y655D01*
X2942Y655D02*
X2953Y655D01*
X2961Y655D02*
X2982Y655D01*
X2990Y655D02*
X3001Y655D01*
X3190Y655D02*
X3211Y655D01*
X2080Y654D02*
X2111Y654D01*
X2161Y654D02*
X2211Y654D01*
X2243Y654D02*
X2251Y654D01*
X2291Y654D02*
X2299Y654D01*
X2346Y654D02*
X2371Y654D01*
X2428Y654D02*
X2441Y654D01*
X2528Y654D02*
X2539Y654D01*
X2603Y654D02*
X2637Y654D01*
X2681Y654D02*
X2689Y654D01*
X2729Y654D02*
X2737Y654D01*
X2778Y654D02*
X2801Y654D01*
X2816Y654D02*
X2824Y654D01*
X2865Y654D02*
X2900Y654D01*
X2942Y654D02*
X2953Y654D01*
X2962Y654D02*
X2981Y654D01*
X2990Y654D02*
X3001Y654D01*
X3189Y654D02*
X3209Y654D01*
X2079Y653D02*
X2113Y653D01*
X2161Y653D02*
X2212Y653D01*
X2242Y653D02*
X2251Y653D01*
X2290Y653D02*
X2300Y653D01*
X2346Y653D02*
X2371Y653D01*
X2429Y653D02*
X2442Y653D01*
X2528Y653D02*
X2539Y653D01*
X2601Y653D02*
X2638Y653D01*
X2680Y653D02*
X2689Y653D01*
X2728Y653D02*
X2737Y653D01*
X2776Y653D02*
X2802Y653D01*
X2816Y653D02*
X2825Y653D01*
X2864Y653D02*
X2901Y653D01*
X2942Y653D02*
X2953Y653D01*
X2962Y653D02*
X2981Y653D01*
X2990Y653D02*
X3001Y653D01*
X3187Y653D02*
X3207Y653D01*
X2077Y652D02*
X2114Y652D01*
X2160Y652D02*
X2213Y652D01*
X2241Y652D02*
X2252Y652D01*
X2290Y652D02*
X2300Y652D01*
X2346Y652D02*
X2357Y652D01*
X2360Y652D02*
X2371Y652D01*
X2429Y652D02*
X2442Y652D01*
X2528Y652D02*
X2539Y652D01*
X2600Y652D02*
X2638Y652D01*
X2679Y652D02*
X2690Y652D01*
X2727Y652D02*
X2738Y652D01*
X2775Y652D02*
X2804Y652D01*
X2815Y652D02*
X2826Y652D01*
X2862Y652D02*
X2901Y652D01*
X2942Y652D02*
X2953Y652D01*
X2963Y652D02*
X2980Y652D01*
X2990Y652D02*
X3001Y652D01*
X3185Y652D02*
X3206Y652D01*
X2076Y651D02*
X2115Y651D01*
X2160Y651D02*
X2213Y651D01*
X2241Y651D02*
X2252Y651D01*
X2289Y651D02*
X2300Y651D01*
X2345Y651D02*
X2357Y651D01*
X2360Y651D02*
X2372Y651D01*
X2430Y651D02*
X2443Y651D01*
X2528Y651D02*
X2539Y651D01*
X2599Y651D02*
X2639Y651D01*
X2679Y651D02*
X2690Y651D01*
X2727Y651D02*
X2738Y651D01*
X2774Y651D02*
X2806Y651D01*
X2815Y651D02*
X2826Y651D01*
X2861Y651D02*
X2901Y651D01*
X2942Y651D02*
X2953Y651D01*
X2964Y651D02*
X2979Y651D01*
X2990Y651D02*
X3001Y651D01*
X3183Y651D02*
X3204Y651D01*
X2075Y650D02*
X2117Y650D01*
X2160Y650D02*
X2213Y650D01*
X2241Y650D02*
X2252Y650D01*
X2289Y650D02*
X2300Y650D01*
X2345Y650D02*
X2357Y650D01*
X2360Y650D02*
X2372Y650D01*
X2430Y650D02*
X2444Y650D01*
X2528Y650D02*
X2539Y650D01*
X2598Y650D02*
X2639Y650D01*
X2679Y650D02*
X2690Y650D01*
X2727Y650D02*
X2738Y650D01*
X2773Y650D02*
X2807Y650D01*
X2815Y650D02*
X2826Y650D01*
X2860Y650D02*
X2901Y650D01*
X2942Y650D02*
X2953Y650D01*
X2964Y650D02*
X2978Y650D01*
X2990Y650D02*
X3001Y650D01*
X3182Y650D02*
X3202Y650D01*
X2073Y649D02*
X2118Y649D01*
X2160Y649D02*
X2213Y649D01*
X2241Y649D02*
X2252Y649D01*
X2289Y649D02*
X2300Y649D01*
X2345Y649D02*
X2357Y649D01*
X2360Y649D02*
X2372Y649D01*
X2431Y649D02*
X2444Y649D01*
X2528Y649D02*
X2539Y649D01*
X2597Y649D02*
X2639Y649D01*
X2679Y649D02*
X2690Y649D01*
X2727Y649D02*
X2738Y649D01*
X2772Y649D02*
X2809Y649D01*
X2815Y649D02*
X2826Y649D01*
X2859Y649D02*
X2901Y649D01*
X2942Y649D02*
X2953Y649D01*
X2965Y649D02*
X2978Y649D01*
X2990Y649D02*
X3001Y649D01*
X3180Y649D02*
X3200Y649D01*
X2072Y648D02*
X2119Y648D01*
X2160Y648D02*
X2213Y648D01*
X2241Y648D02*
X2252Y648D01*
X2289Y648D02*
X2300Y648D01*
X2344Y648D02*
X2356Y648D01*
X2361Y648D02*
X2372Y648D01*
X2432Y648D02*
X2445Y648D01*
X2528Y648D02*
X2539Y648D01*
X2596Y648D02*
X2638Y648D01*
X2679Y648D02*
X2690Y648D01*
X2727Y648D02*
X2738Y648D01*
X2771Y648D02*
X2810Y648D01*
X2815Y648D02*
X2826Y648D01*
X2859Y648D02*
X2901Y648D01*
X2942Y648D02*
X2953Y648D01*
X2966Y648D02*
X2977Y648D01*
X2990Y648D02*
X3001Y648D01*
X3180Y648D02*
X3199Y648D01*
X2071Y647D02*
X2120Y647D01*
X2161Y647D02*
X2212Y647D01*
X2241Y647D02*
X2252Y647D01*
X2289Y647D02*
X2300Y647D01*
X2344Y647D02*
X2356Y647D01*
X2361Y647D02*
X2373Y647D01*
X2432Y647D02*
X2445Y647D01*
X2528Y647D02*
X2539Y647D01*
X2595Y647D02*
X2638Y647D01*
X2679Y647D02*
X2690Y647D01*
X2727Y647D02*
X2738Y647D01*
X2771Y647D02*
X2812Y647D01*
X2815Y647D02*
X2826Y647D01*
X2858Y647D02*
X2901Y647D01*
X2942Y647D02*
X2953Y647D01*
X2966Y647D02*
X2977Y647D01*
X2990Y647D02*
X3001Y647D01*
X3179Y647D02*
X3197Y647D01*
X2070Y646D02*
X2121Y646D01*
X2161Y646D02*
X2211Y646D01*
X2241Y646D02*
X2252Y646D01*
X2289Y646D02*
X2300Y646D01*
X2344Y646D02*
X2356Y646D01*
X2361Y646D02*
X2373Y646D01*
X2433Y646D02*
X2446Y646D01*
X2528Y646D02*
X2539Y646D01*
X2595Y646D02*
X2637Y646D01*
X2679Y646D02*
X2690Y646D01*
X2727Y646D02*
X2738Y646D01*
X2770Y646D02*
X2826Y646D01*
X2858Y646D02*
X2900Y646D01*
X2942Y646D02*
X2953Y646D01*
X2966Y646D02*
X2977Y646D01*
X2990Y646D02*
X3001Y646D01*
X3179Y646D02*
X3195Y646D01*
X2070Y645D02*
X2122Y645D01*
X2163Y645D02*
X2210Y645D01*
X2241Y645D02*
X2252Y645D01*
X2289Y645D02*
X2300Y645D01*
X2344Y645D02*
X2355Y645D01*
X2362Y645D02*
X2373Y645D01*
X2433Y645D02*
X2447Y645D01*
X2528Y645D02*
X2539Y645D01*
X2594Y645D02*
X2636Y645D01*
X2679Y645D02*
X2690Y645D01*
X2727Y645D02*
X2738Y645D01*
X2770Y645D02*
X2826Y645D01*
X2857Y645D02*
X2899Y645D01*
X2942Y645D02*
X2953Y645D01*
X2966Y645D02*
X2977Y645D01*
X2990Y645D02*
X3001Y645D01*
X3179Y645D02*
X3194Y645D01*
X2069Y644D02*
X2122Y644D01*
X2165Y644D02*
X2208Y644D01*
X2241Y644D02*
X2252Y644D01*
X2289Y644D02*
X2300Y644D01*
X2343Y644D02*
X2355Y644D01*
X2362Y644D02*
X2374Y644D01*
X2434Y644D02*
X2447Y644D01*
X2528Y644D02*
X2539Y644D01*
X2594Y644D02*
X2633Y644D01*
X2679Y644D02*
X2690Y644D01*
X2727Y644D02*
X2738Y644D01*
X2769Y644D02*
X2826Y644D01*
X2857Y644D02*
X2896Y644D01*
X2942Y644D02*
X2953Y644D01*
X2966Y644D02*
X2977Y644D01*
X2990Y644D02*
X3001Y644D01*
X3179Y644D02*
X3192Y644D01*
X2068Y643D02*
X2084Y643D01*
X2107Y643D02*
X2123Y643D01*
X2190Y643D02*
X2201Y643D01*
X2241Y643D02*
X2252Y643D01*
X2289Y643D02*
X2300Y643D01*
X2343Y643D02*
X2355Y643D01*
X2362Y643D02*
X2374Y643D01*
X2434Y643D02*
X2448Y643D01*
X2528Y643D02*
X2539Y643D01*
X2594Y643D02*
X2607Y643D01*
X2679Y643D02*
X2690Y643D01*
X2727Y643D02*
X2738Y643D01*
X2769Y643D02*
X2782Y643D01*
X2796Y643D02*
X2826Y643D01*
X2856Y643D02*
X2869Y643D01*
X2942Y643D02*
X2953Y643D01*
X2966Y643D02*
X2977Y643D01*
X2990Y643D02*
X3001Y643D01*
X3180Y643D02*
X3190Y643D01*
X2068Y642D02*
X2083Y642D01*
X2108Y642D02*
X2123Y642D01*
X2190Y642D02*
X2201Y642D01*
X2241Y642D02*
X2252Y642D01*
X2289Y642D02*
X2300Y642D01*
X2343Y642D02*
X2354Y642D01*
X2362Y642D02*
X2374Y642D01*
X2435Y642D02*
X2448Y642D01*
X2528Y642D02*
X2539Y642D01*
X2593Y642D02*
X2606Y642D01*
X2679Y642D02*
X2690Y642D01*
X2727Y642D02*
X2738Y642D01*
X2769Y642D02*
X2781Y642D01*
X2798Y642D02*
X2826Y642D01*
X2856Y642D02*
X2869Y642D01*
X2942Y642D02*
X2953Y642D01*
X2967Y642D02*
X2976Y642D01*
X2990Y642D02*
X3001Y642D01*
X3180Y642D02*
X3188Y642D01*
X2067Y641D02*
X2081Y641D01*
X2110Y641D02*
X2124Y641D01*
X2190Y641D02*
X2201Y641D01*
X2241Y641D02*
X2252Y641D01*
X2289Y641D02*
X2300Y641D01*
X2342Y641D02*
X2354Y641D01*
X2363Y641D02*
X2374Y641D01*
X2436Y641D02*
X2449Y641D01*
X2528Y641D02*
X2539Y641D01*
X2593Y641D02*
X2605Y641D01*
X2679Y641D02*
X2690Y641D01*
X2727Y641D02*
X2738Y641D01*
X2768Y641D02*
X2780Y641D01*
X2799Y641D02*
X2826Y641D01*
X2856Y641D02*
X2868Y641D01*
X2942Y641D02*
X2953Y641D01*
X2967Y641D02*
X2976Y641D01*
X2990Y641D02*
X3001Y641D01*
X3181Y641D02*
X3187Y641D01*
X2067Y640D02*
X2080Y640D01*
X2111Y640D02*
X2124Y640D01*
X2190Y640D02*
X2201Y640D01*
X2241Y640D02*
X2252Y640D01*
X2289Y640D02*
X2300Y640D01*
X2342Y640D02*
X2354Y640D01*
X2363Y640D02*
X2375Y640D01*
X2436Y640D02*
X2449Y640D01*
X2528Y640D02*
X2539Y640D01*
X2593Y640D02*
X2605Y640D01*
X2679Y640D02*
X2690Y640D01*
X2727Y640D02*
X2738Y640D01*
X2768Y640D02*
X2780Y640D01*
X2801Y640D02*
X2826Y640D01*
X2856Y640D02*
X2868Y640D01*
X2942Y640D02*
X2953Y640D01*
X2968Y640D02*
X2974Y640D01*
X2990Y640D02*
X3001Y640D01*
X2067Y639D02*
X2079Y639D01*
X2112Y639D02*
X2125Y639D01*
X2190Y639D02*
X2201Y639D01*
X2241Y639D02*
X2252Y639D01*
X2289Y639D02*
X2300Y639D01*
X2342Y639D02*
X2354Y639D01*
X2363Y639D02*
X2375Y639D01*
X2437Y639D02*
X2450Y639D01*
X2528Y639D02*
X2539Y639D01*
X2593Y639D02*
X2605Y639D01*
X2679Y639D02*
X2690Y639D01*
X2727Y639D02*
X2738Y639D01*
X2768Y639D02*
X2780Y639D01*
X2803Y639D02*
X2826Y639D01*
X2856Y639D02*
X2867Y639D01*
X2942Y639D02*
X2953Y639D01*
X2970Y639D02*
X2973Y639D01*
X2990Y639D02*
X3001Y639D01*
X2066Y638D02*
X2079Y638D01*
X2113Y638D02*
X2125Y638D01*
X2190Y638D02*
X2201Y638D01*
X2241Y638D02*
X2252Y638D01*
X2289Y638D02*
X2300Y638D01*
X2342Y638D02*
X2353Y638D01*
X2364Y638D02*
X2375Y638D01*
X2437Y638D02*
X2451Y638D01*
X2528Y638D02*
X2539Y638D01*
X2593Y638D02*
X2604Y638D01*
X2679Y638D02*
X2690Y638D01*
X2727Y638D02*
X2738Y638D01*
X2768Y638D02*
X2779Y638D01*
X2804Y638D02*
X2826Y638D01*
X2856Y638D02*
X2867Y638D01*
X2942Y638D02*
X2953Y638D01*
X2990Y638D02*
X3001Y638D01*
X2066Y637D02*
X2078Y637D01*
X2113Y637D02*
X2125Y637D01*
X2190Y637D02*
X2201Y637D01*
X2241Y637D02*
X2252Y637D01*
X2289Y637D02*
X2300Y637D01*
X2341Y637D02*
X2353Y637D01*
X2364Y637D02*
X2376Y637D01*
X2438Y637D02*
X2451Y637D01*
X2528Y637D02*
X2539Y637D01*
X2593Y637D02*
X2604Y637D01*
X2679Y637D02*
X2690Y637D01*
X2727Y637D02*
X2738Y637D01*
X2768Y637D02*
X2779Y637D01*
X2806Y637D02*
X2826Y637D01*
X2856Y637D02*
X2867Y637D01*
X2942Y637D02*
X2953Y637D01*
X2990Y637D02*
X3001Y637D01*
X2066Y636D02*
X2078Y636D01*
X2114Y636D02*
X2125Y636D01*
X2190Y636D02*
X2201Y636D01*
X2241Y636D02*
X2252Y636D01*
X2289Y636D02*
X2300Y636D01*
X2341Y636D02*
X2353Y636D01*
X2364Y636D02*
X2376Y636D01*
X2439Y636D02*
X2452Y636D01*
X2528Y636D02*
X2539Y636D01*
X2593Y636D02*
X2604Y636D01*
X2679Y636D02*
X2690Y636D01*
X2727Y636D02*
X2738Y636D01*
X2768Y636D02*
X2779Y636D01*
X2807Y636D02*
X2826Y636D01*
X2856Y636D02*
X2867Y636D01*
X2942Y636D02*
X2953Y636D01*
X2990Y636D02*
X3001Y636D01*
X2066Y635D02*
X2077Y635D01*
X2114Y635D02*
X2125Y635D01*
X2190Y635D02*
X2201Y635D01*
X2241Y635D02*
X2252Y635D01*
X2289Y635D02*
X2300Y635D01*
X2341Y635D02*
X2352Y635D01*
X2364Y635D02*
X2376Y635D01*
X2439Y635D02*
X2452Y635D01*
X2528Y635D02*
X2539Y635D01*
X2593Y635D02*
X2604Y635D01*
X2679Y635D02*
X2690Y635D01*
X2727Y635D02*
X2738Y635D01*
X2768Y635D02*
X2779Y635D01*
X2809Y635D02*
X2826Y635D01*
X2856Y635D02*
X2867Y635D01*
X2942Y635D02*
X2953Y635D01*
X2990Y635D02*
X3001Y635D01*
X2066Y634D02*
X2077Y634D01*
X2114Y634D02*
X2125Y634D01*
X2190Y634D02*
X2201Y634D01*
X2241Y634D02*
X2252Y634D01*
X2289Y634D02*
X2300Y634D01*
X2340Y634D02*
X2352Y634D01*
X2365Y634D02*
X2377Y634D01*
X2440Y634D02*
X2453Y634D01*
X2528Y634D02*
X2539Y634D01*
X2593Y634D02*
X2604Y634D01*
X2679Y634D02*
X2690Y634D01*
X2727Y634D02*
X2738Y634D01*
X2768Y634D02*
X2779Y634D01*
X2810Y634D02*
X2826Y634D01*
X2856Y634D02*
X2867Y634D01*
X2942Y634D02*
X2953Y634D01*
X2990Y634D02*
X3001Y634D01*
X2066Y633D02*
X2077Y633D01*
X2114Y633D02*
X2125Y633D01*
X2190Y633D02*
X2201Y633D01*
X2241Y633D02*
X2252Y633D01*
X2289Y633D02*
X2300Y633D01*
X2340Y633D02*
X2352Y633D01*
X2365Y633D02*
X2377Y633D01*
X2440Y633D02*
X2454Y633D01*
X2528Y633D02*
X2539Y633D01*
X2593Y633D02*
X2604Y633D01*
X2679Y633D02*
X2690Y633D01*
X2727Y633D02*
X2738Y633D01*
X2768Y633D02*
X2779Y633D01*
X2812Y633D02*
X2826Y633D01*
X2856Y633D02*
X2867Y633D01*
X2942Y633D02*
X2953Y633D01*
X2990Y633D02*
X3001Y633D01*
X2066Y632D02*
X2077Y632D01*
X2114Y632D02*
X2125Y632D01*
X2190Y632D02*
X2201Y632D01*
X2241Y632D02*
X2252Y632D01*
X2289Y632D02*
X2300Y632D01*
X2340Y632D02*
X2352Y632D01*
X2365Y632D02*
X2377Y632D01*
X2441Y632D02*
X2454Y632D01*
X2528Y632D02*
X2539Y632D01*
X2593Y632D02*
X2604Y632D01*
X2679Y632D02*
X2690Y632D01*
X2727Y632D02*
X2738Y632D01*
X2768Y632D02*
X2779Y632D01*
X2813Y632D02*
X2826Y632D01*
X2855Y632D02*
X2867Y632D01*
X2942Y632D02*
X2953Y632D01*
X2990Y632D02*
X3001Y632D01*
X2066Y631D02*
X2077Y631D01*
X2114Y631D02*
X2125Y631D01*
X2190Y631D02*
X2201Y631D01*
X2241Y631D02*
X2252Y631D01*
X2289Y631D02*
X2300Y631D01*
X2339Y631D02*
X2351Y631D01*
X2366Y631D02*
X2377Y631D01*
X2441Y631D02*
X2455Y631D01*
X2528Y631D02*
X2539Y631D01*
X2593Y631D02*
X2604Y631D01*
X2679Y631D02*
X2690Y631D01*
X2727Y631D02*
X2738Y631D01*
X2768Y631D02*
X2779Y631D01*
X2815Y631D02*
X2826Y631D01*
X2855Y631D02*
X2867Y631D01*
X2942Y631D02*
X2953Y631D01*
X2990Y631D02*
X3001Y631D01*
X2066Y630D02*
X2077Y630D01*
X2114Y630D02*
X2125Y630D01*
X2190Y630D02*
X2201Y630D01*
X2241Y630D02*
X2252Y630D01*
X2289Y630D02*
X2300Y630D01*
X2339Y630D02*
X2351Y630D01*
X2366Y630D02*
X2378Y630D01*
X2442Y630D02*
X2455Y630D01*
X2528Y630D02*
X2539Y630D01*
X2593Y630D02*
X2604Y630D01*
X2606Y630D02*
X2637Y630D01*
X2679Y630D02*
X2690Y630D01*
X2726Y630D02*
X2738Y630D01*
X2768Y630D02*
X2779Y630D01*
X2815Y630D02*
X2826Y630D01*
X2855Y630D02*
X2867Y630D01*
X2869Y630D02*
X2900Y630D01*
X2942Y630D02*
X2953Y630D01*
X2990Y630D02*
X3001Y630D01*
X2066Y629D02*
X2077Y629D01*
X2114Y629D02*
X2125Y629D01*
X2190Y629D02*
X2201Y629D01*
X2241Y629D02*
X2252Y629D01*
X2289Y629D02*
X2300Y629D01*
X2339Y629D02*
X2351Y629D01*
X2366Y629D02*
X2378Y629D01*
X2443Y629D02*
X2456Y629D01*
X2528Y629D02*
X2539Y629D01*
X2593Y629D02*
X2640Y629D01*
X2679Y629D02*
X2690Y629D01*
X2726Y629D02*
X2738Y629D01*
X2768Y629D02*
X2779Y629D01*
X2815Y629D02*
X2826Y629D01*
X2855Y629D02*
X2903Y629D01*
X2942Y629D02*
X2953Y629D01*
X2990Y629D02*
X3001Y629D01*
X2066Y628D02*
X2077Y628D01*
X2114Y628D02*
X2125Y628D01*
X2190Y628D02*
X2201Y628D01*
X2241Y628D02*
X2252Y628D01*
X2289Y628D02*
X2300Y628D01*
X2339Y628D02*
X2350Y628D01*
X2367Y628D02*
X2378Y628D01*
X2443Y628D02*
X2456Y628D01*
X2528Y628D02*
X2539Y628D01*
X2593Y628D02*
X2642Y628D01*
X2679Y628D02*
X2690Y628D01*
X2726Y628D02*
X2738Y628D01*
X2768Y628D02*
X2779Y628D01*
X2815Y628D02*
X2826Y628D01*
X2855Y628D02*
X2904Y628D01*
X2942Y628D02*
X2953Y628D01*
X2990Y628D02*
X3001Y628D01*
X2066Y627D02*
X2077Y627D01*
X2114Y627D02*
X2125Y627D01*
X2190Y627D02*
X2201Y627D01*
X2241Y627D02*
X2252Y627D01*
X2289Y627D02*
X2300Y627D01*
X2338Y627D02*
X2350Y627D01*
X2367Y627D02*
X2379Y627D01*
X2444Y627D02*
X2457Y627D01*
X2528Y627D02*
X2539Y627D01*
X2593Y627D02*
X2643Y627D01*
X2679Y627D02*
X2690Y627D01*
X2726Y627D02*
X2738Y627D01*
X2768Y627D02*
X2779Y627D01*
X2815Y627D02*
X2826Y627D01*
X2855Y627D02*
X2906Y627D01*
X2942Y627D02*
X2953Y627D01*
X2990Y627D02*
X3001Y627D01*
X2066Y626D02*
X2077Y626D01*
X2114Y626D02*
X2125Y626D01*
X2190Y626D02*
X2201Y626D01*
X2241Y626D02*
X2252Y626D01*
X2288Y626D02*
X2300Y626D01*
X2338Y626D02*
X2350Y626D01*
X2367Y626D02*
X2379Y626D01*
X2444Y626D02*
X2458Y626D01*
X2528Y626D02*
X2539Y626D01*
X2593Y626D02*
X2644Y626D01*
X2679Y626D02*
X2690Y626D01*
X2726Y626D02*
X2738Y626D01*
X2768Y626D02*
X2779Y626D01*
X2815Y626D02*
X2826Y626D01*
X2855Y626D02*
X2907Y626D01*
X2942Y626D02*
X2953Y626D01*
X2990Y626D02*
X3001Y626D01*
X2066Y625D02*
X2077Y625D01*
X2114Y625D02*
X2125Y625D01*
X2190Y625D02*
X2201Y625D01*
X2241Y625D02*
X2252Y625D01*
X2288Y625D02*
X2300Y625D01*
X2338Y625D02*
X2349Y625D01*
X2367Y625D02*
X2379Y625D01*
X2445Y625D02*
X2458Y625D01*
X2528Y625D02*
X2539Y625D01*
X2593Y625D02*
X2646Y625D01*
X2679Y625D02*
X2690Y625D01*
X2726Y625D02*
X2738Y625D01*
X2768Y625D02*
X2779Y625D01*
X2815Y625D02*
X2826Y625D01*
X2855Y625D02*
X2908Y625D01*
X2942Y625D02*
X2953Y625D01*
X2990Y625D02*
X3001Y625D01*
X2066Y624D02*
X2077Y624D01*
X2114Y624D02*
X2125Y624D01*
X2190Y624D02*
X2201Y624D01*
X2241Y624D02*
X2252Y624D01*
X2288Y624D02*
X2300Y624D01*
X2337Y624D02*
X2349Y624D01*
X2368Y624D02*
X2379Y624D01*
X2446Y624D02*
X2459Y624D01*
X2528Y624D02*
X2539Y624D01*
X2592Y624D02*
X2646Y624D01*
X2679Y624D02*
X2690Y624D01*
X2726Y624D02*
X2737Y624D01*
X2768Y624D02*
X2779Y624D01*
X2815Y624D02*
X2826Y624D01*
X2855Y624D02*
X2909Y624D01*
X2942Y624D02*
X2953Y624D01*
X2990Y624D02*
X3001Y624D01*
X2066Y623D02*
X2077Y623D01*
X2114Y623D02*
X2125Y623D01*
X2190Y623D02*
X2201Y623D01*
X2241Y623D02*
X2252Y623D01*
X2288Y623D02*
X2300Y623D01*
X2337Y623D02*
X2349Y623D01*
X2368Y623D02*
X2380Y623D01*
X2446Y623D02*
X2459Y623D01*
X2528Y623D02*
X2539Y623D01*
X2592Y623D02*
X2647Y623D01*
X2679Y623D02*
X2690Y623D01*
X2726Y623D02*
X2737Y623D01*
X2768Y623D02*
X2779Y623D01*
X2815Y623D02*
X2826Y623D01*
X2855Y623D02*
X2910Y623D01*
X2942Y623D02*
X2953Y623D01*
X2990Y623D02*
X3001Y623D01*
X2066Y622D02*
X2077Y622D01*
X2114Y622D02*
X2125Y622D01*
X2190Y622D02*
X2201Y622D01*
X2241Y622D02*
X2252Y622D01*
X2288Y622D02*
X2300Y622D01*
X2337Y622D02*
X2349Y622D01*
X2368Y622D02*
X2380Y622D01*
X2447Y622D02*
X2460Y622D01*
X2528Y622D02*
X2539Y622D01*
X2592Y622D02*
X2648Y622D01*
X2679Y622D02*
X2690Y622D01*
X2726Y622D02*
X2737Y622D01*
X2768Y622D02*
X2779Y622D01*
X2815Y622D02*
X2826Y622D01*
X2855Y622D02*
X2911Y622D01*
X2942Y622D02*
X2953Y622D01*
X2990Y622D02*
X3001Y622D01*
X2066Y621D02*
X2077Y621D01*
X2114Y621D02*
X2125Y621D01*
X2190Y621D02*
X2201Y621D01*
X2241Y621D02*
X2252Y621D01*
X2288Y621D02*
X2300Y621D01*
X2337Y621D02*
X2348Y621D01*
X2369Y621D02*
X2380Y621D01*
X2447Y621D02*
X2461Y621D01*
X2528Y621D02*
X2539Y621D01*
X2592Y621D02*
X2648Y621D01*
X2679Y621D02*
X2690Y621D01*
X2726Y621D02*
X2737Y621D01*
X2768Y621D02*
X2779Y621D01*
X2815Y621D02*
X2826Y621D01*
X2855Y621D02*
X2911Y621D01*
X2942Y621D02*
X2953Y621D01*
X2990Y621D02*
X3001Y621D01*
X2066Y620D02*
X2077Y620D01*
X2114Y620D02*
X2125Y620D01*
X2190Y620D02*
X2201Y620D01*
X2241Y620D02*
X2252Y620D01*
X2288Y620D02*
X2299Y620D01*
X2336Y620D02*
X2381Y620D01*
X2448Y620D02*
X2461Y620D01*
X2528Y620D02*
X2539Y620D01*
X2592Y620D02*
X2649Y620D01*
X2679Y620D02*
X2690Y620D01*
X2726Y620D02*
X2737Y620D01*
X2768Y620D02*
X2779Y620D01*
X2815Y620D02*
X2826Y620D01*
X2855Y620D02*
X2912Y620D01*
X2942Y620D02*
X2953Y620D01*
X2990Y620D02*
X3001Y620D01*
X2066Y619D02*
X2077Y619D01*
X2114Y619D02*
X2125Y619D01*
X2190Y619D02*
X2201Y619D01*
X2241Y619D02*
X2252Y619D01*
X2288Y619D02*
X2299Y619D01*
X2336Y619D02*
X2381Y619D01*
X2448Y619D02*
X2462Y619D01*
X2528Y619D02*
X2539Y619D01*
X2592Y619D02*
X2649Y619D01*
X2679Y619D02*
X2690Y619D01*
X2726Y619D02*
X2737Y619D01*
X2768Y619D02*
X2779Y619D01*
X2815Y619D02*
X2826Y619D01*
X2855Y619D02*
X2912Y619D01*
X2942Y619D02*
X2953Y619D01*
X2990Y619D02*
X3001Y619D01*
X2066Y618D02*
X2077Y618D01*
X2114Y618D02*
X2125Y618D01*
X2190Y618D02*
X2201Y618D01*
X2241Y618D02*
X2252Y618D01*
X2288Y618D02*
X2299Y618D01*
X2336Y618D02*
X2381Y618D01*
X2449Y618D02*
X2462Y618D01*
X2528Y618D02*
X2539Y618D01*
X2592Y618D02*
X2608Y618D01*
X2635Y618D02*
X2650Y618D01*
X2679Y618D02*
X2690Y618D01*
X2726Y618D02*
X2737Y618D01*
X2767Y618D02*
X2779Y618D01*
X2815Y618D02*
X2826Y618D01*
X2855Y618D02*
X2870Y618D01*
X2898Y618D02*
X2913Y618D01*
X2942Y618D02*
X2953Y618D01*
X2990Y618D02*
X3001Y618D01*
X2066Y617D02*
X2077Y617D01*
X2114Y617D02*
X2125Y617D01*
X2190Y617D02*
X2201Y617D01*
X2241Y617D02*
X2252Y617D01*
X2288Y617D02*
X2299Y617D01*
X2335Y617D02*
X2382Y617D01*
X2450Y617D02*
X2463Y617D01*
X2528Y617D02*
X2539Y617D01*
X2592Y617D02*
X2606Y617D01*
X2637Y617D02*
X2650Y617D01*
X2679Y617D02*
X2690Y617D01*
X2726Y617D02*
X2737Y617D01*
X2767Y617D02*
X2779Y617D01*
X2815Y617D02*
X2826Y617D01*
X2855Y617D02*
X2869Y617D01*
X2900Y617D02*
X2913Y617D01*
X2942Y617D02*
X2953Y617D01*
X2990Y617D02*
X3001Y617D01*
X2066Y616D02*
X2077Y616D01*
X2114Y616D02*
X2125Y616D01*
X2190Y616D02*
X2201Y616D01*
X2241Y616D02*
X2252Y616D01*
X2288Y616D02*
X2299Y616D01*
X2335Y616D02*
X2382Y616D01*
X2450Y616D02*
X2464Y616D01*
X2528Y616D02*
X2539Y616D01*
X2592Y616D02*
X2605Y616D01*
X2638Y616D02*
X2650Y616D01*
X2679Y616D02*
X2690Y616D01*
X2726Y616D02*
X2737Y616D01*
X2767Y616D02*
X2779Y616D01*
X2815Y616D02*
X2826Y616D01*
X2855Y616D02*
X2868Y616D01*
X2901Y616D02*
X2913Y616D01*
X2942Y616D02*
X2953Y616D01*
X2990Y616D02*
X3001Y616D01*
X3218Y616D02*
X3222Y616D01*
X2066Y615D02*
X2077Y615D01*
X2114Y615D02*
X2125Y615D01*
X2190Y615D02*
X2201Y615D01*
X2241Y615D02*
X2252Y615D01*
X2288Y615D02*
X2299Y615D01*
X2335Y615D02*
X2382Y615D01*
X2451Y615D02*
X2464Y615D01*
X2528Y615D02*
X2539Y615D01*
X2592Y615D02*
X2604Y615D01*
X2639Y615D02*
X2650Y615D01*
X2679Y615D02*
X2690Y615D01*
X2726Y615D02*
X2737Y615D01*
X2767Y615D02*
X2779Y615D01*
X2815Y615D02*
X2826Y615D01*
X2855Y615D02*
X2867Y615D01*
X2901Y615D02*
X2913Y615D01*
X2942Y615D02*
X2953Y615D01*
X2990Y615D02*
X3001Y615D01*
X3213Y615D02*
X3226Y615D01*
X2066Y614D02*
X2077Y614D01*
X2114Y614D02*
X2125Y614D01*
X2190Y614D02*
X2201Y614D01*
X2241Y614D02*
X2252Y614D01*
X2288Y614D02*
X2299Y614D01*
X2335Y614D02*
X2382Y614D01*
X2451Y614D02*
X2465Y614D01*
X2528Y614D02*
X2539Y614D01*
X2592Y614D02*
X2604Y614D01*
X2639Y614D02*
X2651Y614D01*
X2679Y614D02*
X2690Y614D01*
X2726Y614D02*
X2737Y614D01*
X2767Y614D02*
X2779Y614D01*
X2815Y614D02*
X2826Y614D01*
X2855Y614D02*
X2866Y614D01*
X2902Y614D02*
X2913Y614D01*
X2942Y614D02*
X2953Y614D01*
X2990Y614D02*
X3001Y614D01*
X3211Y614D02*
X3229Y614D01*
X2066Y613D02*
X2077Y613D01*
X2114Y613D02*
X2125Y613D01*
X2190Y613D02*
X2201Y613D01*
X2241Y613D02*
X2252Y613D01*
X2288Y613D02*
X2299Y613D01*
X2334Y613D02*
X2383Y613D01*
X2452Y613D02*
X2465Y613D01*
X2528Y613D02*
X2539Y613D01*
X2592Y613D02*
X2603Y613D01*
X2639Y613D02*
X2651Y613D01*
X2679Y613D02*
X2690Y613D01*
X2726Y613D02*
X2737Y613D01*
X2767Y613D02*
X2778Y613D01*
X2815Y613D02*
X2826Y613D01*
X2855Y613D02*
X2866Y613D01*
X2902Y613D02*
X2913Y613D01*
X2942Y613D02*
X2953Y613D01*
X2990Y613D02*
X3001Y613D01*
X3208Y613D02*
X3231Y613D01*
X2066Y612D02*
X2077Y612D01*
X2114Y612D02*
X2125Y612D01*
X2190Y612D02*
X2201Y612D01*
X2241Y612D02*
X2253Y612D01*
X2288Y612D02*
X2299Y612D01*
X2334Y612D02*
X2383Y612D01*
X2453Y612D02*
X2466Y612D01*
X2528Y612D02*
X2539Y612D01*
X2592Y612D02*
X2603Y612D01*
X2639Y612D02*
X2651Y612D01*
X2679Y612D02*
X2691Y612D01*
X2726Y612D02*
X2737Y612D01*
X2767Y612D02*
X2778Y612D01*
X2815Y612D02*
X2826Y612D01*
X2855Y612D02*
X2866Y612D01*
X2902Y612D02*
X2913Y612D01*
X2942Y612D02*
X2953Y612D01*
X2990Y612D02*
X3001Y612D01*
X3206Y612D02*
X3233Y612D01*
X2066Y611D02*
X2077Y611D01*
X2114Y611D02*
X2125Y611D01*
X2190Y611D02*
X2201Y611D01*
X2241Y611D02*
X2254Y611D01*
X2288Y611D02*
X2299Y611D01*
X2334Y611D02*
X2383Y611D01*
X2453Y611D02*
X2466Y611D01*
X2528Y611D02*
X2539Y611D01*
X2592Y611D02*
X2603Y611D01*
X2639Y611D02*
X2651Y611D01*
X2679Y611D02*
X2692Y611D01*
X2726Y611D02*
X2737Y611D01*
X2767Y611D02*
X2778Y611D01*
X2815Y611D02*
X2826Y611D01*
X2855Y611D02*
X2866Y611D01*
X2902Y611D02*
X2913Y611D01*
X2942Y611D02*
X2953Y611D01*
X2990Y611D02*
X3001Y611D01*
X3204Y611D02*
X3235Y611D01*
X2066Y610D02*
X2077Y610D01*
X2114Y610D02*
X2125Y610D01*
X2190Y610D02*
X2201Y610D01*
X2241Y610D02*
X2256Y610D01*
X2288Y610D02*
X2299Y610D01*
X2333Y610D02*
X2384Y610D01*
X2454Y610D02*
X2467Y610D01*
X2528Y610D02*
X2539Y610D01*
X2592Y610D02*
X2603Y610D01*
X2639Y610D02*
X2651Y610D01*
X2679Y610D02*
X2694Y610D01*
X2726Y610D02*
X2737Y610D01*
X2767Y610D02*
X2778Y610D01*
X2815Y610D02*
X2826Y610D01*
X2855Y610D02*
X2866Y610D01*
X2902Y610D02*
X2913Y610D01*
X2942Y610D02*
X2953Y610D01*
X2990Y610D02*
X3001Y610D01*
X3202Y610D02*
X3237Y610D01*
X2066Y609D02*
X2077Y609D01*
X2114Y609D02*
X2125Y609D01*
X2157Y609D02*
X2162Y609D01*
X2190Y609D02*
X2201Y609D01*
X2241Y609D02*
X2257Y609D01*
X2288Y609D02*
X2299Y609D01*
X2333Y609D02*
X2384Y609D01*
X2454Y609D02*
X2468Y609D01*
X2528Y609D02*
X2539Y609D01*
X2592Y609D02*
X2603Y609D01*
X2639Y609D02*
X2651Y609D01*
X2679Y609D02*
X2695Y609D01*
X2726Y609D02*
X2737Y609D01*
X2767Y609D02*
X2778Y609D01*
X2815Y609D02*
X2826Y609D01*
X2855Y609D02*
X2866Y609D01*
X2902Y609D02*
X2913Y609D01*
X2942Y609D02*
X2953Y609D01*
X2990Y609D02*
X3001Y609D01*
X3200Y609D02*
X3239Y609D01*
X2066Y608D02*
X2077Y608D01*
X2114Y608D02*
X2125Y608D01*
X2155Y608D02*
X2163Y608D01*
X2190Y608D02*
X2201Y608D01*
X2241Y608D02*
X2259Y608D01*
X2288Y608D02*
X2299Y608D01*
X2333Y608D02*
X2384Y608D01*
X2455Y608D02*
X2468Y608D01*
X2528Y608D02*
X2539Y608D01*
X2592Y608D02*
X2603Y608D01*
X2639Y608D02*
X2651Y608D01*
X2679Y608D02*
X2697Y608D01*
X2726Y608D02*
X2737Y608D01*
X2767Y608D02*
X2778Y608D01*
X2815Y608D02*
X2826Y608D01*
X2855Y608D02*
X2866Y608D01*
X2902Y608D02*
X2913Y608D01*
X2942Y608D02*
X2953Y608D01*
X2990Y608D02*
X3001Y608D01*
X3198Y608D02*
X3241Y608D01*
X2066Y607D02*
X2078Y607D01*
X2114Y607D02*
X2125Y607D01*
X2155Y607D02*
X2164Y607D01*
X2190Y607D02*
X2201Y607D01*
X2241Y607D02*
X2261Y607D01*
X2288Y607D02*
X2299Y607D01*
X2332Y607D02*
X2344Y607D01*
X2373Y607D02*
X2384Y607D01*
X2455Y607D02*
X2469Y607D01*
X2528Y607D02*
X2539Y607D01*
X2592Y607D02*
X2604Y607D01*
X2639Y607D02*
X2651Y607D01*
X2679Y607D02*
X2698Y607D01*
X2726Y607D02*
X2737Y607D01*
X2767Y607D02*
X2778Y607D01*
X2815Y607D02*
X2826Y607D01*
X2855Y607D02*
X2867Y607D01*
X2902Y607D02*
X2913Y607D01*
X2942Y607D02*
X2953Y607D01*
X2990Y607D02*
X3001Y607D01*
X3196Y607D02*
X3243Y607D01*
X2066Y606D02*
X2078Y606D01*
X2113Y606D02*
X2125Y606D01*
X2154Y606D02*
X2164Y606D01*
X2190Y606D02*
X2201Y606D01*
X2241Y606D02*
X2262Y606D01*
X2288Y606D02*
X2299Y606D01*
X2332Y606D02*
X2344Y606D01*
X2373Y606D02*
X2385Y606D01*
X2456Y606D02*
X2469Y606D01*
X2528Y606D02*
X2539Y606D01*
X2592Y606D02*
X2605Y606D01*
X2639Y606D02*
X2651Y606D01*
X2679Y606D02*
X2700Y606D01*
X2726Y606D02*
X2737Y606D01*
X2767Y606D02*
X2778Y606D01*
X2815Y606D02*
X2826Y606D01*
X2855Y606D02*
X2868Y606D01*
X2902Y606D02*
X2913Y606D01*
X2942Y606D02*
X2953Y606D01*
X2990Y606D02*
X3001Y606D01*
X3194Y606D02*
X3245Y606D01*
X2066Y605D02*
X2079Y605D01*
X2112Y605D02*
X2125Y605D01*
X2154Y605D02*
X2165Y605D01*
X2190Y605D02*
X2201Y605D01*
X2241Y605D02*
X2264Y605D01*
X2288Y605D02*
X2299Y605D01*
X2332Y605D02*
X2344Y605D01*
X2373Y605D02*
X2385Y605D01*
X2457Y605D02*
X2470Y605D01*
X2528Y605D02*
X2539Y605D01*
X2592Y605D02*
X2607Y605D01*
X2639Y605D02*
X2651Y605D01*
X2679Y605D02*
X2702Y605D01*
X2726Y605D02*
X2737Y605D01*
X2767Y605D02*
X2778Y605D01*
X2815Y605D02*
X2826Y605D01*
X2855Y605D02*
X2870Y605D01*
X2902Y605D02*
X2913Y605D01*
X2942Y605D02*
X2953Y605D01*
X2990Y605D02*
X3001Y605D01*
X3192Y605D02*
X3216Y605D01*
X3224Y605D02*
X3247Y605D01*
X2067Y604D02*
X2080Y604D01*
X2111Y604D02*
X2125Y604D01*
X2154Y604D02*
X2165Y604D01*
X2189Y604D02*
X2201Y604D01*
X2241Y604D02*
X2265Y604D01*
X2287Y604D02*
X2299Y604D01*
X2332Y604D02*
X2343Y604D01*
X2374Y604D02*
X2385Y604D01*
X2457Y604D02*
X2471Y604D01*
X2528Y604D02*
X2539Y604D01*
X2592Y604D02*
X2609Y604D01*
X2639Y604D02*
X2651Y604D01*
X2679Y604D02*
X2703Y604D01*
X2725Y604D02*
X2737Y604D01*
X2767Y604D02*
X2778Y604D01*
X2815Y604D02*
X2826Y604D01*
X2854Y604D02*
X2872Y604D01*
X2902Y604D02*
X2913Y604D01*
X2942Y604D02*
X2953Y604D01*
X2990Y604D02*
X3001Y604D01*
X3190Y604D02*
X3213Y604D01*
X3226Y604D02*
X3249Y604D01*
X2067Y603D02*
X2081Y603D01*
X2110Y603D02*
X2124Y603D01*
X2154Y603D02*
X2166Y603D01*
X2189Y603D02*
X2201Y603D01*
X2241Y603D02*
X2267Y603D01*
X2287Y603D02*
X2299Y603D01*
X2331Y603D02*
X2343Y603D01*
X2374Y603D02*
X2386Y603D01*
X2458Y603D02*
X2471Y603D01*
X2528Y603D02*
X2539Y603D01*
X2592Y603D02*
X2611Y603D01*
X2639Y603D02*
X2651Y603D01*
X2679Y603D02*
X2705Y603D01*
X2725Y603D02*
X2737Y603D01*
X2767Y603D02*
X2778Y603D01*
X2815Y603D02*
X2826Y603D01*
X2854Y603D02*
X2873Y603D01*
X2902Y603D02*
X2913Y603D01*
X2942Y603D02*
X2953Y603D01*
X2990Y603D02*
X3001Y603D01*
X3188Y603D02*
X3211Y603D01*
X3228Y603D02*
X3251Y603D01*
X2068Y602D02*
X2082Y602D01*
X2109Y602D02*
X2124Y602D01*
X2154Y602D02*
X2166Y602D01*
X2188Y602D02*
X2201Y602D01*
X2241Y602D02*
X2268Y602D01*
X2286Y602D02*
X2299Y602D01*
X2331Y602D02*
X2343Y602D01*
X2374Y602D02*
X2386Y602D01*
X2458Y602D02*
X2472Y602D01*
X2528Y602D02*
X2539Y602D01*
X2592Y602D02*
X2612Y602D01*
X2638Y602D02*
X2650Y602D01*
X2679Y602D02*
X2706Y602D01*
X2724Y602D02*
X2737Y602D01*
X2767Y602D02*
X2778Y602D01*
X2815Y602D02*
X2826Y602D01*
X2854Y602D02*
X2875Y602D01*
X2901Y602D02*
X2913Y602D01*
X2942Y602D02*
X2953Y602D01*
X2990Y602D02*
X3001Y602D01*
X3186Y602D02*
X3209Y602D01*
X3230Y602D02*
X3253Y602D01*
X2068Y601D02*
X2084Y601D01*
X2108Y601D02*
X2123Y601D01*
X2154Y601D02*
X2167Y601D01*
X2187Y601D02*
X2200Y601D01*
X2241Y601D02*
X2270Y601D01*
X2285Y601D02*
X2298Y601D01*
X2331Y601D02*
X2342Y601D01*
X2374Y601D02*
X2386Y601D01*
X2459Y601D02*
X2472Y601D01*
X2528Y601D02*
X2539Y601D01*
X2592Y601D02*
X2614Y601D01*
X2637Y601D02*
X2650Y601D01*
X2679Y601D02*
X2708Y601D01*
X2723Y601D02*
X2736Y601D01*
X2767Y601D02*
X2778Y601D01*
X2815Y601D02*
X2826Y601D01*
X2854Y601D02*
X2877Y601D01*
X2900Y601D02*
X2913Y601D01*
X2942Y601D02*
X2953Y601D01*
X2990Y601D02*
X3001Y601D01*
X3185Y601D02*
X3207Y601D01*
X3232Y601D02*
X3255Y601D01*
X2069Y600D02*
X2085Y600D01*
X2106Y600D02*
X2123Y600D01*
X2154Y600D02*
X2169Y600D01*
X2186Y600D02*
X2200Y600D01*
X2241Y600D02*
X2272Y600D01*
X2284Y600D02*
X2298Y600D01*
X2330Y600D02*
X2342Y600D01*
X2375Y600D02*
X2386Y600D01*
X2460Y600D02*
X2473Y600D01*
X2528Y600D02*
X2539Y600D01*
X2592Y600D02*
X2616Y600D01*
X2636Y600D02*
X2650Y600D01*
X2679Y600D02*
X2709Y600D01*
X2722Y600D02*
X2736Y600D01*
X2767Y600D02*
X2778Y600D01*
X2815Y600D02*
X2826Y600D01*
X2854Y600D02*
X2878Y600D01*
X2898Y600D02*
X2913Y600D01*
X2942Y600D02*
X2953Y600D01*
X2990Y600D02*
X3001Y600D01*
X3184Y600D02*
X3205Y600D01*
X3234Y600D02*
X3256Y600D01*
X2069Y599D02*
X2122Y599D01*
X2155Y599D02*
X2200Y599D01*
X2241Y599D02*
X2298Y599D01*
X2330Y599D02*
X2342Y599D01*
X2375Y599D02*
X2387Y599D01*
X2460Y599D02*
X2473Y599D01*
X2514Y599D02*
X2554Y599D01*
X2592Y599D02*
X2650Y599D01*
X2679Y599D02*
X2736Y599D01*
X2767Y599D02*
X2778Y599D01*
X2815Y599D02*
X2826Y599D01*
X2854Y599D02*
X2912Y599D01*
X2942Y599D02*
X2953Y599D01*
X2990Y599D02*
X3001Y599D01*
X3183Y599D02*
X3203Y599D01*
X3236Y599D02*
X3257Y599D01*
X2070Y598D02*
X2121Y598D01*
X2155Y598D02*
X2199Y598D01*
X2241Y598D02*
X2297Y598D01*
X2330Y598D02*
X2342Y598D01*
X2375Y598D02*
X2387Y598D01*
X2461Y598D02*
X2474Y598D01*
X2512Y598D02*
X2555Y598D01*
X2592Y598D02*
X2649Y598D01*
X2679Y598D02*
X2735Y598D01*
X2767Y598D02*
X2778Y598D01*
X2815Y598D02*
X2826Y598D01*
X2854Y598D02*
X2912Y598D01*
X2942Y598D02*
X2953Y598D01*
X2990Y598D02*
X3001Y598D01*
X3182Y598D02*
X3201Y598D01*
X3238Y598D02*
X3258Y598D01*
X2071Y597D02*
X2120Y597D01*
X2156Y597D02*
X2199Y597D01*
X2241Y597D02*
X2252Y597D01*
X2255Y597D02*
X2297Y597D01*
X2330Y597D02*
X2341Y597D01*
X2376Y597D02*
X2387Y597D01*
X2461Y597D02*
X2475Y597D01*
X2511Y597D02*
X2556Y597D01*
X2592Y597D02*
X2649Y597D01*
X2679Y597D02*
X2690Y597D01*
X2692Y597D02*
X2735Y597D01*
X2767Y597D02*
X2778Y597D01*
X2815Y597D02*
X2826Y597D01*
X2854Y597D02*
X2911Y597D01*
X2942Y597D02*
X2953Y597D01*
X2990Y597D02*
X3001Y597D01*
X3181Y597D02*
X3199Y597D01*
X3240Y597D02*
X3259Y597D01*
X2072Y596D02*
X2119Y596D01*
X2156Y596D02*
X2198Y596D01*
X2241Y596D02*
X2252Y596D01*
X2256Y596D02*
X2296Y596D01*
X2329Y596D02*
X2341Y596D01*
X2376Y596D02*
X2388Y596D01*
X2462Y596D02*
X2475Y596D01*
X2510Y596D02*
X2557Y596D01*
X2591Y596D02*
X2648Y596D01*
X2679Y596D02*
X2690Y596D01*
X2694Y596D02*
X2734Y596D01*
X2767Y596D02*
X2778Y596D01*
X2815Y596D02*
X2826Y596D01*
X2854Y596D02*
X2911Y596D01*
X2942Y596D02*
X2953Y596D01*
X2990Y596D02*
X3001Y596D01*
X3181Y596D02*
X3197Y596D01*
X3242Y596D02*
X3259Y596D01*
X2073Y595D02*
X2118Y595D01*
X2157Y595D02*
X2197Y595D01*
X2241Y595D02*
X2252Y595D01*
X2258Y595D02*
X2296Y595D01*
X2329Y595D02*
X2341Y595D01*
X2376Y595D02*
X2388Y595D01*
X2463Y595D02*
X2475Y595D01*
X2510Y595D02*
X2557Y595D01*
X2591Y595D02*
X2647Y595D01*
X2679Y595D02*
X2690Y595D01*
X2696Y595D02*
X2733Y595D01*
X2767Y595D02*
X2778Y595D01*
X2815Y595D02*
X2826Y595D01*
X2854Y595D02*
X2910Y595D01*
X2942Y595D02*
X2953Y595D01*
X2990Y595D02*
X3001Y595D01*
X3180Y595D02*
X3195Y595D01*
X3244Y595D02*
X3260Y595D01*
X2074Y594D02*
X2117Y594D01*
X2158Y594D02*
X2197Y594D01*
X2241Y594D02*
X2252Y594D01*
X2259Y594D02*
X2295Y594D01*
X2329Y594D02*
X2340Y594D01*
X2376Y594D02*
X2388Y594D01*
X2463Y594D02*
X2476Y594D01*
X2510Y594D02*
X2557Y594D01*
X2591Y594D02*
X2646Y594D01*
X2679Y594D02*
X2690Y594D01*
X2697Y594D02*
X2733Y594D01*
X2767Y594D02*
X2778Y594D01*
X2815Y594D02*
X2826Y594D01*
X2854Y594D02*
X2909Y594D01*
X2942Y594D02*
X2953Y594D01*
X2990Y594D02*
X3001Y594D01*
X3180Y594D02*
X3193Y594D01*
X3246Y594D02*
X3260Y594D01*
X2075Y593D02*
X2116Y593D01*
X2159Y593D02*
X2196Y593D01*
X2241Y593D02*
X2252Y593D01*
X2261Y593D02*
X2294Y593D01*
X2329Y593D02*
X2340Y593D01*
X2377Y593D02*
X2388Y593D01*
X2464Y593D02*
X2476Y593D01*
X2510Y593D02*
X2557Y593D01*
X2591Y593D02*
X2646Y593D01*
X2679Y593D02*
X2690Y593D01*
X2699Y593D02*
X2732Y593D01*
X2767Y593D02*
X2778Y593D01*
X2815Y593D02*
X2826Y593D01*
X2854Y593D02*
X2865Y593D01*
X2867Y593D02*
X2908Y593D01*
X2942Y593D02*
X2953Y593D01*
X2990Y593D02*
X3001Y593D01*
X3179Y593D02*
X3191Y593D01*
X3248Y593D02*
X3260Y593D01*
X2077Y592D02*
X2115Y592D01*
X2160Y592D02*
X2195Y592D01*
X2241Y592D02*
X2252Y592D01*
X2262Y592D02*
X2293Y592D01*
X2329Y592D02*
X2340Y592D01*
X2377Y592D02*
X2388Y592D01*
X2464Y592D02*
X2475Y592D01*
X2510Y592D02*
X2557Y592D01*
X2592Y592D02*
X2602Y592D01*
X2606Y592D02*
X2645Y592D01*
X2679Y592D02*
X2690Y592D01*
X2700Y592D02*
X2731Y592D01*
X2767Y592D02*
X2778Y592D01*
X2815Y592D02*
X2826Y592D01*
X2854Y592D02*
X2865Y592D01*
X2869Y592D02*
X2907Y592D01*
X2942Y592D02*
X2953Y592D01*
X2990Y592D02*
X3001Y592D01*
X3179Y592D02*
X3190Y592D01*
X3250Y592D02*
X3260Y592D01*
X2078Y591D02*
X2114Y591D01*
X2161Y591D02*
X2193Y591D01*
X2242Y591D02*
X2252Y591D01*
X2264Y591D02*
X2292Y591D01*
X2329Y591D02*
X2339Y591D01*
X2378Y591D02*
X2388Y591D01*
X2465Y591D02*
X2475Y591D01*
X2510Y591D02*
X2557Y591D01*
X2592Y591D02*
X2602Y591D01*
X2608Y591D02*
X2643Y591D01*
X2680Y591D02*
X2690Y591D01*
X2702Y591D02*
X2729Y591D01*
X2767Y591D02*
X2777Y591D01*
X2815Y591D02*
X2825Y591D01*
X2855Y591D02*
X2865Y591D01*
X2871Y591D02*
X2906Y591D01*
X2942Y591D02*
X2952Y591D01*
X2990Y591D02*
X3000Y591D01*
X3179Y591D02*
X3189Y591D01*
X3251Y591D02*
X3261Y591D01*
X2079Y590D02*
X2112Y590D01*
X2163Y590D02*
X2192Y590D01*
X2242Y590D02*
X2251Y590D01*
X2266Y590D02*
X2290Y590D01*
X2330Y590D02*
X2339Y590D01*
X2378Y590D02*
X2387Y590D01*
X2466Y590D02*
X2474Y590D01*
X2511Y590D02*
X2556Y590D01*
X2593Y590D02*
X2601Y590D01*
X2610Y590D02*
X2642Y590D01*
X2680Y590D02*
X2689Y590D01*
X2703Y590D02*
X2728Y590D01*
X2768Y590D02*
X2777Y590D01*
X2816Y590D02*
X2825Y590D01*
X2855Y590D02*
X2864Y590D01*
X2872Y590D02*
X2905Y590D01*
X2943Y590D02*
X2952Y590D01*
X2991Y590D02*
X3000Y590D01*
X3179Y590D02*
X3189Y590D01*
X3251Y590D02*
X3261Y590D01*
X2081Y589D02*
X2110Y589D01*
X2164Y589D02*
X2190Y589D01*
X2243Y589D02*
X2250Y589D01*
X2268Y589D02*
X2288Y589D01*
X2331Y589D02*
X2338Y589D01*
X2379Y589D02*
X2386Y589D01*
X2466Y589D02*
X2474Y589D01*
X2512Y589D02*
X2555Y589D01*
X2594Y589D02*
X2601Y589D01*
X2611Y589D02*
X2640Y589D01*
X2681Y589D02*
X2688Y589D01*
X2705Y589D02*
X2726Y589D01*
X2769Y589D02*
X2776Y589D01*
X2817Y589D02*
X2824Y589D01*
X2856Y589D02*
X2863Y589D01*
X2874Y589D02*
X2903Y589D01*
X2944Y589D02*
X2951Y589D01*
X2992Y589D02*
X2999Y589D01*
X3179Y589D02*
X3189Y589D01*
X3251Y589D02*
X3261Y589D01*
X2084Y588D02*
X2107Y588D01*
X2167Y588D02*
X2187Y588D01*
X2245Y588D02*
X2249Y588D01*
X2270Y588D02*
X2285Y588D01*
X2332Y588D02*
X2336Y588D01*
X2381Y588D02*
X2385Y588D01*
X2468Y588D02*
X2472Y588D01*
X2513Y588D02*
X2554Y588D01*
X2595Y588D02*
X2599Y588D01*
X2613Y588D02*
X2637Y588D01*
X2683Y588D02*
X2687Y588D01*
X2708Y588D02*
X2723Y588D01*
X2770Y588D02*
X2774Y588D01*
X2818Y588D02*
X2822Y588D01*
X2858Y588D02*
X2862Y588D01*
X2876Y588D02*
X2900Y588D01*
X2945Y588D02*
X2949Y588D01*
X2993Y588D02*
X2998Y588D01*
X3179Y588D02*
X3189Y588D01*
X3250Y588D02*
X3261Y588D01*
X3179Y587D02*
X3190Y587D01*
X3249Y587D02*
X3260Y587D01*
X3179Y586D02*
X3192Y586D01*
X3247Y586D02*
X3260Y586D01*
X3180Y585D02*
X3194Y585D01*
X3245Y585D02*
X3260Y585D01*
X3180Y584D02*
X3196Y584D01*
X3243Y584D02*
X3259Y584D01*
X3181Y583D02*
X3198Y583D01*
X3241Y583D02*
X3259Y583D01*
X3181Y582D02*
X3200Y582D01*
X3239Y582D02*
X3258Y582D01*
X3182Y581D02*
X3202Y581D01*
X3237Y581D02*
X3257Y581D01*
X3183Y580D02*
X3204Y580D01*
X3235Y580D02*
X3257Y580D01*
X3184Y579D02*
X3206Y579D01*
X3234Y579D02*
X3256Y579D01*
X3186Y578D02*
X3208Y578D01*
X3232Y578D02*
X3254Y578D01*
X3187Y577D02*
X3210Y577D01*
X3230Y577D02*
X3253Y577D01*
X3189Y576D02*
X3212Y576D01*
X3228Y576D02*
X3251Y576D01*
X3191Y575D02*
X3214Y575D01*
X3225Y575D02*
X3249Y575D01*
X3193Y574D02*
X3247Y574D01*
X3195Y573D02*
X3245Y573D01*
X3197Y572D02*
X3242Y572D01*
X3199Y571D02*
X3240Y571D01*
X3201Y570D02*
X3238Y570D01*
X3203Y569D02*
X3236Y569D01*
X3205Y568D02*
X3234Y568D01*
X3207Y567D02*
X3232Y567D01*
X3209Y566D02*
X3230Y566D01*
X3211Y565D02*
X3228Y565D01*
X3215Y564D02*
X3225Y564D01*
X1777Y557D02*
X1786Y557D01*
X1776Y556D02*
X1788Y556D01*
X1775Y555D02*
X1789Y555D01*
X1774Y554D02*
X1790Y554D01*
X1773Y553D02*
X1790Y553D01*
X1773Y552D02*
X1790Y552D01*
X1850Y552D02*
X1885Y552D01*
X1773Y551D02*
X1790Y551D01*
X1847Y551D02*
X1888Y551D01*
X1773Y550D02*
X1790Y550D01*
X1845Y550D02*
X1890Y550D01*
X1773Y549D02*
X1790Y549D01*
X1843Y549D02*
X1891Y549D01*
X1773Y548D02*
X1790Y548D01*
X1842Y548D02*
X1892Y548D01*
X1773Y547D02*
X1790Y547D01*
X1841Y547D02*
X1893Y547D01*
X1773Y546D02*
X1790Y546D01*
X1840Y546D02*
X1894Y546D01*
X1773Y545D02*
X1790Y545D01*
X1839Y545D02*
X1894Y545D01*
X1774Y544D02*
X1790Y544D01*
X1839Y544D02*
X1895Y544D01*
X1774Y543D02*
X1789Y543D01*
X1838Y543D02*
X1895Y543D01*
X1775Y542D02*
X1789Y542D01*
X1838Y542D02*
X1895Y542D01*
X1776Y541D02*
X1787Y541D01*
X1837Y541D02*
X1896Y541D01*
X1837Y540D02*
X1852Y540D01*
X1883Y540D02*
X1896Y540D01*
X1837Y539D02*
X1849Y539D01*
X1885Y539D02*
X1896Y539D01*
X1837Y538D02*
X1849Y538D01*
X1885Y538D02*
X1896Y538D01*
X1837Y537D02*
X1848Y537D01*
X1884Y537D02*
X1896Y537D01*
X1837Y536D02*
X1848Y536D01*
X1883Y536D02*
X1896Y536D01*
X1837Y535D02*
X1848Y535D01*
X1882Y535D02*
X1895Y535D01*
X1837Y534D02*
X1847Y534D01*
X1882Y534D02*
X1895Y534D01*
X1837Y533D02*
X1847Y533D01*
X1881Y533D02*
X1895Y533D01*
X1838Y532D02*
X1846Y532D01*
X1880Y532D02*
X1894Y532D01*
X1839Y531D02*
X1845Y531D01*
X1879Y531D02*
X1894Y531D01*
X1841Y530D02*
X1844Y530D01*
X1878Y530D02*
X1893Y530D01*
X1878Y529D02*
X1892Y529D01*
X1877Y528D02*
X1892Y528D01*
X1876Y527D02*
X1891Y527D01*
X1665Y526D02*
X1669Y526D01*
X1686Y526D02*
X1703Y526D01*
X1777Y526D02*
X1799Y526D01*
X1875Y526D02*
X1890Y526D01*
X1664Y525D02*
X1671Y525D01*
X1683Y525D02*
X1706Y525D01*
X1775Y525D02*
X1800Y525D01*
X1875Y525D02*
X1889Y525D01*
X1663Y524D02*
X1671Y524D01*
X1681Y524D02*
X1707Y524D01*
X1774Y524D02*
X1801Y524D01*
X1874Y524D02*
X1888Y524D01*
X1662Y523D02*
X1672Y523D01*
X1679Y523D02*
X1709Y523D01*
X1774Y523D02*
X1802Y523D01*
X1873Y523D02*
X1888Y523D01*
X1662Y522D02*
X1672Y522D01*
X1678Y522D02*
X1710Y522D01*
X1773Y522D02*
X1802Y522D01*
X1872Y522D02*
X1887Y522D01*
X1661Y521D02*
X1673Y521D01*
X1677Y521D02*
X1711Y521D01*
X1773Y521D02*
X1802Y521D01*
X1871Y521D02*
X1886Y521D01*
X1661Y520D02*
X1673Y520D01*
X1676Y520D02*
X1713Y520D01*
X1773Y520D02*
X1802Y520D01*
X1871Y520D02*
X1885Y520D01*
X1661Y519D02*
X1673Y519D01*
X1675Y519D02*
X1714Y519D01*
X1773Y519D02*
X1802Y519D01*
X1870Y519D02*
X1885Y519D01*
X1661Y518D02*
X1715Y518D01*
X1773Y518D02*
X1802Y518D01*
X1869Y518D02*
X1884Y518D01*
X1661Y517D02*
X1716Y517D01*
X1773Y517D02*
X1801Y517D01*
X1868Y517D02*
X1883Y517D01*
X1661Y516D02*
X1717Y516D01*
X1773Y516D02*
X1800Y516D01*
X1868Y516D02*
X1882Y516D01*
X1661Y515D02*
X1717Y515D01*
X1773Y515D02*
X1799Y515D01*
X1867Y515D02*
X1881Y515D01*
X1661Y514D02*
X1687Y514D01*
X1701Y514D02*
X1718Y514D01*
X1773Y514D02*
X1784Y514D01*
X1866Y514D02*
X1881Y514D01*
X1661Y513D02*
X1685Y513D01*
X1703Y513D02*
X1719Y513D01*
X1773Y513D02*
X1784Y513D01*
X1865Y513D02*
X1880Y513D01*
X1661Y512D02*
X1684Y512D01*
X1704Y512D02*
X1719Y512D01*
X1773Y512D02*
X1784Y512D01*
X1864Y512D02*
X1879Y512D01*
X1661Y511D02*
X1683Y511D01*
X1705Y511D02*
X1720Y511D01*
X1773Y511D02*
X1784Y511D01*
X1864Y511D02*
X1878Y511D01*
X1661Y510D02*
X1682Y510D01*
X1707Y510D02*
X1720Y510D01*
X1773Y510D02*
X1784Y510D01*
X1863Y510D02*
X1878Y510D01*
X1661Y509D02*
X1681Y509D01*
X1708Y509D02*
X1720Y509D01*
X1773Y509D02*
X1784Y509D01*
X1862Y509D02*
X1877Y509D01*
X1661Y508D02*
X1680Y508D01*
X1708Y508D02*
X1720Y508D01*
X1773Y508D02*
X1784Y508D01*
X1861Y508D02*
X1876Y508D01*
X1661Y507D02*
X1678Y507D01*
X1709Y507D02*
X1721Y507D01*
X1773Y507D02*
X1784Y507D01*
X1861Y507D02*
X1875Y507D01*
X1661Y506D02*
X1677Y506D01*
X1709Y506D02*
X1721Y506D01*
X1773Y506D02*
X1784Y506D01*
X1860Y506D02*
X1875Y506D01*
X1661Y505D02*
X1676Y505D01*
X1710Y505D02*
X1721Y505D01*
X1773Y505D02*
X1784Y505D01*
X1859Y505D02*
X1874Y505D01*
X1661Y504D02*
X1675Y504D01*
X1710Y504D02*
X1721Y504D01*
X1773Y504D02*
X1784Y504D01*
X1858Y504D02*
X1873Y504D01*
X1661Y503D02*
X1674Y503D01*
X1710Y503D02*
X1721Y503D01*
X1773Y503D02*
X1784Y503D01*
X1857Y503D02*
X1872Y503D01*
X1661Y502D02*
X1673Y502D01*
X1710Y502D02*
X1721Y502D01*
X1773Y502D02*
X1784Y502D01*
X1857Y502D02*
X1871Y502D01*
X1661Y501D02*
X1673Y501D01*
X1710Y501D02*
X1721Y501D01*
X1773Y501D02*
X1784Y501D01*
X1856Y501D02*
X1871Y501D01*
X1661Y500D02*
X1673Y500D01*
X1710Y500D02*
X1721Y500D01*
X1773Y500D02*
X1784Y500D01*
X1855Y500D02*
X1870Y500D01*
X1661Y499D02*
X1673Y499D01*
X1710Y499D02*
X1721Y499D01*
X1773Y499D02*
X1784Y499D01*
X1854Y499D02*
X1869Y499D01*
X1661Y498D02*
X1673Y498D01*
X1710Y498D02*
X1721Y498D01*
X1773Y498D02*
X1784Y498D01*
X1854Y498D02*
X1868Y498D01*
X1661Y497D02*
X1673Y497D01*
X1710Y497D02*
X1721Y497D01*
X1773Y497D02*
X1784Y497D01*
X1853Y497D02*
X1868Y497D01*
X1661Y496D02*
X1673Y496D01*
X1710Y496D02*
X1721Y496D01*
X1773Y496D02*
X1784Y496D01*
X1852Y496D02*
X1867Y496D01*
X1661Y495D02*
X1673Y495D01*
X1710Y495D02*
X1721Y495D01*
X1773Y495D02*
X1784Y495D01*
X1851Y495D02*
X1866Y495D01*
X1661Y494D02*
X1673Y494D01*
X1710Y494D02*
X1721Y494D01*
X1773Y494D02*
X1784Y494D01*
X1850Y494D02*
X1865Y494D01*
X1661Y493D02*
X1673Y493D01*
X1710Y493D02*
X1721Y493D01*
X1773Y493D02*
X1784Y493D01*
X1850Y493D02*
X1864Y493D01*
X1661Y492D02*
X1673Y492D01*
X1710Y492D02*
X1721Y492D01*
X1773Y492D02*
X1784Y492D01*
X1849Y492D02*
X1864Y492D01*
X1661Y491D02*
X1673Y491D01*
X1710Y491D02*
X1721Y491D01*
X1773Y491D02*
X1784Y491D01*
X1848Y491D02*
X1863Y491D01*
X1661Y490D02*
X1673Y490D01*
X1710Y490D02*
X1721Y490D01*
X1773Y490D02*
X1784Y490D01*
X1847Y490D02*
X1862Y490D01*
X1661Y489D02*
X1673Y489D01*
X1710Y489D02*
X1721Y489D01*
X1773Y489D02*
X1784Y489D01*
X1847Y489D02*
X1861Y489D01*
X1661Y488D02*
X1673Y488D01*
X1710Y488D02*
X1721Y488D01*
X1773Y488D02*
X1784Y488D01*
X1846Y488D02*
X1861Y488D01*
X1661Y487D02*
X1674Y487D01*
X1710Y487D02*
X1721Y487D01*
X1773Y487D02*
X1784Y487D01*
X1845Y487D02*
X1860Y487D01*
X1661Y486D02*
X1674Y486D01*
X1710Y486D02*
X1721Y486D01*
X1773Y486D02*
X1784Y486D01*
X1844Y486D02*
X1859Y486D01*
X1661Y485D02*
X1675Y485D01*
X1710Y485D02*
X1721Y485D01*
X1773Y485D02*
X1784Y485D01*
X1843Y485D02*
X1858Y485D01*
X1661Y484D02*
X1677Y484D01*
X1710Y484D02*
X1721Y484D01*
X1773Y484D02*
X1784Y484D01*
X1843Y484D02*
X1857Y484D01*
X1661Y483D02*
X1678Y483D01*
X1709Y483D02*
X1721Y483D01*
X1773Y483D02*
X1784Y483D01*
X1842Y483D02*
X1857Y483D01*
X1661Y482D02*
X1679Y482D01*
X1709Y482D02*
X1720Y482D01*
X1773Y482D02*
X1784Y482D01*
X1841Y482D02*
X1856Y482D01*
X1661Y481D02*
X1680Y481D01*
X1708Y481D02*
X1720Y481D01*
X1773Y481D02*
X1784Y481D01*
X1840Y481D02*
X1855Y481D01*
X1661Y480D02*
X1681Y480D01*
X1708Y480D02*
X1720Y480D01*
X1773Y480D02*
X1784Y480D01*
X1840Y480D02*
X1854Y480D01*
X1889Y480D02*
X1892Y480D01*
X1661Y479D02*
X1682Y479D01*
X1707Y479D02*
X1720Y479D01*
X1773Y479D02*
X1784Y479D01*
X1839Y479D02*
X1854Y479D01*
X1887Y479D02*
X1893Y479D01*
X1661Y478D02*
X1684Y478D01*
X1706Y478D02*
X1719Y478D01*
X1773Y478D02*
X1784Y478D01*
X1838Y478D02*
X1853Y478D01*
X1886Y478D02*
X1894Y478D01*
X1661Y477D02*
X1685Y477D01*
X1704Y477D02*
X1719Y477D01*
X1773Y477D02*
X1784Y477D01*
X1838Y477D02*
X1852Y477D01*
X1885Y477D02*
X1895Y477D01*
X1661Y476D02*
X1686Y476D01*
X1703Y476D02*
X1718Y476D01*
X1773Y476D02*
X1784Y476D01*
X1837Y476D02*
X1851Y476D01*
X1885Y476D02*
X1896Y476D01*
X1661Y475D02*
X1718Y475D01*
X1773Y475D02*
X1784Y475D01*
X1837Y475D02*
X1850Y475D01*
X1885Y475D02*
X1896Y475D01*
X1661Y474D02*
X1717Y474D01*
X1773Y474D02*
X1784Y474D01*
X1837Y474D02*
X1850Y474D01*
X1885Y474D02*
X1896Y474D01*
X1661Y473D02*
X1716Y473D01*
X1773Y473D02*
X1784Y473D01*
X1837Y473D02*
X1849Y473D01*
X1884Y473D02*
X1896Y473D01*
X1661Y472D02*
X1715Y472D01*
X1773Y472D02*
X1784Y472D01*
X1837Y472D02*
X1848Y472D01*
X1884Y472D02*
X1896Y472D01*
X1661Y471D02*
X1714Y471D01*
X1773Y471D02*
X1784Y471D01*
X1837Y471D02*
X1848Y471D01*
X1883Y471D02*
X1896Y471D01*
X1661Y470D02*
X1673Y470D01*
X1675Y470D02*
X1713Y470D01*
X1762Y470D02*
X1796Y470D01*
X1837Y470D02*
X1895Y470D01*
X1661Y469D02*
X1673Y469D01*
X1676Y469D02*
X1712Y469D01*
X1758Y469D02*
X1799Y469D01*
X1837Y469D02*
X1895Y469D01*
X1661Y468D02*
X1673Y468D01*
X1677Y468D02*
X1711Y468D01*
X1757Y468D02*
X1801Y468D01*
X1837Y468D02*
X1895Y468D01*
X1661Y467D02*
X1673Y467D01*
X1678Y467D02*
X1710Y467D01*
X1756Y467D02*
X1801Y467D01*
X1838Y467D02*
X1894Y467D01*
X1661Y466D02*
X1673Y466D01*
X1680Y466D02*
X1708Y466D01*
X1755Y466D02*
X1802Y466D01*
X1838Y466D02*
X1894Y466D01*
X1661Y465D02*
X1673Y465D01*
X1682Y465D02*
X1707Y465D01*
X1755Y465D02*
X1802Y465D01*
X1838Y465D02*
X1893Y465D01*
X1661Y464D02*
X1673Y464D01*
X1684Y464D02*
X1705Y464D01*
X1755Y464D02*
X1802Y464D01*
X1839Y464D02*
X1892Y464D01*
X1661Y463D02*
X1673Y463D01*
X1689Y463D02*
X1699Y463D01*
X1755Y463D02*
X1802Y463D01*
X1840Y463D02*
X1891Y463D01*
X1661Y462D02*
X1673Y462D01*
X1755Y462D02*
X1802Y462D01*
X1841Y462D02*
X1890Y462D01*
X1661Y461D02*
X1673Y461D01*
X1756Y461D02*
X1802Y461D01*
X1842Y461D02*
X1889Y461D01*
X1661Y460D02*
X1673Y460D01*
X1757Y460D02*
X1801Y460D01*
X1843Y460D02*
X1888Y460D01*
X1661Y459D02*
X1673Y459D01*
X1758Y459D02*
X1800Y459D01*
X1845Y459D02*
X1886Y459D01*
X1661Y458D02*
X1673Y458D01*
X1760Y458D02*
X1798Y458D01*
X1848Y458D02*
X1882Y458D01*
X1661Y457D02*
X1673Y457D01*
X1661Y456D02*
X1673Y456D01*
X1661Y455D02*
X1673Y455D01*
X1661Y454D02*
X1673Y454D01*
X1661Y453D02*
X1673Y453D01*
X1662Y452D02*
X1673Y452D01*
X1662Y451D02*
X1674Y451D01*
X1662Y450D02*
X1674Y450D01*
X1662Y449D02*
X1675Y449D01*
X1662Y448D02*
X1676Y448D01*
X1663Y447D02*
X1678Y447D01*
X1663Y446D02*
X1679Y446D01*
X1664Y445D02*
X1680Y445D01*
X1665Y444D02*
X1711Y444D01*
X1665Y443D02*
X1712Y443D01*
X1666Y442D02*
X1713Y442D01*
X1667Y441D02*
X1714Y441D01*
X1668Y440D02*
X1714Y440D01*
X1669Y439D02*
X1715Y439D01*
X1670Y438D02*
X1715Y438D01*
X1672Y437D02*
X1715Y437D01*
X1673Y436D02*
X1714Y436D01*
X1674Y435D02*
X1714Y435D01*
X1676Y434D02*
X1713Y434D01*
X1678Y433D02*
X1712Y433D01*
X2176Y321D02*
X2220Y321D01*
X2172Y320D02*
X2220Y320D01*
X2170Y319D02*
X2220Y319D01*
X2169Y318D02*
X2220Y318D01*
X2167Y317D02*
X2220Y317D01*
X2166Y316D02*
X2220Y316D01*
X2165Y315D02*
X2220Y315D01*
X2164Y314D02*
X2220Y314D01*
X2164Y313D02*
X2220Y313D01*
X2163Y312D02*
X2220Y312D01*
X2162Y311D02*
X2220Y311D01*
X2162Y310D02*
X2220Y310D01*
X2162Y309D02*
X2178Y309D01*
X2208Y309D02*
X2220Y309D01*
X2161Y308D02*
X2175Y308D01*
X2209Y308D02*
X2220Y308D01*
X2161Y307D02*
X2173Y307D01*
X2209Y307D02*
X2220Y307D01*
X2161Y306D02*
X2173Y306D01*
X2209Y306D02*
X2220Y306D01*
X2161Y305D02*
X2172Y305D01*
X2209Y305D02*
X2220Y305D01*
X2161Y304D02*
X2172Y304D01*
X2209Y304D02*
X2220Y304D01*
X2161Y303D02*
X2172Y303D01*
X2209Y303D02*
X2220Y303D01*
X2160Y302D02*
X2172Y302D01*
X2209Y302D02*
X2220Y302D01*
X2160Y301D02*
X2172Y301D01*
X2209Y301D02*
X2220Y301D01*
X2160Y300D02*
X2172Y300D01*
X2209Y300D02*
X2220Y300D01*
X2160Y299D02*
X2172Y299D01*
X2209Y299D02*
X2220Y299D01*
X2160Y298D02*
X2172Y298D01*
X2209Y298D02*
X2220Y298D01*
X2160Y297D02*
X2172Y297D01*
X2209Y297D02*
X2220Y297D01*
X2161Y296D02*
X2172Y296D01*
X2209Y296D02*
X2220Y296D01*
X2161Y295D02*
X2172Y295D01*
X2209Y295D02*
X2220Y295D01*
X2161Y294D02*
X2172Y294D01*
X2209Y294D02*
X2220Y294D01*
X2161Y293D02*
X2173Y293D01*
X2209Y293D02*
X2220Y293D01*
X2161Y292D02*
X2174Y292D01*
X2209Y292D02*
X2220Y292D01*
X2161Y291D02*
X2175Y291D01*
X2209Y291D02*
X2220Y291D01*
X2162Y290D02*
X2220Y290D01*
X2162Y289D02*
X2220Y289D01*
X2163Y288D02*
X2220Y288D01*
X2163Y287D02*
X2220Y287D01*
X2164Y286D02*
X2220Y286D01*
X2165Y285D02*
X2220Y285D01*
X2166Y284D02*
X2220Y284D01*
X2167Y283D02*
X2220Y283D01*
X538Y282D02*
X541Y282D01*
X2168Y282D02*
X2220Y282D01*
X535Y281D02*
X543Y281D01*
X2169Y281D02*
X2220Y281D01*
X534Y280D02*
X545Y280D01*
X2171Y280D02*
X2220Y280D01*
X533Y279D02*
X546Y279D01*
X2174Y279D02*
X2220Y279D01*
X532Y278D02*
X546Y278D01*
X2185Y278D02*
X2199Y278D01*
X2208Y278D02*
X2220Y278D01*
X532Y277D02*
X547Y277D01*
X2185Y277D02*
X2199Y277D01*
X2209Y277D02*
X2220Y277D01*
X531Y276D02*
X547Y276D01*
X2185Y276D02*
X2198Y276D01*
X2209Y276D02*
X2220Y276D01*
X531Y275D02*
X548Y275D01*
X2184Y275D02*
X2197Y275D01*
X2209Y275D02*
X2220Y275D01*
X531Y274D02*
X548Y274D01*
X2184Y274D02*
X2197Y274D01*
X2209Y274D02*
X2220Y274D01*
X531Y273D02*
X548Y273D01*
X2183Y273D02*
X2196Y273D01*
X2209Y273D02*
X2220Y273D01*
X531Y272D02*
X548Y272D01*
X2182Y272D02*
X2196Y272D01*
X2209Y272D02*
X2220Y272D01*
X531Y271D02*
X548Y271D01*
X2182Y271D02*
X2195Y271D01*
X2209Y271D02*
X2220Y271D01*
X78Y270D02*
X152Y270D01*
X531Y270D02*
X548Y270D01*
X2181Y270D02*
X2194Y270D01*
X2209Y270D02*
X2220Y270D01*
X76Y269D02*
X155Y269D01*
X531Y269D02*
X548Y269D01*
X2181Y269D02*
X2194Y269D01*
X2209Y269D02*
X2220Y269D01*
X74Y268D02*
X156Y268D01*
X531Y268D02*
X548Y268D01*
X2180Y268D02*
X2193Y268D01*
X2209Y268D02*
X2220Y268D01*
X73Y267D02*
X157Y267D01*
X531Y267D02*
X548Y267D01*
X2179Y267D02*
X2193Y267D01*
X2209Y267D02*
X2220Y267D01*
X72Y266D02*
X158Y266D01*
X531Y266D02*
X548Y266D01*
X2179Y266D02*
X2192Y266D01*
X2209Y266D02*
X2220Y266D01*
X72Y265D02*
X158Y265D01*
X531Y265D02*
X548Y265D01*
X2178Y265D02*
X2192Y265D01*
X2209Y265D02*
X2220Y265D01*
X71Y264D02*
X159Y264D01*
X531Y264D02*
X548Y264D01*
X2178Y264D02*
X2191Y264D01*
X2209Y264D02*
X2220Y264D01*
X71Y263D02*
X159Y263D01*
X531Y263D02*
X548Y263D01*
X2177Y263D02*
X2190Y263D01*
X2209Y263D02*
X2220Y263D01*
X71Y262D02*
X159Y262D01*
X531Y262D02*
X548Y262D01*
X2176Y262D02*
X2190Y262D01*
X2209Y262D02*
X2220Y262D01*
X71Y261D02*
X159Y261D01*
X531Y261D02*
X548Y261D01*
X2176Y261D02*
X2189Y261D01*
X2209Y261D02*
X2220Y261D01*
X71Y260D02*
X159Y260D01*
X531Y260D02*
X548Y260D01*
X2175Y260D02*
X2189Y260D01*
X2209Y260D02*
X2220Y260D01*
X71Y259D02*
X159Y259D01*
X531Y259D02*
X548Y259D01*
X2175Y259D02*
X2188Y259D01*
X2209Y259D02*
X2220Y259D01*
X71Y258D02*
X159Y258D01*
X531Y258D02*
X548Y258D01*
X2174Y258D02*
X2187Y258D01*
X2209Y258D02*
X2220Y258D01*
X71Y257D02*
X159Y257D01*
X531Y257D02*
X548Y257D01*
X2174Y257D02*
X2187Y257D01*
X2209Y257D02*
X2220Y257D01*
X71Y256D02*
X159Y256D01*
X531Y256D02*
X548Y256D01*
X2173Y256D02*
X2186Y256D01*
X2209Y256D02*
X2220Y256D01*
X71Y255D02*
X159Y255D01*
X531Y255D02*
X548Y255D01*
X2172Y255D02*
X2186Y255D01*
X2209Y255D02*
X2220Y255D01*
X71Y254D02*
X159Y254D01*
X531Y254D02*
X548Y254D01*
X2172Y254D02*
X2185Y254D01*
X2209Y254D02*
X2220Y254D01*
X71Y253D02*
X159Y253D01*
X531Y253D02*
X548Y253D01*
X2171Y253D02*
X2185Y253D01*
X2209Y253D02*
X2220Y253D01*
X71Y252D02*
X159Y252D01*
X531Y252D02*
X548Y252D01*
X2171Y252D02*
X2184Y252D01*
X2209Y252D02*
X2220Y252D01*
X71Y251D02*
X159Y251D01*
X531Y251D02*
X548Y251D01*
X2170Y251D02*
X2183Y251D01*
X2209Y251D02*
X2220Y251D01*
X71Y250D02*
X159Y250D01*
X531Y250D02*
X548Y250D01*
X2169Y250D02*
X2183Y250D01*
X2209Y250D02*
X2220Y250D01*
X72Y249D02*
X158Y249D01*
X531Y249D02*
X548Y249D01*
X2169Y249D02*
X2182Y249D01*
X2209Y249D02*
X2220Y249D01*
X73Y248D02*
X158Y248D01*
X531Y248D02*
X548Y248D01*
X2168Y248D02*
X2182Y248D01*
X2209Y248D02*
X2220Y248D01*
X73Y247D02*
X157Y247D01*
X531Y247D02*
X548Y247D01*
X2168Y247D02*
X2181Y247D01*
X2209Y247D02*
X2220Y247D01*
X75Y246D02*
X156Y246D01*
X501Y246D02*
X578Y246D01*
X2167Y246D02*
X2180Y246D01*
X2209Y246D02*
X2220Y246D01*
X76Y245D02*
X154Y245D01*
X499Y245D02*
X580Y245D01*
X2167Y245D02*
X2180Y245D01*
X2209Y245D02*
X2220Y245D01*
X498Y244D02*
X581Y244D01*
X2166Y244D02*
X2179Y244D01*
X2209Y244D02*
X2220Y244D01*
X497Y243D02*
X582Y243D01*
X2165Y243D02*
X2179Y243D01*
X2209Y243D02*
X2220Y243D01*
X496Y242D02*
X582Y242D01*
X2165Y242D02*
X2178Y242D01*
X2209Y242D02*
X2220Y242D01*
X496Y241D02*
X583Y241D01*
X2164Y241D02*
X2178Y241D01*
X2209Y241D02*
X2220Y241D01*
X495Y240D02*
X583Y240D01*
X2164Y240D02*
X2177Y240D01*
X2209Y240D02*
X2220Y240D01*
X495Y239D02*
X583Y239D01*
X2163Y239D02*
X2176Y239D01*
X2209Y239D02*
X2220Y239D01*
X495Y238D02*
X583Y238D01*
X2162Y238D02*
X2176Y238D01*
X2209Y238D02*
X2220Y238D01*
X495Y237D02*
X583Y237D01*
X2162Y237D02*
X2175Y237D01*
X2209Y237D02*
X2220Y237D01*
X495Y236D02*
X583Y236D01*
X2161Y236D02*
X2175Y236D01*
X2209Y236D02*
X2220Y236D01*
X495Y235D02*
X583Y235D01*
X2161Y235D02*
X2174Y235D01*
X2209Y235D02*
X2220Y235D01*
X496Y234D02*
X583Y234D01*
X2161Y234D02*
X2173Y234D01*
X2209Y234D02*
X2220Y234D01*
X496Y233D02*
X582Y233D01*
X2161Y233D02*
X2173Y233D01*
X2209Y233D02*
X2220Y233D01*
X497Y232D02*
X582Y232D01*
X2161Y232D02*
X2172Y232D01*
X2209Y232D02*
X2220Y232D01*
X498Y231D02*
X581Y231D01*
X2161Y231D02*
X2172Y231D01*
X2209Y231D02*
X2219Y231D01*
X499Y230D02*
X580Y230D01*
X2161Y230D02*
X2171Y230D01*
X2209Y230D02*
X2219Y230D01*
X501Y229D02*
X578Y229D01*
X2162Y229D02*
X2170Y229D01*
X2210Y229D02*
X2218Y229D01*
X531Y228D02*
X548Y228D01*
X2163Y228D02*
X2169Y228D01*
X2211Y228D02*
X2217Y228D01*
X531Y227D02*
X548Y227D01*
X2165Y227D02*
X2167Y227D01*
X2213Y227D02*
X2215Y227D01*
X531Y226D02*
X548Y226D01*
X531Y225D02*
X548Y225D01*
X531Y224D02*
X548Y224D01*
X531Y223D02*
X548Y223D01*
X531Y222D02*
X548Y222D01*
X531Y221D02*
X548Y221D01*
X531Y220D02*
X548Y220D01*
X531Y219D02*
X548Y219D01*
X531Y218D02*
X548Y218D01*
X531Y217D02*
X548Y217D01*
X531Y216D02*
X548Y216D01*
X531Y215D02*
X548Y215D01*
X531Y214D02*
X548Y214D01*
X531Y213D02*
X548Y213D01*
X1955Y213D02*
X1994Y213D01*
X531Y212D02*
X548Y212D01*
X1952Y212D02*
X1994Y212D01*
X531Y211D02*
X548Y211D01*
X1950Y211D02*
X1994Y211D01*
X531Y210D02*
X548Y210D01*
X1949Y210D02*
X1994Y210D01*
X531Y209D02*
X548Y209D01*
X1948Y209D02*
X1994Y209D01*
X531Y208D02*
X548Y208D01*
X1947Y208D02*
X1994Y208D01*
X531Y207D02*
X548Y207D01*
X1946Y207D02*
X1994Y207D01*
X531Y206D02*
X548Y206D01*
X1945Y206D02*
X1994Y206D01*
X531Y205D02*
X548Y205D01*
X1945Y205D02*
X1994Y205D01*
X531Y204D02*
X548Y204D01*
X1944Y204D02*
X1994Y204D01*
X531Y203D02*
X548Y203D01*
X1944Y203D02*
X1994Y203D01*
X531Y202D02*
X548Y202D01*
X1943Y202D02*
X1955Y202D01*
X1985Y202D02*
X1994Y202D01*
X531Y201D02*
X548Y201D01*
X1943Y201D02*
X1954Y201D01*
X1985Y201D02*
X1994Y201D01*
X531Y200D02*
X548Y200D01*
X1943Y200D02*
X1953Y200D01*
X1985Y200D02*
X1994Y200D01*
X531Y199D02*
X547Y199D01*
X1943Y199D02*
X1953Y199D01*
X1985Y199D02*
X1994Y199D01*
X532Y198D02*
X547Y198D01*
X1943Y198D02*
X1952Y198D01*
X1985Y198D02*
X1994Y198D01*
X532Y197D02*
X546Y197D01*
X1943Y197D02*
X1952Y197D01*
X1985Y197D02*
X1994Y197D01*
X533Y196D02*
X546Y196D01*
X1943Y196D02*
X1952Y196D01*
X1985Y196D02*
X1994Y196D01*
X534Y195D02*
X545Y195D01*
X1943Y195D02*
X1952Y195D01*
X1985Y195D02*
X1994Y195D01*
X3342Y195D02*
X3347Y195D01*
X3517Y195D02*
X3542Y195D01*
X535Y194D02*
X543Y194D01*
X1943Y194D02*
X1952Y194D01*
X1985Y194D02*
X1994Y194D01*
X3341Y194D02*
X3348Y194D01*
X3516Y194D02*
X3545Y194D01*
X538Y193D02*
X541Y193D01*
X1943Y193D02*
X1952Y193D01*
X1985Y193D02*
X1994Y193D01*
X3340Y193D02*
X3349Y193D01*
X3515Y193D02*
X3547Y193D01*
X1943Y192D02*
X1952Y192D01*
X1985Y192D02*
X1994Y192D01*
X3339Y192D02*
X3349Y192D01*
X3514Y192D02*
X3548Y192D01*
X1943Y191D02*
X1952Y191D01*
X1985Y191D02*
X1994Y191D01*
X3339Y191D02*
X3350Y191D01*
X3514Y191D02*
X3549Y191D01*
X1943Y190D02*
X1953Y190D01*
X1985Y190D02*
X1994Y190D01*
X3339Y190D02*
X3350Y190D01*
X3514Y190D02*
X3550Y190D01*
X1943Y189D02*
X1953Y189D01*
X1985Y189D02*
X1994Y189D01*
X3339Y189D02*
X3350Y189D01*
X3514Y189D02*
X3551Y189D01*
X1943Y188D02*
X1954Y188D01*
X1985Y188D02*
X1994Y188D01*
X3339Y188D02*
X3350Y188D01*
X3514Y188D02*
X3552Y188D01*
X1943Y187D02*
X1955Y187D01*
X1985Y187D02*
X1994Y187D01*
X3339Y187D02*
X3350Y187D01*
X3514Y187D02*
X3553Y187D01*
X1944Y186D02*
X1994Y186D01*
X3339Y186D02*
X3350Y186D01*
X3515Y186D02*
X3554Y186D01*
X1944Y185D02*
X1994Y185D01*
X3339Y185D02*
X3350Y185D01*
X3516Y185D02*
X3554Y185D01*
X1945Y184D02*
X1994Y184D01*
X3339Y184D02*
X3350Y184D01*
X3518Y184D02*
X3555Y184D01*
X1945Y183D02*
X1994Y183D01*
X3339Y183D02*
X3350Y183D01*
X3540Y183D02*
X3556Y183D01*
X1946Y182D02*
X1994Y182D01*
X3339Y182D02*
X3350Y182D01*
X3542Y182D02*
X3557Y182D01*
X1947Y181D02*
X1994Y181D01*
X3339Y181D02*
X3350Y181D01*
X3543Y181D02*
X3557Y181D01*
X1948Y180D02*
X1994Y180D01*
X3339Y180D02*
X3350Y180D01*
X3544Y180D02*
X3558Y180D01*
X1949Y179D02*
X1994Y179D01*
X3339Y179D02*
X3350Y179D01*
X3544Y179D02*
X3559Y179D01*
X1950Y178D02*
X1994Y178D01*
X3339Y178D02*
X3350Y178D01*
X3545Y178D02*
X3560Y178D01*
X1952Y177D02*
X1994Y177D01*
X3339Y177D02*
X3350Y177D01*
X3546Y177D02*
X3561Y177D01*
X1955Y176D02*
X1994Y176D01*
X3339Y176D02*
X3350Y176D01*
X3547Y176D02*
X3561Y176D01*
X1964Y175D02*
X1976Y175D01*
X1985Y175D02*
X1994Y175D01*
X3339Y175D02*
X3350Y175D01*
X3548Y175D02*
X3562Y175D01*
X1964Y174D02*
X1975Y174D01*
X1985Y174D02*
X1994Y174D01*
X3339Y174D02*
X3350Y174D01*
X3548Y174D02*
X3563Y174D01*
X1963Y173D02*
X1975Y173D01*
X1985Y173D02*
X1994Y173D01*
X3339Y173D02*
X3350Y173D01*
X3549Y173D02*
X3564Y173D01*
X1963Y172D02*
X1974Y172D01*
X1985Y172D02*
X1994Y172D01*
X3339Y172D02*
X3350Y172D01*
X3550Y172D02*
X3564Y172D01*
X1962Y171D02*
X1974Y171D01*
X1985Y171D02*
X1994Y171D01*
X3339Y171D02*
X3350Y171D01*
X3551Y171D02*
X3565Y171D01*
X1962Y170D02*
X1973Y170D01*
X1985Y170D02*
X1994Y170D01*
X3339Y170D02*
X3350Y170D01*
X3366Y170D02*
X3376Y170D01*
X3445Y170D02*
X3453Y170D01*
X3480Y170D02*
X3480Y170D01*
X3551Y170D02*
X3566Y170D01*
X1961Y169D02*
X1972Y169D01*
X1985Y169D02*
X1994Y169D01*
X3339Y169D02*
X3350Y169D01*
X3361Y169D02*
X3382Y169D01*
X3440Y169D02*
X3458Y169D01*
X3477Y169D02*
X3483Y169D01*
X3552Y169D02*
X3567Y169D01*
X1960Y168D02*
X1972Y168D01*
X1985Y168D02*
X1994Y168D01*
X3339Y168D02*
X3350Y168D01*
X3359Y168D02*
X3384Y168D01*
X3438Y168D02*
X3460Y168D01*
X3476Y168D02*
X3484Y168D01*
X3553Y168D02*
X3568Y168D01*
X1960Y167D02*
X1971Y167D01*
X1985Y167D02*
X1994Y167D01*
X3339Y167D02*
X3350Y167D01*
X3357Y167D02*
X3385Y167D01*
X3436Y167D02*
X3462Y167D01*
X3475Y167D02*
X3485Y167D01*
X3554Y167D02*
X3568Y167D01*
X1959Y166D02*
X1971Y166D01*
X1985Y166D02*
X1994Y166D01*
X3339Y166D02*
X3350Y166D01*
X3356Y166D02*
X3387Y166D01*
X3435Y166D02*
X3463Y166D01*
X3475Y166D02*
X3485Y166D01*
X3555Y166D02*
X3569Y166D01*
X1959Y165D02*
X1970Y165D01*
X1985Y165D02*
X1994Y165D01*
X3339Y165D02*
X3350Y165D01*
X3355Y165D02*
X3388Y165D01*
X3433Y165D02*
X3465Y165D01*
X3474Y165D02*
X3485Y165D01*
X3555Y165D02*
X3570Y165D01*
X1958Y164D02*
X1970Y164D01*
X1985Y164D02*
X1994Y164D01*
X3339Y164D02*
X3350Y164D01*
X3354Y164D02*
X3389Y164D01*
X3432Y164D02*
X3467Y164D01*
X3474Y164D02*
X3485Y164D01*
X3556Y164D02*
X3570Y164D01*
X1957Y163D02*
X1969Y163D01*
X1985Y163D02*
X1994Y163D01*
X3339Y163D02*
X3350Y163D01*
X3352Y163D02*
X3390Y163D01*
X3432Y163D02*
X3468Y163D01*
X3474Y163D02*
X3486Y163D01*
X3557Y163D02*
X3571Y163D01*
X1957Y162D02*
X1968Y162D01*
X1985Y162D02*
X1994Y162D01*
X3339Y162D02*
X3391Y162D01*
X3431Y162D02*
X3470Y162D01*
X3474Y162D02*
X3486Y162D01*
X3558Y162D02*
X3571Y162D01*
X1956Y161D02*
X1968Y161D01*
X1985Y161D02*
X1994Y161D01*
X3339Y161D02*
X3392Y161D01*
X3430Y161D02*
X3471Y161D01*
X3474Y161D02*
X3486Y161D01*
X3559Y161D02*
X3572Y161D01*
X1956Y160D02*
X1967Y160D01*
X1985Y160D02*
X1994Y160D01*
X3339Y160D02*
X3393Y160D01*
X3430Y160D02*
X3486Y160D01*
X3559Y160D02*
X3572Y160D01*
X1955Y159D02*
X1967Y159D01*
X1985Y159D02*
X1994Y159D01*
X3339Y159D02*
X3394Y159D01*
X3429Y159D02*
X3486Y159D01*
X3560Y159D02*
X3572Y159D01*
X1955Y158D02*
X1966Y158D01*
X1985Y158D02*
X1994Y158D01*
X3339Y158D02*
X3395Y158D01*
X3429Y158D02*
X3486Y158D01*
X3561Y158D02*
X3572Y158D01*
X1954Y157D02*
X1965Y157D01*
X1985Y157D02*
X1994Y157D01*
X3339Y157D02*
X3363Y157D01*
X3379Y157D02*
X3396Y157D01*
X3429Y157D02*
X3442Y157D01*
X3456Y157D02*
X3486Y157D01*
X3561Y157D02*
X3573Y157D01*
X1953Y156D02*
X1965Y156D01*
X1985Y156D02*
X1994Y156D01*
X3339Y156D02*
X3362Y156D01*
X3381Y156D02*
X3396Y156D01*
X3428Y156D02*
X3441Y156D01*
X3457Y156D02*
X3486Y156D01*
X3561Y156D02*
X3573Y156D01*
X1953Y155D02*
X1964Y155D01*
X1985Y155D02*
X1994Y155D01*
X3339Y155D02*
X3361Y155D01*
X3382Y155D02*
X3397Y155D01*
X3428Y155D02*
X3440Y155D01*
X3459Y155D02*
X3486Y155D01*
X3562Y155D02*
X3573Y155D01*
X1952Y154D02*
X1964Y154D01*
X1985Y154D02*
X1994Y154D01*
X3339Y154D02*
X3360Y154D01*
X3383Y154D02*
X3397Y154D01*
X3428Y154D02*
X3440Y154D01*
X3460Y154D02*
X3486Y154D01*
X3562Y154D02*
X3573Y154D01*
X329Y153D02*
X333Y153D01*
X377Y153D02*
X424Y153D01*
X1952Y153D02*
X1963Y153D01*
X1985Y153D02*
X1994Y153D01*
X3339Y153D02*
X3359Y153D01*
X3384Y153D02*
X3397Y153D01*
X3428Y153D02*
X3439Y153D01*
X3462Y153D02*
X3486Y153D01*
X3562Y153D02*
X3573Y153D01*
X328Y152D02*
X335Y152D01*
X375Y152D02*
X425Y152D01*
X1951Y152D02*
X1963Y152D01*
X1985Y152D02*
X1994Y152D01*
X3339Y152D02*
X3357Y152D01*
X3385Y152D02*
X3398Y152D01*
X3428Y152D02*
X3439Y152D01*
X3464Y152D02*
X3486Y152D01*
X3562Y152D02*
X3573Y152D01*
X327Y151D02*
X336Y151D01*
X373Y151D02*
X426Y151D01*
X1950Y151D02*
X1962Y151D01*
X1985Y151D02*
X1994Y151D01*
X3339Y151D02*
X3356Y151D01*
X3386Y151D02*
X3398Y151D01*
X3428Y151D02*
X3439Y151D01*
X3465Y151D02*
X3486Y151D01*
X3562Y151D02*
X3573Y151D01*
X326Y150D02*
X336Y150D01*
X372Y150D02*
X427Y150D01*
X1950Y150D02*
X1961Y150D01*
X1985Y150D02*
X1994Y150D01*
X3339Y150D02*
X3355Y150D01*
X3386Y150D02*
X3398Y150D01*
X3428Y150D02*
X3439Y150D01*
X3467Y150D02*
X3486Y150D01*
X3562Y150D02*
X3573Y150D01*
X326Y149D02*
X337Y149D01*
X371Y149D02*
X427Y149D01*
X1949Y149D02*
X1961Y149D01*
X1985Y149D02*
X1994Y149D01*
X3339Y149D02*
X3354Y149D01*
X3387Y149D02*
X3398Y149D01*
X3428Y149D02*
X3439Y149D01*
X3468Y149D02*
X3486Y149D01*
X3562Y149D02*
X3573Y149D01*
X326Y148D02*
X337Y148D01*
X370Y148D02*
X427Y148D01*
X1949Y148D02*
X1960Y148D01*
X1985Y148D02*
X1994Y148D01*
X3339Y148D02*
X3353Y148D01*
X3387Y148D02*
X3398Y148D01*
X3428Y148D02*
X3439Y148D01*
X3470Y148D02*
X3486Y148D01*
X3562Y148D02*
X3573Y148D01*
X326Y147D02*
X337Y147D01*
X370Y147D02*
X427Y147D01*
X1948Y147D02*
X1960Y147D01*
X1985Y147D02*
X1994Y147D01*
X3339Y147D02*
X3352Y147D01*
X3387Y147D02*
X3398Y147D01*
X3428Y147D02*
X3439Y147D01*
X3471Y147D02*
X3486Y147D01*
X3562Y147D02*
X3573Y147D01*
X326Y146D02*
X337Y146D01*
X369Y146D02*
X427Y146D01*
X1948Y146D02*
X1959Y146D01*
X1985Y146D02*
X1994Y146D01*
X3339Y146D02*
X3351Y146D01*
X3387Y146D02*
X3398Y146D01*
X3428Y146D02*
X3439Y146D01*
X3473Y146D02*
X3486Y146D01*
X3562Y146D02*
X3573Y146D01*
X326Y145D02*
X337Y145D01*
X369Y145D02*
X427Y145D01*
X1947Y145D02*
X1958Y145D01*
X1985Y145D02*
X1994Y145D01*
X3339Y145D02*
X3350Y145D01*
X3387Y145D02*
X3398Y145D01*
X3428Y145D02*
X3439Y145D01*
X3474Y145D02*
X3486Y145D01*
X3562Y145D02*
X3573Y145D01*
X326Y144D02*
X337Y144D01*
X368Y144D02*
X426Y144D01*
X1946Y144D02*
X1958Y144D01*
X1985Y144D02*
X1994Y144D01*
X3339Y144D02*
X3350Y144D01*
X3387Y144D02*
X3398Y144D01*
X3427Y144D02*
X3439Y144D01*
X3474Y144D02*
X3486Y144D01*
X3514Y144D02*
X3539Y144D01*
X3562Y144D02*
X3573Y144D01*
X294Y143D02*
X296Y143D01*
X326Y143D02*
X337Y143D01*
X368Y143D02*
X425Y143D01*
X1946Y143D02*
X1957Y143D01*
X1985Y143D02*
X1994Y143D01*
X3339Y143D02*
X3350Y143D01*
X3387Y143D02*
X3398Y143D01*
X3427Y143D02*
X3439Y143D01*
X3474Y143D02*
X3486Y143D01*
X3514Y143D02*
X3541Y143D01*
X3562Y143D02*
X3573Y143D01*
X292Y142D02*
X298Y142D01*
X326Y142D02*
X337Y142D01*
X368Y142D02*
X424Y142D01*
X1945Y142D02*
X1957Y142D01*
X1985Y142D02*
X1994Y142D01*
X3339Y142D02*
X3350Y142D01*
X3387Y142D02*
X3398Y142D01*
X3427Y142D02*
X3439Y142D01*
X3474Y142D02*
X3486Y142D01*
X3514Y142D02*
X3542Y142D01*
X3562Y142D02*
X3573Y142D01*
X291Y141D02*
X299Y141D01*
X326Y141D02*
X337Y141D01*
X368Y141D02*
X379Y141D01*
X1945Y141D02*
X1956Y141D01*
X1985Y141D02*
X1994Y141D01*
X3339Y141D02*
X3350Y141D01*
X3387Y141D02*
X3398Y141D01*
X3427Y141D02*
X3439Y141D01*
X3474Y141D02*
X3486Y141D01*
X3514Y141D02*
X3542Y141D01*
X3562Y141D02*
X3573Y141D01*
X290Y140D02*
X300Y140D01*
X326Y140D02*
X337Y140D01*
X368Y140D02*
X379Y140D01*
X1944Y140D02*
X1956Y140D01*
X1985Y140D02*
X1994Y140D01*
X3339Y140D02*
X3350Y140D01*
X3387Y140D02*
X3398Y140D01*
X3427Y140D02*
X3439Y140D01*
X3474Y140D02*
X3486Y140D01*
X3514Y140D02*
X3543Y140D01*
X3562Y140D02*
X3573Y140D01*
X290Y139D02*
X301Y139D01*
X326Y139D02*
X337Y139D01*
X368Y139D02*
X379Y139D01*
X1943Y139D02*
X1955Y139D01*
X1985Y139D02*
X1994Y139D01*
X3339Y139D02*
X3350Y139D01*
X3387Y139D02*
X3398Y139D01*
X3427Y139D02*
X3439Y139D01*
X3474Y139D02*
X3486Y139D01*
X3514Y139D02*
X3543Y139D01*
X3562Y139D02*
X3573Y139D01*
X290Y138D02*
X301Y138D01*
X326Y138D02*
X337Y138D01*
X368Y138D02*
X379Y138D01*
X1943Y138D02*
X1954Y138D01*
X1985Y138D02*
X1994Y138D01*
X3339Y138D02*
X3350Y138D01*
X3387Y138D02*
X3398Y138D01*
X3427Y138D02*
X3438Y138D01*
X3474Y138D02*
X3486Y138D01*
X3514Y138D02*
X3543Y138D01*
X3562Y138D02*
X3573Y138D01*
X290Y137D02*
X301Y137D01*
X326Y137D02*
X337Y137D01*
X368Y137D02*
X379Y137D01*
X1943Y137D02*
X1954Y137D01*
X1985Y137D02*
X1994Y137D01*
X3339Y137D02*
X3350Y137D01*
X3387Y137D02*
X3398Y137D01*
X3427Y137D02*
X3438Y137D01*
X3474Y137D02*
X3486Y137D01*
X3514Y137D02*
X3543Y137D01*
X3562Y137D02*
X3573Y137D01*
X290Y136D02*
X301Y136D01*
X326Y136D02*
X337Y136D01*
X368Y136D02*
X379Y136D01*
X1943Y136D02*
X1953Y136D01*
X1985Y136D02*
X1994Y136D01*
X3339Y136D02*
X3350Y136D01*
X3387Y136D02*
X3398Y136D01*
X3427Y136D02*
X3438Y136D01*
X3474Y136D02*
X3486Y136D01*
X3514Y136D02*
X3543Y136D01*
X3562Y136D02*
X3573Y136D01*
X290Y135D02*
X301Y135D01*
X326Y135D02*
X337Y135D01*
X368Y135D02*
X379Y135D01*
X1943Y135D02*
X1953Y135D01*
X1985Y135D02*
X1994Y135D01*
X3339Y135D02*
X3350Y135D01*
X3387Y135D02*
X3398Y135D01*
X3427Y135D02*
X3438Y135D01*
X3474Y135D02*
X3486Y135D01*
X3514Y135D02*
X3542Y135D01*
X3562Y135D02*
X3573Y135D01*
X290Y134D02*
X301Y134D01*
X326Y134D02*
X337Y134D01*
X368Y134D02*
X379Y134D01*
X1943Y134D02*
X1952Y134D01*
X1985Y134D02*
X1994Y134D01*
X3339Y134D02*
X3350Y134D01*
X3387Y134D02*
X3398Y134D01*
X3427Y134D02*
X3438Y134D01*
X3474Y134D02*
X3486Y134D01*
X3514Y134D02*
X3541Y134D01*
X3562Y134D02*
X3573Y134D01*
X290Y133D02*
X301Y133D01*
X326Y133D02*
X337Y133D01*
X368Y133D02*
X379Y133D01*
X1944Y133D02*
X1951Y133D01*
X1986Y133D02*
X1993Y133D01*
X3339Y133D02*
X3350Y133D01*
X3387Y133D02*
X3398Y133D01*
X3427Y133D02*
X3438Y133D01*
X3474Y133D02*
X3486Y133D01*
X3514Y133D02*
X3540Y133D01*
X3562Y133D02*
X3573Y133D01*
X290Y132D02*
X301Y132D01*
X326Y132D02*
X337Y132D01*
X368Y132D02*
X379Y132D01*
X1945Y132D02*
X1951Y132D01*
X1987Y132D02*
X1992Y132D01*
X3339Y132D02*
X3350Y132D01*
X3387Y132D02*
X3398Y132D01*
X3427Y132D02*
X3438Y132D01*
X3474Y132D02*
X3486Y132D01*
X3514Y132D02*
X3525Y132D01*
X3562Y132D02*
X3573Y132D01*
X290Y131D02*
X301Y131D01*
X326Y131D02*
X337Y131D01*
X368Y131D02*
X379Y131D01*
X1946Y131D02*
X1949Y131D01*
X1988Y131D02*
X1991Y131D01*
X3339Y131D02*
X3350Y131D01*
X3387Y131D02*
X3398Y131D01*
X3427Y131D02*
X3438Y131D01*
X3474Y131D02*
X3486Y131D01*
X3514Y131D02*
X3525Y131D01*
X3562Y131D02*
X3573Y131D01*
X290Y130D02*
X301Y130D01*
X326Y130D02*
X337Y130D01*
X368Y130D02*
X379Y130D01*
X3339Y130D02*
X3350Y130D01*
X3387Y130D02*
X3398Y130D01*
X3427Y130D02*
X3438Y130D01*
X3474Y130D02*
X3486Y130D01*
X3514Y130D02*
X3525Y130D01*
X3562Y130D02*
X3573Y130D01*
X290Y129D02*
X301Y129D01*
X326Y129D02*
X337Y129D01*
X368Y129D02*
X379Y129D01*
X3339Y129D02*
X3350Y129D01*
X3387Y129D02*
X3398Y129D01*
X3427Y129D02*
X3438Y129D01*
X3474Y129D02*
X3486Y129D01*
X3514Y129D02*
X3525Y129D01*
X3562Y129D02*
X3573Y129D01*
X290Y128D02*
X301Y128D01*
X326Y128D02*
X337Y128D01*
X368Y128D02*
X379Y128D01*
X3339Y128D02*
X3350Y128D01*
X3387Y128D02*
X3398Y128D01*
X3427Y128D02*
X3438Y128D01*
X3474Y128D02*
X3486Y128D01*
X3514Y128D02*
X3525Y128D01*
X3562Y128D02*
X3573Y128D01*
X196Y127D02*
X201Y127D01*
X244Y127D02*
X249Y127D01*
X290Y127D02*
X301Y127D01*
X326Y127D02*
X337Y127D01*
X368Y127D02*
X379Y127D01*
X3339Y127D02*
X3350Y127D01*
X3387Y127D02*
X3398Y127D01*
X3427Y127D02*
X3438Y127D01*
X3474Y127D02*
X3486Y127D01*
X3514Y127D02*
X3525Y127D01*
X3562Y127D02*
X3573Y127D01*
X195Y126D02*
X202Y126D01*
X243Y126D02*
X250Y126D01*
X290Y126D02*
X301Y126D01*
X326Y126D02*
X337Y126D01*
X368Y126D02*
X379Y126D01*
X3339Y126D02*
X3350Y126D01*
X3387Y126D02*
X3398Y126D01*
X3427Y126D02*
X3438Y126D01*
X3474Y126D02*
X3486Y126D01*
X3514Y126D02*
X3525Y126D01*
X3562Y126D02*
X3573Y126D01*
X194Y125D02*
X203Y125D01*
X242Y125D02*
X251Y125D01*
X290Y125D02*
X301Y125D01*
X326Y125D02*
X337Y125D01*
X368Y125D02*
X379Y125D01*
X3339Y125D02*
X3351Y125D01*
X3387Y125D02*
X3398Y125D01*
X3427Y125D02*
X3438Y125D01*
X3474Y125D02*
X3486Y125D01*
X3514Y125D02*
X3525Y125D01*
X3562Y125D02*
X3573Y125D01*
X193Y124D02*
X204Y124D01*
X241Y124D02*
X252Y124D01*
X290Y124D02*
X301Y124D01*
X326Y124D02*
X337Y124D01*
X368Y124D02*
X379Y124D01*
X3339Y124D02*
X3352Y124D01*
X3387Y124D02*
X3398Y124D01*
X3427Y124D02*
X3438Y124D01*
X3474Y124D02*
X3486Y124D01*
X3514Y124D02*
X3525Y124D01*
X3562Y124D02*
X3573Y124D01*
X193Y123D02*
X204Y123D01*
X241Y123D02*
X252Y123D01*
X290Y123D02*
X301Y123D01*
X326Y123D02*
X337Y123D01*
X368Y123D02*
X379Y123D01*
X3339Y123D02*
X3353Y123D01*
X3387Y123D02*
X3398Y123D01*
X3427Y123D02*
X3438Y123D01*
X3474Y123D02*
X3486Y123D01*
X3514Y123D02*
X3525Y123D01*
X3562Y123D02*
X3573Y123D01*
X193Y122D02*
X204Y122D01*
X241Y122D02*
X252Y122D01*
X290Y122D02*
X301Y122D01*
X326Y122D02*
X337Y122D01*
X368Y122D02*
X379Y122D01*
X3339Y122D02*
X3354Y122D01*
X3387Y122D02*
X3398Y122D01*
X3427Y122D02*
X3438Y122D01*
X3474Y122D02*
X3486Y122D01*
X3514Y122D02*
X3525Y122D01*
X3562Y122D02*
X3573Y122D01*
X193Y121D02*
X204Y121D01*
X241Y121D02*
X252Y121D01*
X290Y121D02*
X301Y121D01*
X326Y121D02*
X337Y121D01*
X368Y121D02*
X379Y121D01*
X3339Y121D02*
X3355Y121D01*
X3386Y121D02*
X3398Y121D01*
X3427Y121D02*
X3438Y121D01*
X3474Y121D02*
X3486Y121D01*
X3514Y121D02*
X3525Y121D01*
X3562Y121D02*
X3573Y121D01*
X193Y120D02*
X204Y120D01*
X241Y120D02*
X252Y120D01*
X290Y120D02*
X301Y120D01*
X326Y120D02*
X337Y120D01*
X368Y120D02*
X379Y120D01*
X3339Y120D02*
X3357Y120D01*
X3386Y120D02*
X3398Y120D01*
X3427Y120D02*
X3438Y120D01*
X3474Y120D02*
X3486Y120D01*
X3514Y120D02*
X3525Y120D01*
X3562Y120D02*
X3573Y120D01*
X193Y119D02*
X204Y119D01*
X241Y119D02*
X252Y119D01*
X290Y119D02*
X301Y119D01*
X326Y119D02*
X337Y119D01*
X368Y119D02*
X379Y119D01*
X3339Y119D02*
X3358Y119D01*
X3385Y119D02*
X3397Y119D01*
X3427Y119D02*
X3438Y119D01*
X3474Y119D02*
X3486Y119D01*
X3514Y119D02*
X3525Y119D01*
X3562Y119D02*
X3573Y119D01*
X193Y118D02*
X204Y118D01*
X241Y118D02*
X252Y118D01*
X290Y118D02*
X301Y118D01*
X326Y118D02*
X337Y118D01*
X368Y118D02*
X379Y118D01*
X3339Y118D02*
X3359Y118D01*
X3384Y118D02*
X3397Y118D01*
X3427Y118D02*
X3438Y118D01*
X3474Y118D02*
X3486Y118D01*
X3514Y118D02*
X3525Y118D01*
X3562Y118D02*
X3573Y118D01*
X193Y117D02*
X204Y117D01*
X241Y117D02*
X252Y117D01*
X290Y117D02*
X301Y117D01*
X326Y117D02*
X337Y117D01*
X368Y117D02*
X379Y117D01*
X3339Y117D02*
X3360Y117D01*
X3383Y117D02*
X3397Y117D01*
X3427Y117D02*
X3438Y117D01*
X3474Y117D02*
X3486Y117D01*
X3514Y117D02*
X3526Y117D01*
X3561Y117D02*
X3573Y117D01*
X193Y116D02*
X204Y116D01*
X241Y116D02*
X252Y116D01*
X290Y116D02*
X301Y116D01*
X326Y116D02*
X337Y116D01*
X368Y116D02*
X379Y116D01*
X3339Y116D02*
X3361Y116D01*
X3382Y116D02*
X3397Y116D01*
X3427Y116D02*
X3438Y116D01*
X3474Y116D02*
X3486Y116D01*
X3514Y116D02*
X3526Y116D01*
X3561Y116D02*
X3573Y116D01*
X193Y115D02*
X204Y115D01*
X241Y115D02*
X252Y115D01*
X290Y115D02*
X301Y115D01*
X326Y115D02*
X337Y115D01*
X368Y115D02*
X379Y115D01*
X3339Y115D02*
X3362Y115D01*
X3380Y115D02*
X3396Y115D01*
X3427Y115D02*
X3438Y115D01*
X3474Y115D02*
X3486Y115D01*
X3514Y115D02*
X3527Y115D01*
X3560Y115D02*
X3572Y115D01*
X193Y114D02*
X204Y114D01*
X241Y114D02*
X252Y114D01*
X290Y114D02*
X301Y114D01*
X326Y114D02*
X337Y114D01*
X368Y114D02*
X379Y114D01*
X3339Y114D02*
X3364Y114D01*
X3379Y114D02*
X3395Y114D01*
X3427Y114D02*
X3438Y114D01*
X3474Y114D02*
X3486Y114D01*
X3515Y114D02*
X3529Y114D01*
X3558Y114D02*
X3572Y114D01*
X193Y113D02*
X204Y113D01*
X241Y113D02*
X252Y113D01*
X290Y113D02*
X301Y113D01*
X326Y113D02*
X337Y113D01*
X368Y113D02*
X379Y113D01*
X3339Y113D02*
X3395Y113D01*
X3426Y113D02*
X3438Y113D01*
X3474Y113D02*
X3486Y113D01*
X3515Y113D02*
X3572Y113D01*
X193Y112D02*
X204Y112D01*
X241Y112D02*
X252Y112D01*
X290Y112D02*
X301Y112D01*
X326Y112D02*
X337Y112D01*
X368Y112D02*
X418Y112D01*
X3339Y112D02*
X3394Y112D01*
X3426Y112D02*
X3438Y112D01*
X3474Y112D02*
X3486Y112D01*
X3515Y112D02*
X3571Y112D01*
X193Y111D02*
X205Y111D01*
X240Y111D02*
X252Y111D01*
X290Y111D02*
X301Y111D01*
X326Y111D02*
X337Y111D01*
X368Y111D02*
X421Y111D01*
X3339Y111D02*
X3393Y111D01*
X3426Y111D02*
X3438Y111D01*
X3474Y111D02*
X3486Y111D01*
X3516Y111D02*
X3571Y111D01*
X193Y110D02*
X205Y110D01*
X240Y110D02*
X252Y110D01*
X290Y110D02*
X301Y110D01*
X326Y110D02*
X337Y110D01*
X368Y110D02*
X422Y110D01*
X3339Y110D02*
X3392Y110D01*
X3426Y110D02*
X3438Y110D01*
X3474Y110D02*
X3486Y110D01*
X3517Y110D02*
X3570Y110D01*
X194Y109D02*
X206Y109D01*
X239Y109D02*
X252Y109D01*
X290Y109D02*
X301Y109D01*
X326Y109D02*
X337Y109D01*
X369Y109D02*
X423Y109D01*
X3339Y109D02*
X3391Y109D01*
X3426Y109D02*
X3437Y109D01*
X3474Y109D02*
X3486Y109D01*
X3517Y109D02*
X3570Y109D01*
X194Y108D02*
X206Y108D01*
X239Y108D02*
X251Y108D01*
X290Y108D02*
X301Y108D01*
X326Y108D02*
X337Y108D01*
X369Y108D02*
X424Y108D01*
X3339Y108D02*
X3350Y108D01*
X3352Y108D02*
X3390Y108D01*
X3426Y108D02*
X3437Y108D01*
X3474Y108D02*
X3486Y108D01*
X3518Y108D02*
X3569Y108D01*
X194Y107D02*
X207Y107D01*
X239Y107D02*
X251Y107D01*
X290Y107D02*
X301Y107D01*
X326Y107D02*
X337Y107D01*
X369Y107D02*
X425Y107D01*
X3339Y107D02*
X3350Y107D01*
X3353Y107D02*
X3389Y107D01*
X3426Y107D02*
X3437Y107D01*
X3474Y107D02*
X3485Y107D01*
X3519Y107D02*
X3568Y107D01*
X195Y106D02*
X207Y106D01*
X238Y106D02*
X250Y106D01*
X290Y106D02*
X301Y106D01*
X326Y106D02*
X337Y106D01*
X370Y106D02*
X426Y106D01*
X3339Y106D02*
X3350Y106D01*
X3355Y106D02*
X3388Y106D01*
X3426Y106D02*
X3437Y106D01*
X3474Y106D02*
X3485Y106D01*
X3520Y106D02*
X3567Y106D01*
X195Y105D02*
X208Y105D01*
X238Y105D02*
X250Y105D01*
X290Y105D02*
X301Y105D01*
X326Y105D02*
X337Y105D01*
X371Y105D02*
X426Y105D01*
X3339Y105D02*
X3349Y105D01*
X3356Y105D02*
X3387Y105D01*
X3427Y105D02*
X3437Y105D01*
X3475Y105D02*
X3485Y105D01*
X3521Y105D02*
X3566Y105D01*
X196Y104D02*
X208Y104D01*
X237Y104D02*
X250Y104D01*
X290Y104D02*
X301Y104D01*
X326Y104D02*
X337Y104D01*
X372Y104D02*
X427Y104D01*
X3340Y104D02*
X3349Y104D01*
X3357Y104D02*
X3385Y104D01*
X3427Y104D02*
X3436Y104D01*
X3475Y104D02*
X3484Y104D01*
X3523Y104D02*
X3564Y104D01*
X196Y103D02*
X208Y103D01*
X237Y103D02*
X249Y103D01*
X290Y103D02*
X301Y103D01*
X326Y103D02*
X337Y103D01*
X373Y103D02*
X427Y103D01*
X3341Y103D02*
X3348Y103D01*
X3360Y103D02*
X3383Y103D01*
X3428Y103D02*
X3436Y103D01*
X3476Y103D02*
X3484Y103D01*
X3524Y103D02*
X3563Y103D01*
X197Y102D02*
X209Y102D01*
X236Y102D02*
X249Y102D01*
X288Y102D02*
X337Y102D01*
X374Y102D02*
X427Y102D01*
X3342Y102D02*
X3347Y102D01*
X3362Y102D02*
X3381Y102D01*
X3430Y102D02*
X3434Y102D01*
X3478Y102D02*
X3482Y102D01*
X3527Y102D02*
X3560Y102D01*
X197Y101D02*
X209Y101D01*
X236Y101D02*
X248Y101D01*
X286Y101D02*
X337Y101D01*
X376Y101D02*
X427Y101D01*
X197Y100D02*
X210Y100D01*
X235Y100D02*
X248Y100D01*
X285Y100D02*
X337Y100D01*
X416Y100D02*
X427Y100D01*
X198Y99D02*
X210Y99D01*
X235Y99D02*
X247Y99D01*
X284Y99D02*
X337Y99D01*
X416Y99D02*
X427Y99D01*
X198Y98D02*
X211Y98D01*
X235Y98D02*
X247Y98D01*
X284Y98D02*
X337Y98D01*
X416Y98D02*
X427Y98D01*
X199Y97D02*
X211Y97D01*
X234Y97D02*
X247Y97D01*
X284Y97D02*
X337Y97D01*
X416Y97D02*
X427Y97D01*
X199Y96D02*
X212Y96D01*
X234Y96D02*
X246Y96D01*
X284Y96D02*
X337Y96D01*
X416Y96D02*
X427Y96D01*
X200Y95D02*
X212Y95D01*
X233Y95D02*
X246Y95D01*
X284Y95D02*
X337Y95D01*
X416Y95D02*
X427Y95D01*
X200Y94D02*
X212Y94D01*
X233Y94D02*
X245Y94D01*
X284Y94D02*
X337Y94D01*
X416Y94D02*
X427Y94D01*
X201Y93D02*
X213Y93D01*
X232Y93D02*
X245Y93D01*
X284Y93D02*
X337Y93D01*
X416Y93D02*
X427Y93D01*
X201Y92D02*
X213Y92D01*
X232Y92D02*
X244Y92D01*
X285Y92D02*
X337Y92D01*
X416Y92D02*
X427Y92D01*
X201Y91D02*
X214Y91D01*
X232Y91D02*
X244Y91D01*
X286Y91D02*
X337Y91D01*
X416Y91D02*
X427Y91D01*
X202Y90D02*
X214Y90D01*
X231Y90D02*
X243Y90D01*
X289Y90D02*
X336Y90D01*
X416Y90D02*
X427Y90D01*
X202Y89D02*
X215Y89D01*
X231Y89D02*
X243Y89D01*
X290Y89D02*
X301Y89D01*
X416Y89D02*
X427Y89D01*
X203Y88D02*
X215Y88D01*
X230Y88D02*
X243Y88D01*
X290Y88D02*
X301Y88D01*
X416Y88D02*
X427Y88D01*
X203Y87D02*
X215Y87D01*
X230Y87D02*
X242Y87D01*
X290Y87D02*
X301Y87D01*
X416Y87D02*
X427Y87D01*
X204Y86D02*
X216Y86D01*
X229Y86D02*
X242Y86D01*
X290Y86D02*
X301Y86D01*
X416Y86D02*
X427Y86D01*
X204Y85D02*
X216Y85D01*
X229Y85D02*
X241Y85D01*
X290Y85D02*
X301Y85D01*
X416Y85D02*
X427Y85D01*
X204Y84D02*
X217Y84D01*
X229Y84D02*
X241Y84D01*
X290Y84D02*
X301Y84D01*
X416Y84D02*
X427Y84D01*
X205Y83D02*
X217Y83D01*
X228Y83D02*
X240Y83D01*
X290Y83D02*
X301Y83D01*
X416Y83D02*
X427Y83D01*
X205Y82D02*
X218Y82D01*
X228Y82D02*
X240Y82D01*
X290Y82D02*
X301Y82D01*
X416Y82D02*
X427Y82D01*
X206Y81D02*
X218Y81D01*
X227Y81D02*
X240Y81D01*
X290Y81D02*
X301Y81D01*
X416Y81D02*
X427Y81D01*
X206Y80D02*
X219Y80D01*
X227Y80D02*
X239Y80D01*
X290Y80D02*
X301Y80D01*
X416Y80D02*
X427Y80D01*
X207Y79D02*
X219Y79D01*
X226Y79D02*
X239Y79D01*
X290Y79D02*
X301Y79D01*
X416Y79D02*
X427Y79D01*
X207Y78D02*
X219Y78D01*
X226Y78D02*
X238Y78D01*
X290Y78D02*
X301Y78D01*
X416Y78D02*
X427Y78D01*
X208Y77D02*
X220Y77D01*
X226Y77D02*
X238Y77D01*
X290Y77D02*
X301Y77D01*
X416Y77D02*
X427Y77D01*
X208Y76D02*
X220Y76D01*
X225Y76D02*
X237Y76D01*
X290Y76D02*
X301Y76D01*
X416Y76D02*
X427Y76D01*
X208Y75D02*
X221Y75D01*
X225Y75D02*
X237Y75D01*
X290Y75D02*
X301Y75D01*
X416Y75D02*
X427Y75D01*
X209Y74D02*
X221Y74D01*
X224Y74D02*
X236Y74D01*
X290Y74D02*
X301Y74D01*
X416Y74D02*
X427Y74D01*
X209Y73D02*
X222Y73D01*
X224Y73D02*
X236Y73D01*
X290Y73D02*
X301Y73D01*
X416Y73D02*
X427Y73D01*
X210Y72D02*
X236Y72D01*
X290Y72D02*
X301Y72D01*
X416Y72D02*
X427Y72D01*
X210Y71D02*
X235Y71D01*
X290Y71D02*
X301Y71D01*
X372Y71D02*
X427Y71D01*
X211Y70D02*
X235Y70D01*
X290Y70D02*
X301Y70D01*
X371Y70D02*
X427Y70D01*
X211Y69D02*
X234Y69D01*
X290Y69D02*
X301Y69D01*
X370Y69D02*
X427Y69D01*
X211Y68D02*
X234Y68D01*
X290Y68D02*
X301Y68D01*
X369Y68D02*
X427Y68D01*
X212Y67D02*
X233Y67D01*
X290Y67D02*
X301Y67D01*
X368Y67D02*
X427Y67D01*
X212Y66D02*
X233Y66D01*
X290Y66D02*
X301Y66D01*
X368Y66D02*
X427Y66D01*
X213Y65D02*
X233Y65D01*
X290Y65D02*
X301Y65D01*
X368Y65D02*
X427Y65D01*
X213Y64D02*
X232Y64D01*
X290Y64D02*
X301Y64D01*
X368Y64D02*
X427Y64D01*
X214Y63D02*
X232Y63D01*
X290Y63D02*
X300Y63D01*
X369Y63D02*
X427Y63D01*
X214Y62D02*
X231Y62D01*
X291Y62D02*
X300Y62D01*
X369Y62D02*
X427Y62D01*
X215Y61D02*
X230Y61D01*
X291Y61D02*
X299Y61D01*
X370Y61D02*
X427Y61D01*
X216Y60D02*
X229Y60D01*
X293Y60D02*
X298Y60D01*
X371Y60D02*
X427Y60D01*
D02*
G04 End of Copper0*
M02*