; NON-PLATED HOLES START AT T1
; THROUGH (PLATED) HOLES START AT T100
M48
INCH
T1C0.086614
T100C0.035000
T101C0.035433
T102C0.042000
T103C0.039370
T104C0.038000
%
T1
X000711Y022338
X000711Y001338
X038211Y022338
X038211Y001338
T100
X017211Y013838
X015211Y016838
X001711Y005357
X015211Y020838
X036711Y019338
X001711Y010357
X036711Y015338
X017211Y017838
X002711Y012857
X015211Y009338
X015211Y013338
X001711Y019357
X003711Y012857
X002711Y019357
T101
X011211Y008838
X011211Y009838
X011211Y007838
T102
X004711Y006377
X004711Y009357
T103
X034211Y020838
X032211Y020838
X030211Y020838
X020211Y002838
X018711Y020838
X035211Y020838
X033211Y020838
X031211Y020838
X021211Y002838
X019711Y020838
X003711Y003357
X002711Y003357
X021711Y020838
X020711Y020838
X008215Y020840
X009215Y020840
X009211Y002838
X024711Y002838
X026711Y002838
X028711Y002838
X011215Y020840
X023711Y002838
X025711Y002838
X027711Y002838
X029711Y002838
X010215Y020840
X024211Y020838
X010211Y002838
X014211Y002838
X016211Y002838
X029211Y020838
X027211Y020838
X025211Y020838
X011211Y002838
X015211Y002838
X019211Y002838
X030711Y002838
X032711Y002838
X034711Y002838
X036711Y002838
X028211Y020838
X026211Y020838
X033711Y002838
X035711Y002838
T104
X024711Y004838
X033711Y013838
X023711Y004838
X001711Y015857
X028711Y013838
X031711Y013838
X022714Y004842
X027711Y013838
X030711Y013838
X021714Y004842
X024711Y013838
X029711Y004838
X023711Y013838
X032711Y004838
X021711Y013838
X026711Y004838
X025711Y004838
X003711Y015857
X002711Y015857
X029711Y013838
X032711Y013838
X026711Y013838
X025711Y013838
X033711Y004838
X028711Y004838
X022711Y013838
X031711Y004838
X027711Y004838
X030711Y004838
T00
M30
