G04 MADE WITH FRITZING*
G04 WWW.FRITZING.ORG*
G04 DOUBLE SIDED*
G04 HOLES PLATED*
G04 CONTOUR ON CENTER OF CONTOUR VECTOR*
%ASAXBY*%
%FSLAX23Y23*%
%MOIN*%
%OFA0B0*%
%SFA1.0B1.0*%
%ADD10C,0.085433*%
%ADD11C,0.088000*%
%ADD12C,0.096614*%
%ADD13C,0.085000*%
%ADD14C,0.092000*%
%ADD15C,0.089370*%
%ADD16C,0.109055*%
%ADD17R,0.088000X0.088000*%
%ADD18R,0.085000X0.085000*%
%ADD19R,0.092000X0.092000*%
%ADD20R,0.089370X0.089370*%
%ADD21R,0.109055X0.109055*%
%LNMASK0*%
G90*
G70*
G54D10*
X1071Y984D03*
X121Y134D03*
X171Y2234D03*
X3721Y2234D03*
X3771Y134D03*
X1071Y884D03*
X1071Y784D03*
G54D11*
X371Y1586D03*
X271Y1586D03*
X171Y1586D03*
G54D12*
X3721Y2234D03*
X3771Y134D03*
X171Y2234D03*
X121Y134D03*
G54D11*
X2121Y484D03*
X2121Y1384D03*
X2221Y484D03*
X2221Y1384D03*
X2321Y484D03*
X2321Y1384D03*
X2421Y484D03*
X2421Y1384D03*
X2521Y484D03*
X2521Y1384D03*
X2621Y484D03*
X2621Y1384D03*
X2721Y484D03*
X2721Y1384D03*
X2821Y484D03*
X2821Y1384D03*
X2921Y484D03*
X2921Y1384D03*
X3021Y484D03*
X3021Y1384D03*
X3121Y484D03*
X3121Y1384D03*
X3221Y484D03*
X3221Y1384D03*
X3321Y484D03*
X3321Y1384D03*
G54D13*
X271Y1936D03*
X171Y1936D03*
G54D14*
X471Y936D03*
X471Y638D03*
G54D13*
X171Y536D03*
X171Y1036D03*
X271Y1286D03*
X371Y1286D03*
X1471Y2084D03*
X1471Y1684D03*
X3621Y1934D03*
X3621Y1534D03*
X1671Y1784D03*
X1671Y1384D03*
X1471Y1334D03*
X1471Y934D03*
G54D15*
X3021Y284D03*
X2921Y284D03*
X2821Y284D03*
X2721Y284D03*
X2621Y284D03*
X2521Y284D03*
X2421Y284D03*
X2321Y284D03*
G54D16*
X3621Y284D03*
X3521Y284D03*
X3421Y284D03*
X3321Y284D03*
X3221Y284D03*
G54D15*
X2071Y284D03*
X1971Y284D03*
X1871Y284D03*
X1071Y284D03*
X971Y284D03*
X871Y284D03*
X1571Y284D03*
X1471Y284D03*
X1371Y284D03*
X2371Y2084D03*
X2471Y2084D03*
X2571Y2084D03*
X2671Y2084D03*
X2771Y2084D03*
X2871Y2084D03*
X2971Y2084D03*
X3071Y2084D03*
X3171Y2084D03*
X3271Y2084D03*
X3371Y2084D03*
X3471Y2084D03*
G54D16*
X1821Y2084D03*
X1921Y2084D03*
X2021Y2084D03*
X2121Y2084D03*
G54D15*
X772Y2084D03*
X872Y2084D03*
X972Y2084D03*
X1072Y2084D03*
X371Y336D03*
X271Y336D03*
G54D17*
X371Y1586D03*
X2122Y485D03*
G54D18*
X271Y1936D03*
G54D19*
X471Y937D03*
G54D18*
X271Y1286D03*
G54D20*
X3021Y284D03*
G54D21*
X3621Y284D03*
G54D20*
X2071Y284D03*
X1071Y284D03*
X1571Y284D03*
X2371Y2084D03*
G54D21*
X1821Y2084D03*
G54D20*
X772Y2084D03*
X371Y336D03*
G04 End of Mask0*
M02*