G04 MADE WITH FRITZING*
G04 WWW.FRITZING.ORG*
G04 SINGLE SIDED*
G04 HOLES NOT PLATED*
G04 CONTOUR ON CENTER OF CONTOUR VECTOR*
%ASAXBY*%
%FSLAX23Y23*%
%MOIN*%
%OFA0B0*%
%SFA1.0B1.0*%
%ADD10C,0.075000*%
%ADD11C,0.082000*%
%ADD12C,0.079370*%
%ADD13C,0.078000*%
%ADD14R,0.075000X0.075000*%
%ADD15R,0.082000X0.082000*%
%ADD16R,0.079370X0.079370*%
%ADD17R,0.078000X0.078000*%
%ADD18C,0.048000*%
%LNCOPPER0*%
G90*
G70*
G54D10*
X1803Y359D03*
X1803Y459D03*
G54D11*
X703Y159D03*
X405Y159D03*
G54D10*
X303Y459D03*
X803Y459D03*
X1053Y359D03*
X1053Y259D03*
G54D12*
X2153Y459D03*
X2153Y359D03*
X2153Y259D03*
X2153Y159D03*
X153Y359D03*
X153Y459D03*
G54D13*
X1453Y259D03*
X1453Y359D03*
X1453Y459D03*
G54D14*
X1803Y359D03*
G54D15*
X704Y159D03*
G54D14*
X1053Y359D03*
G54D16*
X2153Y459D03*
X153Y359D03*
G54D17*
X1453Y259D03*
G54D18*
X195Y459D02*
X264Y459D01*
D02*
X303Y359D02*
X195Y359D01*
D02*
X386Y198D02*
X303Y359D01*
D02*
X1055Y460D02*
X843Y459D01*
D02*
X1054Y399D02*
X1055Y460D01*
D02*
X1055Y158D02*
X1054Y220D01*
D02*
X746Y159D02*
X1055Y158D01*
D02*
X1093Y359D02*
X1412Y359D01*
D02*
X1093Y259D02*
X1412Y259D01*
D02*
X2303Y460D02*
X2195Y459D01*
D02*
X2195Y259D02*
X2303Y258D01*
D02*
X2303Y258D02*
X2303Y460D01*
D02*
X1494Y359D02*
X1764Y359D01*
D02*
X2111Y459D02*
X1843Y459D01*
D02*
X1843Y359D02*
X2111Y359D01*
D02*
X1764Y459D02*
X1494Y459D01*
D02*
X2004Y359D02*
X2122Y359D01*
D02*
X2122Y159D02*
X2004Y158D01*
D02*
X2004Y158D02*
X2004Y359D01*
G04 End of Copper0*
M02*