G04 MADE WITH FRITZING*
G04 WWW.FRITZING.ORG*
G04 SINGLE SIDED*
G04 HOLES NOT PLATED*
G04 CONTOUR ON CENTER OF CONTOUR VECTOR*
%ASAXBY*%
%FSLAX23Y23*%
%MOIN*%
%OFA0B0*%
%SFA1.0B1.0*%
%ADD10C,0.210000X0.19*%
%ADD11R,2.370950X0.718008X2.354950X0.702008*%
%ADD12C,0.008000*%
%ADD13C,0.010000*%
%ADD14C,0.020000*%
%ADD15C,0.015269*%
%ADD16C,0.005985*%
%ADD17C,0.005000*%
%ADD18R,0.001000X0.001000*%
%LNSILK1*%
G90*
G70*
G54D10*
X1803Y409D03*
X1053Y309D03*
G54D12*
X4Y714D02*
X2367Y714D01*
X2367Y4D01*
X4Y4D01*
X4Y714D01*
D02*
G54D13*
X662Y159D02*
X649Y159D01*
D02*
X454Y159D02*
X447Y159D01*
D02*
X649Y114D02*
X454Y114D01*
D02*
X454Y114D02*
X454Y204D01*
D02*
X454Y204D02*
X649Y204D01*
D02*
X649Y204D02*
X649Y114D01*
G54D14*
D02*
X629Y204D02*
X629Y114D01*
G54D13*
D02*
X341Y459D02*
X428Y459D01*
D02*
X678Y459D02*
X766Y459D01*
D02*
X428Y500D02*
X678Y500D01*
D02*
X678Y500D02*
X678Y418D01*
D02*
X678Y418D02*
X428Y418D01*
D02*
X428Y418D02*
X428Y500D01*
G54D15*
D02*
X1530Y210D02*
X1530Y508D01*
D02*
X1530Y508D02*
X1377Y508D01*
D02*
X1377Y508D02*
X1377Y210D01*
D02*
X1377Y210D02*
X1530Y210D01*
G54D16*
D02*
X1530Y246D02*
X1498Y210D01*
G54D13*
D02*
X241Y304D02*
X241Y514D01*
D02*
X241Y514D02*
X25Y514D01*
D02*
X25Y514D02*
X25Y304D01*
D02*
X25Y304D02*
X241Y304D01*
G54D17*
D02*
X65Y514D02*
X65Y304D01*
G54D13*
D02*
X2065Y514D02*
X2065Y104D01*
D02*
X2065Y104D02*
X2281Y104D01*
D02*
X2281Y104D02*
X2281Y514D01*
D02*
X2281Y514D02*
X2065Y514D01*
G54D17*
D02*
X2241Y104D02*
X2241Y514D01*
G54D18*
X128Y606D02*
X144Y606D01*
X179Y606D02*
X195Y606D01*
X100Y605D02*
X104Y605D01*
X126Y605D02*
X145Y605D01*
X176Y605D02*
X195Y605D01*
X1771Y605D02*
X1788Y605D01*
X1808Y605D02*
X1836Y605D01*
X2124Y605D02*
X2127Y605D01*
X2150Y605D02*
X2168Y605D01*
X2200Y605D02*
X2228Y605D01*
X99Y604D02*
X105Y604D01*
X125Y604D02*
X145Y604D01*
X176Y604D02*
X195Y604D01*
X1769Y604D02*
X1789Y604D01*
X1807Y604D02*
X1838Y604D01*
X2123Y604D02*
X2128Y604D01*
X2149Y604D02*
X2168Y604D01*
X2199Y604D02*
X2230Y604D01*
X99Y603D02*
X105Y603D01*
X125Y603D02*
X145Y603D01*
X175Y603D02*
X195Y603D01*
X1768Y603D02*
X1790Y603D01*
X1807Y603D02*
X1839Y603D01*
X2123Y603D02*
X2128Y603D01*
X2149Y603D02*
X2168Y603D01*
X2199Y603D02*
X2231Y603D01*
X99Y602D02*
X105Y602D01*
X125Y602D02*
X145Y602D01*
X175Y602D02*
X195Y602D01*
X1766Y602D02*
X1790Y602D01*
X1807Y602D02*
X1839Y602D01*
X2122Y602D02*
X2128Y602D01*
X2149Y602D02*
X2168Y602D01*
X2199Y602D02*
X2231Y602D01*
X99Y601D02*
X105Y601D01*
X125Y601D02*
X145Y601D01*
X176Y601D02*
X195Y601D01*
X1766Y601D02*
X1790Y601D01*
X1807Y601D02*
X1840Y601D01*
X2122Y601D02*
X2128Y601D01*
X2149Y601D02*
X2168Y601D01*
X2199Y601D02*
X2232Y601D01*
X99Y600D02*
X105Y600D01*
X126Y600D02*
X145Y600D01*
X176Y600D02*
X195Y600D01*
X1765Y600D02*
X1789Y600D01*
X1807Y600D02*
X1840Y600D01*
X2122Y600D02*
X2128Y600D01*
X2149Y600D02*
X2168Y600D01*
X2200Y600D02*
X2232Y600D01*
X99Y599D02*
X105Y599D01*
X138Y599D02*
X145Y599D01*
X188Y599D02*
X195Y599D01*
X1765Y599D02*
X1788Y599D01*
X1809Y599D02*
X1840Y599D01*
X2122Y599D02*
X2128Y599D01*
X2151Y599D02*
X2168Y599D01*
X2201Y599D02*
X2232Y599D01*
X99Y598D02*
X105Y598D01*
X139Y598D02*
X145Y598D01*
X189Y598D02*
X195Y598D01*
X1764Y598D02*
X1772Y598D01*
X1834Y598D02*
X1840Y598D01*
X2122Y598D02*
X2128Y598D01*
X2162Y598D02*
X2168Y598D01*
X2226Y598D02*
X2232Y598D01*
X99Y597D02*
X105Y597D01*
X139Y597D02*
X145Y597D01*
X189Y597D02*
X195Y597D01*
X1198Y597D02*
X1231Y597D01*
X1254Y597D02*
X1274Y597D01*
X1298Y597D02*
X1323Y597D01*
X1401Y597D02*
X1418Y597D01*
X1501Y597D02*
X1527Y597D01*
X1553Y597D02*
X1554Y597D01*
X1606Y597D02*
X1630Y597D01*
X1655Y597D02*
X1678Y597D01*
X1764Y597D02*
X1771Y597D01*
X1834Y597D02*
X1840Y597D01*
X2122Y597D02*
X2128Y597D01*
X2162Y597D02*
X2168Y597D01*
X2226Y597D02*
X2232Y597D01*
X99Y596D02*
X105Y596D01*
X139Y596D02*
X145Y596D01*
X189Y596D02*
X195Y596D01*
X1198Y596D02*
X1231Y596D01*
X1252Y596D02*
X1277Y596D01*
X1298Y596D02*
X1326Y596D01*
X1400Y596D02*
X1418Y596D01*
X1500Y596D02*
X1529Y596D01*
X1552Y596D02*
X1556Y596D01*
X1606Y596D02*
X1632Y596D01*
X1653Y596D02*
X1680Y596D01*
X1763Y596D02*
X1770Y596D01*
X1834Y596D02*
X1840Y596D01*
X2122Y596D02*
X2128Y596D01*
X2162Y596D02*
X2168Y596D01*
X2226Y596D02*
X2232Y596D01*
X99Y595D02*
X105Y595D01*
X139Y595D02*
X145Y595D01*
X189Y595D02*
X195Y595D01*
X1198Y595D02*
X1231Y595D01*
X1250Y595D02*
X1278Y595D01*
X1298Y595D02*
X1328Y595D01*
X1399Y595D02*
X1418Y595D01*
X1499Y595D02*
X1530Y595D01*
X1551Y595D02*
X1557Y595D01*
X1606Y595D02*
X1633Y595D01*
X1652Y595D02*
X1681Y595D01*
X1763Y595D02*
X1770Y595D01*
X1834Y595D02*
X1840Y595D01*
X2122Y595D02*
X2128Y595D01*
X2162Y595D02*
X2168Y595D01*
X2226Y595D02*
X2232Y595D01*
X99Y594D02*
X105Y594D01*
X139Y594D02*
X145Y594D01*
X189Y594D02*
X195Y594D01*
X1198Y594D02*
X1231Y594D01*
X1250Y594D02*
X1279Y594D01*
X1298Y594D02*
X1329Y594D01*
X1399Y594D02*
X1418Y594D01*
X1499Y594D02*
X1531Y594D01*
X1551Y594D02*
X1557Y594D01*
X1606Y594D02*
X1633Y594D01*
X1651Y594D02*
X1682Y594D01*
X1762Y594D02*
X1769Y594D01*
X1834Y594D02*
X1840Y594D01*
X2122Y594D02*
X2128Y594D01*
X2162Y594D02*
X2168Y594D01*
X2226Y594D02*
X2232Y594D01*
X99Y593D02*
X105Y593D01*
X139Y593D02*
X145Y593D01*
X189Y593D02*
X195Y593D01*
X1198Y593D02*
X1231Y593D01*
X1249Y593D02*
X1280Y593D01*
X1298Y593D02*
X1330Y593D01*
X1399Y593D02*
X1418Y593D01*
X1499Y593D02*
X1532Y593D01*
X1551Y593D02*
X1557Y593D01*
X1606Y593D02*
X1633Y593D01*
X1650Y593D02*
X1682Y593D01*
X1762Y593D02*
X1769Y593D01*
X1834Y593D02*
X1840Y593D01*
X2122Y593D02*
X2128Y593D01*
X2162Y593D02*
X2168Y593D01*
X2226Y593D02*
X2232Y593D01*
X99Y592D02*
X105Y592D01*
X139Y592D02*
X145Y592D01*
X189Y592D02*
X195Y592D01*
X1198Y592D02*
X1231Y592D01*
X1248Y592D02*
X1281Y592D01*
X1298Y592D02*
X1330Y592D01*
X1399Y592D02*
X1418Y592D01*
X1499Y592D02*
X1532Y592D01*
X1551Y592D02*
X1557Y592D01*
X1606Y592D02*
X1632Y592D01*
X1650Y592D02*
X1683Y592D01*
X1761Y592D02*
X1768Y592D01*
X1834Y592D02*
X1840Y592D01*
X2122Y592D02*
X2128Y592D01*
X2162Y592D02*
X2168Y592D01*
X2226Y592D02*
X2232Y592D01*
X99Y591D02*
X105Y591D01*
X139Y591D02*
X145Y591D01*
X189Y591D02*
X195Y591D01*
X1198Y591D02*
X1231Y591D01*
X1248Y591D02*
X1281Y591D01*
X1298Y591D02*
X1331Y591D01*
X1400Y591D02*
X1418Y591D01*
X1500Y591D02*
X1532Y591D01*
X1551Y591D02*
X1557Y591D01*
X1574Y591D02*
X1575Y591D01*
X1606Y591D02*
X1632Y591D01*
X1650Y591D02*
X1683Y591D01*
X1761Y591D02*
X1768Y591D01*
X1834Y591D02*
X1840Y591D01*
X2122Y591D02*
X2128Y591D01*
X2162Y591D02*
X2168Y591D01*
X2226Y591D02*
X2232Y591D01*
X99Y590D02*
X105Y590D01*
X139Y590D02*
X145Y590D01*
X189Y590D02*
X195Y590D01*
X495Y590D02*
X521Y590D01*
X547Y590D02*
X565Y590D01*
X1198Y590D02*
X1204Y590D01*
X1211Y590D02*
X1218Y590D01*
X1225Y590D02*
X1231Y590D01*
X1248Y590D02*
X1254Y590D01*
X1274Y590D02*
X1281Y590D01*
X1298Y590D02*
X1304Y590D01*
X1323Y590D02*
X1331Y590D01*
X1412Y590D02*
X1418Y590D01*
X1526Y590D02*
X1533Y590D01*
X1551Y590D02*
X1557Y590D01*
X1572Y590D02*
X1577Y590D01*
X1606Y590D02*
X1612Y590D01*
X1650Y590D02*
X1656Y590D01*
X1677Y590D02*
X1683Y590D01*
X1760Y590D02*
X1767Y590D01*
X1834Y590D02*
X1840Y590D01*
X2122Y590D02*
X2128Y590D01*
X2162Y590D02*
X2168Y590D01*
X2226Y590D02*
X2232Y590D01*
X99Y589D02*
X105Y589D01*
X139Y589D02*
X145Y589D01*
X189Y589D02*
X195Y589D01*
X495Y589D02*
X523Y589D01*
X546Y589D02*
X565Y589D01*
X1198Y589D02*
X1204Y589D01*
X1212Y589D02*
X1218Y589D01*
X1225Y589D02*
X1231Y589D01*
X1248Y589D02*
X1254Y589D01*
X1275Y589D02*
X1281Y589D01*
X1298Y589D02*
X1304Y589D01*
X1325Y589D02*
X1332Y589D01*
X1412Y589D02*
X1418Y589D01*
X1527Y589D02*
X1533Y589D01*
X1551Y589D02*
X1557Y589D01*
X1572Y589D02*
X1577Y589D01*
X1606Y589D02*
X1612Y589D01*
X1650Y589D02*
X1656Y589D01*
X1677Y589D02*
X1683Y589D01*
X1760Y589D02*
X1767Y589D01*
X1834Y589D02*
X1840Y589D01*
X2122Y589D02*
X2128Y589D01*
X2162Y589D02*
X2168Y589D01*
X2226Y589D02*
X2232Y589D01*
X99Y588D02*
X105Y588D01*
X139Y588D02*
X145Y588D01*
X189Y588D02*
X195Y588D01*
X495Y588D02*
X525Y588D01*
X545Y588D02*
X565Y588D01*
X1198Y588D02*
X1204Y588D01*
X1212Y588D02*
X1218Y588D01*
X1225Y588D02*
X1231Y588D01*
X1248Y588D02*
X1255Y588D01*
X1276Y588D02*
X1282Y588D01*
X1298Y588D02*
X1304Y588D01*
X1325Y588D02*
X1332Y588D01*
X1412Y588D02*
X1418Y588D01*
X1527Y588D02*
X1533Y588D01*
X1551Y588D02*
X1557Y588D01*
X1572Y588D02*
X1577Y588D01*
X1606Y588D02*
X1612Y588D01*
X1650Y588D02*
X1656Y588D01*
X1677Y588D02*
X1683Y588D01*
X1759Y588D02*
X1766Y588D01*
X1834Y588D02*
X1840Y588D01*
X2122Y588D02*
X2128Y588D01*
X2162Y588D02*
X2168Y588D01*
X2226Y588D02*
X2232Y588D01*
X99Y587D02*
X105Y587D01*
X139Y587D02*
X145Y587D01*
X189Y587D02*
X195Y587D01*
X495Y587D02*
X526Y587D01*
X545Y587D02*
X565Y587D01*
X1198Y587D02*
X1204Y587D01*
X1212Y587D02*
X1218Y587D01*
X1226Y587D02*
X1231Y587D01*
X1248Y587D02*
X1256Y587D01*
X1276Y587D02*
X1281Y587D01*
X1298Y587D02*
X1304Y587D01*
X1326Y587D02*
X1332Y587D01*
X1412Y587D02*
X1418Y587D01*
X1527Y587D02*
X1533Y587D01*
X1551Y587D02*
X1557Y587D01*
X1571Y587D02*
X1578Y587D01*
X1606Y587D02*
X1612Y587D01*
X1650Y587D02*
X1656Y587D01*
X1677Y587D02*
X1683Y587D01*
X1759Y587D02*
X1766Y587D01*
X1834Y587D02*
X1840Y587D01*
X2122Y587D02*
X2128Y587D01*
X2162Y587D02*
X2168Y587D01*
X2226Y587D02*
X2232Y587D01*
X99Y586D02*
X105Y586D01*
X139Y586D02*
X145Y586D01*
X189Y586D02*
X195Y586D01*
X495Y586D02*
X526Y586D01*
X545Y586D02*
X565Y586D01*
X1198Y586D02*
X1203Y586D01*
X1212Y586D02*
X1218Y586D01*
X1226Y586D02*
X1231Y586D01*
X1249Y586D02*
X1256Y586D01*
X1276Y586D02*
X1281Y586D01*
X1298Y586D02*
X1304Y586D01*
X1326Y586D02*
X1332Y586D01*
X1412Y586D02*
X1418Y586D01*
X1527Y586D02*
X1533Y586D01*
X1551Y586D02*
X1557Y586D01*
X1571Y586D02*
X1578Y586D01*
X1606Y586D02*
X1612Y586D01*
X1650Y586D02*
X1656Y586D01*
X1677Y586D02*
X1683Y586D01*
X1758Y586D02*
X1765Y586D01*
X1834Y586D02*
X1840Y586D01*
X2122Y586D02*
X2128Y586D01*
X2162Y586D02*
X2168Y586D01*
X2226Y586D02*
X2232Y586D01*
X99Y585D02*
X105Y585D01*
X139Y585D02*
X145Y585D01*
X189Y585D02*
X195Y585D01*
X495Y585D02*
X527Y585D01*
X546Y585D02*
X565Y585D01*
X1199Y585D02*
X1202Y585D01*
X1212Y585D02*
X1218Y585D01*
X1227Y585D02*
X1230Y585D01*
X1249Y585D02*
X1257Y585D01*
X1277Y585D02*
X1280Y585D01*
X1298Y585D02*
X1304Y585D01*
X1326Y585D02*
X1332Y585D01*
X1412Y585D02*
X1418Y585D01*
X1527Y585D02*
X1533Y585D01*
X1551Y585D02*
X1557Y585D01*
X1571Y585D02*
X1578Y585D01*
X1606Y585D02*
X1612Y585D01*
X1650Y585D02*
X1656Y585D01*
X1677Y585D02*
X1683Y585D01*
X1758Y585D02*
X1765Y585D01*
X1834Y585D02*
X1840Y585D01*
X2122Y585D02*
X2128Y585D01*
X2162Y585D02*
X2168Y585D01*
X2226Y585D02*
X2232Y585D01*
X99Y584D02*
X105Y584D01*
X139Y584D02*
X145Y584D01*
X189Y584D02*
X195Y584D01*
X495Y584D02*
X528Y584D01*
X547Y584D02*
X565Y584D01*
X1212Y584D02*
X1218Y584D01*
X1250Y584D02*
X1258Y584D01*
X1298Y584D02*
X1304Y584D01*
X1326Y584D02*
X1332Y584D01*
X1412Y584D02*
X1418Y584D01*
X1527Y584D02*
X1533Y584D01*
X1551Y584D02*
X1557Y584D01*
X1571Y584D02*
X1578Y584D01*
X1606Y584D02*
X1612Y584D01*
X1650Y584D02*
X1656Y584D01*
X1677Y584D02*
X1683Y584D01*
X1757Y584D02*
X1764Y584D01*
X1834Y584D02*
X1840Y584D01*
X2122Y584D02*
X2128Y584D01*
X2162Y584D02*
X2168Y584D01*
X2226Y584D02*
X2232Y584D01*
X99Y583D02*
X105Y583D01*
X139Y583D02*
X145Y583D01*
X189Y583D02*
X195Y583D01*
X495Y583D02*
X501Y583D01*
X521Y583D02*
X528Y583D01*
X559Y583D02*
X565Y583D01*
X1212Y583D02*
X1218Y583D01*
X1251Y583D02*
X1259Y583D01*
X1298Y583D02*
X1304Y583D01*
X1326Y583D02*
X1332Y583D01*
X1412Y583D02*
X1418Y583D01*
X1527Y583D02*
X1533Y583D01*
X1551Y583D02*
X1557Y583D01*
X1571Y583D02*
X1578Y583D01*
X1606Y583D02*
X1612Y583D01*
X1650Y583D02*
X1656Y583D01*
X1677Y583D02*
X1683Y583D01*
X1757Y583D02*
X1764Y583D01*
X1833Y583D02*
X1840Y583D01*
X2122Y583D02*
X2128Y583D01*
X2162Y583D02*
X2168Y583D01*
X2225Y583D02*
X2232Y583D01*
X99Y582D02*
X105Y582D01*
X139Y582D02*
X145Y582D01*
X189Y582D02*
X195Y582D01*
X495Y582D02*
X501Y582D01*
X522Y582D02*
X528Y582D01*
X559Y582D02*
X565Y582D01*
X1212Y582D02*
X1218Y582D01*
X1251Y582D02*
X1259Y582D01*
X1298Y582D02*
X1304Y582D01*
X1326Y582D02*
X1332Y582D01*
X1412Y582D02*
X1418Y582D01*
X1527Y582D02*
X1533Y582D01*
X1551Y582D02*
X1557Y582D01*
X1571Y582D02*
X1578Y582D01*
X1606Y582D02*
X1612Y582D01*
X1650Y582D02*
X1656Y582D01*
X1677Y582D02*
X1683Y582D01*
X1757Y582D02*
X1763Y582D01*
X1816Y582D02*
X1840Y582D01*
X2122Y582D02*
X2128Y582D01*
X2162Y582D02*
X2168Y582D01*
X2208Y582D02*
X2232Y582D01*
X99Y581D02*
X105Y581D01*
X139Y581D02*
X145Y581D01*
X189Y581D02*
X195Y581D01*
X495Y581D02*
X501Y581D01*
X522Y581D02*
X528Y581D01*
X559Y581D02*
X565Y581D01*
X1212Y581D02*
X1218Y581D01*
X1252Y581D02*
X1260Y581D01*
X1298Y581D02*
X1304Y581D01*
X1325Y581D02*
X1332Y581D01*
X1412Y581D02*
X1418Y581D01*
X1527Y581D02*
X1533Y581D01*
X1551Y581D02*
X1557Y581D01*
X1571Y581D02*
X1578Y581D01*
X1606Y581D02*
X1612Y581D01*
X1650Y581D02*
X1656Y581D01*
X1677Y581D02*
X1683Y581D01*
X1757Y581D02*
X1763Y581D01*
X1814Y581D02*
X1839Y581D01*
X2122Y581D02*
X2128Y581D01*
X2162Y581D02*
X2168Y581D01*
X2206Y581D02*
X2231Y581D01*
X99Y580D02*
X105Y580D01*
X139Y580D02*
X145Y580D01*
X189Y580D02*
X195Y580D01*
X495Y580D02*
X501Y580D01*
X522Y580D02*
X528Y580D01*
X559Y580D02*
X565Y580D01*
X1212Y580D02*
X1218Y580D01*
X1253Y580D02*
X1261Y580D01*
X1298Y580D02*
X1304Y580D01*
X1324Y580D02*
X1331Y580D01*
X1412Y580D02*
X1418Y580D01*
X1527Y580D02*
X1533Y580D01*
X1551Y580D02*
X1557Y580D01*
X1571Y580D02*
X1578Y580D01*
X1606Y580D02*
X1612Y580D01*
X1650Y580D02*
X1656Y580D01*
X1677Y580D02*
X1683Y580D01*
X1756Y580D02*
X1763Y580D01*
X1814Y580D02*
X1838Y580D01*
X2122Y580D02*
X2128Y580D01*
X2162Y580D02*
X2168Y580D01*
X2206Y580D02*
X2230Y580D01*
X99Y579D02*
X105Y579D01*
X139Y579D02*
X145Y579D01*
X189Y579D02*
X195Y579D01*
X495Y579D02*
X501Y579D01*
X522Y579D02*
X528Y579D01*
X559Y579D02*
X565Y579D01*
X1212Y579D02*
X1218Y579D01*
X1254Y579D02*
X1262Y579D01*
X1298Y579D02*
X1331Y579D01*
X1412Y579D02*
X1418Y579D01*
X1527Y579D02*
X1533Y579D01*
X1551Y579D02*
X1557Y579D01*
X1571Y579D02*
X1578Y579D01*
X1606Y579D02*
X1612Y579D01*
X1650Y579D02*
X1656Y579D01*
X1677Y579D02*
X1683Y579D01*
X1756Y579D02*
X1762Y579D01*
X1814Y579D02*
X1838Y579D01*
X2122Y579D02*
X2128Y579D01*
X2162Y579D02*
X2168Y579D01*
X2206Y579D02*
X2230Y579D01*
X99Y578D02*
X105Y578D01*
X139Y578D02*
X145Y578D01*
X189Y578D02*
X195Y578D01*
X495Y578D02*
X501Y578D01*
X522Y578D02*
X528Y578D01*
X559Y578D02*
X565Y578D01*
X1212Y578D02*
X1218Y578D01*
X1255Y578D02*
X1263Y578D01*
X1298Y578D02*
X1330Y578D01*
X1412Y578D02*
X1418Y578D01*
X1527Y578D02*
X1533Y578D01*
X1551Y578D02*
X1557Y578D01*
X1571Y578D02*
X1578Y578D01*
X1606Y578D02*
X1612Y578D01*
X1650Y578D02*
X1656Y578D01*
X1677Y578D02*
X1683Y578D01*
X1756Y578D02*
X1763Y578D01*
X1814Y578D02*
X1838Y578D01*
X2122Y578D02*
X2128Y578D01*
X2162Y578D02*
X2168Y578D01*
X2206Y578D02*
X2230Y578D01*
X99Y577D02*
X105Y577D01*
X139Y577D02*
X145Y577D01*
X189Y577D02*
X195Y577D01*
X495Y577D02*
X501Y577D01*
X522Y577D02*
X528Y577D01*
X559Y577D02*
X565Y577D01*
X1212Y577D02*
X1218Y577D01*
X1255Y577D02*
X1263Y577D01*
X1298Y577D02*
X1330Y577D01*
X1412Y577D02*
X1418Y577D01*
X1527Y577D02*
X1533Y577D01*
X1551Y577D02*
X1557Y577D01*
X1571Y577D02*
X1578Y577D01*
X1606Y577D02*
X1612Y577D01*
X1650Y577D02*
X1656Y577D01*
X1677Y577D02*
X1683Y577D01*
X1757Y577D02*
X1763Y577D01*
X1814Y577D02*
X1839Y577D01*
X2122Y577D02*
X2128Y577D01*
X2162Y577D02*
X2168Y577D01*
X2206Y577D02*
X2231Y577D01*
X80Y576D02*
X83Y576D01*
X99Y576D02*
X105Y576D01*
X139Y576D02*
X145Y576D01*
X154Y576D02*
X157Y576D01*
X189Y576D02*
X195Y576D01*
X204Y576D02*
X207Y576D01*
X495Y576D02*
X501Y576D01*
X522Y576D02*
X528Y576D01*
X559Y576D02*
X565Y576D01*
X1212Y576D02*
X1218Y576D01*
X1256Y576D02*
X1264Y576D01*
X1298Y576D02*
X1329Y576D01*
X1412Y576D02*
X1418Y576D01*
X1527Y576D02*
X1533Y576D01*
X1551Y576D02*
X1557Y576D01*
X1571Y576D02*
X1578Y576D01*
X1606Y576D02*
X1612Y576D01*
X1650Y576D02*
X1656Y576D01*
X1677Y576D02*
X1683Y576D01*
X1757Y576D02*
X1763Y576D01*
X1815Y576D02*
X1839Y576D01*
X2104Y576D02*
X2106Y576D01*
X2122Y576D02*
X2128Y576D01*
X2162Y576D02*
X2168Y576D01*
X2178Y576D02*
X2180Y576D01*
X2207Y576D02*
X2231Y576D01*
X79Y575D02*
X84Y575D01*
X99Y575D02*
X105Y575D01*
X139Y575D02*
X145Y575D01*
X153Y575D02*
X158Y575D01*
X189Y575D02*
X195Y575D01*
X203Y575D02*
X208Y575D01*
X495Y575D02*
X501Y575D01*
X522Y575D02*
X528Y575D01*
X559Y575D02*
X565Y575D01*
X1212Y575D02*
X1218Y575D01*
X1257Y575D02*
X1265Y575D01*
X1298Y575D02*
X1328Y575D01*
X1412Y575D02*
X1418Y575D01*
X1527Y575D02*
X1533Y575D01*
X1551Y575D02*
X1557Y575D01*
X1571Y575D02*
X1578Y575D01*
X1606Y575D02*
X1612Y575D01*
X1650Y575D02*
X1656Y575D01*
X1677Y575D02*
X1683Y575D01*
X1757Y575D02*
X1763Y575D01*
X1831Y575D02*
X1840Y575D01*
X2103Y575D02*
X2107Y575D01*
X2122Y575D02*
X2128Y575D01*
X2162Y575D02*
X2168Y575D01*
X2177Y575D02*
X2181Y575D01*
X2224Y575D02*
X2232Y575D01*
X78Y574D02*
X84Y574D01*
X99Y574D02*
X105Y574D01*
X139Y574D02*
X145Y574D01*
X153Y574D02*
X158Y574D01*
X189Y574D02*
X195Y574D01*
X203Y574D02*
X209Y574D01*
X495Y574D02*
X501Y574D01*
X521Y574D02*
X528Y574D01*
X559Y574D02*
X565Y574D01*
X1212Y574D02*
X1218Y574D01*
X1258Y574D02*
X1266Y574D01*
X1298Y574D02*
X1327Y574D01*
X1412Y574D02*
X1418Y574D01*
X1526Y574D02*
X1533Y574D01*
X1551Y574D02*
X1557Y574D01*
X1571Y574D02*
X1578Y574D01*
X1606Y574D02*
X1612Y574D01*
X1650Y574D02*
X1656Y574D01*
X1677Y574D02*
X1683Y574D01*
X1757Y574D02*
X1764Y574D01*
X1833Y574D02*
X1840Y574D01*
X2102Y574D02*
X2108Y574D01*
X2122Y574D02*
X2128Y574D01*
X2162Y574D02*
X2168Y574D01*
X2176Y574D02*
X2182Y574D01*
X2225Y574D02*
X2232Y574D01*
X78Y573D02*
X84Y573D01*
X99Y573D02*
X105Y573D01*
X139Y573D02*
X145Y573D01*
X153Y573D02*
X159Y573D01*
X189Y573D02*
X195Y573D01*
X203Y573D02*
X209Y573D01*
X495Y573D02*
X501Y573D01*
X519Y573D02*
X528Y573D01*
X559Y573D02*
X565Y573D01*
X1212Y573D02*
X1218Y573D01*
X1258Y573D02*
X1266Y573D01*
X1298Y573D02*
X1324Y573D01*
X1350Y573D02*
X1380Y573D01*
X1412Y573D02*
X1418Y573D01*
X1450Y573D02*
X1481Y573D01*
X1503Y573D02*
X1532Y573D01*
X1551Y573D02*
X1557Y573D01*
X1571Y573D02*
X1578Y573D01*
X1606Y573D02*
X1629Y573D01*
X1650Y573D02*
X1656Y573D01*
X1677Y573D02*
X1683Y573D01*
X1758Y573D02*
X1764Y573D01*
X1834Y573D02*
X1840Y573D01*
X2102Y573D02*
X2108Y573D01*
X2122Y573D02*
X2128Y573D01*
X2162Y573D02*
X2168Y573D01*
X2176Y573D02*
X2182Y573D01*
X2226Y573D02*
X2232Y573D01*
X78Y572D02*
X84Y572D01*
X99Y572D02*
X105Y572D01*
X139Y572D02*
X145Y572D01*
X153Y572D02*
X159Y572D01*
X189Y572D02*
X195Y572D01*
X203Y572D02*
X209Y572D01*
X495Y572D02*
X527Y572D01*
X559Y572D02*
X565Y572D01*
X1212Y572D02*
X1218Y572D01*
X1259Y572D02*
X1267Y572D01*
X1298Y572D02*
X1304Y572D01*
X1310Y572D02*
X1318Y572D01*
X1349Y572D02*
X1381Y572D01*
X1412Y572D02*
X1418Y572D01*
X1449Y572D02*
X1482Y572D01*
X1502Y572D02*
X1532Y572D01*
X1551Y572D02*
X1557Y572D01*
X1571Y572D02*
X1578Y572D01*
X1606Y572D02*
X1630Y572D01*
X1650Y572D02*
X1656Y572D01*
X1677Y572D02*
X1683Y572D01*
X1758Y572D02*
X1765Y572D01*
X1834Y572D02*
X1840Y572D01*
X2102Y572D02*
X2108Y572D01*
X2122Y572D02*
X2128Y572D01*
X2162Y572D02*
X2168Y572D01*
X2176Y572D02*
X2182Y572D01*
X2226Y572D02*
X2232Y572D01*
X78Y571D02*
X84Y571D01*
X99Y571D02*
X105Y571D01*
X139Y571D02*
X145Y571D01*
X153Y571D02*
X159Y571D01*
X189Y571D02*
X195Y571D01*
X203Y571D02*
X209Y571D01*
X495Y571D02*
X527Y571D01*
X559Y571D02*
X565Y571D01*
X1212Y571D02*
X1218Y571D01*
X1260Y571D02*
X1268Y571D01*
X1298Y571D02*
X1304Y571D01*
X1311Y571D02*
X1318Y571D01*
X1349Y571D02*
X1382Y571D01*
X1412Y571D02*
X1418Y571D01*
X1449Y571D02*
X1482Y571D01*
X1501Y571D02*
X1532Y571D01*
X1551Y571D02*
X1557Y571D01*
X1571Y571D02*
X1578Y571D01*
X1606Y571D02*
X1631Y571D01*
X1650Y571D02*
X1656Y571D01*
X1677Y571D02*
X1683Y571D01*
X1758Y571D02*
X1765Y571D01*
X1834Y571D02*
X1840Y571D01*
X2102Y571D02*
X2108Y571D01*
X2122Y571D02*
X2128Y571D01*
X2162Y571D02*
X2168Y571D01*
X2176Y571D02*
X2182Y571D01*
X2226Y571D02*
X2232Y571D01*
X78Y570D02*
X84Y570D01*
X99Y570D02*
X105Y570D01*
X139Y570D02*
X145Y570D01*
X153Y570D02*
X159Y570D01*
X189Y570D02*
X195Y570D01*
X203Y570D02*
X209Y570D01*
X495Y570D02*
X526Y570D01*
X559Y570D02*
X565Y570D01*
X1212Y570D02*
X1218Y570D01*
X1261Y570D02*
X1269Y570D01*
X1298Y570D02*
X1304Y570D01*
X1311Y570D02*
X1319Y570D01*
X1348Y570D02*
X1382Y570D01*
X1412Y570D02*
X1418Y570D01*
X1449Y570D02*
X1482Y570D01*
X1500Y570D02*
X1531Y570D01*
X1551Y570D02*
X1557Y570D01*
X1571Y570D02*
X1578Y570D01*
X1606Y570D02*
X1632Y570D01*
X1650Y570D02*
X1656Y570D01*
X1677Y570D02*
X1683Y570D01*
X1759Y570D02*
X1766Y570D01*
X1834Y570D02*
X1840Y570D01*
X2102Y570D02*
X2108Y570D01*
X2122Y570D02*
X2128Y570D01*
X2162Y570D02*
X2168Y570D01*
X2176Y570D02*
X2182Y570D01*
X2226Y570D02*
X2232Y570D01*
X78Y569D02*
X84Y569D01*
X99Y569D02*
X105Y569D01*
X139Y569D02*
X145Y569D01*
X153Y569D02*
X159Y569D01*
X189Y569D02*
X195Y569D01*
X203Y569D02*
X209Y569D01*
X495Y569D02*
X525Y569D01*
X559Y569D02*
X565Y569D01*
X1212Y569D02*
X1218Y569D01*
X1262Y569D02*
X1270Y569D01*
X1298Y569D02*
X1304Y569D01*
X1312Y569D02*
X1319Y569D01*
X1348Y569D02*
X1382Y569D01*
X1412Y569D02*
X1418Y569D01*
X1449Y569D02*
X1482Y569D01*
X1499Y569D02*
X1531Y569D01*
X1551Y569D02*
X1557Y569D01*
X1571Y569D02*
X1578Y569D01*
X1606Y569D02*
X1632Y569D01*
X1650Y569D02*
X1656Y569D01*
X1677Y569D02*
X1683Y569D01*
X1759Y569D02*
X1766Y569D01*
X1834Y569D02*
X1840Y569D01*
X2102Y569D02*
X2108Y569D01*
X2122Y569D02*
X2128Y569D01*
X2162Y569D02*
X2168Y569D01*
X2176Y569D02*
X2182Y569D01*
X2226Y569D02*
X2232Y569D01*
X78Y568D02*
X84Y568D01*
X99Y568D02*
X105Y568D01*
X139Y568D02*
X145Y568D01*
X153Y568D02*
X159Y568D01*
X189Y568D02*
X195Y568D01*
X203Y568D02*
X209Y568D01*
X495Y568D02*
X524Y568D01*
X559Y568D02*
X565Y568D01*
X1212Y568D02*
X1218Y568D01*
X1262Y568D02*
X1270Y568D01*
X1298Y568D02*
X1304Y568D01*
X1313Y568D02*
X1320Y568D01*
X1348Y568D02*
X1382Y568D01*
X1412Y568D02*
X1418Y568D01*
X1449Y568D02*
X1482Y568D01*
X1499Y568D02*
X1530Y568D01*
X1551Y568D02*
X1557Y568D01*
X1571Y568D02*
X1578Y568D01*
X1606Y568D02*
X1633Y568D01*
X1650Y568D02*
X1656Y568D01*
X1677Y568D02*
X1683Y568D01*
X1760Y568D02*
X1767Y568D01*
X1834Y568D02*
X1840Y568D01*
X2102Y568D02*
X2108Y568D01*
X2122Y568D02*
X2128Y568D01*
X2162Y568D02*
X2168Y568D01*
X2176Y568D02*
X2182Y568D01*
X2226Y568D02*
X2232Y568D01*
X78Y567D02*
X84Y567D01*
X99Y567D02*
X105Y567D01*
X139Y567D02*
X145Y567D01*
X153Y567D02*
X159Y567D01*
X189Y567D02*
X195Y567D01*
X203Y567D02*
X209Y567D01*
X495Y567D02*
X522Y567D01*
X559Y567D02*
X565Y567D01*
X1212Y567D02*
X1218Y567D01*
X1263Y567D02*
X1271Y567D01*
X1298Y567D02*
X1304Y567D01*
X1313Y567D02*
X1320Y567D01*
X1348Y567D02*
X1382Y567D01*
X1412Y567D02*
X1418Y567D01*
X1428Y567D02*
X1431Y567D01*
X1449Y567D02*
X1482Y567D01*
X1499Y567D02*
X1528Y567D01*
X1551Y567D02*
X1580Y567D01*
X1606Y567D02*
X1633Y567D01*
X1650Y567D02*
X1656Y567D01*
X1677Y567D02*
X1683Y567D01*
X1760Y567D02*
X1767Y567D01*
X1834Y567D02*
X1840Y567D01*
X2102Y567D02*
X2108Y567D01*
X2122Y567D02*
X2128Y567D01*
X2162Y567D02*
X2168Y567D01*
X2176Y567D02*
X2182Y567D01*
X2226Y567D02*
X2232Y567D01*
X78Y566D02*
X84Y566D01*
X99Y566D02*
X105Y566D01*
X139Y566D02*
X145Y566D01*
X153Y566D02*
X159Y566D01*
X189Y566D02*
X195Y566D01*
X203Y566D02*
X209Y566D01*
X495Y566D02*
X519Y566D01*
X559Y566D02*
X565Y566D01*
X1212Y566D02*
X1218Y566D01*
X1264Y566D02*
X1272Y566D01*
X1298Y566D02*
X1304Y566D01*
X1314Y566D02*
X1321Y566D01*
X1349Y566D02*
X1382Y566D01*
X1412Y566D02*
X1418Y566D01*
X1427Y566D02*
X1432Y566D01*
X1449Y566D02*
X1482Y566D01*
X1499Y566D02*
X1505Y566D01*
X1551Y566D02*
X1580Y566D01*
X1627Y566D02*
X1633Y566D01*
X1650Y566D02*
X1656Y566D01*
X1677Y566D02*
X1683Y566D01*
X1761Y566D02*
X1768Y566D01*
X1834Y566D02*
X1840Y566D01*
X2102Y566D02*
X2108Y566D01*
X2122Y566D02*
X2128Y566D01*
X2162Y566D02*
X2168Y566D01*
X2176Y566D02*
X2182Y566D01*
X2226Y566D02*
X2232Y566D01*
X78Y565D02*
X84Y565D01*
X99Y565D02*
X105Y565D01*
X139Y565D02*
X145Y565D01*
X153Y565D02*
X159Y565D01*
X189Y565D02*
X195Y565D01*
X203Y565D02*
X209Y565D01*
X495Y565D02*
X501Y565D01*
X507Y565D02*
X514Y565D01*
X559Y565D02*
X565Y565D01*
X1212Y565D02*
X1218Y565D01*
X1265Y565D02*
X1273Y565D01*
X1298Y565D02*
X1304Y565D01*
X1314Y565D02*
X1322Y565D01*
X1349Y565D02*
X1381Y565D01*
X1412Y565D02*
X1418Y565D01*
X1426Y565D02*
X1432Y565D01*
X1450Y565D02*
X1482Y565D01*
X1499Y565D02*
X1505Y565D01*
X1551Y565D02*
X1581Y565D01*
X1627Y565D02*
X1633Y565D01*
X1650Y565D02*
X1656Y565D01*
X1677Y565D02*
X1683Y565D01*
X1761Y565D02*
X1768Y565D01*
X1834Y565D02*
X1840Y565D01*
X2102Y565D02*
X2108Y565D01*
X2122Y565D02*
X2128Y565D01*
X2162Y565D02*
X2168Y565D01*
X2176Y565D02*
X2182Y565D01*
X2226Y565D02*
X2232Y565D01*
X78Y564D02*
X84Y564D01*
X99Y564D02*
X105Y564D01*
X139Y564D02*
X145Y564D01*
X153Y564D02*
X159Y564D01*
X189Y564D02*
X195Y564D01*
X203Y564D02*
X209Y564D01*
X495Y564D02*
X501Y564D01*
X508Y564D02*
X515Y564D01*
X559Y564D02*
X565Y564D01*
X1212Y564D02*
X1218Y564D01*
X1265Y564D02*
X1273Y564D01*
X1298Y564D02*
X1304Y564D01*
X1315Y564D02*
X1322Y564D01*
X1350Y564D02*
X1380Y564D01*
X1412Y564D02*
X1418Y564D01*
X1426Y564D02*
X1432Y564D01*
X1451Y564D02*
X1480Y564D01*
X1499Y564D02*
X1505Y564D01*
X1551Y564D02*
X1581Y564D01*
X1627Y564D02*
X1633Y564D01*
X1650Y564D02*
X1656Y564D01*
X1677Y564D02*
X1683Y564D01*
X1762Y564D02*
X1769Y564D01*
X1834Y564D02*
X1840Y564D01*
X2102Y564D02*
X2108Y564D01*
X2122Y564D02*
X2128Y564D01*
X2162Y564D02*
X2168Y564D01*
X2176Y564D02*
X2182Y564D01*
X2226Y564D02*
X2232Y564D01*
X78Y563D02*
X84Y563D01*
X99Y563D02*
X105Y563D01*
X139Y563D02*
X145Y563D01*
X153Y563D02*
X159Y563D01*
X189Y563D02*
X195Y563D01*
X203Y563D02*
X209Y563D01*
X495Y563D02*
X501Y563D01*
X508Y563D02*
X515Y563D01*
X559Y563D02*
X565Y563D01*
X1212Y563D02*
X1218Y563D01*
X1266Y563D02*
X1274Y563D01*
X1298Y563D02*
X1304Y563D01*
X1316Y563D02*
X1323Y563D01*
X1412Y563D02*
X1418Y563D01*
X1426Y563D02*
X1432Y563D01*
X1499Y563D02*
X1505Y563D01*
X1551Y563D02*
X1581Y563D01*
X1627Y563D02*
X1633Y563D01*
X1650Y563D02*
X1656Y563D01*
X1677Y563D02*
X1683Y563D01*
X1762Y563D02*
X1769Y563D01*
X1834Y563D02*
X1840Y563D01*
X2102Y563D02*
X2108Y563D01*
X2122Y563D02*
X2128Y563D01*
X2162Y563D02*
X2168Y563D01*
X2176Y563D02*
X2182Y563D01*
X2226Y563D02*
X2232Y563D01*
X78Y562D02*
X84Y562D01*
X99Y562D02*
X105Y562D01*
X139Y562D02*
X145Y562D01*
X153Y562D02*
X159Y562D01*
X189Y562D02*
X195Y562D01*
X203Y562D02*
X209Y562D01*
X495Y562D02*
X501Y562D01*
X509Y562D02*
X516Y562D01*
X559Y562D02*
X565Y562D01*
X1212Y562D02*
X1218Y562D01*
X1267Y562D02*
X1275Y562D01*
X1298Y562D02*
X1304Y562D01*
X1316Y562D02*
X1323Y562D01*
X1412Y562D02*
X1418Y562D01*
X1426Y562D02*
X1432Y562D01*
X1499Y562D02*
X1505Y562D01*
X1551Y562D02*
X1580Y562D01*
X1627Y562D02*
X1633Y562D01*
X1650Y562D02*
X1656Y562D01*
X1677Y562D02*
X1683Y562D01*
X1763Y562D02*
X1770Y562D01*
X1834Y562D02*
X1840Y562D01*
X2102Y562D02*
X2108Y562D01*
X2122Y562D02*
X2128Y562D01*
X2162Y562D02*
X2168Y562D01*
X2176Y562D02*
X2182Y562D01*
X2226Y562D02*
X2232Y562D01*
X78Y561D02*
X85Y561D01*
X99Y561D02*
X105Y561D01*
X139Y561D02*
X145Y561D01*
X153Y561D02*
X159Y561D01*
X189Y561D02*
X195Y561D01*
X203Y561D02*
X209Y561D01*
X495Y561D02*
X501Y561D01*
X509Y561D02*
X517Y561D01*
X559Y561D02*
X565Y561D01*
X575Y561D02*
X576Y561D01*
X1212Y561D02*
X1218Y561D01*
X1268Y561D02*
X1276Y561D01*
X1298Y561D02*
X1304Y561D01*
X1317Y561D02*
X1324Y561D01*
X1412Y561D02*
X1418Y561D01*
X1426Y561D02*
X1432Y561D01*
X1499Y561D02*
X1505Y561D01*
X1551Y561D02*
X1579Y561D01*
X1627Y561D02*
X1633Y561D01*
X1650Y561D02*
X1656Y561D01*
X1677Y561D02*
X1683Y561D01*
X1763Y561D02*
X1770Y561D01*
X1834Y561D02*
X1840Y561D01*
X2102Y561D02*
X2108Y561D01*
X2122Y561D02*
X2128Y561D01*
X2162Y561D02*
X2168Y561D01*
X2176Y561D02*
X2182Y561D01*
X2226Y561D02*
X2232Y561D01*
X79Y560D02*
X85Y560D01*
X98Y560D02*
X105Y560D01*
X139Y560D02*
X145Y560D01*
X153Y560D02*
X159Y560D01*
X189Y560D02*
X195Y560D01*
X203Y560D02*
X209Y560D01*
X495Y560D02*
X501Y560D01*
X510Y560D02*
X517Y560D01*
X559Y560D02*
X565Y560D01*
X573Y560D02*
X577Y560D01*
X1212Y560D02*
X1218Y560D01*
X1269Y560D02*
X1277Y560D01*
X1298Y560D02*
X1304Y560D01*
X1317Y560D02*
X1324Y560D01*
X1412Y560D02*
X1418Y560D01*
X1426Y560D02*
X1432Y560D01*
X1499Y560D02*
X1505Y560D01*
X1571Y560D02*
X1578Y560D01*
X1627Y560D02*
X1633Y560D01*
X1650Y560D02*
X1656Y560D01*
X1677Y560D02*
X1683Y560D01*
X1764Y560D02*
X1771Y560D01*
X1834Y560D02*
X1840Y560D01*
X2102Y560D02*
X2109Y560D01*
X2122Y560D02*
X2128Y560D01*
X2162Y560D02*
X2168Y560D01*
X2176Y560D02*
X2182Y560D01*
X2226Y560D02*
X2232Y560D01*
X79Y559D02*
X87Y559D01*
X96Y559D02*
X104Y559D01*
X138Y559D02*
X145Y559D01*
X152Y559D02*
X159Y559D01*
X189Y559D02*
X195Y559D01*
X202Y559D02*
X209Y559D01*
X495Y559D02*
X501Y559D01*
X511Y559D02*
X518Y559D01*
X559Y559D02*
X565Y559D01*
X573Y559D02*
X578Y559D01*
X1212Y559D02*
X1218Y559D01*
X1269Y559D02*
X1277Y559D01*
X1298Y559D02*
X1304Y559D01*
X1318Y559D02*
X1325Y559D01*
X1412Y559D02*
X1418Y559D01*
X1426Y559D02*
X1432Y559D01*
X1499Y559D02*
X1505Y559D01*
X1571Y559D02*
X1578Y559D01*
X1627Y559D02*
X1633Y559D01*
X1650Y559D02*
X1656Y559D01*
X1677Y559D02*
X1683Y559D01*
X1764Y559D02*
X1772Y559D01*
X1834Y559D02*
X1840Y559D01*
X2102Y559D02*
X2110Y559D01*
X2120Y559D02*
X2128Y559D01*
X2162Y559D02*
X2168Y559D01*
X2176Y559D02*
X2182Y559D01*
X2226Y559D02*
X2232Y559D01*
X79Y558D02*
X104Y558D01*
X126Y558D02*
X159Y558D01*
X176Y558D02*
X209Y558D01*
X495Y558D02*
X501Y558D01*
X511Y558D02*
X518Y558D01*
X559Y558D02*
X565Y558D01*
X573Y558D02*
X578Y558D01*
X1212Y558D02*
X1218Y558D01*
X1270Y558D02*
X1278Y558D01*
X1298Y558D02*
X1304Y558D01*
X1318Y558D02*
X1326Y558D01*
X1412Y558D02*
X1418Y558D01*
X1426Y558D02*
X1432Y558D01*
X1499Y558D02*
X1505Y558D01*
X1571Y558D02*
X1578Y558D01*
X1627Y558D02*
X1633Y558D01*
X1650Y558D02*
X1656Y558D01*
X1677Y558D02*
X1683Y558D01*
X1765Y558D02*
X1788Y558D01*
X1808Y558D02*
X1840Y558D01*
X2103Y558D02*
X2128Y558D01*
X2150Y558D02*
X2182Y558D01*
X2200Y558D02*
X2232Y558D01*
X80Y557D02*
X103Y557D01*
X125Y557D02*
X159Y557D01*
X176Y557D02*
X209Y557D01*
X495Y557D02*
X501Y557D01*
X512Y557D02*
X519Y557D01*
X559Y557D02*
X565Y557D01*
X572Y557D02*
X579Y557D01*
X1212Y557D02*
X1218Y557D01*
X1271Y557D02*
X1279Y557D01*
X1298Y557D02*
X1304Y557D01*
X1319Y557D02*
X1326Y557D01*
X1412Y557D02*
X1418Y557D01*
X1426Y557D02*
X1432Y557D01*
X1499Y557D02*
X1505Y557D01*
X1571Y557D02*
X1578Y557D01*
X1627Y557D02*
X1633Y557D01*
X1650Y557D02*
X1656Y557D01*
X1677Y557D02*
X1683Y557D01*
X1765Y557D02*
X1789Y557D01*
X1807Y557D02*
X1840Y557D01*
X2103Y557D02*
X2127Y557D01*
X2149Y557D02*
X2182Y557D01*
X2199Y557D02*
X2232Y557D01*
X80Y556D02*
X103Y556D01*
X125Y556D02*
X159Y556D01*
X175Y556D02*
X209Y556D01*
X495Y556D02*
X501Y556D01*
X512Y556D02*
X520Y556D01*
X559Y556D02*
X565Y556D01*
X572Y556D02*
X579Y556D01*
X1212Y556D02*
X1218Y556D01*
X1272Y556D02*
X1280Y556D01*
X1298Y556D02*
X1304Y556D01*
X1320Y556D02*
X1327Y556D01*
X1412Y556D02*
X1418Y556D01*
X1426Y556D02*
X1432Y556D01*
X1499Y556D02*
X1505Y556D01*
X1571Y556D02*
X1578Y556D01*
X1627Y556D02*
X1633Y556D01*
X1650Y556D02*
X1656Y556D01*
X1677Y556D02*
X1683Y556D01*
X1766Y556D02*
X1790Y556D01*
X1807Y556D02*
X1840Y556D01*
X2104Y556D02*
X2126Y556D01*
X2149Y556D02*
X2182Y556D01*
X2199Y556D02*
X2232Y556D01*
X81Y555D02*
X102Y555D01*
X125Y555D02*
X159Y555D01*
X175Y555D02*
X209Y555D01*
X495Y555D02*
X501Y555D01*
X513Y555D02*
X520Y555D01*
X559Y555D02*
X565Y555D01*
X572Y555D02*
X579Y555D01*
X1212Y555D02*
X1218Y555D01*
X1249Y555D02*
X1253Y555D01*
X1272Y555D02*
X1280Y555D01*
X1298Y555D02*
X1304Y555D01*
X1320Y555D02*
X1327Y555D01*
X1412Y555D02*
X1418Y555D01*
X1426Y555D02*
X1432Y555D01*
X1499Y555D02*
X1505Y555D01*
X1571Y555D02*
X1578Y555D01*
X1627Y555D02*
X1633Y555D01*
X1650Y555D02*
X1656Y555D01*
X1677Y555D02*
X1683Y555D01*
X1767Y555D02*
X1790Y555D01*
X1807Y555D02*
X1839Y555D01*
X2105Y555D02*
X2126Y555D01*
X2149Y555D02*
X2182Y555D01*
X2199Y555D02*
X2231Y555D01*
X83Y554D02*
X101Y554D01*
X125Y554D02*
X158Y554D01*
X176Y554D02*
X208Y554D01*
X495Y554D02*
X501Y554D01*
X513Y554D02*
X521Y554D01*
X559Y554D02*
X565Y554D01*
X572Y554D02*
X579Y554D01*
X1212Y554D02*
X1218Y554D01*
X1248Y554D02*
X1254Y554D01*
X1273Y554D02*
X1281Y554D01*
X1298Y554D02*
X1304Y554D01*
X1321Y554D02*
X1328Y554D01*
X1412Y554D02*
X1418Y554D01*
X1426Y554D02*
X1432Y554D01*
X1499Y554D02*
X1505Y554D01*
X1571Y554D02*
X1578Y554D01*
X1627Y554D02*
X1633Y554D01*
X1650Y554D02*
X1656Y554D01*
X1677Y554D02*
X1683Y554D01*
X1768Y554D02*
X1790Y554D01*
X1807Y554D02*
X1838Y554D01*
X2106Y554D02*
X2124Y554D01*
X2149Y554D02*
X2182Y554D01*
X2199Y554D02*
X2230Y554D01*
X84Y553D02*
X99Y553D01*
X126Y553D02*
X158Y553D01*
X176Y553D02*
X208Y553D01*
X495Y553D02*
X501Y553D01*
X514Y553D02*
X521Y553D01*
X559Y553D02*
X565Y553D01*
X572Y553D02*
X579Y553D01*
X1212Y553D02*
X1218Y553D01*
X1248Y553D02*
X1254Y553D01*
X1274Y553D02*
X1281Y553D01*
X1298Y553D02*
X1304Y553D01*
X1321Y553D02*
X1329Y553D01*
X1412Y553D02*
X1418Y553D01*
X1426Y553D02*
X1432Y553D01*
X1499Y553D02*
X1505Y553D01*
X1571Y553D02*
X1578Y553D01*
X1627Y553D02*
X1633Y553D01*
X1650Y553D02*
X1656Y553D01*
X1677Y553D02*
X1683Y553D01*
X1769Y553D02*
X1789Y553D01*
X1807Y553D02*
X1837Y553D01*
X2107Y553D02*
X2123Y553D01*
X2149Y553D02*
X2181Y553D01*
X2200Y553D02*
X2229Y553D01*
X87Y552D02*
X96Y552D01*
X128Y552D02*
X156Y552D01*
X178Y552D02*
X206Y552D01*
X495Y552D02*
X501Y552D01*
X515Y552D02*
X522Y552D01*
X559Y552D02*
X565Y552D01*
X572Y552D02*
X579Y552D01*
X1212Y552D02*
X1218Y552D01*
X1248Y552D02*
X1254Y552D01*
X1275Y552D02*
X1282Y552D01*
X1298Y552D02*
X1304Y552D01*
X1322Y552D02*
X1329Y552D01*
X1412Y552D02*
X1418Y552D01*
X1426Y552D02*
X1432Y552D01*
X1499Y552D02*
X1505Y552D01*
X1571Y552D02*
X1578Y552D01*
X1600Y552D02*
X1605Y552D01*
X1627Y552D02*
X1633Y552D01*
X1650Y552D02*
X1656Y552D01*
X1677Y552D02*
X1683Y552D01*
X1772Y552D02*
X1788Y552D01*
X1808Y552D02*
X1836Y552D01*
X2110Y552D02*
X2120Y552D01*
X2151Y552D02*
X2180Y552D01*
X2201Y552D02*
X2227Y552D01*
X495Y551D02*
X501Y551D01*
X515Y551D02*
X522Y551D01*
X559Y551D02*
X565Y551D01*
X572Y551D02*
X579Y551D01*
X1212Y551D02*
X1218Y551D01*
X1248Y551D02*
X1255Y551D01*
X1275Y551D02*
X1282Y551D01*
X1298Y551D02*
X1304Y551D01*
X1323Y551D02*
X1330Y551D01*
X1412Y551D02*
X1418Y551D01*
X1426Y551D02*
X1432Y551D01*
X1499Y551D02*
X1505Y551D01*
X1571Y551D02*
X1578Y551D01*
X1600Y551D02*
X1607Y551D01*
X1627Y551D02*
X1633Y551D01*
X1650Y551D02*
X1656Y551D01*
X1677Y551D02*
X1683Y551D01*
X495Y550D02*
X501Y550D01*
X516Y550D02*
X523Y550D01*
X559Y550D02*
X565Y550D01*
X572Y550D02*
X579Y550D01*
X1212Y550D02*
X1218Y550D01*
X1248Y550D02*
X1281Y550D01*
X1298Y550D02*
X1304Y550D01*
X1323Y550D02*
X1330Y550D01*
X1402Y550D02*
X1432Y550D01*
X1499Y550D02*
X1529Y550D01*
X1571Y550D02*
X1578Y550D01*
X1599Y550D02*
X1633Y550D01*
X1650Y550D02*
X1683Y550D01*
X495Y549D02*
X501Y549D01*
X516Y549D02*
X524Y549D01*
X559Y549D02*
X565Y549D01*
X572Y549D02*
X579Y549D01*
X1212Y549D02*
X1218Y549D01*
X1249Y549D02*
X1281Y549D01*
X1298Y549D02*
X1304Y549D01*
X1324Y549D02*
X1331Y549D01*
X1400Y549D02*
X1432Y549D01*
X1499Y549D02*
X1531Y549D01*
X1571Y549D02*
X1578Y549D01*
X1599Y549D02*
X1633Y549D01*
X1650Y549D02*
X1683Y549D01*
X495Y548D02*
X501Y548D01*
X517Y548D02*
X524Y548D01*
X559Y548D02*
X565Y548D01*
X572Y548D02*
X579Y548D01*
X1212Y548D02*
X1218Y548D01*
X1249Y548D02*
X1281Y548D01*
X1298Y548D02*
X1304Y548D01*
X1324Y548D02*
X1331Y548D01*
X1399Y548D02*
X1432Y548D01*
X1499Y548D02*
X1532Y548D01*
X1571Y548D02*
X1578Y548D01*
X1600Y548D02*
X1633Y548D01*
X1650Y548D02*
X1683Y548D01*
X495Y547D02*
X501Y547D01*
X518Y547D02*
X525Y547D01*
X559Y547D02*
X565Y547D01*
X572Y547D02*
X579Y547D01*
X1212Y547D02*
X1218Y547D01*
X1250Y547D02*
X1280Y547D01*
X1298Y547D02*
X1304Y547D01*
X1325Y547D02*
X1332Y547D01*
X1399Y547D02*
X1432Y547D01*
X1499Y547D02*
X1532Y547D01*
X1571Y547D02*
X1578Y547D01*
X1600Y547D02*
X1632Y547D01*
X1650Y547D02*
X1682Y547D01*
X495Y546D02*
X501Y546D01*
X518Y546D02*
X525Y546D01*
X559Y546D02*
X565Y546D01*
X572Y546D02*
X579Y546D01*
X1212Y546D02*
X1217Y546D01*
X1251Y546D02*
X1280Y546D01*
X1298Y546D02*
X1304Y546D01*
X1325Y546D02*
X1332Y546D01*
X1399Y546D02*
X1432Y546D01*
X1499Y546D02*
X1532Y546D01*
X1572Y546D02*
X1577Y546D01*
X1602Y546D02*
X1632Y546D01*
X1651Y546D02*
X1682Y546D01*
X495Y545D02*
X501Y545D01*
X519Y545D02*
X526Y545D01*
X559Y545D02*
X565Y545D01*
X572Y545D02*
X579Y545D01*
X1212Y545D02*
X1217Y545D01*
X1252Y545D02*
X1279Y545D01*
X1299Y545D02*
X1304Y545D01*
X1326Y545D02*
X1331Y545D01*
X1399Y545D02*
X1432Y545D01*
X1499Y545D02*
X1532Y545D01*
X1572Y545D02*
X1577Y545D01*
X1604Y545D02*
X1631Y545D01*
X1652Y545D02*
X1681Y545D01*
X495Y544D02*
X501Y544D01*
X519Y544D02*
X527Y544D01*
X559Y544D02*
X565Y544D01*
X572Y544D02*
X579Y544D01*
X1213Y544D02*
X1216Y544D01*
X1253Y544D02*
X1277Y544D01*
X1299Y544D02*
X1303Y544D01*
X1327Y544D02*
X1331Y544D01*
X1400Y544D02*
X1431Y544D01*
X1499Y544D02*
X1531Y544D01*
X1573Y544D02*
X1576Y544D01*
X1606Y544D02*
X1629Y544D01*
X1653Y544D02*
X1680Y544D01*
X495Y543D02*
X501Y543D01*
X520Y543D02*
X527Y543D01*
X547Y543D02*
X579Y543D01*
X495Y542D02*
X501Y542D01*
X520Y542D02*
X528Y542D01*
X546Y542D02*
X579Y542D01*
X495Y541D02*
X501Y541D01*
X521Y541D02*
X528Y541D01*
X545Y541D02*
X579Y541D01*
X495Y540D02*
X501Y540D01*
X522Y540D02*
X528Y540D01*
X545Y540D02*
X578Y540D01*
X495Y539D02*
X501Y539D01*
X522Y539D02*
X528Y539D01*
X545Y539D02*
X578Y539D01*
X495Y538D02*
X500Y538D01*
X523Y538D02*
X528Y538D01*
X546Y538D02*
X578Y538D01*
X496Y537D02*
X499Y537D01*
X524Y537D02*
X527Y537D01*
X547Y537D02*
X577Y537D01*
X997Y380D02*
X998Y380D01*
X1107Y380D02*
X1108Y380D01*
X1746Y380D02*
X1748Y380D01*
X1856Y380D02*
X1858Y380D01*
X994Y379D02*
X1000Y379D01*
X1104Y379D02*
X1110Y379D01*
X1744Y379D02*
X1750Y379D01*
X1854Y379D02*
X1860Y379D01*
X994Y378D02*
X1001Y378D01*
X1103Y378D02*
X1111Y378D01*
X1743Y378D02*
X1751Y378D01*
X1853Y378D02*
X1861Y378D01*
X993Y377D02*
X1002Y377D01*
X1103Y377D02*
X1112Y377D01*
X1743Y377D02*
X1751Y377D01*
X1853Y377D02*
X1861Y377D01*
X993Y376D02*
X1002Y376D01*
X1103Y376D02*
X1112Y376D01*
X1742Y376D02*
X1752Y376D01*
X1852Y376D02*
X1862Y376D01*
X992Y375D02*
X1002Y375D01*
X1102Y375D02*
X1112Y375D01*
X1742Y375D02*
X1752Y375D01*
X1852Y375D02*
X1862Y375D01*
X992Y374D02*
X1002Y374D01*
X1102Y374D02*
X1112Y374D01*
X1742Y374D02*
X1752Y374D01*
X1852Y374D02*
X1862Y374D01*
X992Y373D02*
X1002Y373D01*
X1102Y373D02*
X1112Y373D01*
X1742Y373D02*
X1752Y373D01*
X1852Y373D02*
X1862Y373D01*
X992Y372D02*
X1002Y372D01*
X1102Y372D02*
X1112Y372D01*
X1742Y372D02*
X1752Y372D01*
X1852Y372D02*
X1862Y372D01*
X992Y371D02*
X1002Y371D01*
X1102Y371D02*
X1112Y371D01*
X1742Y371D02*
X1752Y371D01*
X1852Y371D02*
X1862Y371D01*
X992Y370D02*
X1002Y370D01*
X1102Y370D02*
X1112Y370D01*
X1742Y370D02*
X1752Y370D01*
X1852Y370D02*
X1862Y370D01*
X992Y369D02*
X1002Y369D01*
X1102Y369D02*
X1112Y369D01*
X1742Y369D02*
X1752Y369D01*
X1852Y369D02*
X1862Y369D01*
X992Y368D02*
X1002Y368D01*
X1102Y368D02*
X1112Y368D01*
X1742Y368D02*
X1752Y368D01*
X1852Y368D02*
X1862Y368D01*
X992Y367D02*
X1002Y367D01*
X1102Y367D02*
X1112Y367D01*
X1742Y367D02*
X1752Y367D01*
X1852Y367D02*
X1862Y367D01*
X992Y366D02*
X1002Y366D01*
X1102Y366D02*
X1112Y366D01*
X1742Y366D02*
X1752Y366D01*
X1852Y366D02*
X1862Y366D01*
X992Y365D02*
X1002Y365D01*
X1102Y365D02*
X1112Y365D01*
X1742Y365D02*
X1752Y365D01*
X1852Y365D02*
X1862Y365D01*
X992Y364D02*
X1002Y364D01*
X1102Y364D02*
X1112Y364D01*
X1742Y364D02*
X1752Y364D01*
X1852Y364D02*
X1862Y364D01*
X992Y363D02*
X1002Y363D01*
X1102Y363D02*
X1112Y363D01*
X1742Y363D02*
X1752Y363D01*
X1852Y363D02*
X1862Y363D01*
X992Y362D02*
X1002Y362D01*
X1102Y362D02*
X1112Y362D01*
X1742Y362D02*
X1752Y362D01*
X1852Y362D02*
X1862Y362D01*
X992Y361D02*
X1002Y361D01*
X1102Y361D02*
X1112Y361D01*
X1742Y361D02*
X1752Y361D01*
X1852Y361D02*
X1862Y361D01*
X992Y360D02*
X1002Y360D01*
X1102Y360D02*
X1112Y360D01*
X1742Y360D02*
X1752Y360D01*
X1852Y360D02*
X1862Y360D01*
X992Y359D02*
X1002Y359D01*
X1102Y359D02*
X1112Y359D01*
X1742Y359D02*
X1752Y359D01*
X1852Y359D02*
X1862Y359D01*
X992Y358D02*
X1002Y358D01*
X1102Y358D02*
X1112Y358D01*
X1742Y358D02*
X1752Y358D01*
X1852Y358D02*
X1862Y358D01*
X992Y357D02*
X1002Y357D01*
X1102Y357D02*
X1112Y357D01*
X1742Y357D02*
X1752Y357D01*
X1852Y357D02*
X1862Y357D01*
X992Y356D02*
X1002Y356D01*
X1102Y356D02*
X1112Y356D01*
X1742Y356D02*
X1752Y356D01*
X1852Y356D02*
X1862Y356D01*
X992Y355D02*
X1002Y355D01*
X1102Y355D02*
X1112Y355D01*
X1742Y355D02*
X1752Y355D01*
X1852Y355D02*
X1862Y355D01*
X992Y354D02*
X1002Y354D01*
X1102Y354D02*
X1112Y354D01*
X1742Y354D02*
X1752Y354D01*
X1852Y354D02*
X1862Y354D01*
X992Y353D02*
X1002Y353D01*
X1102Y353D02*
X1112Y353D01*
X1742Y353D02*
X1752Y353D01*
X1852Y353D02*
X1862Y353D01*
X992Y352D02*
X1002Y352D01*
X1102Y352D02*
X1112Y352D01*
X1742Y352D02*
X1752Y352D01*
X1852Y352D02*
X1862Y352D01*
X992Y351D02*
X1002Y351D01*
X1102Y351D02*
X1112Y351D01*
X1742Y351D02*
X1752Y351D01*
X1852Y351D02*
X1862Y351D01*
X992Y350D02*
X1002Y350D01*
X1102Y350D02*
X1112Y350D01*
X1742Y350D02*
X1752Y350D01*
X1852Y350D02*
X1862Y350D01*
X992Y349D02*
X1002Y349D01*
X1102Y349D02*
X1112Y349D01*
X1742Y349D02*
X1752Y349D01*
X1852Y349D02*
X1862Y349D01*
X992Y348D02*
X1002Y348D01*
X1102Y348D02*
X1112Y348D01*
X1742Y348D02*
X1752Y348D01*
X1852Y348D02*
X1862Y348D01*
X992Y347D02*
X1002Y347D01*
X1102Y347D02*
X1112Y347D01*
X1742Y347D02*
X1752Y347D01*
X1852Y347D02*
X1862Y347D01*
X992Y346D02*
X1002Y346D01*
X1102Y346D02*
X1112Y346D01*
X1742Y346D02*
X1752Y346D01*
X1852Y346D02*
X1862Y346D01*
X992Y345D02*
X1002Y345D01*
X1102Y345D02*
X1112Y345D01*
X1742Y345D02*
X1752Y345D01*
X1852Y345D02*
X1862Y345D01*
X992Y344D02*
X1002Y344D01*
X1102Y344D02*
X1112Y344D01*
X1742Y344D02*
X1752Y344D01*
X1852Y344D02*
X1862Y344D01*
X993Y343D02*
X1002Y343D01*
X1103Y343D02*
X1112Y343D01*
X1742Y343D02*
X1752Y343D01*
X1852Y343D02*
X1862Y343D01*
X993Y342D02*
X1001Y342D01*
X1103Y342D02*
X1111Y342D01*
X1743Y342D02*
X1751Y342D01*
X1853Y342D02*
X1861Y342D01*
X994Y341D02*
X1001Y341D01*
X1104Y341D02*
X1111Y341D01*
X1744Y341D02*
X1750Y341D01*
X1854Y341D02*
X1860Y341D01*
X845Y340D02*
X857Y340D01*
X880Y340D02*
X896Y340D01*
X995Y340D02*
X999Y340D01*
X1105Y340D02*
X1109Y340D01*
X1745Y340D02*
X1749Y340D01*
X1855Y340D02*
X1859Y340D01*
X840Y339D02*
X859Y339D01*
X878Y339D02*
X897Y339D01*
X839Y338D02*
X860Y338D01*
X877Y338D02*
X897Y338D01*
X837Y337D02*
X860Y337D01*
X877Y337D02*
X897Y337D01*
X836Y336D02*
X860Y336D01*
X877Y336D02*
X897Y336D01*
X836Y335D02*
X860Y335D01*
X877Y335D02*
X897Y335D01*
X835Y334D02*
X859Y334D01*
X878Y334D02*
X897Y334D01*
X835Y333D02*
X856Y333D01*
X881Y333D02*
X897Y333D01*
X834Y332D02*
X841Y332D01*
X891Y332D02*
X897Y332D01*
X834Y331D02*
X841Y331D01*
X891Y331D02*
X897Y331D01*
X833Y330D02*
X840Y330D01*
X891Y330D02*
X897Y330D01*
X833Y329D02*
X840Y329D01*
X891Y329D02*
X897Y329D01*
X832Y328D02*
X839Y328D01*
X891Y328D02*
X897Y328D01*
X832Y327D02*
X839Y327D01*
X891Y327D02*
X897Y327D01*
X831Y326D02*
X838Y326D01*
X891Y326D02*
X897Y326D01*
X831Y325D02*
X838Y325D01*
X891Y325D02*
X897Y325D01*
X830Y324D02*
X837Y324D01*
X891Y324D02*
X897Y324D01*
X830Y323D02*
X837Y323D01*
X891Y323D02*
X897Y323D01*
X829Y322D02*
X836Y322D01*
X891Y322D02*
X897Y322D01*
X829Y321D02*
X836Y321D01*
X891Y321D02*
X897Y321D01*
X828Y320D02*
X835Y320D01*
X891Y320D02*
X897Y320D01*
X828Y319D02*
X835Y319D01*
X891Y319D02*
X897Y319D01*
X828Y318D02*
X834Y318D01*
X891Y318D02*
X897Y318D01*
X827Y317D02*
X834Y317D01*
X891Y317D02*
X897Y317D01*
X827Y316D02*
X833Y316D01*
X891Y316D02*
X897Y316D01*
X827Y315D02*
X833Y315D01*
X891Y315D02*
X897Y315D01*
X827Y314D02*
X833Y314D01*
X891Y314D02*
X897Y314D01*
X827Y313D02*
X833Y313D01*
X891Y313D02*
X897Y313D01*
X827Y312D02*
X833Y312D01*
X891Y312D02*
X897Y312D01*
X827Y311D02*
X833Y311D01*
X891Y311D02*
X897Y311D01*
X827Y310D02*
X833Y310D01*
X891Y310D02*
X897Y310D01*
X906Y310D02*
X909Y310D01*
X827Y309D02*
X834Y309D01*
X891Y309D02*
X897Y309D01*
X905Y309D02*
X910Y309D01*
X828Y308D02*
X834Y308D01*
X891Y308D02*
X897Y308D01*
X905Y308D02*
X910Y308D01*
X828Y307D02*
X835Y307D01*
X891Y307D02*
X897Y307D01*
X904Y307D02*
X910Y307D01*
X828Y306D02*
X835Y306D01*
X891Y306D02*
X897Y306D01*
X904Y306D02*
X910Y306D01*
X512Y305D02*
X526Y305D01*
X562Y305D02*
X579Y305D01*
X829Y305D02*
X836Y305D01*
X891Y305D02*
X897Y305D01*
X904Y305D02*
X910Y305D01*
X510Y304D02*
X529Y304D01*
X560Y304D02*
X579Y304D01*
X829Y304D02*
X836Y304D01*
X891Y304D02*
X897Y304D01*
X904Y304D02*
X910Y304D01*
X509Y303D02*
X531Y303D01*
X559Y303D02*
X579Y303D01*
X830Y303D02*
X837Y303D01*
X891Y303D02*
X897Y303D01*
X904Y303D02*
X910Y303D01*
X509Y302D02*
X532Y302D01*
X559Y302D02*
X579Y302D01*
X830Y302D02*
X837Y302D01*
X891Y302D02*
X897Y302D01*
X904Y302D02*
X910Y302D01*
X509Y301D02*
X533Y301D01*
X559Y301D02*
X579Y301D01*
X831Y301D02*
X838Y301D01*
X891Y301D02*
X897Y301D01*
X904Y301D02*
X910Y301D01*
X509Y300D02*
X533Y300D01*
X560Y300D02*
X579Y300D01*
X831Y300D02*
X838Y300D01*
X891Y300D02*
X897Y300D01*
X904Y300D02*
X910Y300D01*
X510Y299D02*
X534Y299D01*
X560Y299D02*
X579Y299D01*
X832Y299D02*
X839Y299D01*
X891Y299D02*
X897Y299D01*
X904Y299D02*
X910Y299D01*
X516Y298D02*
X522Y298D01*
X526Y298D02*
X534Y298D01*
X573Y298D02*
X579Y298D01*
X832Y298D02*
X839Y298D01*
X891Y298D02*
X897Y298D01*
X904Y298D02*
X910Y298D01*
X516Y297D02*
X522Y297D01*
X528Y297D02*
X535Y297D01*
X573Y297D02*
X579Y297D01*
X833Y297D02*
X840Y297D01*
X891Y297D02*
X897Y297D01*
X904Y297D02*
X910Y297D01*
X516Y296D02*
X522Y296D01*
X528Y296D02*
X535Y296D01*
X573Y296D02*
X579Y296D01*
X833Y296D02*
X840Y296D01*
X891Y296D02*
X897Y296D01*
X904Y296D02*
X910Y296D01*
X516Y295D02*
X522Y295D01*
X529Y295D02*
X536Y295D01*
X573Y295D02*
X579Y295D01*
X834Y295D02*
X841Y295D01*
X891Y295D02*
X897Y295D01*
X904Y295D02*
X910Y295D01*
X516Y294D02*
X522Y294D01*
X529Y294D02*
X536Y294D01*
X573Y294D02*
X579Y294D01*
X834Y294D02*
X841Y294D01*
X891Y294D02*
X897Y294D01*
X904Y294D02*
X910Y294D01*
X516Y293D02*
X522Y293D01*
X530Y293D02*
X537Y293D01*
X573Y293D02*
X579Y293D01*
X835Y293D02*
X843Y293D01*
X890Y293D02*
X897Y293D01*
X904Y293D02*
X910Y293D01*
X516Y292D02*
X522Y292D01*
X531Y292D02*
X537Y292D01*
X573Y292D02*
X579Y292D01*
X835Y292D02*
X859Y292D01*
X878Y292D02*
X910Y292D01*
X516Y291D02*
X522Y291D01*
X531Y291D02*
X538Y291D01*
X573Y291D02*
X579Y291D01*
X836Y291D02*
X860Y291D01*
X877Y291D02*
X910Y291D01*
X516Y290D02*
X522Y290D01*
X532Y290D02*
X538Y290D01*
X573Y290D02*
X579Y290D01*
X837Y290D02*
X860Y290D01*
X877Y290D02*
X910Y290D01*
X516Y289D02*
X522Y289D01*
X532Y289D02*
X539Y289D01*
X573Y289D02*
X579Y289D01*
X837Y289D02*
X860Y289D01*
X877Y289D02*
X910Y289D01*
X516Y288D02*
X522Y288D01*
X533Y288D02*
X539Y288D01*
X573Y288D02*
X579Y288D01*
X839Y288D02*
X860Y288D01*
X877Y288D02*
X910Y288D01*
X516Y287D02*
X522Y287D01*
X533Y287D02*
X540Y287D01*
X573Y287D02*
X579Y287D01*
X840Y287D02*
X859Y287D01*
X878Y287D02*
X909Y287D01*
X516Y286D02*
X522Y286D01*
X534Y286D02*
X540Y286D01*
X573Y286D02*
X579Y286D01*
X843Y286D02*
X858Y286D01*
X880Y286D02*
X908Y286D01*
X516Y285D02*
X522Y285D01*
X534Y285D02*
X541Y285D01*
X573Y285D02*
X579Y285D01*
X516Y284D02*
X522Y284D01*
X535Y284D02*
X541Y284D01*
X573Y284D02*
X579Y284D01*
X516Y283D02*
X522Y283D01*
X535Y283D02*
X542Y283D01*
X573Y283D02*
X579Y283D01*
X516Y282D02*
X522Y282D01*
X536Y282D02*
X542Y282D01*
X573Y282D02*
X579Y282D01*
X516Y281D02*
X522Y281D01*
X536Y281D02*
X542Y281D01*
X573Y281D02*
X579Y281D01*
X516Y280D02*
X522Y280D01*
X536Y280D02*
X542Y280D01*
X573Y280D02*
X579Y280D01*
X516Y279D02*
X522Y279D01*
X536Y279D02*
X542Y279D01*
X573Y279D02*
X579Y279D01*
X516Y278D02*
X522Y278D01*
X536Y278D02*
X542Y278D01*
X573Y278D02*
X579Y278D01*
X516Y277D02*
X522Y277D01*
X536Y277D02*
X542Y277D01*
X573Y277D02*
X579Y277D01*
X516Y276D02*
X522Y276D01*
X536Y276D02*
X542Y276D01*
X573Y276D02*
X579Y276D01*
X516Y275D02*
X522Y275D01*
X536Y275D02*
X542Y275D01*
X573Y275D02*
X579Y275D01*
X588Y275D02*
X591Y275D01*
X516Y274D02*
X522Y274D01*
X535Y274D02*
X542Y274D01*
X573Y274D02*
X579Y274D01*
X587Y274D02*
X592Y274D01*
X516Y273D02*
X522Y273D01*
X535Y273D02*
X542Y273D01*
X573Y273D02*
X579Y273D01*
X587Y273D02*
X593Y273D01*
X516Y272D02*
X522Y272D01*
X534Y272D02*
X541Y272D01*
X573Y272D02*
X579Y272D01*
X587Y272D02*
X593Y272D01*
X516Y271D02*
X522Y271D01*
X534Y271D02*
X541Y271D01*
X573Y271D02*
X579Y271D01*
X587Y271D02*
X593Y271D01*
X516Y270D02*
X522Y270D01*
X533Y270D02*
X540Y270D01*
X573Y270D02*
X579Y270D01*
X587Y270D02*
X593Y270D01*
X516Y269D02*
X522Y269D01*
X533Y269D02*
X540Y269D01*
X573Y269D02*
X579Y269D01*
X587Y269D02*
X593Y269D01*
X516Y268D02*
X522Y268D01*
X532Y268D02*
X539Y268D01*
X573Y268D02*
X579Y268D01*
X587Y268D02*
X593Y268D01*
X516Y267D02*
X522Y267D01*
X532Y267D02*
X539Y267D01*
X573Y267D02*
X579Y267D01*
X587Y267D02*
X593Y267D01*
X516Y266D02*
X522Y266D01*
X531Y266D02*
X538Y266D01*
X573Y266D02*
X579Y266D01*
X587Y266D02*
X593Y266D01*
X516Y265D02*
X522Y265D01*
X531Y265D02*
X538Y265D01*
X573Y265D02*
X579Y265D01*
X587Y265D02*
X593Y265D01*
X516Y264D02*
X522Y264D01*
X530Y264D02*
X537Y264D01*
X573Y264D02*
X579Y264D01*
X587Y264D02*
X593Y264D01*
X516Y263D02*
X522Y263D01*
X530Y263D02*
X537Y263D01*
X573Y263D02*
X579Y263D01*
X587Y263D02*
X593Y263D01*
X516Y262D02*
X522Y262D01*
X529Y262D02*
X536Y262D01*
X573Y262D02*
X579Y262D01*
X587Y262D02*
X593Y262D01*
X516Y261D02*
X522Y261D01*
X529Y261D02*
X536Y261D01*
X573Y261D02*
X579Y261D01*
X587Y261D02*
X593Y261D01*
X516Y260D02*
X522Y260D01*
X528Y260D02*
X535Y260D01*
X573Y260D02*
X579Y260D01*
X587Y260D02*
X593Y260D01*
X516Y259D02*
X522Y259D01*
X528Y259D02*
X535Y259D01*
X573Y259D02*
X579Y259D01*
X587Y259D02*
X593Y259D01*
X512Y258D02*
X534Y258D01*
X563Y258D02*
X593Y258D01*
X510Y257D02*
X534Y257D01*
X560Y257D02*
X593Y257D01*
X509Y256D02*
X533Y256D01*
X560Y256D02*
X593Y256D01*
X509Y255D02*
X533Y255D01*
X559Y255D02*
X593Y255D01*
X509Y254D02*
X532Y254D01*
X559Y254D02*
X593Y254D01*
X509Y253D02*
X530Y253D01*
X560Y253D02*
X592Y253D01*
X510Y252D02*
X529Y252D01*
X560Y252D02*
X592Y252D01*
X513Y251D02*
X524Y251D01*
X563Y251D02*
X589Y251D01*
D02*
G04 End of Silk1*
M02*