; NON-PLATED HOLES START AT T1
; THROUGH (PLATED) HOLES START AT T100
M48
INCH
T1C0.086614
T100C0.035000
T101C0.039370
T102C0.038000
T103C0.042000
%
T1
X012032Y001092
X003532Y006092
X020032Y006092
T100
X003032Y004592
X018032Y003592
X010532Y003592
X008032Y004592
X018032Y004592
X010532Y002592
T101
X001532Y003592
X021532Y003592
X001532Y004592
X021532Y001592
X021532Y004592
X021532Y002592
T102
X014532Y004592
X014532Y002592
X014532Y003592
T103
X004052Y001592
X007032Y001592
T00
M30
