G04 MADE WITH FRITZING*
G04 WWW.FRITZING.ORG*
G04 DOUBLE SIDED*
G04 HOLES PLATED*
G04 CONTOUR ON CENTER OF CONTOUR VECTOR*
%ASAXBY*%
%FSLAX23Y23*%
%MOIN*%
%OFA0B0*%
%SFA1.0B1.0*%
%ADD10C,0.074000*%
%ADD11C,0.075433*%
%ADD12C,0.078000*%
%ADD13C,0.075000*%
%ADD14C,0.082000*%
%ADD15C,0.079370*%
%ADD16C,0.099055*%
%ADD17R,0.078000X0.078000*%
%ADD18R,0.075000X0.075000*%
%ADD19R,0.082000X0.082000*%
%ADD20R,0.079370X0.079370*%
%ADD21R,0.099055X0.099055*%
%ADD22C,0.048000*%
%ADD23C,0.032000*%
%ADD24R,0.001000X0.001000*%
%LNCOPPER0*%
G90*
G70*
G54D10*
X1134Y1714D03*
X1234Y1714D03*
X1334Y1714D03*
X234Y1514D03*
X234Y1314D03*
G54D11*
X3834Y114D03*
G54D12*
X334Y1714D03*
X234Y1714D03*
X134Y1714D03*
X1134Y664D03*
X1234Y664D03*
X1334Y664D03*
X2184Y464D03*
X2184Y1364D03*
X2284Y464D03*
X2284Y1364D03*
X2384Y464D03*
X2384Y1364D03*
X2484Y464D03*
X2484Y1364D03*
X2584Y464D03*
X2584Y1364D03*
X2684Y464D03*
X2684Y1364D03*
X2784Y464D03*
X2784Y1364D03*
X2884Y464D03*
X2884Y1364D03*
X2984Y464D03*
X2984Y1364D03*
X3084Y464D03*
X3084Y1364D03*
X3184Y464D03*
X3184Y1364D03*
X3284Y464D03*
X3284Y1364D03*
X3384Y464D03*
X3384Y1364D03*
G54D13*
X234Y1964D03*
X234Y2064D03*
G54D14*
X534Y864D03*
X534Y566D03*
X234Y564D03*
X234Y1164D03*
X534Y1264D03*
X834Y1264D03*
G54D13*
X1584Y2114D03*
X1584Y1714D03*
X3684Y1914D03*
X3684Y1514D03*
X1734Y1814D03*
X1734Y1414D03*
X1484Y1214D03*
X1484Y814D03*
G54D15*
X3084Y264D03*
X2984Y264D03*
X2884Y264D03*
X2784Y264D03*
X2684Y264D03*
X2584Y264D03*
X2484Y264D03*
X2384Y264D03*
X2284Y264D03*
X2184Y264D03*
G54D16*
X3684Y264D03*
X3584Y264D03*
X3484Y264D03*
X3384Y264D03*
X3284Y264D03*
G54D15*
X1984Y264D03*
X1884Y264D03*
X1784Y264D03*
X1134Y264D03*
X1034Y264D03*
X934Y264D03*
X1534Y264D03*
X1434Y264D03*
X1334Y264D03*
X2434Y2014D03*
X2534Y2014D03*
X2634Y2014D03*
X2734Y2014D03*
X2834Y2014D03*
X2934Y2014D03*
X3034Y2014D03*
X3134Y2014D03*
X3234Y2014D03*
X3334Y2014D03*
X3434Y2014D03*
X3534Y2014D03*
G54D16*
X1884Y2014D03*
X1984Y2014D03*
X2084Y2014D03*
X2184Y2014D03*
G54D15*
X634Y2064D03*
X734Y2064D03*
X834Y2064D03*
X934Y2064D03*
X1034Y2064D03*
X1134Y2064D03*
X534Y264D03*
X334Y264D03*
G54D17*
X334Y1714D03*
X2185Y465D03*
G54D18*
X234Y1964D03*
G54D19*
X534Y865D03*
X534Y1264D03*
G54D20*
X3084Y264D03*
G54D21*
X3684Y264D03*
G54D20*
X1984Y264D03*
X1134Y264D03*
X1534Y264D03*
X2434Y2014D03*
G54D21*
X1884Y2014D03*
G54D20*
X634Y2064D03*
X534Y264D03*
G54D22*
X234Y1552D02*
X234Y1673D01*
D02*
X234Y1276D02*
X234Y1207D01*
G54D23*
D02*
X936Y1964D02*
X274Y1964D01*
D02*
X935Y2022D02*
X936Y1964D01*
G54D22*
D02*
X1336Y2212D02*
X732Y2216D01*
D02*
X732Y2216D02*
X734Y2106D01*
D02*
X1334Y1756D02*
X1336Y2212D01*
D02*
X1236Y1564D02*
X1235Y1672D01*
D02*
X1584Y1564D02*
X1236Y1564D01*
D02*
X1134Y705D02*
X1134Y1672D01*
D02*
X1536Y64D02*
X1136Y64D01*
D02*
X1136Y64D02*
X1135Y222D01*
D02*
X1536Y64D02*
X3284Y64D01*
D02*
X3284Y64D02*
X3284Y212D01*
D02*
X1535Y222D02*
X1536Y64D01*
G54D23*
D02*
X1436Y164D02*
X1236Y164D01*
D02*
X1236Y164D02*
X1236Y364D01*
D02*
X1236Y364D02*
X1036Y364D01*
D02*
X1036Y364D02*
X1035Y306D01*
D02*
X1435Y228D02*
X1436Y164D01*
G54D22*
D02*
X1535Y222D02*
X1536Y64D01*
G54D23*
D02*
X936Y464D02*
X1332Y464D01*
D02*
X1332Y464D02*
X1336Y1216D01*
D02*
X1336Y1216D02*
X1444Y1214D01*
D02*
X935Y306D02*
X936Y464D01*
D02*
X1332Y464D02*
X1332Y1216D01*
D02*
X1332Y1216D02*
X1444Y1214D01*
D02*
X1484Y364D02*
X1484Y780D01*
D02*
X1432Y364D02*
X1484Y364D01*
D02*
X1433Y300D02*
X1432Y364D01*
D02*
X2784Y300D02*
X2784Y428D01*
D02*
X2884Y300D02*
X2884Y428D01*
D02*
X2984Y300D02*
X2984Y428D01*
D02*
X3084Y300D02*
X3084Y428D01*
D02*
X1036Y164D02*
X836Y164D01*
D02*
X836Y164D02*
X836Y564D01*
D02*
X1232Y564D02*
X1233Y623D01*
D02*
X836Y564D02*
X1232Y564D01*
D02*
X1035Y222D02*
X1036Y164D01*
G54D22*
D02*
X1136Y64D02*
X736Y64D01*
D02*
X736Y664D02*
X1093Y664D01*
D02*
X736Y64D02*
X736Y664D01*
D02*
X1135Y222D02*
X1136Y64D01*
G54D23*
D02*
X1332Y1212D02*
X1334Y705D01*
D02*
X1444Y1214D02*
X1332Y1212D01*
D02*
X1334Y300D02*
X1332Y464D01*
D02*
X3436Y1864D02*
X3108Y1398D01*
D02*
X3435Y1978D02*
X3436Y1864D01*
D02*
X3232Y1964D02*
X2884Y1412D01*
D02*
X2884Y1412D02*
X2884Y1405D01*
D02*
X3233Y1978D02*
X3232Y1964D01*
D02*
X3136Y2016D02*
X2784Y1412D01*
D02*
X2784Y1412D02*
X2784Y1405D01*
D02*
X3160Y2040D02*
X3136Y2016D01*
D02*
X2384Y300D02*
X2384Y428D01*
D02*
X2484Y300D02*
X2484Y428D01*
D02*
X2584Y300D02*
X2584Y428D01*
D02*
X2684Y300D02*
X2684Y428D01*
D02*
X3336Y1912D02*
X2984Y1412D01*
D02*
X2984Y1412D02*
X2984Y1405D01*
D02*
X3335Y1978D02*
X3336Y1912D01*
G54D22*
D02*
X692Y2064D02*
X676Y2064D01*
G54D23*
D02*
X3284Y1464D02*
X3284Y1405D01*
D02*
X3536Y1812D02*
X3284Y1464D01*
D02*
X3534Y1978D02*
X3536Y1812D01*
G54D22*
D02*
X3684Y464D02*
X3425Y464D01*
D02*
X3684Y316D02*
X3684Y464D01*
D02*
X2184Y1405D02*
X2184Y1962D01*
G54D23*
D02*
X2284Y1405D02*
X2284Y1716D01*
D02*
X2284Y1716D02*
X2532Y1712D01*
D02*
X2532Y1712D02*
X2714Y1984D01*
D02*
X2684Y1412D02*
X2684Y1405D01*
D02*
X3016Y1983D02*
X2684Y1412D01*
D02*
X2534Y2050D02*
X2536Y2264D01*
D02*
X2536Y2264D02*
X1584Y2264D01*
D02*
X1584Y2264D02*
X1584Y2148D01*
G54D22*
D02*
X2036Y2014D02*
X2032Y2014D01*
G54D23*
D02*
X2000Y231D02*
X2032Y164D01*
D02*
X3184Y316D02*
X3261Y430D01*
D02*
X3184Y164D02*
X3184Y316D01*
D02*
X2032Y164D02*
X3184Y164D01*
G54D22*
D02*
X3536Y264D02*
X3532Y264D01*
G54D23*
D02*
X1734Y1854D02*
X1736Y2164D01*
D02*
X1736Y2164D02*
X2432Y2164D01*
D02*
X2432Y2164D02*
X2434Y2056D01*
G54D22*
D02*
X2136Y2014D02*
X2132Y2014D01*
G54D23*
D02*
X2815Y1983D02*
X2584Y1612D01*
D02*
X2584Y1612D02*
X2384Y1612D01*
D02*
X2384Y1612D02*
X2384Y1405D01*
G54D22*
D02*
X3336Y264D02*
X3332Y264D01*
D02*
X3436Y264D02*
X3432Y264D01*
D02*
X1584Y1216D02*
X1584Y1674D01*
D02*
X1524Y1215D02*
X1584Y1216D01*
G54D23*
D02*
X2635Y2056D02*
X2636Y2164D01*
D02*
X2636Y2164D02*
X3684Y2164D01*
D02*
X3684Y2164D02*
X3684Y1954D01*
D02*
X2636Y1512D02*
X2484Y1512D01*
D02*
X2916Y1983D02*
X2636Y1512D01*
D02*
X2484Y1512D02*
X2484Y1405D01*
G54D22*
D02*
X1732Y1264D02*
X2584Y1264D01*
D02*
X1734Y1374D02*
X1732Y1264D01*
D02*
X2584Y1264D02*
X2584Y1323D01*
D02*
X2184Y1405D02*
X2184Y1564D01*
D02*
X2184Y1564D02*
X1584Y1564D01*
D02*
X1584Y1212D02*
X1524Y1213D01*
D02*
X1584Y1564D02*
X1584Y1212D01*
G54D23*
D02*
X1484Y812D02*
X1484Y364D01*
D02*
X1736Y364D02*
X1768Y297D01*
D02*
X1484Y364D02*
X1736Y364D01*
D02*
X1484Y812D02*
X1484Y774D01*
D02*
X1484Y812D02*
X3384Y816D01*
D02*
X3384Y816D02*
X3384Y1323D01*
D02*
X3425Y464D02*
X3684Y464D01*
D02*
X3684Y464D02*
X3684Y1474D01*
D02*
X3630Y264D02*
X3638Y264D01*
G54D22*
D02*
X1936Y2014D02*
X1932Y2014D01*
G54D23*
D02*
X1884Y300D02*
X1884Y664D01*
D02*
X1884Y664D02*
X3184Y664D01*
D02*
X3184Y664D02*
X3184Y505D01*
G54D22*
D02*
X321Y304D02*
X248Y523D01*
D02*
X534Y523D02*
X534Y306D01*
D02*
X532Y1164D02*
X277Y1164D01*
D02*
X533Y1221D02*
X532Y1164D01*
D02*
X832Y864D02*
X834Y1221D01*
D02*
X577Y864D02*
X832Y864D01*
D02*
X584Y1712D02*
X375Y1714D01*
D02*
X813Y1302D02*
X584Y1712D01*
G54D23*
D02*
X234Y1755D02*
X234Y1924D01*
D02*
X136Y2064D02*
X134Y1755D01*
D02*
X200Y2064D02*
X136Y2064D01*
D02*
X2284Y300D02*
X2284Y429D01*
D02*
X2184Y295D02*
X2184Y434D01*
G54D22*
D02*
X1134Y1756D02*
X1134Y2022D01*
D02*
X1065Y2064D02*
X1103Y2064D01*
D02*
X1003Y2064D02*
X965Y2064D01*
D02*
X765Y2064D02*
X803Y2064D01*
G54D23*
D02*
X263Y2064D02*
X603Y2064D01*
G54D24*
X1097Y1752D02*
X1170Y1752D01*
X1097Y1751D02*
X1170Y1751D01*
X1097Y1750D02*
X1170Y1750D01*
X1097Y1749D02*
X1170Y1749D01*
X1097Y1748D02*
X1170Y1748D01*
X1097Y1747D02*
X1170Y1747D01*
X1097Y1746D02*
X1170Y1746D01*
X1097Y1745D02*
X1170Y1745D01*
X1097Y1744D02*
X1170Y1744D01*
X1097Y1743D02*
X1170Y1743D01*
X1097Y1742D02*
X1170Y1742D01*
X1097Y1741D02*
X1170Y1741D01*
X1097Y1740D02*
X1170Y1740D01*
X1097Y1739D02*
X1170Y1739D01*
X1097Y1738D02*
X1170Y1738D01*
X1097Y1737D02*
X1170Y1737D01*
X1097Y1736D02*
X1170Y1736D01*
X1097Y1735D02*
X1170Y1735D01*
X1097Y1734D02*
X1128Y1734D01*
X1139Y1734D02*
X1170Y1734D01*
X1097Y1733D02*
X1125Y1733D01*
X1142Y1733D02*
X1170Y1733D01*
X1097Y1732D02*
X1123Y1732D01*
X1144Y1732D02*
X1170Y1732D01*
X1097Y1731D02*
X1122Y1731D01*
X1146Y1731D02*
X1170Y1731D01*
X1097Y1730D02*
X1120Y1730D01*
X1147Y1730D02*
X1170Y1730D01*
X1097Y1729D02*
X1119Y1729D01*
X1148Y1729D02*
X1170Y1729D01*
X1097Y1728D02*
X1118Y1728D01*
X1149Y1728D02*
X1170Y1728D01*
X1097Y1727D02*
X1118Y1727D01*
X1150Y1727D02*
X1170Y1727D01*
X1097Y1726D02*
X1117Y1726D01*
X1150Y1726D02*
X1170Y1726D01*
X1097Y1725D02*
X1116Y1725D01*
X1151Y1725D02*
X1170Y1725D01*
X1097Y1724D02*
X1116Y1724D01*
X1152Y1724D02*
X1170Y1724D01*
X1097Y1723D02*
X1115Y1723D01*
X1152Y1723D02*
X1170Y1723D01*
X1097Y1722D02*
X1115Y1722D01*
X1152Y1722D02*
X1170Y1722D01*
X1097Y1721D02*
X1114Y1721D01*
X1153Y1721D02*
X1170Y1721D01*
X1097Y1720D02*
X1114Y1720D01*
X1153Y1720D02*
X1170Y1720D01*
X1097Y1719D02*
X1114Y1719D01*
X1153Y1719D02*
X1170Y1719D01*
X1097Y1718D02*
X1114Y1718D01*
X1154Y1718D02*
X1170Y1718D01*
X1097Y1717D02*
X1114Y1717D01*
X1154Y1717D02*
X1170Y1717D01*
X1097Y1716D02*
X1114Y1716D01*
X1154Y1716D02*
X1170Y1716D01*
X1097Y1715D02*
X1113Y1715D01*
X1154Y1715D02*
X1170Y1715D01*
X1097Y1714D02*
X1114Y1714D01*
X1154Y1714D02*
X1170Y1714D01*
X1097Y1713D02*
X1114Y1713D01*
X1154Y1713D02*
X1170Y1713D01*
X1097Y1712D02*
X1114Y1712D01*
X1153Y1712D02*
X1170Y1712D01*
X1097Y1711D02*
X1114Y1711D01*
X1153Y1711D02*
X1170Y1711D01*
X1097Y1710D02*
X1114Y1710D01*
X1153Y1710D02*
X1170Y1710D01*
X1097Y1709D02*
X1114Y1709D01*
X1153Y1709D02*
X1170Y1709D01*
X1097Y1708D02*
X1115Y1708D01*
X1152Y1708D02*
X1170Y1708D01*
X1097Y1707D02*
X1115Y1707D01*
X1152Y1707D02*
X1170Y1707D01*
X1097Y1706D02*
X1116Y1706D01*
X1151Y1706D02*
X1170Y1706D01*
X1097Y1705D02*
X1116Y1705D01*
X1151Y1705D02*
X1170Y1705D01*
X1097Y1704D02*
X1117Y1704D01*
X1150Y1704D02*
X1170Y1704D01*
X1097Y1703D02*
X1118Y1703D01*
X1150Y1703D02*
X1170Y1703D01*
X1097Y1702D02*
X1119Y1702D01*
X1149Y1702D02*
X1170Y1702D01*
X1097Y1701D02*
X1119Y1701D01*
X1148Y1701D02*
X1170Y1701D01*
X1097Y1700D02*
X1121Y1700D01*
X1147Y1700D02*
X1170Y1700D01*
X1097Y1699D02*
X1122Y1699D01*
X1145Y1699D02*
X1170Y1699D01*
X1097Y1698D02*
X1124Y1698D01*
X1144Y1698D02*
X1170Y1698D01*
X1097Y1697D02*
X1125Y1697D01*
X1142Y1697D02*
X1170Y1697D01*
X1097Y1696D02*
X1129Y1696D01*
X1139Y1696D02*
X1170Y1696D01*
X1097Y1695D02*
X1170Y1695D01*
X1097Y1694D02*
X1170Y1694D01*
X1097Y1693D02*
X1170Y1693D01*
X1097Y1692D02*
X1170Y1692D01*
X1097Y1691D02*
X1170Y1691D01*
X1097Y1690D02*
X1170Y1690D01*
X1097Y1689D02*
X1170Y1689D01*
X1097Y1688D02*
X1170Y1688D01*
X1097Y1687D02*
X1170Y1687D01*
X1097Y1686D02*
X1170Y1686D01*
X1097Y1685D02*
X1170Y1685D01*
X1097Y1684D02*
X1170Y1684D01*
X1097Y1683D02*
X1170Y1683D01*
X1097Y1682D02*
X1170Y1682D01*
X1097Y1681D02*
X1170Y1681D01*
X1097Y1680D02*
X1170Y1680D01*
X1097Y1679D02*
X1170Y1679D01*
D02*
G04 End of Copper0*
M02*