; NON-PLATED HOLES START AT T1
; THROUGH (PLATED) HOLES START AT T100
M48
INCH
T1C0.086614
T100C0.035000
T101C0.059055
T102C0.035433
T103C0.031496
T104C0.042000
T105C0.039370
T106C0.038000
%
T1
X001341Y001139
X038341Y001140
X001341Y022639
X037841Y022639
T100
X017341Y018139
X002341Y019639
X036841Y019139
X017341Y014139
X014841Y008139
X014841Y012139
X036841Y015139
X015841Y017139
X015841Y021139
X002341Y020639
T101
X035841Y002639
X036841Y002639
X020841Y020139
X021841Y020139
X019841Y020139
X032841Y002639
X033841Y002639
X034841Y002639
X018841Y020139
T102
X038341Y001139
T103
X002341Y015139
X002341Y013139
T104
X008341Y012639
X002341Y005639
X005341Y008639
X002341Y011639
X005341Y012639
X005341Y005659
T105
X013341Y002639
X015341Y002639
X011341Y002639
X030841Y002639
X014341Y002639
X013341Y017139
X011341Y017139
X012341Y017139
X025341Y020139
X028341Y020139
X026341Y020139
X024341Y020139
X029341Y020139
X027341Y020139
X008341Y020639
X006341Y020639
X017841Y002639
X019841Y002639
X009341Y020639
X007341Y020639
X035341Y020139
X033341Y020139
X031341Y020139
X018841Y002639
X034341Y020139
X032341Y020139
X030341Y020139
X010341Y020639
X011341Y020639
X003341Y002639
X005341Y002639
X022841Y002639
X021841Y002639
X023841Y002639
X025841Y002639
X027841Y002639
X009341Y002639
X024841Y002639
X026841Y002639
X028841Y002639
X029841Y002639
X010341Y002639
T106
X033841Y013639
X023841Y004639
X029841Y013639
X011341Y006639
X027841Y013639
X030841Y013639
X026841Y013639
X001341Y017139
X023841Y013639
X032841Y004639
X028841Y004639
X031841Y004639
X025841Y004639
X024841Y004639
X013341Y006639
X022843Y004643
X012341Y006639
X032841Y013639
X028841Y013639
X003341Y017139
X021843Y004643
X031841Y013639
X002341Y017139
X025841Y013639
X024841Y013639
X033841Y004639
X029841Y004639
X022841Y013639
X027841Y004639
X021841Y013639
X030841Y004639
X026841Y004639
T00
M30
