G04 MADE WITH FRITZING*
G04 WWW.FRITZING.ORG*
G04 DOUBLE SIDED*
G04 HOLES PLATED*
G04 CONTOUR ON CENTER OF CONTOUR VECTOR*
%ASAXBY*%
%FSLAX23Y23*%
%MOIN*%
%OFA0B0*%
%SFA1.0B1.0*%
%ADD10C,0.075433*%
%ADD11C,0.078000*%
%ADD12C,0.075000*%
%ADD13C,0.082000*%
%ADD14C,0.079370*%
%ADD15C,0.099055*%
%ADD16C,0.074000*%
%ADD17R,0.078000X0.078000*%
%ADD18R,0.075000X0.075000*%
%ADD19R,0.082000X0.082000*%
%ADD20R,0.079370X0.079370*%
%ADD21R,0.099055X0.099055*%
%ADD22R,0.001000X0.001000*%
%LNCOPPER1*%
G90*
G70*
G54D10*
X121Y134D03*
X171Y2234D03*
X3721Y2234D03*
X3771Y134D03*
G54D11*
X371Y1734D03*
X271Y1734D03*
X171Y1734D03*
X2121Y484D03*
X2121Y1384D03*
X2221Y484D03*
X2221Y1384D03*
X2321Y484D03*
X2321Y1384D03*
X2421Y484D03*
X2421Y1384D03*
X2521Y484D03*
X2521Y1384D03*
X2621Y484D03*
X2621Y1384D03*
X2721Y484D03*
X2721Y1384D03*
X2821Y484D03*
X2821Y1384D03*
X2921Y484D03*
X2921Y1384D03*
X3021Y484D03*
X3021Y1384D03*
X3121Y484D03*
X3121Y1384D03*
X3221Y484D03*
X3221Y1384D03*
X3321Y484D03*
X3321Y1384D03*
G54D12*
X271Y1984D03*
X271Y2084D03*
G54D13*
X471Y884D03*
X471Y586D03*
X271Y584D03*
X271Y1184D03*
X621Y1184D03*
X921Y1184D03*
G54D12*
X1471Y2134D03*
X1471Y1734D03*
X3621Y1934D03*
X3621Y1534D03*
X1671Y1834D03*
X1671Y1434D03*
X1471Y1334D03*
X1471Y934D03*
G54D14*
X3021Y284D03*
X2921Y284D03*
X2821Y284D03*
X2721Y284D03*
X2621Y284D03*
X2521Y284D03*
X2421Y284D03*
X2321Y284D03*
G54D15*
X3621Y284D03*
X3521Y284D03*
X3421Y284D03*
X3321Y284D03*
X3221Y284D03*
G54D14*
X2071Y284D03*
X1971Y284D03*
X1871Y284D03*
X1071Y284D03*
X971Y284D03*
X871Y284D03*
X1571Y284D03*
X1471Y284D03*
X1371Y284D03*
X2371Y2084D03*
X2471Y2084D03*
X2571Y2084D03*
X2671Y2084D03*
X2771Y2084D03*
X2871Y2084D03*
X2971Y2084D03*
X3071Y2084D03*
X3171Y2084D03*
X3271Y2084D03*
X3371Y2084D03*
X3471Y2084D03*
G54D15*
X1821Y2084D03*
X1921Y2084D03*
X2021Y2084D03*
X2121Y2084D03*
G54D14*
X471Y284D03*
X271Y284D03*
G54D16*
X271Y1534D03*
X271Y1334D03*
X271Y1534D03*
X271Y1334D03*
X1071Y1784D03*
X1171Y1784D03*
X1271Y1784D03*
X1071Y1784D03*
X1171Y1784D03*
X1271Y1784D03*
G54D14*
X521Y2084D03*
X621Y2084D03*
X721Y2084D03*
X821Y2084D03*
G54D11*
X1121Y684D03*
X1221Y684D03*
X1321Y684D03*
G54D17*
X371Y1734D03*
X2122Y485D03*
G54D18*
X271Y1984D03*
G54D19*
X471Y885D03*
X621Y1184D03*
G54D20*
X3021Y284D03*
G54D21*
X3621Y284D03*
G54D20*
X2071Y284D03*
X1071Y284D03*
X1571Y284D03*
X2371Y2084D03*
G54D21*
X1821Y2084D03*
G54D20*
X471Y284D03*
X521Y2084D03*
G54D22*
X1034Y1821D02*
X1107Y1821D01*
X1034Y1820D02*
X1107Y1820D01*
X1034Y1819D02*
X1107Y1819D01*
X1034Y1818D02*
X1107Y1818D01*
X1034Y1817D02*
X1107Y1817D01*
X1034Y1816D02*
X1107Y1816D01*
X1034Y1815D02*
X1107Y1815D01*
X1034Y1814D02*
X1107Y1814D01*
X1034Y1813D02*
X1107Y1813D01*
X1034Y1812D02*
X1107Y1812D01*
X1034Y1811D02*
X1107Y1811D01*
X1034Y1810D02*
X1107Y1810D01*
X1034Y1809D02*
X1107Y1809D01*
X1034Y1808D02*
X1107Y1808D01*
X1034Y1807D02*
X1107Y1807D01*
X1034Y1806D02*
X1107Y1806D01*
X1034Y1805D02*
X1107Y1805D01*
X1034Y1804D02*
X1107Y1804D01*
X1034Y1803D02*
X1064Y1803D01*
X1077Y1803D02*
X1107Y1803D01*
X1034Y1802D02*
X1062Y1802D01*
X1079Y1802D02*
X1107Y1802D01*
X1034Y1801D02*
X1060Y1801D01*
X1081Y1801D02*
X1107Y1801D01*
X1034Y1800D02*
X1058Y1800D01*
X1083Y1800D02*
X1107Y1800D01*
X1034Y1799D02*
X1057Y1799D01*
X1084Y1799D02*
X1107Y1799D01*
X1034Y1798D02*
X1056Y1798D01*
X1085Y1798D02*
X1107Y1798D01*
X1034Y1797D02*
X1055Y1797D01*
X1086Y1797D02*
X1107Y1797D01*
X1034Y1796D02*
X1054Y1796D01*
X1087Y1796D02*
X1107Y1796D01*
X1034Y1795D02*
X1054Y1795D01*
X1088Y1795D02*
X1107Y1795D01*
X1034Y1794D02*
X1053Y1794D01*
X1088Y1794D02*
X1107Y1794D01*
X1034Y1793D02*
X1053Y1793D01*
X1089Y1793D02*
X1107Y1793D01*
X1034Y1792D02*
X1052Y1792D01*
X1089Y1792D02*
X1107Y1792D01*
X1034Y1791D02*
X1052Y1791D01*
X1089Y1791D02*
X1107Y1791D01*
X1034Y1790D02*
X1051Y1790D01*
X1090Y1790D02*
X1107Y1790D01*
X1034Y1789D02*
X1051Y1789D01*
X1090Y1789D02*
X1107Y1789D01*
X1034Y1788D02*
X1051Y1788D01*
X1090Y1788D02*
X1107Y1788D01*
X1034Y1787D02*
X1051Y1787D01*
X1090Y1787D02*
X1107Y1787D01*
X1034Y1786D02*
X1051Y1786D01*
X1091Y1786D02*
X1107Y1786D01*
X1034Y1785D02*
X1050Y1785D01*
X1091Y1785D02*
X1107Y1785D01*
X1034Y1784D02*
X1050Y1784D01*
X1091Y1784D02*
X1107Y1784D01*
X1034Y1783D02*
X1051Y1783D01*
X1091Y1783D02*
X1107Y1783D01*
X1034Y1782D02*
X1051Y1782D01*
X1091Y1782D02*
X1107Y1782D01*
X1034Y1781D02*
X1051Y1781D01*
X1090Y1781D02*
X1107Y1781D01*
X1034Y1780D02*
X1051Y1780D01*
X1090Y1780D02*
X1107Y1780D01*
X1034Y1779D02*
X1051Y1779D01*
X1090Y1779D02*
X1107Y1779D01*
X1034Y1778D02*
X1051Y1778D01*
X1090Y1778D02*
X1107Y1778D01*
X1034Y1777D02*
X1052Y1777D01*
X1089Y1777D02*
X1107Y1777D01*
X1034Y1776D02*
X1052Y1776D01*
X1089Y1776D02*
X1107Y1776D01*
X1034Y1775D02*
X1053Y1775D01*
X1088Y1775D02*
X1107Y1775D01*
X1034Y1774D02*
X1053Y1774D01*
X1088Y1774D02*
X1107Y1774D01*
X1034Y1773D02*
X1054Y1773D01*
X1087Y1773D02*
X1107Y1773D01*
X1034Y1772D02*
X1055Y1772D01*
X1086Y1772D02*
X1107Y1772D01*
X1034Y1771D02*
X1056Y1771D01*
X1086Y1771D02*
X1107Y1771D01*
X1034Y1770D02*
X1057Y1770D01*
X1085Y1770D02*
X1107Y1770D01*
X1034Y1769D02*
X1058Y1769D01*
X1083Y1769D02*
X1107Y1769D01*
X1034Y1768D02*
X1059Y1768D01*
X1082Y1768D02*
X1107Y1768D01*
X1034Y1767D02*
X1061Y1767D01*
X1080Y1767D02*
X1107Y1767D01*
X1034Y1766D02*
X1063Y1766D01*
X1078Y1766D02*
X1107Y1766D01*
X1034Y1765D02*
X1066Y1765D01*
X1075Y1765D02*
X1107Y1765D01*
X1034Y1764D02*
X1107Y1764D01*
X1034Y1763D02*
X1107Y1763D01*
X1034Y1762D02*
X1107Y1762D01*
X1034Y1761D02*
X1107Y1761D01*
X1034Y1760D02*
X1107Y1760D01*
X1034Y1759D02*
X1107Y1759D01*
X1034Y1758D02*
X1107Y1758D01*
X1034Y1757D02*
X1107Y1757D01*
X1034Y1756D02*
X1107Y1756D01*
X1034Y1755D02*
X1107Y1755D01*
X1034Y1754D02*
X1107Y1754D01*
X1034Y1753D02*
X1107Y1753D01*
X1034Y1752D02*
X1107Y1752D01*
X1034Y1751D02*
X1107Y1751D01*
X1034Y1750D02*
X1107Y1750D01*
X1034Y1749D02*
X1107Y1749D01*
X1034Y1748D02*
X1107Y1748D01*
D02*
G04 End of Copper1*
M02*