; NON-PLATED HOLES START AT T1
; THROUGH (PLATED) HOLES START AT T100
M48
INCH
T1C0.086614
T100C0.059055
T101C0.035433
T102C0.031496
T103C0.042000
T104C0.039370
T105C0.038000
T106C0.035000
%
T1
X001711Y022338
X037211Y022338
X001211Y001338
X037711Y001338
T100
X032211Y002838
X033211Y002838
X018211Y020838
X020211Y020838
X034211Y002838
X021211Y020838
X035211Y002838
X019211Y020838
X036211Y002838
T101
X001711Y022338
X037211Y022338
X001211Y001338
X037711Y001338
T102
X002711Y015338
X002711Y013338
T103
X002711Y005838
X004711Y008838
X002711Y011838
X009211Y011838
X006211Y011838
X004711Y005858
T104
X024211Y002838
X002711Y002838
X004711Y002838
X008711Y002838
X023211Y002838
X025211Y002838
X027211Y002838
X029211Y002838
X011711Y017838
X009711Y002838
X026211Y002838
X028211Y002838
X012711Y017838
X010711Y017838
X006211Y020838
X007211Y020838
X005211Y020838
X030211Y002838
X028711Y020838
X026711Y020838
X024711Y020838
X014711Y002838
X010711Y002838
X018711Y002838
X008211Y020838
X029711Y020838
X027711Y020838
X025711Y020838
X023711Y020838
X013711Y002838
X015711Y002838
X019711Y002838
X031711Y020838
X034711Y020838
X032711Y020838
X030711Y020838
X020711Y002838
X033711Y020838
T105
X030211Y004838
X026211Y004838
X024211Y004838
X033211Y013838
X023211Y004838
X012211Y006838
X022214Y004842
X027211Y013838
X011211Y006838
X030211Y013838
X021214Y004842
X026211Y013838
X024211Y013838
X002711Y017338
X029211Y004838
X023211Y013838
X032211Y004838
X028211Y004838
X031211Y004838
X025211Y004838
X029211Y013838
X013211Y006838
X032211Y013838
X028211Y013838
X031211Y013838
X025211Y013838
X003711Y017338
X033211Y004838
X001711Y017338
X022211Y013838
X027211Y004838
X021211Y013838
T106
X014711Y017338
X014711Y021338
X036211Y015338
X014711Y009338
X002711Y020838
X014711Y013338
X016711Y018338
X036211Y019338
X002711Y019838
X016711Y014338
T00
M30
